<svg width="30" height="30" viewBox="0 0 30 30" fill="none" xmlns="http://www.w3.org/2000/svg">
<g id="Left">
<path id="Vector" fill-rule="evenodd" clip-rule="evenodd" d="M19.6179 23.3677C19.7392 23.2466 19.8354 23.1028 19.901 22.9445C19.9666 22.7862 20.0004 22.6165 20.0004 22.4452C20.0004 22.2738 19.9666 22.1041 19.901 21.9458C19.8354 21.7875 19.7392 21.6437 19.6179 21.5227L13.0879 15.0002L19.6179 8.47765C19.7392 8.35657 19.8354 8.21277 19.901 8.05448C19.9666 7.89619 20.0004 7.72651 20.0004 7.55515C20.0004 7.3838 19.9666 7.21412 19.901 7.05583C19.8354 6.89754 19.7392 6.75374 19.6179 6.63265C19.3728 6.38794 19.0406 6.25049 18.6942 6.25049C18.3478 6.25049 18.0156 6.38794 17.7704 6.63265L10.3829 14.0127C10.2537 14.1413 10.1529 14.2957 10.0872 14.4658C10.0216 14.636 9.99241 14.818 10.0017 15.0002C9.99241 15.1823 10.0216 15.3643 10.0872 15.5345C10.1529 15.7046 10.2537 15.859 10.3829 15.9877L17.7704 23.3677C18.2804 23.8777 19.1079 23.8777 19.6179 23.3677Z" fill="#595959"/>
</g>
</svg>
