<svg width="232" height="232" viewBox="0 0 232 232" fill="none" xmlns="http://www.w3.org/2000/svg">
<g id="The guy is sitting on a startup rocket">
<path id="Vector" d="M64.4684 156.259C67.5253 162.837 65.3964 169.251 58.5728 172.226C59.5281 170.343 59.6373 168.76 58.491 167.613C53.6053 172.335 47.9827 174.764 41.9507 175.911C43.7248 173.263 45.0895 170.67 44.107 168.541C38.539 172.99 31.0604 174.655 23.4453 176.102C27.0754 174.464 29.7775 172.717 31.4971 170.807C30.2688 170.807 28.7131 171.38 26.6933 172.908C30.1324 168.787 34.9361 164.42 41.978 161.608C40.9408 160.653 39.2213 160.872 36.9559 161.991C39.6307 158.442 43.9978 155.304 50.794 152.738C49.2928 151.428 47.5733 150.964 45.6627 151.046C55.0792 146.952 60.7291 149.135 64.4684 156.259Z" fill="#FDC739"/>
<path id="Vector_2" d="M64.3591 155.986C66.4335 160.435 65.0142 164.775 60.4287 166.767C61.0838 165.484 61.1384 164.42 60.3742 163.655C57.0989 166.822 53.3323 168.459 49.2655 169.223C50.4664 167.422 51.3671 165.703 50.6847 164.256C46.9455 167.258 41.9233 168.377 36.8193 169.333C39.2485 168.241 41.0772 167.04 42.2236 165.757C41.4047 165.757 40.3676 166.139 39.0029 167.149C41.2956 164.365 44.5163 161.445 49.2382 159.534C48.5285 158.906 47.3822 159.015 45.881 159.78C47.6824 157.405 50.6029 155.276 55.161 153.557C54.1511 152.656 52.9775 152.356 51.7219 152.41C58.0269 149.681 61.8207 151.155 64.3591 155.986Z" fill="#BE952B"/>
<path id="Vector_3" d="M64.3593 155.986C65.7513 158.961 64.8233 161.881 61.7664 163.192C62.2031 162.345 62.2304 161.636 61.7118 161.09C59.5556 163.219 57.0445 164.283 54.3424 164.802C55.1339 163.601 55.7344 162.455 55.2704 161.472C52.7866 163.464 49.4567 164.201 46.0723 164.829C47.6826 164.092 48.8836 163.301 49.6478 162.455C49.1019 162.455 48.4196 162.7 47.5189 163.383C49.0473 161.527 51.1763 159.561 54.3151 158.306C53.8511 157.869 53.0869 157.951 52.077 158.47C53.2779 156.887 55.1885 155.467 58.2454 154.321C57.5631 153.721 56.7989 153.502 55.9527 153.529C60.1287 151.755 62.6671 152.738 64.3593 155.986Z" fill="#FDC739"/>
<path id="Vector_4" d="M65.5328 164.038L59.5826 150.254C59.3097 149.599 59.6099 148.835 60.2923 148.562L62.9398 147.416L69.8998 163.546L67.2523 164.693C66.5972 164.966 65.8057 164.665 65.5328 164.038Z" fill="#F17A5E"/>
<path id="Vector_5" d="M71.1283 164.747C70.4733 164.638 69.9547 164.256 69.709 163.737L62.5853 147.224C62.3396 146.679 62.4488 146.051 62.8309 145.478C70.0911 134.669 86.9316 127.436 102.871 125.225C103.472 125.143 104.072 125.062 104.646 125.007C114.499 123.861 123.833 124.679 130.165 127.818C128.091 134.587 122.25 141.957 114.662 148.371C114.198 148.753 113.734 149.135 113.27 149.517C100.742 159.561 83.9566 166.849 71.1283 164.747Z" fill="#FFA589"/>
<path id="Vector_6" d="M113.243 149.49C111.087 144.413 105.491 131.285 102.844 125.225C103.444 125.143 104.045 125.062 104.618 125.007C114.471 123.861 123.806 124.679 130.138 127.818C128.064 134.587 122.223 141.957 114.635 148.371C114.198 148.753 113.734 149.135 113.243 149.49Z" fill="#6865BF"/>
<path id="Vector_7" d="M109.804 136.825C109.777 136.825 109.749 136.825 109.722 136.825C109.449 136.116 109.504 136.198 109.804 136.825Z" fill="#1240B2"/>
<path id="Vector_8" d="M94.1915 150.582C89.6061 149.599 86.7948 145.177 87.8866 140.674C89.0057 136.17 93.5911 133.304 98.1765 134.287C102.762 135.27 105.573 139.691 104.481 144.195C103.39 148.698 98.7769 151.564 94.1915 150.582Z" fill="#BE952B"/>
<path id="Vector_9" d="M99.7878 148.125C96.5398 150.145 92.2819 149.244 90.2894 146.105C88.2969 142.967 89.3341 138.791 92.5821 136.771C95.8301 134.751 100.088 135.652 102.08 138.791C104.073 141.902 103.063 146.105 99.7878 148.125Z" fill="#FDC739"/>
<path id="Vector_10" opacity="0.4" d="M101.561 140.319C101.506 140.183 101.452 140.046 101.37 139.937C101.288 139.801 101.179 139.719 101.043 139.664C100.906 139.637 100.742 139.637 100.606 139.719C100.333 139.855 100.224 140.183 100.333 140.428L100.36 140.483C100.415 140.592 100.469 140.674 100.524 140.783C100.578 140.92 100.688 141.029 100.851 141.083C100.988 141.138 101.152 141.138 101.288 141.056C101.561 140.92 101.698 140.592 101.561 140.319Z" fill="white"/>
<path id="Vector_11" d="M67.7984 157.105C59.4464 160.817 52.268 162.973 51.804 161.909C51.34 160.871 57.7269 156.996 66.1062 153.284C74.4582 149.572 81.6365 147.415 82.1005 148.48C82.5645 149.544 76.1504 153.393 67.7984 157.105Z" fill="#F17A5E"/>
<path id="Vector_12" d="M87.7783 161.499C87.6691 166.904 87.0413 171.898 84.3938 175.474C79.3717 180.551 71.9477 181.26 64.1143 181.151C70.8286 176.375 74.6498 171.271 73.4761 165.621L87.7783 161.499Z" fill="#FCD1E8"/>
<path id="Vector_13" d="M76.5324 135.652C72.4929 132.049 68.3988 129.101 64.0044 128.61C56.8533 128.828 51.3126 133.768 46.0176 139.609C54.0966 137.944 60.4016 138.627 63.7588 143.321L76.5324 135.652Z" fill="#FCD1E8"/>
<path id="Vector_14" d="M93.1271 149.981L91.0801 153.666L92.7177 155.112H93.8095L96.2387 156.805H102.052C102.707 155.74 101.834 155.413 100.06 155.467L96.5935 151.346L93.1271 149.981Z" fill="black"/>
<path id="Vector_15" d="M116.764 101.889L116.518 100.661C115.153 99.1324 114.335 97.8495 114.799 97.1126C115.208 96.6213 115.536 97.4128 116.054 98.0679L119.166 97.3582H119.493C119.493 98.3954 119.166 99.2415 118.647 99.842L118.893 101.78L116.764 101.889Z" fill="#FCC0A9"/>
<path id="Vector_16" d="M109.312 96.7848L130.356 95.2563L130.465 97.0032L109.367 97.5763L109.312 96.7848Z" fill="#FFA589"/>
<path id="Vector_17" d="M109.599 96.3241L108.427 96.385L108.517 98.1296L109.69 98.0686L109.599 96.3241Z" fill="#B55C47"/>
<path id="Vector_18" d="M141.036 94.1386L130.351 94.6943L130.501 97.5838L141.186 97.0281L141.036 94.1386Z" fill="#F17A5E"/>
<path id="Vector_19" d="M141.759 93.7154L141.023 93.7537L141.212 97.3791L141.948 97.3408L141.759 93.7154Z" fill="#B55C47"/>
<path id="Vector_20" d="M115.536 96.2664C115.618 95.12 119.248 95.4203 119.439 95.9662C119.712 96.7304 119.467 97.0852 118.812 97.9313C118.293 98.5318 116.819 98.9139 116.055 98.3135C115.755 97.904 115.482 97.5219 115.536 96.2664Z" fill="#FCC0A9"/>
<path id="Vector_21" d="M119.658 102.462L119.74 101.67C118.402 101.125 117.065 101.152 115.673 101.67L115.591 102.653C116.956 102.489 118.266 102.244 119.658 102.462Z" fill="#6865BF"/>
<path id="Vector_22" d="M103.636 104.291C106.147 106.065 112.425 109.04 115.427 109.258C116.546 109.368 116.573 106.065 115.4 102.244C117.037 101.971 118.484 101.971 119.794 102.244C121.186 106.447 122.469 111.442 120.558 113.516C118.62 115.208 107.184 115.072 102.162 112.452L103.636 104.291Z" fill="#F67A44"/>
<path id="Vector_23" d="M103.008 102.926C102.244 101.616 101.261 100.852 99.9784 100.797C99.8965 100.797 99.7873 100.797 99.7055 100.797C99.569 100.797 99.4325 100.797 99.2688 100.797C94.4104 101.043 89.6885 107.047 85.0758 117.556C84.3662 119.494 82.128 122.141 77.8975 125.717C78.6344 128.501 80.9544 130.193 84.0932 131.285C84.3389 131.367 84.5845 131.448 84.8302 131.53C88.897 132.759 94.1921 133.141 99.3506 133.632L92.0904 150.09C93.9737 151.673 96.2118 152.492 98.6956 152.765C102.189 145.396 105.519 138.026 108.057 130.575C108.685 127.655 102.08 126.153 96.0208 124.188C95.7478 124.106 95.4476 123.997 95.1746 123.915C95.1746 123.915 95.1473 123.915 95.1473 123.888C95.5022 123.506 95.857 123.124 96.1845 122.714C96.2664 122.605 96.3756 122.496 96.4575 122.387C97.3582 121.268 98.2043 120.067 98.9958 118.784C99.1596 118.511 103.035 112.452 102.981 112.37C103.827 110.951 104.1 109.559 104.182 108.167C104.291 106.038 103.499 104.127 103.008 102.926Z" fill="#F67A44"/>
<path id="Vector_24" d="M107.921 95.9115C107.921 95.9115 109.149 96.0752 109.913 95.2291C111.906 93.0456 109.231 92.9364 109.231 92.9364C109.231 92.9364 110.268 89.4428 106.419 89.6884C102.407 89.9613 101.861 92.1176 101.861 92.1176C101.861 92.1176 99.6505 93.182 99.2956 94.574C98.9135 96.0479 99.3502 95.6658 100.333 97.1397C101.261 98.5317 101.206 99.3505 101.206 99.3505L107.921 95.9115Z" fill="#0A0A0C"/>
<path id="Vector_25" d="M107.785 97.9039C107.348 99.7326 106.829 102.462 104.564 101.452L104.236 102.462L104.154 102.762L103.39 104.782L99.9238 101.234L100.388 100.551L101.261 99.3232L103.308 98.0676C103.308 98.0676 102.162 97.9312 102.626 96.5938C103.008 95.502 104.4 95.2291 104.291 96.2935C104.264 96.8121 104.236 97.1124 104.045 97.7401C104.045 97.7401 105.41 97.0851 105.765 95.4747L107.976 94.7651C107.948 94.7378 108.194 96.0479 107.785 97.9039Z" fill="#FCC0A9"/>
<path id="Vector_26" d="M104.564 101.452L104.237 102.462C102.954 101.452 102.735 100.197 102.735 100.197C103.745 101.152 104.564 101.452 104.564 101.452Z" fill="#FC9A73"/>
<path id="Vector_27" d="M102.899 111.142C102.79 111.469 101.726 113.68 101.589 113.98L101.726 111.142L100.606 109.886C101.152 108.849 101.07 107.047 100.934 105.164C100.907 104.127 100.279 102.653 99.542 101.043C99.6785 101.043 99.8149 101.043 99.9787 101.043L103.527 104.673C103.8 107.238 103.5 109.34 102.899 111.142Z" fill="#FCD1E8"/>
<path id="Vector_28" d="M103.417 105.137L102.244 106.365L102.735 106.938C102.244 108.876 102.735 109.149 101.015 111.524C99.7053 113.325 99.0775 114.008 97.1123 114.854C95.693 115.481 92.254 116 92.4178 117.474C92.4451 117.692 92.9636 118.92 93.3185 119.712C94.3829 119.33 95.8568 118.702 95.9933 118.511C97.4399 116.737 99.1321 116.027 99.9782 115.017C102.134 112.452 101.862 112.397 102.517 111.169C103.526 109.395 103.144 108.849 103.308 106.938L103.472 106.584L103.417 105.137Z" fill="#0A0A0C"/>
<path id="Vector_29" d="M121.241 111.742C121.678 112.315 121.841 112.807 121.787 113.216C121.787 113.817 121.023 114.171 119.931 114.444C119.248 114.581 117.911 113.762 116.71 113.107C116.246 112.779 117.038 110.869 117.42 110.814C119.658 110.459 122.66 110.35 124.298 110.869C125.117 111.142 124.434 111.442 121.241 111.742Z" fill="#FEBF94"/>
<path id="Vector_30" d="M116.082 110.159L117.556 110.296C118.129 110.514 117.692 113.762 116.737 113.626L115.454 113.434L116.082 110.159Z" fill="#6865BF"/>
<path id="Vector_31" d="M96.1295 114.226C92.7996 114.444 91.2439 106.829 96.921 107.43L116.218 109.859C116.546 111.387 116.273 112.752 115.426 114.008L96.1295 114.226Z" fill="#F67A44"/>
<path id="Vector_32" d="M50.1938 83.0286C54.52 83.0286 58.0272 79.5215 58.0272 75.1952C58.0272 70.869 54.52 67.3618 50.1938 67.3618C45.8675 67.3618 42.3604 70.869 42.3604 75.1952C42.3604 79.5215 45.8675 83.0286 50.1938 83.0286Z" fill="#6865BF"/>
<path id="Vector_33" d="M104.755 71.8381C107.619 71.8381 109.941 69.5163 109.941 66.6522C109.941 63.7881 107.619 61.4663 104.755 61.4663C101.891 61.4663 99.5693 63.7881 99.5693 66.6522C99.5693 69.5163 101.891 71.8381 104.755 71.8381Z" fill="#FCD1E8"/>
<path id="Vector_34" d="M135.297 50.4395L172.362 71.8107L142.202 82.3463L135.297 50.4395Z" fill="#F17A5E"/>
<path id="Vector_35" d="M182.27 102.872L125.717 148.043L129.238 152.41L185.764 107.239L182.27 102.872Z" fill="#6865BF"/>
<path id="Vector_36" d="M183.252 105.656L186.282 109.422L186.855 105.874L187.401 102.326L183.825 102.107L180.223 101.889L183.252 105.656Z" fill="#6865BF"/>
<path id="Vector_37" d="M156.7 135.94L143.429 146.615L146.525 150.464L159.796 139.789L156.7 135.94Z" fill="#6865BF"/>
<path id="Vector_38" d="M157.569 138.408L160.244 141.766L160.763 138.6L161.254 135.461L158.061 135.27L154.895 135.079L157.569 138.408Z" fill="#6865BF"/>
<path id="Vector_39" d="M164.065 181.522H175.092V146.422H164.065V181.522Z" fill="#FFA589"/>
<path id="Vector_40" d="M180.206 181.539H191.232V129.461H180.206V181.539Z" fill="#FDC739"/>
<path id="Vector_41" d="M146.306 181.523H157.333V166.729H146.306V181.523Z" fill="#FCD1E8"/>
<path id="Vector_42" d="M197.531 181.471H208.558V114.3H197.531V181.471Z" fill="#F17A5E"/>
</g>
</svg>
