<svg width="40" height="40" viewBox="0 0 40 40" fill="none" xmlns="http://www.w3.org/2000/svg">
<rect width="40" height="40" fill="#068987"/>
<path d="M16.4659 17.7657L19.4432 14.7559V22.7729C19.4432 22.9204 19.5017 23.0619 19.6059 23.1663C19.7101 23.2706 19.8513 23.3292 19.9987 23.3292C20.146 23.3292 20.2873 23.2706 20.3914 23.1663C20.4956 23.0619 20.5541 22.9204 20.5541 22.7729V14.7559L23.5314 17.7657C23.5833 17.8173 23.6449 17.8581 23.7125 17.8858C23.7802 17.9134 23.8527 17.9275 23.9258 17.9271C23.9989 17.9275 24.0714 17.9134 24.139 17.8858C24.2067 17.8581 24.2683 17.8173 24.3202 17.7657C24.4236 17.6615 24.4817 17.5205 24.4817 17.3735C24.4817 17.2265 24.4236 17.0855 24.3202 16.9813L21.1762 13.8045C20.8584 13.5024 20.4369 13.334 19.9987 13.334C19.5605 13.334 19.139 13.5024 18.8211 13.8045L15.6771 16.9534C15.5737 17.0577 15.5156 17.1987 15.5156 17.3457C15.5156 17.4927 15.5737 17.6337 15.6771 17.7379C15.7269 17.7919 15.7869 17.8355 15.8536 17.8662C15.9203 17.8968 15.9924 17.9139 16.0657 17.9165C16.1391 17.9191 16.2122 17.9071 16.2809 17.8812C16.3496 17.8553 16.4125 17.8161 16.4659 17.7657Z" fill="white"/>
<path d="M26.1077 22.2168C25.9604 22.2168 25.8191 22.2754 25.7149 22.3797C25.6108 22.4841 25.5522 22.6256 25.5522 22.7731V24.9985C25.5522 25.1461 25.4937 25.2876 25.3895 25.3919C25.2854 25.4963 25.1441 25.5549 24.9968 25.5549H14.9984C14.8511 25.5549 14.7098 25.4963 14.6057 25.3919C14.5015 25.2876 14.443 25.1461 14.443 24.9985V22.7731C14.443 22.6256 14.3844 22.4841 14.2803 22.3797C14.1761 22.2754 14.0348 22.2168 13.8875 22.2168C13.7402 22.2168 13.5989 22.2754 13.4947 22.3797C13.3906 22.4841 13.332 22.6256 13.332 22.7731V24.9985C13.332 25.4412 13.5076 25.8657 13.8201 26.1787C14.1326 26.4918 14.5565 26.6676 14.9984 26.6676H24.9968C25.4387 26.6676 25.8626 26.4918 26.1751 26.1787C26.4876 25.8657 26.6632 25.4412 26.6632 24.9985V22.7731C26.6632 22.6256 26.6046 22.4841 26.5005 22.3797C26.3963 22.2754 26.255 22.2168 26.1077 22.2168Z" fill="white"/>
</svg>
