<svg width="50" height="50" viewBox="0 0 50 50" fill="none" xmlns="http://www.w3.org/2000/svg">
<g id="Business Manager">
<path id="Vector" d="M48.906 27.4605C47.406 25.7183 44.8903 25.5855 44.8669 25.6089C44.7109 25.5867 44.5568 25.5527 44.406 25.5073C44.406 25.5073 44.3982 25.5073 44.3982 25.4995C43.9372 25.3511 43.7185 25.1167 43.7185 24.773C45.4919 23.1011 45.7419 20.4448 45.7497 20.3511C45.82 19.7495 45.8278 19.2026 45.7732 18.7261C45.4685 15.2417 42.5778 14.4292 41.1482 14.4761C41.07 14.4761 39.1482 14.4214 37.7732 15.7573C36.8747 16.6323 36.4294 17.8589 36.4372 19.4136C36.445 19.7026 36.4607 20.0151 36.4919 20.3198C36.5075 20.437 36.7497 23.1011 38.531 24.773C38.4997 24.9917 38.3747 25.2573 37.8357 25.4292C37.8278 25.4292 37.8278 25.437 37.8278 25.437H37.82C37.6872 25.4839 37.5466 25.5073 37.3903 25.5308C36.9528 25.562 34.3435 25.8042 33.0075 27.8276C32.406 27.7261 31.9763 27.6948 31.8357 27.687C31.4763 27.6323 31.156 27.562 30.8825 27.4683H30.8669C30.3357 27.2964 29.9138 26.7964 29.6091 25.9917L29.6013 25.9839C29.195 24.9292 29.1403 23.7261 29.1482 23.4058C29.156 23.3433 29.156 23.2808 29.1638 23.2261C32.4685 20.3198 32.9216 15.4214 32.9372 15.2183C33.0544 14.1948 33.07 13.2417 32.9919 12.4136V12.4058C32.9919 12.4058 32.9841 12.4058 32.9841 12.398V12.3433C32.3278 4.8667 25.0466 5.0542 25.0232 5.0542C24.8825 5.04639 21.5935 4.95264 19.2341 7.24952C17.7028 8.73389 16.9372 10.8589 16.9607 13.5464C16.9685 14.0698 16.9997 14.6323 17.0622 15.1948C17.0778 15.4058 17.5388 20.312 20.8435 23.2339C20.8435 23.2651 20.8513 23.3042 20.8513 23.3511C20.8278 24.4683 20.7341 25.9214 20.656 26.1792C20.6482 26.187 20.6482 26.187 20.6482 26.1948C20.3825 26.7105 19.8591 27.0933 19.0935 27.3355C19.0935 27.3355 19.0935 27.3433 19.0857 27.3433C18.8278 27.4292 18.531 27.4917 18.1638 27.5464C18.0153 27.5542 17.5544 27.5855 16.9216 27.7026C15.4763 25.648 12.7028 25.5151 12.6169 25.5151C12.445 25.4917 12.2966 25.4605 12.1716 25.4136H12.156C12.156 25.4136 12.156 25.4058 12.1482 25.4058C11.6872 25.2573 11.4763 25.023 11.4685 24.6792C13.2419 23.0073 13.4919 20.3511 13.4997 20.2495C13.57 19.6558 13.5778 19.1089 13.531 18.6323C13.2185 15.148 10.3513 14.3276 8.90597 14.3823C8.82003 14.3823 6.89816 14.3198 5.52316 15.6636C4.62472 16.5386 4.17941 17.7651 4.19503 19.3198C4.19503 19.6089 4.21066 19.9214 4.24972 20.2261C4.25753 20.3433 4.50753 23.0073 6.28097 24.6792C6.25753 24.898 6.12472 25.1636 5.58566 25.3355L5.57785 25.3433C5.45285 25.3823 5.31222 25.4136 5.15597 25.437C4.7966 25.4526 2.49972 25.648 1.09347 27.2886C0.218472 28.3042 -0.133091 29.6245 0.0465969 31.2183L0.312222 33.648C0.343472 33.9292 0.523159 34.1714 0.780972 34.273C0.921597 34.3276 3.93722 35.4995 8.72628 35.4995C8.88253 35.4995 9.0466 35.4917 9.21066 35.4917C9.16378 36.148 9.17941 36.8355 9.25753 37.5542L9.75753 42.0776C9.78097 42.3511 9.96847 42.5933 10.2263 42.6948C10.5622 42.8276 16.0232 44.9448 24.656 44.9448C28.9607 44.9448 34.0544 44.4136 39.695 42.8589C39.9919 42.7808 40.2107 42.523 40.2419 42.2105L40.7341 37.6948C40.82 36.9605 40.8357 36.2573 40.7888 35.5933H40.9763C43.6872 35.5933 46.4294 35.2183 49.1403 34.4761C49.4372 34.3901 49.656 34.1323 49.6872 33.8276L49.9528 31.3901C50.1325 29.7964 49.781 28.4683 48.906 27.4605ZM38.0075 20.1792C37.9763 19.9058 37.9607 19.6401 37.9528 19.398C37.945 18.2808 38.2341 17.4292 38.82 16.8511C39.7263 15.9683 41.0857 15.9917 41.1482 15.9917C41.445 15.9839 44.0153 15.9995 44.2653 18.8745C44.3044 19.2495 44.3044 19.687 44.2419 20.1948C44.2419 20.2183 44.0075 22.7651 42.3357 23.9605C42.3122 23.9761 42.2888 23.9917 42.2732 23.9995C42.2341 24.0308 42.195 24.0542 42.156 24.0776C41.5075 24.4839 40.7341 24.4839 40.0857 24.0855C40.0466 24.0542 40.0075 24.0308 39.9685 23.9995C39.9528 23.9839 39.9294 23.9761 39.906 23.9605C39.8513 23.9214 39.8044 23.8823 39.7575 23.8433H39.7497C38.2341 22.6089 38.0075 20.2183 38.0075 20.1792ZM29.5857 28.4917L27.8044 31.562L26.0778 29.8042L28.6638 27.4839C28.9294 27.898 29.2419 28.2417 29.5857 28.4917ZM25.0075 30.8745L26.0778 31.9683L25.0622 33.0933C25.0388 33.1167 25.0232 33.1401 24.9997 33.1714C24.9841 33.1401 24.9607 33.1167 24.945 33.0933L23.9841 32.0386L25.0075 30.8745ZM22.1716 26.2495C22.2653 25.7105 22.3122 24.9526 22.3357 24.2651C23.1794 24.7026 24.0857 24.937 24.9997 24.937C25.9138 24.937 26.8278 24.7026 27.6716 24.2573C27.7263 24.773 27.8278 25.4058 28.0232 26.0308L24.9763 28.7495L22.1716 26.2495ZM24.9997 34.3667L26.1872 40.3355L24.9997 41.2417L23.8122 40.3355L24.9997 34.3667ZM20.281 8.34327C22.1638 6.49952 24.945 6.56202 25.0232 6.56983C25.2575 6.56202 30.4528 6.44483 31.3669 11.7573C27.7263 12.0073 22.9607 9.51514 22.906 9.4917C22.7835 9.42411 22.6443 9.39263 22.5047 9.40093C22.365 9.40923 22.2305 9.45696 22.1169 9.53858L18.57 12.0151C18.781 10.4839 19.3513 9.24952 20.281 8.34327ZM18.57 15.0542C18.531 14.6558 18.5075 14.2886 18.4919 13.9214L22.6169 11.0386C23.9294 11.6792 28.0388 13.5073 31.5075 13.2573C31.5232 13.8198 31.5075 14.4058 31.4294 15.0698C31.4216 15.1167 30.9528 20.1714 27.5935 22.5464C27.5622 22.562 27.5388 22.5776 27.5075 22.6011C27.4294 22.6636 27.3435 22.7183 27.2575 22.773C25.8435 23.648 24.156 23.648 22.7341 22.773C22.6482 22.7183 22.5622 22.6636 22.4841 22.6011C22.4573 22.5801 22.4285 22.5618 22.3982 22.5464C22.281 22.4605 22.1638 22.3745 22.0544 22.2808H22.0466C19.0153 19.812 18.5778 15.1167 18.57 15.0542ZM21.4607 27.648L23.906 29.8276L22.3982 31.5464L20.4372 28.4136C20.8357 28.2026 21.1794 27.9448 21.4607 27.648ZM6.06222 21.4683C5.81222 20.7105 5.75753 20.1011 5.75753 20.0855C5.72628 19.8042 5.71066 19.5464 5.70285 19.2964C5.69503 18.187 5.99191 17.3276 6.57003 16.7573C7.47628 15.8667 8.84347 15.898 8.90597 15.898C9.02316 15.8901 11.7575 15.8276 12.0232 18.773C12.0622 19.1558 12.0544 19.5933 11.9919 20.1011C11.9919 20.1245 11.7497 22.6792 10.0857 23.8667C10.0622 23.8823 10.0388 23.898 10.0232 23.9058C9.9841 23.937 9.94503 23.9605 9.90597 23.9839C9.25753 24.3901 8.4841 24.3901 7.84347 23.9917C7.7966 23.9605 7.75753 23.937 7.71847 23.9058C7.70285 23.8901 7.67941 23.8823 7.66378 23.8667C7.6091 23.8276 7.55441 23.7886 7.50753 23.7495C6.74191 23.1323 6.30441 22.2261 6.06222 21.4683ZM9.43722 33.9761C5.57785 34.0776 2.78097 33.3276 1.76535 33.0073L1.55441 31.0542C1.4216 29.898 1.64816 28.9683 2.2341 28.2886C3.2966 27.0386 5.24191 26.9448 5.25753 26.9448C5.28097 26.9448 5.31222 26.9448 5.33566 26.937C5.58566 26.9058 5.82785 26.8511 6.0466 26.7808C6.0466 26.7808 6.05441 26.773 6.06222 26.773C6.92941 26.4917 7.3591 26.0073 7.57785 25.5386C7.99972 25.7105 8.43722 25.7964 8.87472 25.7964C9.30441 25.7964 9.72628 25.7105 10.1403 25.5542C10.3982 26.148 10.9372 26.6089 11.6872 26.8511H11.7028C11.9216 26.9292 12.156 26.9839 12.4919 27.023C12.5075 27.023 14.1716 27.1089 15.2653 28.1089C13.8825 28.5542 12.2732 29.3511 11.0466 30.7651C10.2575 31.687 9.72628 32.7573 9.43722 33.9761ZM39.2341 37.5308L38.7966 41.5308C24.3357 45.3823 13.445 42.1948 11.2107 41.437L10.7653 37.3901C10.5075 35.0542 10.9841 33.1636 12.1872 31.7651C13.4841 30.2573 15.3825 29.5933 16.7107 29.2964C16.7263 29.2886 16.7341 29.2886 16.7497 29.2886C17.6247 29.0933 18.2497 29.062 18.2653 29.062C18.2888 29.062 18.32 29.0542 18.3435 29.0542C18.57 29.023 18.781 28.9839 18.9763 28.937L21.656 33.2105C21.781 33.4136 21.9919 33.5464 22.2341 33.562H22.2966C22.5153 33.562 22.7185 33.4761 22.8669 33.312L22.9763 33.1792L23.5622 33.8276L22.2341 40.5073C22.1794 40.7886 22.2888 41.0776 22.5153 41.2573L24.5388 42.7964C24.6794 42.898 24.8435 42.9526 24.9997 42.9526C25.1638 42.9526 25.3278 42.898 25.4607 42.7964L27.4763 41.2573C27.7107 41.0776 27.82 40.7886 27.7653 40.5073L26.4372 33.8276L27.1403 33.0542L27.4216 33.3355C27.5622 33.4839 27.7575 33.562 27.9607 33.562C27.9919 33.562 28.0232 33.562 28.0544 33.5542C28.2888 33.5308 28.4997 33.3901 28.6169 33.187L31.0075 29.0776C31.2107 29.1167 31.4294 29.1636 31.656 29.1948H31.7341C31.7732 29.2026 35.6169 29.3667 37.8044 31.898C39.0075 33.2964 39.4919 35.1948 39.2341 37.5308ZM48.4528 31.2261L48.2419 33.148C45.6794 33.8042 43.1013 34.1011 40.5544 34.062C40.2575 32.8667 39.7263 31.812 38.9528 30.9058C37.695 29.4526 36.0466 28.6558 34.6403 28.2183C35.7341 27.1401 37.4841 27.0464 37.4997 27.0464C37.5388 27.0464 37.57 27.0386 37.6013 27.0386C37.82 26.9995 38.0544 26.9526 38.2732 26.8745H38.2888C38.2966 26.8745 38.3044 26.8745 38.3044 26.8667H38.32C39.1794 26.5855 39.6091 26.0933 39.8278 25.6323C40.2419 25.8042 40.6794 25.898 41.1247 25.898C41.5544 25.898 41.9763 25.8042 42.3825 25.648C42.6482 26.2339 43.1794 26.6948 43.9216 26.937C43.9294 26.9448 43.9372 26.9526 43.945 26.9526C44.1716 27.023 44.4138 27.0698 44.7419 27.1167C44.7653 27.1167 46.7028 27.2183 47.7575 28.4526C48.3435 29.1323 48.5778 30.062 48.4528 31.2261Z" fill="#2A2F63"/>
<path id="Vector_2" d="M29.5859 28.4922L27.8047 31.5625L26.0781 29.8047L28.6641 27.4844C28.9297 27.8984 29.2422 28.2422 29.5859 28.4922ZM23.9063 29.8281L22.3984 31.5469L20.4375 28.4141C20.8359 28.2031 21.1797 27.9453 21.4609 27.6484L23.9063 29.8281ZM26.0781 31.9687L25.0625 33.0938C25.0391 33.1172 25.0234 33.1406 25 33.1719C24.9844 33.1406 24.9609 33.1172 24.9453 33.0938L23.9844 32.0391L25.0078 30.875L26.0781 31.9687ZM26.1875 40.3359L25 41.2422L23.8125 40.3359L25 34.3672L26.1875 40.3359Z" fill="#D6E9F2"/>
<path id="Vector_3" d="M39.2339 37.5312L38.7964 41.5312C24.3355 45.3828 13.4449 42.1953 11.2105 41.4375L10.7652 37.3906C10.5074 35.0547 10.9839 33.1641 12.1871 31.7656C13.4839 30.2578 15.3824 29.5937 16.7105 29.2969C16.7261 29.2891 16.7339 29.2891 16.7496 29.2891C17.6246 29.0938 18.2496 29.0625 18.2652 29.0625C18.2886 29.0625 18.3199 29.0547 18.3433 29.0547C18.5699 29.0234 18.7808 28.9844 18.9761 28.9375L21.6558 33.2109C21.7808 33.4141 21.9918 33.5469 22.2339 33.5625H22.2964C22.5152 33.5625 22.7183 33.4766 22.8668 33.3125L22.9761 33.1797L23.5621 33.8281L22.2339 40.5078C22.1793 40.7891 22.2886 41.0781 22.5152 41.2578L24.5386 42.7969C24.6793 42.8984 24.8433 42.9531 24.9996 42.9531C25.1636 42.9531 25.3277 42.8984 25.4605 42.7969L27.4761 41.2578C27.7105 41.0781 27.8199 40.7891 27.7652 40.5078L26.4371 33.8281L27.1402 33.0547L27.4214 33.3359C27.5621 33.4844 27.7574 33.5625 27.9605 33.5625C27.9918 33.5625 28.023 33.5625 28.0543 33.5547C28.2886 33.5312 28.4996 33.3906 28.6168 33.1875L31.0074 29.0781C31.2105 29.1172 31.4293 29.1641 31.6558 29.1953H31.7339C31.773 29.2031 35.6168 29.3672 37.8043 31.8984C39.0074 33.2969 39.4918 35.1953 39.2339 37.5312Z" fill="#F16E61"/>
<path id="Vector_4" d="M28.0234 26.0313L24.9766 28.75L22.1719 26.25C22.2656 25.7109 22.3125 24.9531 22.3359 24.2656C23.1797 24.7031 24.0859 24.9375 25 24.9375C25.9141 24.9375 26.8281 24.7031 27.6719 24.2578C27.7266 24.7734 27.8281 25.4063 28.0234 26.0313Z" fill="#FFE4AA"/>
<path id="Vector_5" d="M31.3672 11.7579C27.7266 12.0079 22.9609 9.5157 22.9062 9.49226C22.7838 9.42467 22.6446 9.39319 22.5049 9.40149C22.3653 9.40979 22.2308 9.45751 22.1172 9.53914L18.5703 12.0157C18.7813 10.4844 19.3516 9.25007 20.2812 8.34382C22.1641 6.50007 24.9453 6.56257 25.0234 6.57039C25.2578 6.56257 30.4531 6.44539 31.3672 11.7579Z" fill="#4EBCE5"/>
<path id="Vector_6" d="M15.2653 28.1094C13.8825 28.5547 12.2731 29.3516 11.0466 30.7656C10.2575 31.6875 9.72626 32.7578 9.4372 33.9766C5.57783 34.0781 2.78095 33.3281 1.76533 33.0078L1.55439 31.0547C1.42158 29.8984 1.64814 28.9688 2.23408 28.2891C3.29658 27.0391 5.24189 26.9453 5.25752 26.9453C5.28095 26.9453 5.3122 26.9453 5.33564 26.9375C5.58564 26.9063 5.82783 26.8516 6.04658 26.7813C6.04658 26.7813 6.05439 26.7734 6.0622 26.7734C6.92939 26.4922 7.35908 26.0078 7.57783 25.5391C7.9997 25.7109 8.4372 25.7969 8.8747 25.7969C9.30439 25.7969 9.72626 25.7109 10.1403 25.5547C10.3981 26.1484 10.9372 26.6094 11.6872 26.8516H11.7028C11.9216 26.9297 12.156 26.9844 12.4919 27.0234C12.5075 27.0234 14.1716 27.1094 15.2653 28.1094Z" fill="#53BE9E"/>
<path id="Vector_7" d="M48.4531 31.2266L48.2422 33.1484C45.6797 33.8047 43.1016 34.1016 40.5547 34.0625C40.2578 32.8672 39.7266 31.8125 38.9531 30.9062C37.6953 29.4531 36.0469 28.6562 34.6406 28.2187C35.7344 27.1406 37.4844 27.0469 37.5 27.0469C37.5391 27.0469 37.5703 27.0391 37.6016 27.0391C37.8203 27 38.0547 26.9531 38.2734 26.875H38.2891C38.2969 26.875 38.3047 26.875 38.3047 26.8672H38.3203C39.1797 26.5859 39.6094 26.0937 39.8281 25.6328C40.2422 25.8047 40.6797 25.8984 41.125 25.8984C41.5547 25.8984 41.9766 25.8047 42.3828 25.6484C42.6484 26.2344 43.1797 26.6953 43.9219 26.9375C43.9297 26.9453 43.9375 26.9531 43.9453 26.9531C44.1719 27.0234 44.4141 27.0703 44.7422 27.1172C44.7656 27.1172 46.7031 27.2187 47.7578 28.4531C48.3438 29.1328 48.5781 30.0625 48.4531 31.2266Z" fill="#4EBCE5"/>
<path id="Vector_8" d="M11.9923 20.1016C11.9923 20.125 11.7501 22.6797 10.0861 23.8672C10.0626 23.8828 10.0392 23.8984 10.0236 23.9063C9.98452 23.9375 9.94546 23.9609 9.9064 23.9844C9.25796 24.3906 8.48453 24.3906 7.8439 23.9922C7.79703 23.9609 7.75796 23.9375 7.7189 23.9063C7.70328 23.8906 7.67984 23.8828 7.66421 23.8672C7.60953 23.8281 7.55484 23.7891 7.50796 23.75C6.74234 23.1328 6.30484 22.2266 6.06265 21.4688C5.81265 20.7109 5.75796 20.1016 5.75796 20.0859C5.72671 19.8047 5.71109 19.5469 5.70328 19.2969C5.69546 18.1875 5.99234 17.3281 6.57046 16.7578C7.47671 15.8672 8.8439 15.8984 8.9064 15.8984C9.02359 15.8906 11.758 15.8281 12.0236 18.7734C12.0627 19.1562 12.0548 19.5938 11.9923 20.1016ZM31.508 13.2578C31.5236 13.8203 31.508 14.4063 31.4298 15.0703C31.422 15.1172 30.9533 20.1719 27.5939 22.5469C27.5626 22.5625 27.5392 22.5781 27.508 22.6016C27.4298 22.6641 27.3439 22.7188 27.258 22.7734C25.8439 23.6484 24.1564 23.6484 22.7345 22.7734C22.6486 22.7188 22.5627 22.6641 22.4845 22.6016C22.4577 22.5806 22.4289 22.5623 22.3986 22.5469C22.2814 22.4609 22.1642 22.375 22.0548 22.2812H22.047C19.0158 19.8125 18.5783 15.1172 18.5705 15.0547C18.5314 14.6563 18.508 14.2891 18.4923 13.9219L22.6173 11.0391C23.9298 11.6797 28.0392 13.5078 31.508 13.2578ZM44.2423 20.1953C44.2423 20.2188 44.008 22.7656 42.3361 23.9609C42.3126 23.9766 42.2892 23.9922 42.2736 24C42.2345 24.0312 42.1955 24.0547 42.1564 24.0781C41.508 24.4844 40.7345 24.4844 40.0861 24.0859C40.047 24.0547 40.008 24.0312 39.9689 24C39.9533 23.9844 39.9298 23.9766 39.9064 23.9609C39.8517 23.9219 39.8048 23.8828 39.758 23.8438H39.7501C38.2345 22.6094 38.008 20.2188 38.008 20.1797C37.9767 19.9062 37.9611 19.6406 37.9533 19.3984C37.9455 18.2812 38.2345 17.4297 38.8205 16.8516C39.7267 15.9687 41.0861 15.9922 41.1486 15.9922C41.4455 15.9844 44.0158 16 44.2658 18.875C44.3048 19.25 44.3048 19.6875 44.2423 20.1953Z" fill="#FFE4AA"/>
</g>
</svg>
