<svg width="50" height="50" viewBox="0 0 50 50" fill="none" xmlns="http://www.w3.org/2000/svg">
<g id="Property Contract">
<path id="Vector" d="M43.6719 18.0469H32.7344C31.7813 18.0469 30.8672 17.6682 30.1932 16.9943C29.5192 16.3203 29.1406 15.4062 29.1406 14.4531V3.125C29.1406 2.8142 29.2641 2.51613 29.4839 2.29636C29.7036 2.07659 30.0017 1.95313 30.3125 1.95312H10.0781C9.125 1.95313 8.21092 2.33175 7.53696 3.00571C6.863 3.67967 6.48438 4.59375 6.48438 5.54688V44.4531C6.48438 45.4062 6.863 46.3203 7.53696 46.9943C8.21092 47.6682 9.125 48.0469 10.0781 48.0469H41.25C42.1969 48.0269 43.0994 47.6419 43.7691 46.9722C44.4388 46.3025 44.8238 45.4 44.8438 44.4531V16.875C44.8438 17.1858 44.7203 17.4839 44.5005 17.7036C44.2807 17.9234 43.9827 18.0469 43.6719 18.0469Z" fill="#FFD25C"/>
<path id="Vector_2" d="M25 12.4219H14.1406C13.8298 12.4219 13.5318 12.2984 13.312 12.0786C13.0922 11.8589 12.9688 11.5608 12.9688 11.25C12.9688 10.9392 13.0922 10.6411 13.312 10.4214C13.5318 10.2016 13.8298 10.0781 14.1406 10.0781H25C25.3108 10.0781 25.6089 10.2016 25.8286 10.4214C26.0484 10.6411 26.1719 10.9392 26.1719 11.25C26.1719 11.5608 26.0484 11.8589 25.8286 12.0786C25.6089 12.2984 25.3108 12.4219 25 12.4219ZM25 19.2969H14.1406C13.8298 19.2969 13.5318 19.1734 13.312 18.9536C13.0922 18.7339 12.9688 18.4358 12.9688 18.125C12.9688 17.8142 13.0922 17.5161 13.312 17.2964C13.5318 17.0766 13.8298 16.9531 14.1406 16.9531H25C25.3108 16.9531 25.6089 17.0766 25.8286 17.2964C26.0484 17.5161 26.1719 17.8142 26.1719 18.125C26.1719 18.4358 26.0484 18.7339 25.8286 18.9536C25.6089 19.1734 25.3108 19.2969 25 19.2969ZM37.5 26.1719H14.1406C13.8298 26.1719 13.5318 26.0484 13.312 25.8286C13.0922 25.6089 12.9688 25.3108 12.9688 25C12.9688 24.6892 13.0922 24.3911 13.312 24.1714C13.5318 23.9516 13.8298 23.8281 14.1406 23.8281H37.5C37.8108 23.8281 38.1089 23.9516 38.3286 24.1714C38.5484 24.3911 38.6719 24.6892 38.6719 25C38.6719 25.3108 38.5484 25.6089 38.3286 25.8286C38.1089 26.0484 37.8108 26.1719 37.5 26.1719ZM37.5 33.0469H14.1406C13.8298 33.0469 13.5318 32.9234 13.312 32.7036C13.0922 32.4839 12.9688 32.1858 12.9688 31.875C12.9688 31.5642 13.0922 31.2661 13.312 31.0464C13.5318 30.8266 13.8298 30.7031 14.1406 30.7031H37.5C37.8108 30.7031 38.1089 30.8266 38.3286 31.0464C38.5484 31.2661 38.6719 31.5642 38.6719 31.875C38.6719 32.1858 38.5484 32.4839 38.3286 32.7036C38.1089 32.9234 37.8108 33.0469 37.5 33.0469ZM37.5 39.9219H14.1406C13.8298 39.9219 13.5318 39.7984 13.312 39.5786C13.0922 39.3589 12.9688 39.0608 12.9688 38.75C12.9688 38.4392 13.0922 38.1411 13.312 37.9214C13.5318 37.7016 13.8298 37.5781 14.1406 37.5781H37.5C37.8108 37.5781 38.1089 37.7016 38.3286 37.9214C38.5484 38.1411 38.6719 38.4392 38.6719 38.75C38.6719 39.0608 38.5484 39.3589 38.3286 39.5786C38.1089 39.7984 37.8108 39.9219 37.5 39.9219Z" fill="#F75441"/>
<path id="Vector_3" d="M33.3594 1.95312H30.3125C30.0017 1.95312 29.7036 2.07659 29.4839 2.29636C29.2641 2.51613 29.1406 2.8142 29.1406 3.125V14.4531C29.1406 15.4062 29.5193 16.3203 30.1932 16.9943C30.8672 17.6682 31.7813 18.0469 32.7344 18.0469H43.6719C43.9827 18.0469 44.2807 17.9234 44.5005 17.7036C44.7203 17.4839 44.8438 17.1858 44.8438 16.875V13.4375C44.8438 10.3917 43.6338 7.47056 41.4801 5.31682C39.3263 3.16308 36.4052 1.95313 33.3594 1.95312Z" fill="#EBEBEB"/>
</g>
</svg>
