<svg width="50" height="50" viewBox="0 0 50 50" fill="none" xmlns="http://www.w3.org/2000/svg">
<g id="Salary Document">
<path id="Vector" d="M42.9688 25H40.625V28.125H42.9688V25Z" fill="#F4B844"/>
<path id="Vector_2" d="M28.125 39.0625H25V42.1875H28.125V39.0625Z" fill="#F4B844"/>
<path id="Vector_3" d="M43.75 42.1875H40.625V45.3125H43.75V42.1875Z" fill="#F4B844"/>
<path id="Vector_4" d="M37.5 39.0625H34.375V42.1875H37.5V39.0625Z" fill="#F4B844"/>
<path id="Vector_5" d="M37.5 42.1875H34.375V45.3125H37.5V42.1875Z" fill="#F4B844"/>
<path id="Vector_6" d="M31.25 42.1875H28.125V45.3125H31.25V42.1875Z" fill="#F4B844"/>
<path id="Vector_7" d="M31.25 39.0625H28.125V42.1875H31.25V39.0625Z" fill="#F4B844"/>
<path id="Vector_8" d="M28.125 35.9375H25V39.0625H28.125V35.9375Z" fill="#F4B844"/>
<path id="Vector_9" d="M28.125 32.8125H25V35.9375H28.125V32.8125Z" fill="#F4B844"/>
<path id="Vector_10" d="M34.375 42.1875H31.25V45.3125H34.375V42.1875Z" fill="#F4B844"/>
<path id="Vector_11" d="M37.5 35.9375H34.375V39.0625H37.5V35.9375Z" fill="#F4B844"/>
<path id="Vector_12" d="M28.125 42.1875H25V45.3125H28.125V42.1875Z" fill="#F4B844"/>
<path id="Vector_13" d="M34.375 32.8125H31.25V35.9375H34.375V32.8125Z" fill="#F4B844"/>
<path id="Vector_14" d="M37.5 32.8125H34.375V35.9375H37.5V32.8125Z" fill="#F4B844"/>
<path id="Vector_15" d="M40.625 39.0625H37.5V42.1875H40.625V39.0625Z" fill="#F4B844"/>
<path id="Vector_16" d="M40.625 42.1875H37.5V45.3125H40.625V42.1875Z" fill="#F4B844"/>
<path id="Vector_17" d="M43.75 39.0625H40.625V42.1875H43.75V39.0625Z" fill="#F4B844"/>
<path id="Vector_18" d="M43.75 35.9375H40.625V39.0625H43.75V35.9375Z" fill="#F4B844"/>
<path id="Vector_19" d="M40.625 35.9375H37.5V39.0625H40.625V35.9375Z" fill="#F4B844"/>
<path id="Vector_20" d="M43.75 32.8125H40.625V35.9375H43.75V32.8125Z" fill="#F4B844"/>
<path id="Vector_21" d="M40.625 32.8125H37.5V35.9375H40.625V32.8125Z" fill="#F4B844"/>
<path id="Vector_22" d="M31.25 35.9375H28.125V39.0625H31.25V35.9375Z" fill="#F4B844"/>
<path id="Vector_23" d="M31.25 32.8125H28.125V35.9375H31.25V32.8125Z" fill="#F4B844"/>
<path id="Vector_24" d="M34.375 39.0625H31.25V42.1875H34.375V39.0625Z" fill="#F4B844"/>
<path id="Vector_25" d="M46.875 28.125V30.4688H21.875V28.125C21.8762 27.711 22.0413 27.3143 22.334 27.0215C22.6268 26.7288 23.0235 26.5637 23.4375 26.5625H25.7812V28.125H28.125V26.5625H40.625V28.125H42.9688V26.5625H45.3125C45.7265 26.5637 46.1232 26.7288 46.416 27.0215C46.7087 27.3143 46.8738 27.711 46.875 28.125Z" fill="#F4B844"/>
<path id="Vector_26" d="M28.125 25H25.7812V28.125H28.125V25Z" fill="#F4B844"/>
<path id="Vector_27" d="M34.375 35.9375H31.25V39.0625H34.375V35.9375Z" fill="#F4B844"/>
<path id="Vector_28" d="M14.0625 32.0312C17.0828 32.0312 19.5312 29.5828 19.5312 26.5625C19.5312 23.5422 17.0828 21.0938 14.0625 21.0938C11.0422 21.0938 8.59375 23.5422 8.59375 26.5625C8.59375 29.5828 11.0422 32.0312 14.0625 32.0312Z" fill="#FEDB41"/>
<path id="Vector_29" d="M37.5 10.1562H29.6875V2.34375L37.5 10.1562Z" fill="#F4B844"/>
<path id="Vector_30" d="M13.6719 25H14.4531C14.5567 25 14.6561 25.0412 14.7293 25.1144C14.8026 25.1877 14.8438 25.287 14.8438 25.3906H16.4062C16.4062 24.9405 16.2506 24.5042 15.9659 24.1556C15.6812 23.807 15.2848 23.5674 14.8438 23.4773V22.6562H13.2812V23.4773C12.8074 23.5745 12.3865 23.8441 12.1 24.2338C11.8136 24.6236 11.6819 25.1057 11.7305 25.587C11.7791 26.0682 12.0046 26.5143 12.3632 26.8388C12.7219 27.1634 13.1882 27.3433 13.6719 27.3438H14.4531C14.5567 27.3438 14.6561 27.3849 14.7293 27.4582C14.8026 27.5314 14.8438 27.6308 14.8438 27.7344C14.8438 27.838 14.8026 27.9373 14.7293 28.0106C14.6561 28.0838 14.5567 28.125 14.4531 28.125H13.6719C13.5683 28.125 13.4689 28.0838 13.3957 28.0106C13.3224 27.9373 13.2812 27.838 13.2812 27.7344H11.7188C11.7188 28.1845 11.8744 28.6208 12.1591 28.9694C12.4438 29.318 12.8402 29.5576 13.2812 29.6477V30.4688H14.8438V29.6477C15.3176 29.5505 15.7385 29.2809 16.025 28.8912C16.3114 28.5014 16.4431 28.0193 16.3945 27.538C16.3459 27.0568 16.1204 26.6107 15.7618 26.2862C15.4031 25.9616 14.9368 25.7817 14.4531 25.7812H13.6719C13.5683 25.7812 13.4689 25.7401 13.3957 25.6668C13.3224 25.5936 13.2812 25.4942 13.2812 25.3906C13.2812 25.287 13.3224 25.1877 13.3957 25.1144C13.4689 25.0412 13.5683 25 13.6719 25Z" fill="#F59831"/>
<path id="Vector_31" d="M14.0625 20.3125C12.8264 20.3125 11.618 20.6791 10.5902 21.3658C9.56238 22.0526 8.7613 23.0287 8.28826 24.1707C7.81521 25.3128 7.69144 26.5694 7.93259 27.7818C8.17375 28.9942 8.76901 30.1078 9.64308 30.9819C10.5172 31.856 11.6308 32.4513 12.8432 32.6924C14.0556 32.9336 15.3122 32.8098 16.4543 32.3367C17.5963 31.8637 18.5724 31.0626 19.2592 30.0348C19.9459 29.007 20.3125 27.7986 20.3125 26.5625C20.3106 24.9055 19.6516 23.3168 18.4799 22.1451C17.3082 20.9734 15.7195 20.3144 14.0625 20.3125ZM14.0625 31.25C13.1354 31.25 12.2291 30.9751 11.4583 30.46C10.6874 29.9449 10.0866 29.2129 9.73182 28.3563C9.37703 27.4998 9.2842 26.5573 9.46507 25.648C9.64594 24.7387 10.0924 23.9035 10.7479 23.2479C11.4035 22.5924 12.2387 22.1459 13.148 21.9651C14.0573 21.7842 14.9998 21.877 15.8563 22.2318C16.7129 22.5866 17.4449 23.1874 17.96 23.9583C18.4751 24.7291 18.75 25.6354 18.75 26.5625C18.7488 27.8053 18.2545 28.9969 17.3757 29.8757C16.4969 30.7545 15.3053 31.2488 14.0625 31.25Z" fill="#F59831"/>
<path id="Vector_32" d="M10.1562 6.25H7.03125V7.8125H10.1562V6.25Z" fill="#F59831"/>
<path id="Vector_33" d="M25.7812 6.25H11.7188V7.8125H25.7812V6.25Z" fill="#F59831"/>
<path id="Vector_34" d="M25.7812 9.375H22.6562V10.9375H25.7812V9.375Z" fill="#F59831"/>
<path id="Vector_35" d="M21.0938 9.375H7.03125V10.9375H21.0938V9.375Z" fill="#F59831"/>
<path id="Vector_36" d="M10.1562 12.5H7.03125V14.0625H10.1562V12.5Z" fill="#F59831"/>
<path id="Vector_37" d="M25.7812 12.5H11.7188V14.0625H25.7812V12.5Z" fill="#F59831"/>
<path id="Vector_38" d="M25.7812 15.625H22.6562V17.1875H25.7812V15.625Z" fill="#F59831"/>
<path id="Vector_39" d="M21.0938 15.625H7.03125V17.1875H21.0938V15.625Z" fill="#F59831"/>
<path id="Vector_40" d="M19.5312 35.1562H8.59375V36.7188H19.5312V35.1562Z" fill="#F59831"/>
<path id="Vector_41" d="M45.3125 25.7812H43.75V25C43.75 24.7928 43.6677 24.5941 43.5212 24.4476C43.3747 24.3011 43.1759 24.2188 42.9688 24.2188H40.625C40.4178 24.2188 40.2191 24.3011 40.0726 24.4476C39.9261 24.5941 39.8438 24.7928 39.8438 25V25.7812H38.2812V10.1562C38.2797 9.94913 38.1986 9.75053 38.0547 9.60156L30.2422 1.78906C30.0932 1.64516 29.8946 1.56404 29.6875 1.5625H3.125C2.9178 1.5625 2.71909 1.64481 2.57257 1.79132C2.42606 1.93784 2.34375 2.13655 2.34375 2.34375V42.9688C2.34375 43.1759 2.42606 43.3747 2.57257 43.5212C2.71909 43.6677 2.9178 43.75 3.125 43.75H21.0938V46.0938C21.0956 46.7148 21.3431 47.3098 21.7823 47.749C22.2214 48.1881 22.8165 48.4356 23.4375 48.4375H45.3125C45.9335 48.4356 46.5286 48.1881 46.9677 47.749C47.4069 47.3098 47.6544 46.7148 47.6562 46.0938V28.125C47.6544 27.504 47.4069 26.9089 46.9677 26.4698C46.5286 26.0306 45.9335 25.7831 45.3125 25.7812ZM41.4062 25.7812H42.1875V27.3438H41.4062V25.7812ZM30.4688 4.22656L35.6172 9.375H30.4688V4.22656ZM21.0938 28.125V42.1875H3.90625V3.125H28.9062V10.1562C28.9062 10.3635 28.9886 10.5622 29.1351 10.7087C29.2816 10.8552 29.4803 10.9375 29.6875 10.9375H36.7188V25.7812H28.9062V25C28.9062 24.7928 28.8239 24.5941 28.6774 24.4476C28.5309 24.3011 28.3322 24.2188 28.125 24.2188H25.7812C25.574 24.2188 25.3753 24.3011 25.2288 24.4476C25.0823 24.5941 25 24.7928 25 25V25.7812H23.4375C22.8165 25.7831 22.2214 26.0306 21.7823 26.4698C21.3431 26.9089 21.0956 27.504 21.0938 28.125ZM27.3438 25.7812V27.3438H26.5625V25.7812H27.3438ZM46.0938 46.0938C46.0938 46.3009 46.0114 46.4997 45.8649 46.6462C45.7184 46.7927 45.5197 46.875 45.3125 46.875H23.4375C23.2303 46.875 23.0316 46.7927 22.8851 46.6462C22.7386 46.4997 22.6562 46.3009 22.6562 46.0938V31.25H46.0938V46.0938ZM46.0938 29.6875H22.6562V28.125C22.6562 27.9178 22.7386 27.7191 22.8851 27.5726C23.0316 27.4261 23.2303 27.3438 23.4375 27.3438H25V28.125C25 28.3322 25.0823 28.5309 25.2288 28.6774C25.3753 28.8239 25.574 28.9062 25.7812 28.9062H28.125C28.3322 28.9062 28.5309 28.8239 28.6774 28.6774C28.8239 28.5309 28.9062 28.3322 28.9062 28.125V27.3438H39.8438V28.125C39.8438 28.3322 39.9261 28.5309 40.0726 28.6774C40.2191 28.8239 40.4178 28.9062 40.625 28.9062H42.9688C43.1759 28.9062 43.3747 28.8239 43.5212 28.6774C43.6677 28.5309 43.75 28.3322 43.75 28.125V27.3438H45.3125C45.5197 27.3438 45.7184 27.4261 45.8649 27.5726C46.0114 27.7191 46.0938 27.9178 46.0938 28.125V29.6875Z" fill="#00EFD1"/>
<path id="Vector_42" d="M43.75 32.0312H25C24.7928 32.0312 24.5941 32.1136 24.4476 32.2601C24.3011 32.4066 24.2188 32.6053 24.2188 32.8125V45.3125C24.2188 45.5197 24.3011 45.7184 24.4476 45.8649C24.5941 46.0114 24.7928 46.0938 25 46.0938H43.75C43.9572 46.0938 44.1559 46.0114 44.3024 45.8649C44.4489 45.7184 44.5312 45.5197 44.5312 45.3125V32.8125C44.5312 32.6053 44.4489 32.4066 44.3024 32.2601C44.1559 32.1136 43.9572 32.0312 43.75 32.0312ZM27.3438 44.5312H25.7812V42.9688H27.3438V44.5312ZM27.3438 41.4062H25.7812V39.8438H27.3438V41.4062ZM27.3438 38.2812H25.7812V36.7188H27.3438V38.2812ZM27.3438 35.1562H25.7812V33.5938H27.3438V35.1562ZM30.4688 44.5312H28.9062V42.9688H30.4688V44.5312ZM30.4688 41.4062H28.9062V39.8438H30.4688V41.4062ZM30.4688 38.2812H28.9062V36.7188H30.4688V38.2812ZM30.4688 35.1562H28.9062V33.5938H30.4688V35.1562ZM33.5938 44.5312H32.0312V42.9688H33.5938V44.5312ZM33.5938 41.4062H32.0312V39.8438H33.5938V41.4062ZM33.5938 38.2812H32.0312V36.7188H33.5938V38.2812ZM33.5938 35.1562H32.0312V33.5938H33.5938V35.1562ZM36.7188 44.5312H35.1562V42.9688H36.7188V44.5312ZM36.7188 41.4062H35.1562V39.8438H36.7188V41.4062ZM36.7188 38.2812H35.1562V36.7188H36.7188V38.2812ZM36.7188 35.1562H35.1562V33.5938H36.7188V35.1562ZM39.8438 44.5312H38.2812V42.9688H39.8438V44.5312ZM39.8438 41.4062H38.2812V39.8438H39.8438V41.4062ZM39.8438 38.2812H38.2812V36.7188H39.8438V38.2812ZM39.8438 35.1562H38.2812V33.5938H39.8438V35.1562ZM42.9688 44.5312H41.4062V42.9688H42.9688V44.5312ZM42.9688 41.4062H41.4062V39.8438H42.9688V41.4062ZM42.9688 38.2812H41.4062V36.7188H42.9688V38.2812ZM42.9688 35.1562H41.4062V33.5938H42.9688V35.1562Z" fill="#FEDB41"/>
</g>
</svg>
