<svg width="50" height="50" viewBox="0 0 50 50" fill="none" xmlns="http://www.w3.org/2000/svg">
<g id="salary">
<path id="Vector" d="M35.9375 3.125L32.8125 9.375H23.4375L20.3125 3.125L22.5469 3.875C24.1191 4.38942 25.8304 4.26598 27.3125 3.53125L28.125 3.125L28.9375 3.53125C30.4196 4.26598 32.1309 4.38942 33.7031 3.875L35.9375 3.125ZM45.3125 43.75C45.3065 44.5769 44.9753 45.3683 44.3906 45.9531C43.8058 46.5378 43.0144 46.869 42.1875 46.875H23.4375C23.4355 44.3892 22.4472 42.0058 20.6895 40.248C18.9317 38.4903 16.5483 37.502 14.0625 37.5C15.3057 37.5 16.498 37.0061 17.3771 36.1271C18.2561 35.248 18.75 34.0557 18.75 32.8125C18.75 31.5693 18.2561 30.377 17.3771 29.4979C16.498 28.6189 15.3057 28.125 14.0625 28.125V18.75C14.0623 17.9292 14.2238 17.1163 14.5378 16.358C14.8518 15.5996 15.3122 14.9105 15.8926 14.3301C16.473 13.7497 17.1621 13.2893 17.9205 12.9753C18.6788 12.6613 19.4917 12.4998 20.3125 12.5H35.9375C36.7583 12.4998 37.5712 12.6613 38.3295 12.9753C39.0879 13.2893 39.777 13.7497 40.3574 14.3301C40.9378 14.9105 41.3982 15.5996 41.7122 16.358C42.0262 17.1163 42.1877 17.9292 42.1875 18.75V40.625C43.0145 40.631 43.8059 40.9621 44.3906 41.5469C44.9754 42.1316 45.3065 42.923 45.3125 43.75Z" fill="#FFC943"/>
<path id="Vector_2" d="M35.9375 10.9375C35.9363 11.3515 35.7712 11.7482 35.4785 12.041C35.1857 12.3337 34.789 12.4988 34.375 12.5H21.875C21.4606 12.5 21.0632 12.3354 20.7701 12.0424C20.4771 11.7493 20.3125 11.3519 20.3125 10.9375C20.3125 10.5231 20.4771 10.1257 20.7701 9.83265C21.0632 9.53962 21.4606 9.375 21.875 9.375H34.375C34.789 9.37624 35.1857 9.54125 35.4785 9.83401C35.7712 10.1268 35.9363 10.5235 35.9375 10.9375Z" fill="#F2F2F2"/>
<path id="Vector_3" d="M14.0625 37.5C16.6513 37.5 18.75 35.4013 18.75 32.8125C18.75 30.2237 16.6513 28.125 14.0625 28.125C11.4737 28.125 9.375 30.2237 9.375 32.8125C9.375 35.4013 11.4737 37.5 14.0625 37.5Z" fill="#F45151"/>
<path id="Vector_4" d="M23.4375 46.875H4.6875C4.6875 44.3886 5.67522 42.004 7.43337 40.2459C9.19153 38.4877 11.5761 37.5 14.0625 37.5C16.5489 37.5 18.9335 38.4877 20.6916 40.2459C22.4498 42.004 23.4375 44.3886 23.4375 46.875Z" fill="#F45151"/>
<g id="Group">
<path id="Vector_5" d="M13.2812 18.7499V24.9999C13.2812 25.2071 13.3636 25.4058 13.5101 25.5524C13.6566 25.6989 13.8553 25.7812 14.0625 25.7812C14.2697 25.7812 14.4684 25.6989 14.6149 25.5524C14.7614 25.4058 14.8438 25.2071 14.8438 24.9999V18.7499C14.8455 17.3001 15.4222 15.9101 16.4474 14.8849C17.4727 13.8597 18.8626 13.2829 20.3125 13.2812H35.9375C37.3874 13.2829 38.7773 13.8597 39.8026 14.8849C40.8278 15.9101 41.4045 17.3001 41.4062 18.7499V32.8124C41.4062 33.0196 41.4886 33.2183 41.6351 33.3649C41.7816 33.5114 41.9803 33.5937 42.1875 33.5937C42.3947 33.5937 42.5934 33.5114 42.7399 33.3649C42.8864 33.2183 42.9688 33.0196 42.9688 32.8124V18.7499C42.9633 16.9972 42.3021 15.31 41.1152 14.0203C39.9283 12.7306 38.3016 11.9318 36.5554 11.7812C36.6956 11.4267 36.7468 11.0432 36.7043 10.6644C36.6618 10.2855 36.5271 9.9229 36.3119 9.60826C36.0966 9.29362 35.8075 9.03659 35.4698 8.8597C35.1321 8.68281 34.7562 8.59146 34.375 8.59367H34.0767L36.6364 3.47435C36.7056 3.33614 36.7322 3.1805 36.7129 3.02715C36.6936 2.87379 36.6292 2.72961 36.5279 2.61287C36.4266 2.49613 36.2929 2.41207 36.1438 2.37135C35.9947 2.33063 35.8369 2.33507 35.6903 2.38411L33.4587 3.12805C32.7777 3.35665 32.0581 3.44806 31.3415 3.39699C30.625 3.34592 29.9256 3.15338 29.2839 2.8305L28.4744 2.42614C28.3659 2.37196 28.2463 2.34375 28.125 2.34375C28.0037 2.34375 27.8841 2.37196 27.7756 2.42614L26.9661 2.8305C26.3243 3.15315 25.625 3.34556 24.9084 3.39662C24.1919 3.44769 23.4724 3.35641 22.7913 3.12805L20.5597 2.38411C20.4131 2.33507 20.2553 2.33063 20.1062 2.37135C19.9571 2.41207 19.8234 2.49613 19.7221 2.61287C19.6208 2.72961 19.5564 2.87379 19.5371 3.02715C19.5178 3.1805 19.5444 3.33614 19.6136 3.47435L22.1733 8.59367H21.875C21.4938 8.59146 21.1179 8.68281 20.7802 8.8597C20.4425 9.03659 20.1534 9.29362 19.9381 9.60826C19.7229 9.9229 19.5882 10.2855 19.5457 10.6644C19.5032 11.0432 19.5544 11.4267 19.6946 11.7812C17.9484 11.9318 16.3217 12.7306 15.1348 14.0203C13.9479 15.31 13.2867 16.9972 13.2812 18.7499ZM21.8544 4.46242L22.2969 4.60967C23.1723 4.90527 24.0977 5.02377 25.0193 4.95828C25.9408 4.89279 26.8402 4.64461 27.665 4.22819L28.125 3.99849L28.585 4.22817C29.4098 4.64452 30.3092 4.89266 31.2308 4.95814C32.1524 5.02363 33.0778 4.90515 33.9531 4.60961L34.3956 4.46236L32.3296 8.59367H23.9204L21.8544 4.46242ZM21.875 10.1562H34.375C34.5822 10.1562 34.7809 10.2385 34.9274 10.385C35.0739 10.5315 35.1562 10.7302 35.1562 10.9374C35.1562 11.1446 35.0739 11.3433 34.9274 11.4899C34.7809 11.6364 34.5822 11.7187 34.375 11.7187H21.875C21.6678 11.7187 21.4691 11.6364 21.3226 11.4899C21.1761 11.3433 21.0938 11.1446 21.0938 10.9374C21.0938 10.7302 21.1761 10.5315 21.3226 10.385C21.4691 10.2385 21.6678 10.1562 21.875 10.1562ZM46.0938 43.7499C46.0873 42.8511 45.774 41.9813 45.2057 41.2849C44.6373 40.5885 43.8481 40.1072 42.9688 39.9207V39.0624C42.9688 38.8552 42.8864 38.6565 42.7399 38.51C42.5934 38.3635 42.3947 38.2812 42.1875 38.2812C41.9803 38.2812 41.7816 38.3635 41.6351 38.51C41.4886 38.6565 41.4062 38.8552 41.4062 39.0624V40.6249C41.4062 40.7275 41.4264 40.8292 41.4656 40.924C41.5048 41.0188 41.5624 41.1049 41.6349 41.1775C41.7075 41.25 41.7936 41.3076 41.8885 41.3468C41.9833 41.3861 42.0849 41.4062 42.1875 41.4062C42.8091 41.4062 43.4052 41.6531 43.8448 42.0926C44.2843 42.5322 44.5312 43.1283 44.5312 43.7499C44.5312 44.3715 44.2843 44.9677 43.8448 45.4072C43.4052 45.8467 42.8091 46.0937 42.1875 46.0937H26.5625C26.3553 46.0937 26.1566 46.176 26.0101 46.3225C25.8636 46.469 25.7812 46.6677 25.7812 46.8749C25.7812 47.0821 25.8636 47.2808 26.0101 47.4273C26.1566 47.5739 26.3553 47.6562 26.5625 47.6562H42.1875C43.2217 47.6504 44.2119 47.237 44.9432 46.5057C45.6746 45.7744 46.088 44.7841 46.0938 43.7499ZM3.90625 46.8749C3.90619 46.9775 3.92636 47.0792 3.9656 47.174C4.00484 47.2688 4.06238 47.3549 4.13494 47.4275C4.2075 47.5 4.29365 47.5576 4.38846 47.5968C4.48327 47.6361 4.58489 47.6562 4.6875 47.6562H23.4375C23.5401 47.6562 23.6417 47.6361 23.7365 47.5968C23.8314 47.5576 23.9175 47.5 23.9901 47.4275C24.0626 47.3549 24.1202 47.2688 24.1594 47.174C24.1986 47.0792 24.2188 46.9775 24.2188 46.8749C24.2154 44.7403 23.5404 42.6609 22.2893 40.9312C21.0383 39.2016 19.2747 37.9095 17.2484 37.238C18.1895 36.5635 18.8923 35.6076 19.2554 34.5082C19.6185 33.4087 19.6233 32.2223 19.269 31.12C18.9147 30.0176 18.2197 29.0561 17.2841 28.374C16.3484 27.6919 15.2204 27.3244 14.0625 27.3244C12.9046 27.3244 11.7766 27.6919 10.8409 28.374C9.90528 29.0561 9.21027 30.0176 8.856 31.12C8.50174 32.2223 8.50651 33.4087 8.86962 34.5082C9.23273 35.6076 9.93545 36.5635 10.8766 37.238C8.85029 37.9095 7.0867 39.2016 5.83567 40.9312C4.58465 42.6609 3.90962 44.7403 3.90625 46.8749ZM10.1562 32.8124C10.1562 32.0398 10.3853 31.2846 10.8146 30.6422C11.2438 29.9998 11.8539 29.4992 12.5676 29.2035C13.2814 28.9079 14.0668 28.8305 14.8246 28.9812C15.5823 29.132 16.2783 29.504 16.8246 30.0503C17.3709 30.5966 17.743 31.2926 17.8937 32.0504C18.0444 32.8081 17.9671 33.5935 17.6714 34.3073C17.3757 35.0211 16.8751 35.6311 16.2327 36.0604C15.5903 36.4896 14.8351 36.7187 14.0625 36.7187C13.0269 36.7175 12.034 36.3055 11.3017 35.5732C10.5694 34.8409 10.1575 33.8481 10.1562 32.8124ZM14.0625 38.2812C16.2058 38.2838 18.2709 39.086 19.8539 40.531C21.4368 41.9759 22.4236 43.9595 22.6212 46.0937H5.50384C5.70138 43.9595 6.68817 41.9759 8.27112 40.531C9.85407 39.086 11.9192 38.2838 14.0625 38.2812Z" fill="black"/>
<path id="Vector_6" d="M42.1875 36.7188C42.619 36.7188 42.9688 36.369 42.9688 35.9375C42.9688 35.506 42.619 35.1562 42.1875 35.1562C41.756 35.1562 41.4062 35.506 41.4062 35.9375C41.4062 36.369 41.756 36.7188 42.1875 36.7188Z" fill="black"/>
</g>
</g>
</svg>
