<svg width="15" height="15" viewBox="0 0 15 15" fill="none" xmlns="http://www.w3.org/2000/svg">
<g clip-path="url(#clip0_673_3279)">
<path fill-rule="evenodd" clip-rule="evenodd" d="M9.81721 7.05824C9.93438 7.17544 10.0002 7.33439 10.0002 7.50011C10.0002 7.66584 9.93438 7.82478 9.81721 7.94199L6.28159 11.4776C6.22393 11.5373 6.15497 11.5849 6.07871 11.6177C6.00246 11.6504 5.92045 11.6677 5.83746 11.6684C5.75448 11.6691 5.67218 11.6533 5.59537 11.6219C5.51856 11.5905 5.44877 11.544 5.39009 11.4854C5.33141 11.4267 5.285 11.3569 5.25357 11.2801C5.22215 11.2033 5.20633 11.121 5.20705 11.038C5.20778 10.955 5.22502 10.873 5.25777 10.7967C5.29053 10.7205 5.33814 10.6515 5.39784 10.5939L8.49159 7.50011L5.39784 4.40636C5.28399 4.28849 5.22099 4.13061 5.22241 3.96674C5.22384 3.80286 5.28957 3.64611 5.40545 3.53023C5.52133 3.41435 5.67809 3.34862 5.84196 3.34719C6.00583 3.34577 6.16371 3.40876 6.28159 3.52261L9.81721 7.05824Z" fill="#595959"/>
</g>
<defs>
<clipPath id="clip0_673_3279">
<rect width="15" height="15" fill="white"/>
</clipPath>
</defs>
</svg>
