<svg width="50" height="50" viewBox="0 0 50 50" fill="none" xmlns="http://www.w3.org/2000/svg">
<circle cx="25" cy="25" r="25" fill="#F8F8F8"/>
<path d="M25.37 12C26.9871 11.9995 28.5618 12.5174 29.863 13.4777C31.1641 14.4379 32.1232 15.79 32.5994 17.3354C33.0757 18.8809 33.0439 20.5383 32.509 22.0643C31.974 23.5904 30.9639 24.9048 29.627 25.8146C31.9475 26.6657 33.9602 28.1919 35.406 30.1966C36.8518 32.2014 37.6645 34.5929 37.7395 37.0635C37.7465 37.2006 37.726 37.3378 37.6793 37.4669C37.6326 37.596 37.5606 37.7145 37.4675 37.8155C37.3744 37.9164 37.262 37.9977 37.1371 38.0546C37.0121 38.1115 36.8771 38.1429 36.7398 38.147C36.6026 38.151 36.4659 38.1276 36.3378 38.0781C36.2097 38.0286 36.0928 37.954 35.994 37.8587C35.8951 37.7634 35.8162 37.6493 35.762 37.5232C35.7078 37.397 35.6794 37.2613 35.6783 37.124C35.5965 34.4447 34.4746 31.9027 32.5505 30.0364C30.6263 28.1702 28.0511 27.1265 25.3707 27.1265C22.6902 27.1265 20.115 28.1702 18.1909 30.0364C16.2667 31.9027 15.1448 34.4447 15.063 37.124C15.0548 37.3975 14.9382 37.6565 14.739 37.8441C14.5398 38.0317 14.2743 38.1325 14.0008 38.1243C13.7273 38.1161 13.4682 37.9996 13.2806 37.8004C13.093 37.6012 12.9923 37.3356 13.0005 37.0621C13.0757 34.5918 13.8886 32.2005 15.3343 30.1961C16.7801 28.1916 18.7926 26.6657 21.113 25.8146C19.776 24.9048 18.7659 23.5904 18.231 22.0643C17.696 20.5383 17.6643 18.8809 18.1405 17.3354C18.6167 15.79 19.5758 14.4379 20.877 13.4777C22.1781 12.5174 23.7528 11.9995 25.37 12ZM19.87 19.5625C19.87 21.0212 20.4494 22.4201 21.4809 23.4516C22.5123 24.483 23.9113 25.0625 25.37 25.0625C26.8287 25.0625 28.2276 24.483 29.2591 23.4516C30.2905 22.4201 30.87 21.0212 30.87 19.5625C30.87 18.1038 30.2905 16.7049 29.2591 15.6734C28.2276 14.642 26.8287 14.0625 25.37 14.0625C23.9113 14.0625 22.5123 14.642 21.4809 15.6734C20.4494 16.7049 19.87 18.1038 19.87 19.5625Z" fill="#D9D9D9"/>
</svg>
