<svg width="20" height="20" viewBox="0 0 20 20" fill="none" xmlns="http://www.w3.org/2000/svg">
<path d="M15.2514 2.31567C15.1784 2.31586 15.1066 2.29643 15.0436 2.25942C13.31 1.3313 11.8112 0.937547 10.0143 0.937547C8.22645 0.937547 6.52879 1.37817 4.98465 2.25942C4.76629 2.38286 4.49715 2.29692 4.37059 2.07036C4.3141 1.96101 4.30135 1.83425 4.33495 1.71584C4.36854 1.59743 4.44595 1.49625 4.55145 1.43286C6.21683 0.488319 8.09976 -0.00553864 10.0143 4.68575e-05C11.9374 4.68575e-05 13.6171 0.440672 15.4593 1.42505C15.5667 1.48414 15.6468 1.58301 15.6822 1.70044C15.7176 1.81787 15.7056 1.9445 15.6487 2.05317C15.6145 2.13032 15.5589 2.19606 15.4885 2.24258C15.4181 2.28911 15.3358 2.31447 15.2514 2.31567ZM2.32996 7.23755C2.23614 7.23688 2.14479 7.20743 2.06825 7.15317C1.96866 7.07916 1.90168 6.96939 1.88143 6.84698C1.86117 6.72456 1.88921 6.59907 1.95965 6.49692C2.85379 5.18442 3.9909 4.15317 5.34598 3.4313C8.18114 1.91411 11.8112 1.90317 14.6554 3.42192C16.01 4.1438 17.1475 5.16567 18.0417 6.4688C18.1118 6.57104 18.1397 6.69645 18.1195 6.81878C18.0992 6.9411 18.0324 7.05085 17.9331 7.12505C17.8849 7.16107 17.8298 7.18682 17.7713 7.20071C17.7127 7.21459 17.6519 7.21631 17.5927 7.20577C17.5334 7.19522 17.477 7.17263 17.4268 7.1394C17.3767 7.10616 17.3339 7.06299 17.3011 7.01255C16.4886 5.8313 15.4593 4.90317 14.2401 4.2563C11.6487 2.87817 8.33465 2.87817 5.75223 4.26567C4.5241 4.92192 3.49481 5.85942 2.68231 7.03911C2.64727 7.10119 2.59592 7.15249 2.53381 7.18747C2.4717 7.22245 2.40121 7.23977 2.32996 7.23755ZM7.97332 18.5547C7.91365 18.5553 7.85455 18.543 7.80002 18.5188C7.7455 18.4945 7.69683 18.4588 7.65731 18.4141C6.87176 17.5969 6.44598 17.0704 5.84246 15.9375C5.21746 14.7844 4.89442 13.3782 4.89442 11.8688C4.89442 9.08442 7.18778 6.81567 10.0054 6.81567C12.8229 6.81567 15.1179 9.08442 15.1179 11.8688C15.1196 11.9292 15.1093 11.9893 15.0874 12.0456C15.0655 12.102 15.0325 12.1533 14.9904 12.1966C14.9484 12.24 14.898 12.2745 14.8424 12.298C14.7867 12.3215 14.7269 12.3336 14.6665 12.3336C14.6061 12.3336 14.5463 12.3215 14.4906 12.298C14.435 12.2745 14.3846 12.24 14.3425 12.1966C14.3004 12.1533 14.2675 12.102 14.2456 12.0456C14.2237 11.9893 14.2133 11.9292 14.2151 11.8688C14.2151 9.60005 12.3276 7.75317 10.0073 7.75317C7.687 7.75317 5.79754 9.60005 5.79754 11.8688C5.79754 13.2188 6.08621 14.4657 6.63699 15.4782C7.21512 16.5563 7.61356 17.0157 8.3077 17.7469C8.39002 17.8379 8.4356 17.9562 8.4356 18.079C8.4356 18.2017 8.39002 18.32 8.3077 18.411C8.21907 18.5004 8.0992 18.5519 7.97332 18.5547ZM14.4479 16.8204C13.3733 16.8204 12.4253 16.5391 11.6487 15.986C10.9871 15.5222 10.4466 14.9063 10.0727 14.1901C9.69883 13.4739 9.50251 12.6783 9.50028 11.8704C9.49774 11.8095 9.50755 11.7487 9.5291 11.6917C9.55065 11.6347 9.5835 11.5827 9.62569 11.5387C9.66787 11.4947 9.7185 11.4597 9.77455 11.4358C9.8306 11.4119 9.89091 11.3996 9.95184 11.3996C10.0128 11.3996 10.0731 11.4119 10.1291 11.4358C10.1852 11.4597 10.2358 11.4947 10.278 11.5387C10.3202 11.5827 10.353 11.6347 10.3746 11.6917C10.3961 11.7487 10.4059 11.8095 10.4034 11.8704C10.4049 12.5266 10.565 13.1728 10.8699 13.7539C11.1749 14.335 11.6158 14.8338 12.155 15.2079C12.796 15.6579 13.5456 15.8719 14.4487 15.8719C14.7632 15.8663 15.0768 15.835 15.3862 15.7782C15.63 15.7313 15.8647 15.9 15.9096 16.1625C15.9325 16.2837 15.9064 16.409 15.8371 16.5109C15.7678 16.6128 15.6608 16.6831 15.5397 16.7063C15.18 16.7774 14.8146 16.815 14.4479 16.8188V16.8204ZM12.6327 18.75C12.593 18.7484 12.5537 18.7421 12.5155 18.7313C11.0796 18.3188 10.1405 17.7657 9.15614 16.7625C7.89168 15.4594 7.19676 13.725 7.19676 11.8688C7.19676 10.35 8.44285 9.11255 9.97762 9.11255C11.5124 9.11255 12.7589 10.35 12.7589 11.8688C12.7589 12.8719 13.5987 13.6875 14.637 13.6875C15.6753 13.6875 16.5151 12.8719 16.5151 11.8688C16.5151 8.33442 13.5804 5.46567 9.96864 5.46567C7.40418 5.46567 5.05653 6.94692 4.00028 9.2438C3.64871 10.0032 3.46746 10.8938 3.46746 11.8688C3.46746 12.6 3.53035 13.7532 4.07215 15.2532C4.16278 15.4969 4.0452 15.7688 3.81043 15.8532C3.75464 15.8744 3.69513 15.8842 3.63547 15.8818C3.57582 15.8795 3.51725 15.8651 3.46328 15.8396C3.40932 15.8141 3.36108 15.7779 3.32145 15.7332C3.28183 15.6886 3.25164 15.6364 3.2327 15.5797C2.79702 14.391 2.57383 13.1349 2.57332 11.8688C2.57332 10.7438 2.78114 9.72036 3.18739 8.8313C4.38856 6.21411 7.05223 4.5188 9.96864 4.5188C14.0772 4.5188 17.4182 7.80942 17.4182 11.8594C17.4182 13.3782 16.1722 14.6157 14.637 14.6157C13.1018 14.6157 11.8557 13.3782 11.8557 11.8594C11.8561 10.8563 11.0163 10.0391 9.97801 10.0391C8.93973 10.0391 8.09989 10.8547 8.09989 11.8579C8.09989 13.4594 8.69598 14.961 9.78856 16.086C10.6479 16.9672 11.4682 17.4532 12.7413 17.8204C12.985 17.886 13.1206 18.1485 13.0573 18.3922C13.0376 18.4912 12.9848 18.5805 12.9077 18.6455C12.8305 18.7105 12.7336 18.7474 12.6327 18.75Z" fill="#595959"/>
</svg>
