<svg width="25" height="25" viewBox="0 0 25 25" fill="none" xmlns="http://www.w3.org/2000/svg">
<path d="M7.29167 6.25016C7.0154 6.25016 6.75045 6.14042 6.5551 5.94507C6.35975 5.74971 6.25 5.48476 6.25 5.2085V3.12516C6.25 2.8489 6.35975 2.58394 6.5551 2.38859C6.75045 2.19324 7.0154 2.0835 7.29167 2.0835C7.56793 2.0835 7.83289 2.19324 8.02824 2.38859C8.22359 2.58394 8.33333 2.8489 8.33333 3.12516V5.2085C8.33333 5.48458 8.22373 5.74938 8.0286 5.9447C7.83348 6.14002 7.56775 6.24989 7.29167 6.25016ZM17.7083 6.25016C17.4321 6.25016 17.1671 6.14042 16.9718 5.94507C16.7764 5.74971 16.6667 5.48476 16.6667 5.2085V3.12516C16.6667 2.8489 16.7764 2.58394 16.9718 2.38859C17.1671 2.19324 17.4321 2.0835 17.7083 2.0835C17.9846 2.0835 18.2496 2.19324 18.4449 2.38859C18.6403 2.58394 18.75 2.8489 18.75 3.12516V5.2085C18.75 5.48458 18.6404 5.74938 18.4453 5.9447C18.2501 6.14002 17.9844 6.24989 17.7083 6.25016Z" fill="#029894"/>
<path d="M19.7913 4.1665H18.7497V5.20817C18.7497 5.48444 18.6399 5.74939 18.4446 5.94474C18.2492 6.14009 17.9843 6.24984 17.708 6.24984C17.4317 6.24984 17.1668 6.14009 16.9714 5.94474C16.7761 5.74939 16.6663 5.48444 16.6663 5.20817V4.1665H8.33301V5.20817C8.33301 5.48444 8.22326 5.74939 8.02791 5.94474C7.83256 6.14009 7.56761 6.24984 7.29134 6.24984C7.01507 6.24984 6.75012 6.14009 6.55477 5.94474C6.35942 5.74939 6.24967 5.48444 6.24967 5.20817V4.1665H5.20801C4.37921 4.1665 3.58435 4.49574 2.9983 5.0818C2.41225 5.66785 2.08301 6.4627 2.08301 7.2915V9.37484H22.9163V7.2915C22.9163 6.4627 22.5871 5.66785 22.0011 5.0818C21.415 4.49574 20.6201 4.1665 19.7913 4.1665Z" fill="#E6F5F4"/>
<path d="M7.29167 14.5833C7.86696 14.5833 8.33333 14.117 8.33333 13.5417C8.33333 12.9664 7.86696 12.5 7.29167 12.5C6.71637 12.5 6.25 12.9664 6.25 13.5417C6.25 14.117 6.71637 14.5833 7.29167 14.5833Z" fill="#E6F5F4"/>
<path d="M7.29167 18.7498C7.86696 18.7498 8.33333 18.2835 8.33333 17.7082C8.33333 17.1329 7.86696 16.6665 7.29167 16.6665C6.71637 16.6665 6.25 17.1329 6.25 17.7082C6.25 18.2835 6.71637 18.7498 7.29167 18.7498Z" fill="#E6F5F4"/>
<path d="M12.4997 14.5833C13.075 14.5833 13.5413 14.117 13.5413 13.5417C13.5413 12.9664 13.075 12.5 12.4997 12.5C11.9244 12.5 11.458 12.9664 11.458 13.5417C11.458 14.117 11.9244 14.5833 12.4997 14.5833Z" fill="#E6F5F4"/>
<path d="M12.4997 18.7498C13.075 18.7498 13.5413 18.2835 13.5413 17.7082C13.5413 17.1329 13.075 16.6665 12.4997 16.6665C11.9244 16.6665 11.458 17.1329 11.458 17.7082C11.458 18.2835 11.9244 18.7498 12.4997 18.7498Z" fill="#E6F5F4"/>
<path d="M17.7087 14.5833C18.284 14.5833 18.7503 14.117 18.7503 13.5417C18.7503 12.9664 18.284 12.5 17.7087 12.5C17.1334 12.5 16.667 12.9664 16.667 13.5417C16.667 14.117 17.1334 14.5833 17.7087 14.5833Z" fill="#E6F5F4"/>
<path d="M17.7087 18.7498C18.284 18.7498 18.7503 18.2835 18.7503 17.7082C18.7503 17.1329 18.284 16.6665 17.7087 16.6665C17.1334 16.6665 16.667 17.1329 16.667 17.7082C16.667 18.2835 17.1334 18.7498 17.7087 18.7498Z" fill="#E6F5F4"/>
<path d="M2.08301 9.375V19.7917C2.08301 20.6205 2.41225 21.4153 2.9983 22.0014C3.58435 22.5874 4.37921 22.9167 5.20801 22.9167H19.7913C20.6201 22.9167 21.415 22.5874 22.0011 22.0014C22.5871 21.4153 22.9163 20.6205 22.9163 19.7917V9.375H2.08301ZM7.29134 18.75C7.01507 18.75 6.75012 18.6403 6.55477 18.4449C6.35942 18.2496 6.24967 17.9846 6.24967 17.7083C6.24967 17.4321 6.35942 17.1671 6.55477 16.9718C6.75012 16.7764 7.01507 16.6667 7.29134 16.6667C7.56761 16.6667 7.83256 16.7764 8.02791 16.9718C8.22326 17.1671 8.33301 17.4321 8.33301 17.7083C8.33301 17.9846 8.22326 18.2496 8.02791 18.4449C7.83256 18.6403 7.56761 18.75 7.29134 18.75ZM7.29134 14.5833C7.01507 14.5833 6.75012 14.4736 6.55477 14.2782C6.35942 14.0829 6.24967 13.8179 6.24967 13.5417C6.24967 13.2654 6.35942 13.0004 6.55477 12.8051C6.75012 12.6097 7.01507 12.5 7.29134 12.5C7.56761 12.5 7.83256 12.6097 8.02791 12.8051C8.22326 13.0004 8.33301 13.2654 8.33301 13.5417C8.33301 13.8179 8.22326 14.0829 8.02791 14.2782C7.83256 14.4736 7.56761 14.5833 7.29134 14.5833ZM12.4997 18.75C12.2234 18.75 11.9585 18.6403 11.7631 18.4449C11.5678 18.2496 11.458 17.9846 11.458 17.7083C11.458 17.4321 11.5678 17.1671 11.7631 16.9718C11.9585 16.7764 12.2234 16.6667 12.4997 16.6667C12.7759 16.6667 13.0409 16.7764 13.2362 16.9718C13.4316 17.1671 13.5413 17.4321 13.5413 17.7083C13.5413 17.9846 13.4316 18.2496 13.2362 18.4449C13.0409 18.6403 12.7759 18.75 12.4997 18.75ZM12.4997 14.5833C12.2234 14.5833 11.9585 14.4736 11.7631 14.2782C11.5678 14.0829 11.458 13.8179 11.458 13.5417C11.458 13.2654 11.5678 13.0004 11.7631 12.8051C11.9585 12.6097 12.2234 12.5 12.4997 12.5C12.7759 12.5 13.0409 12.6097 13.2362 12.8051C13.4316 13.0004 13.5413 13.2654 13.5413 13.5417C13.5413 13.8179 13.4316 14.0829 13.2362 14.2782C13.0409 14.4736 12.7759 14.5833 12.4997 14.5833ZM17.708 18.75C17.4317 18.75 17.1668 18.6403 16.9714 18.4449C16.7761 18.2496 16.6663 17.9846 16.6663 17.7083C16.6663 17.4321 16.7761 17.1671 16.9714 16.9718C17.1668 16.7764 17.4317 16.6667 17.708 16.6667C17.9843 16.6667 18.2492 16.7764 18.4446 16.9718C18.6399 17.1671 18.7497 17.4321 18.7497 17.7083C18.7497 17.9846 18.6399 18.2496 18.4446 18.4449C18.2492 18.6403 17.9843 18.75 17.708 18.75ZM17.708 14.5833C17.4317 14.5833 17.1668 14.4736 16.9714 14.2782C16.7761 14.0829 16.6663 13.8179 16.6663 13.5417C16.6663 13.2654 16.7761 13.0004 16.9714 12.8051C17.1668 12.6097 17.4317 12.5 17.708 12.5C17.9843 12.5 18.2492 12.6097 18.4446 12.8051C18.6399 13.0004 18.7497 13.2654 18.7497 13.5417C18.7497 13.8179 18.6399 14.0829 18.4446 14.2782C18.2492 14.4736 17.9843 14.5833 17.708 14.5833Z" fill="#029894"/>
</svg>
