<svg width="30" height="30" viewBox="0 0 30 30" fill="none" xmlns="http://www.w3.org/2000/svg">
<g id="Calender">
<g id="Group">
<path id="Vector" d="M6.875 5.875H23.75C24.7887 5.875 25.625 6.71125 25.625 7.75V12.4375H5V7.75C5 6.71125 5.83625 5.875 6.875 5.875Z" fill="#171717"/>
<path id="Vector_2" d="M5 11.5V24.625C5 25.6637 5.83625 26.5 6.875 26.5H23.75C24.7887 26.5 25.625 25.6637 25.625 24.625V11.5H5Z" fill="url(#paint0_linear_4508_2605)"/>
<path id="Vector_3" d="M10.625 4.9375C10.625 4.41973 10.2053 4 9.6875 4C9.16973 4 8.75 4.41973 8.75 4.9375V8.6875C8.75 9.20527 9.16973 9.625 9.6875 9.625C10.2053 9.625 10.625 9.20527 10.625 8.6875V4.9375Z" fill="#171717"/>
<path id="Vector_4" d="M21.875 4.9375C21.875 4.41973 21.4553 4 20.9375 4C20.4197 4 20 4.41973 20 4.9375V8.6875C20 9.20527 20.4197 9.625 20.9375 9.625C21.4553 9.625 21.875 9.20527 21.875 8.6875V4.9375Z" fill="#171717"/>
<path id="Vector_5" d="M21.875 13.375H20V15.25H21.875V13.375Z" fill="#171717"/>
<path id="Vector_6" d="M18.125 13.375H16.25V15.25H18.125V13.375Z" fill="#171717"/>
<path id="Vector_7" d="M14.375 13.375H12.5V15.25H14.375V13.375Z" fill="#171717"/>
<path id="Vector_8" d="M10.625 13.375H8.75V15.25H10.625V13.375Z" fill="#171717"/>
<path id="Vector_9" d="M21.875 17.125H20V19H21.875V17.125Z" fill="#171717"/>
<path id="Vector_10" d="M18.125 17.125H16.25V19H18.125V17.125Z" fill="#171717"/>
<path id="Vector_11" d="M14.375 17.125H12.5V19H14.375V17.125Z" fill="#171717"/>
<path id="Vector_12" d="M10.625 17.125H8.75V19H10.625V17.125Z" fill="#171717"/>
<path id="Vector_13" d="M18.125 20.875H16.25V22.75H18.125V20.875Z" fill="#171717"/>
<path id="Vector_14" d="M14.375 20.875H12.5V22.75H14.375V20.875Z" fill="#171717"/>
<path id="Vector_15" d="M10.625 20.875H8.75V22.75H10.625V20.875Z" fill="#171717"/>
</g>
</g>
<defs>
<linearGradient id="paint0_linear_4508_2605" x1="5" y1="19" x2="25.625" y2="19" gradientUnits="userSpaceOnUse">
<stop stop-color="#F3F3F3"/>
<stop offset="1" stop-color="#DFE3E4"/>
</linearGradient>
</defs>
</svg>
