<svg width="25" height="25" viewBox="0 0 25 25" fill="none" xmlns="http://www.w3.org/2000/svg">
<path d="M12.5 2.53906C10.5299 2.53906 8.60407 3.12326 6.966 4.21778C5.32794 5.3123 4.05122 6.86799 3.2973 8.68811C2.54338 10.5082 2.34612 12.5111 2.73046 14.4433C3.11481 16.3755 4.0635 18.1504 5.45656 19.5434C6.84962 20.9365 8.62449 21.8852 10.5567 22.2695C12.489 22.6539 14.4918 22.4566 16.3119 21.7027C18.132 20.9488 19.6877 19.6721 20.7822 18.034C21.8767 16.3959 22.4609 14.4701 22.4609 12.5C22.4578 9.85915 21.4074 7.32735 19.54 5.45998C17.6727 3.59261 15.1409 2.54216 12.5 2.53906ZM12.5 21.2891C10.7617 21.2891 9.06242 20.7736 7.61706 19.8078C6.17171 18.8421 5.04519 17.4694 4.37997 15.8634C3.71475 14.2574 3.54069 12.4903 3.87982 10.7853C4.21895 9.08043 5.05603 7.51437 6.2852 6.28519C7.51437 5.05602 9.08043 4.21894 10.7853 3.87982C12.4903 3.54069 14.2574 3.71474 15.8634 4.37996C17.4694 5.04519 18.8421 6.1717 19.8078 7.61706C20.7736 9.06241 21.2891 10.7617 21.2891 12.5C21.2865 14.8302 20.3597 17.0642 18.712 18.712C17.0642 20.3597 14.8302 21.2865 12.5 21.2891ZM18.5547 12.5C18.5547 12.6554 18.493 12.8044 18.3831 12.9143C18.2732 13.0242 18.1242 13.0859 17.9688 13.0859H12.5C12.3446 13.0859 12.1956 13.0242 12.0857 12.9143C11.9758 12.8044 11.9141 12.6554 11.9141 12.5V7.03125C11.9141 6.87585 11.9758 6.72681 12.0857 6.61693C12.1956 6.50705 12.3446 6.44531 12.5 6.44531C12.6554 6.44531 12.8044 6.50705 12.9143 6.61693C13.0242 6.72681 13.0859 6.87585 13.0859 7.03125V11.9141H17.9688C18.1242 11.9141 18.2732 11.9758 18.3831 12.0857C18.493 12.1956 18.5547 12.3446 18.5547 12.5Z" fill="#595959"/>
</svg>
