<svg width="30" height="30" viewBox="0 0 30 30" fill="none" xmlns="http://www.w3.org/2000/svg">
<rect x="0.5" y="0.5" width="29" height="29" rx="14.5" fill="#FF0000"/>
<rect x="0.5" y="0.5" width="29" height="29" rx="14.5" stroke="#E4E4E4"/>
<path d="M10.615 22.77C10.1683 22.77 9.78733 22.6127 9.472 22.298C9.15733 21.9833 9 21.6023 9 21.155V8.77H8V7.77H12V7H18V7.77H22V8.77H21V21.155C21 21.615 20.846 21.999 20.538 22.307C20.2293 22.6157 19.845 22.77 19.385 22.77H10.615ZM20 8.77H10V21.155C10 21.3343 10.0577 21.4817 10.173 21.597C10.2883 21.7123 10.4357 21.77 10.615 21.77H19.385C19.5383 21.77 19.6793 21.706 19.808 21.578C19.936 21.4493 20 21.3083 20 21.155V8.77ZM12.808 19.77H13.808V10.77H12.808V19.77ZM16.192 19.77H17.192V10.77H16.192V19.77Z" fill="white"/>
</svg>
