<svg width="30" height="30" viewBox="0 0 30 30" fill="none" xmlns="http://www.w3.org/2000/svg">
<rect x="0.5" y="0.5" width="29" height="29" rx="14.5" fill="white"/>
<rect x="0.5" y="0.5" width="29" height="29" rx="14.5" stroke="#E4E4E4"/>
<g clip-path="url(#clip0_3894_9613)">
<path fill-rule="evenodd" clip-rule="evenodd" d="M11.7421 16.9055L20.5073 9.95076C20.7204 9.78402 20.9779 9.68375 21.2476 9.66247C21.5173 9.64119 21.7873 9.69984 22.0239 9.8311C22.2604 9.96236 22.4531 10.1604 22.5778 10.4005C22.7025 10.6406 22.7537 10.9121 22.725 11.1812C22.7049 11.3605 22.6495 11.5342 22.562 11.692C22.4746 11.8499 22.3567 11.9889 22.2152 12.101L12.2577 20.005L12.161 20.0841C12.1215 20.1126 12.0804 20.139 12.038 20.1631L11.9853 20.1924H11.9794C11.6659 20.3526 11.3029 20.3867 10.9651 20.2875C10.6273 20.1883 10.3403 19.9635 10.1631 19.6593L10.0108 19.3985L7.45327 14.9573C7.35955 14.8012 7.29788 14.6279 7.27187 14.4476C7.24586 14.2674 7.25602 14.0837 7.30177 13.9075C7.34752 13.7312 7.42793 13.5658 7.53832 13.4209C7.6487 13.276 7.78685 13.1546 7.94468 13.0637C8.10251 12.9728 8.27687 12.9143 8.45758 12.8915C8.63828 12.8688 8.82171 12.8823 8.99714 12.9312C9.17258 12.9801 9.33651 13.0635 9.47936 13.1765C9.62221 13.2895 9.74111 13.4298 9.82913 13.5893L11.7451 16.9084L11.7421 16.9055Z" fill="#E4E4E4"/>
</g>
<defs>
<clipPath id="clip0_3894_9613">
<rect width="20" height="20" fill="white" transform="translate(5 5)"/>
</clipPath>
</defs>
</svg>
