<svg width="9" height="5" viewBox="0 0 9 5" fill="none" xmlns="http://www.w3.org/2000/svg">
<path fill-rule="evenodd" clip-rule="evenodd" d="M4.94221 4.81672C4.82501 4.93389 4.66606 4.99971 4.50034 4.99971C4.33461 4.99971 4.17567 4.93389 4.05846 4.81672L0.522837 1.2811C0.463143 1.22344 0.415529 1.15448 0.382773 1.07823C0.350017 1.00197 0.332776 0.919961 0.332055 0.836974C0.331334 0.753987 0.347147 0.671687 0.378573 0.594877C0.409999 0.518067 0.456407 0.448284 0.51509 0.389601C0.573773 0.330918 0.643555 0.28451 0.720365 0.253084C0.797175 0.221659 0.879475 0.205845 0.962462 0.206567C1.04545 0.207288 1.12746 0.224529 1.20371 0.257285C1.27997 0.29004 1.34893 0.337654 1.40659 0.397348L4.50034 3.4911L7.59409 0.397348C7.71196 0.283499 7.86984 0.220503 8.03371 0.221927C8.19759 0.223351 8.35434 0.289081 8.47022 0.404961C8.5861 0.520841 8.65183 0.677599 8.65326 0.841472C8.65468 1.00535 8.59169 1.16322 8.47784 1.2811L4.94221 4.81672Z" fill="#838383"/>
</svg>
