<svg width="37" height="37" viewBox="0 0 37 37" fill="none" xmlns="http://www.w3.org/2000/svg">
<rect x="0.5" y="0.5" width="36" height="36" rx="18" fill="white"/>
<rect x="0.5" y="0.5" width="36" height="36" rx="18" stroke="#029894"/>
<path d="M20.1667 19L23.75 15.4167C24.0833 15.0833 24.0833 14.5833 23.75 14.25C23.4167 13.9167 22.9167 13.9167 22.5833 14.25L19 17.8333L15.4167 14.25C15.0833 13.9167 14.5833 13.9167 14.25 14.25C13.9167 14.5833 13.9167 15.0833 14.25 15.4167L17.8333 19L14.25 22.5833C14.0833 22.75 14 22.9167 14 23.1667C14 23.6667 14.3333 24 14.8333 24C15.0833 24 15.25 23.9167 15.4167 23.75L19 20.1667L22.5833 23.75C22.75 23.9167 22.9167 24 23.1667 24C23.4167 24 23.5833 23.9167 23.75 23.75C24.0833 23.4167 24.0833 22.9167 23.75 22.5833L20.1667 19Z" fill="#029894"/>
</svg>
