<svg width="135" height="71" viewBox="0 0 135 71" xmlns="http://www.w3.org/2000/svg" fill="none"><path d="M17.385 54.73h1.7v10.123h-1.532l-5.09-7.427v7.427h-1.7V54.73h1.666l4.955 7.232V54.73zm6.745 10.263c-.69 0-1.293-.147-1.806-.44-.513-.3-.912-.727-1.197-1.282-.28-.555-.42-1.222-.42-2.002 0-.755.136-1.418.406-1.987.276-.57.67-1.012 1.183-1.33.514-.317 1.127-.476 1.84-.476.692 0 1.29.152 1.8.456.51.303.9.737 1.176 1.3.28.566.42 1.245.42 2.04 0 .73-.133 1.377-.4 1.938-.26.555-.645.99-1.154 1.308-.504.318-1.12.477-1.848.477zm.007-1.295c.392 0 .714-.108.966-.322.257-.215.446-.51.567-.883.126-.373.19-.797.19-1.274 0-.444-.057-.852-.17-1.225-.106-.374-.288-.672-.545-.896-.252-.23-.588-.345-1.008-.345-.396 0-.726.105-.987.316-.256.206-.45.495-.58.868-.127.37-.19.796-.19 1.28 0 .44.056.848.168 1.226.117.374.304.677.56.91.257.23.6.343 1.03.343zm15.76 1.155H38.12l-1.743-4.11h-2.352v4.11h-1.7V54.73h4.108c.774 0 1.41.122 1.91.364.505.24.878.577 1.12 1.015.243.434.365.942.365 1.526 0 .54-.09.996-.266 1.364-.178.364-.41.663-.693.897-.28.228-.582.415-.904.56l1.932 4.396zm-3.85-5.46c.645 0 1.146-.15 1.506-.45.364-.297.546-.712.546-1.244 0-.524-.17-.928-.505-1.213-.336-.284-.78-.427-1.33-.427h-2.24v3.332h2.023zm6.72 2.233c-.005.41.06.774.196 1.092.135.317.336.566.602.748.266.178.595.267.987.267.4 0 .75-.09 1.043-.266.3-.182.497-.458.595-.826h1.56c-.083.505-.284.93-.6 1.282-.32.35-.703.615-1.156.797-.448.18-.915.273-1.4.273-.7 0-1.316-.147-1.848-.44-.528-.3-.94-.725-1.24-1.275-.293-.55-.44-1.207-.44-1.968 0-.742.135-1.4.406-1.974.27-.578.66-1.033 1.17-1.364.512-.332 1.128-.498 1.847-.498.713 0 1.313.152 1.798.456.49.303.86.727 1.106 1.273.252.542.378 1.176.378 1.904v.52h-5.005zm0-1.057h3.395c0-.352-.06-.666-.182-.947-.12-.284-.308-.508-.56-.67-.248-.17-.56-.254-.938-.254-.373 0-.688.09-.945.272-.257.182-.45.418-.58.707-.132.284-.195.58-.19.89zm9.596-3.096c.564 0 1.06.113 1.49.337.43.224.773.535 1.03.93.26.398.417.85.47 1.352h-1.457c-.033-.22-.112-.426-.238-.623-.126-.2-.297-.362-.51-.483-.216-.127-.475-.19-.778-.19-.542 0-.983.2-1.323.603-.336.4-.504 1.017-.504 1.848 0 .765.16 1.374.483 1.827.322.452.78.678 1.38.678.297 0 .552-.065.762-.196.214-.135.382-.3.504-.497.126-.2.207-.4.245-.602h1.414c-.04.49-.195.927-.46 1.31-.263.382-.608.683-1.037.903-.425.215-.915.323-1.47.323-.663 0-1.253-.145-1.77-.434-.515-.296-.918-.72-1.212-1.276-.293-.56-.44-1.234-.44-2.023 0-.75.137-1.408.413-1.972.275-.57.67-1.013 1.183-1.33.513-.322 1.122-.483 1.827-.483zm7.56 7.52c-.69 0-1.293-.148-1.806-.442-.513-.3-.912-.726-1.197-1.282-.28-.555-.42-1.222-.42-2.002 0-.755.135-1.418.406-1.987.275-.57.67-1.012 1.183-1.33.512-.317 1.126-.476 1.84-.476.69 0 1.29.152 1.8.456.508.303.9.737 1.175 1.3.28.566.42 1.245.42 2.04 0 .73-.133 1.377-.4 1.938-.26.555-.645.99-1.154 1.308-.503.318-1.12.477-1.847.477zm.007-1.297c.392 0 .714-.107.966-.322.257-.214.446-.508.567-.882.126-.373.19-.797.19-1.274 0-.444-.057-.852-.17-1.225-.106-.374-.288-.672-.545-.896-.252-.23-.588-.345-1.008-.345-.397 0-.726.105-.987.316-.257.206-.45.495-.58.868-.127.37-.19.796-.19 1.28 0 .44.056.848.168 1.226.118.374.304.677.56.91.258.23.6.343 1.03.343zm4.906 1.156v-7.238h1.63v1.567c.118-.36.284-.665.498-.916.22-.257.476-.453.77-.588.294-.136.614-.203.96-.203.083 0 .165.004.244.014.08.008.138.024.175.047v1.632c-.05-.025-.12-.04-.203-.05-.08-.01-.15-.014-.21-.014-.35-.03-.66-.014-.93.04-.267.057-.493.153-.68.288-.182.13-.32.3-.413.505-.093.2-.14.435-.14.706v4.207h-1.7zm8.15.14c-.958 0-1.71-.33-2.255-.987-.545-.66-.818-1.594-.818-2.807 0-.758.11-1.413.33-1.97.223-.558.55-.99.98-1.293.433-.308.97-.462 1.61-.462.298 0 .57.037.81.11.25.072.468.165.66.282.19.116.35.245.482.385.135.14.24.28.315.42v-4.22h1.707v10.4h-1.26l-.19-1.484c-.055.173-.14.355-.25.546-.108.187-.255.362-.442.525-.182.163-.41.296-.686.398-.276.103-.608.155-.995.155zm.35-1.253c.61 0 1.056-.2 1.336-.596.285-.4.427-1.063.427-1.987-.005-.528-.07-.97-.197-1.33-.12-.36-.31-.63-.567-.813-.252-.18-.58-.273-.98-.273-.513.002-.935.19-1.267.57-.332.377-.498.992-.498 1.846 0 .85.152 1.494.455 1.933.303.432.733.65 1.288.65zm8.753-9.01h6.62l-.006 1.443h-4.886v2.91h4.312v1.422h-4.312v4.348h-1.73V54.73zm10.96 10.263c-.69 0-1.293-.147-1.806-.44-.513-.3-.912-.727-1.197-1.282-.28-.555-.42-1.222-.42-2.002 0-.755.135-1.418.406-1.987.275-.57.67-1.012 1.183-1.33.513-.317 1.127-.476 1.84-.476.692 0 1.29.152 1.8.456.51.303.9.737 1.176 1.3.28.566.42 1.245.42 2.04 0 .73-.133 1.377-.4 1.938-.26.555-.645.99-1.154 1.308-.504.318-1.12.477-1.848.477zm.007-1.295c.392 0 .714-.108.966-.322.257-.215.446-.51.567-.883.126-.373.19-.797.19-1.274 0-.444-.057-.852-.17-1.225-.106-.374-.288-.672-.545-.896-.252-.23-.588-.345-1.008-.345-.397 0-.726.105-.987.316-.257.206-.45.495-.58.868-.127.37-.19.796-.19 1.28 0 .44.056.848.168 1.226.117.374.303.677.56.91.257.23.6.343 1.03.343zm7.47 1.295c-.354 0-.697-.052-1.03-.154-.325-.11-.62-.263-.88-.464-.262-.205-.47-.457-.624-.756-.154-.298-.23-.646-.23-1.042v-4.964h1.707v4.768c0 .392.124.714.37.965.253.252.63.378 1.135.378.458 0 .824-.12 1.1-.357.275-.242.412-.59.412-1.043v-4.71h1.694v7.238h-1.308l-.19-1.414c-.087.395-.244.708-.468.936-.22.224-.478.383-.777.477-.294.093-.597.14-.91.14zm5.543-.14v-7.238h1.666v1.035c.112-.186.264-.366.455-.538.197-.173.438-.313.722-.42.285-.108.62-.16 1-.16.45 0 .865.087 1.247.265.387.177.697.455.93.833.238.377.357.865.357 1.462v4.76h-1.708v-4.557c0-.476-.13-.828-.393-1.056-.26-.235-.59-.352-.987-.352-.27 0-.527.047-.77.14-.242.09-.44.227-.595.413-.15.184-.224.412-.224.688v4.725h-1.7zm10.857.14c-.957 0-1.708-.33-2.254-.987-.546-.66-.82-1.594-.82-2.807 0-.758.11-1.413.33-1.97.224-.558.55-.99.98-1.293.434-.308.97-.462 1.61-.462.298 0 .57.037.812.11.247.072.466.165.658.282.19.116.352.245.483.385.135.14.24.28.315.42v-4.22h1.71v10.4h-1.26l-.19-1.484c-.056.173-.14.355-.252.546-.108.187-.255.362-.44.525-.183.163-.412.296-.687.398-.275.103-.606.155-.993.155zm.35-1.253c.61 0 1.057-.2 1.337-.596.284-.4.427-1.063.427-1.987-.004-.528-.07-.97-.195-1.33-.122-.36-.31-.63-.567-.813-.252-.18-.58-.273-.98-.273-.514.002-.936.19-1.267.57-.33.377-.496.992-.496 1.846 0 .85.15 1.494.455 1.933.302.432.73.65 1.287.65zm7.218-.82v1.933h-1.918V62.92h1.918zm.05-8.19l-.45 7.253h-1.09l-.47-7.252h2.01z" fill="#637381"/><g clip-path="url(#a)"><path d="M51.99.853h20.387c.032.02.063.054.096.058 1.928.257 3.907 2.007 3.877 4.804-.038 3.502-.01 7.004-.01 10.507v.472c-.174 0-.29-.002-.404 0-2.465.056-4.374 1.098-5.674 3.21-2.927 4.752-5.854 9.502-8.767 14.26-.27.44-.474.926-.653 1.41-.087.238-.198.282-.417.282-2.616-.005-5.233.007-7.85-.006-2.537-.012-4.564-2.038-4.567-4.575-.008-8.62-.016-17.238.008-25.856.004-1.882.924-3.272 2.617-4.107.424-.21.903-.308 1.356-.457zm10.186 16.66h5.584c.677 0 1.355.017 2.03-.013.98-.045 1.685-.962 1.513-1.925-.15-.846-.802-1.38-1.722-1.38-4.945-.005-9.892-.003-14.837-.002-.065 0-.13.002-.195.006-.835.053-1.51.746-1.543 1.58-.037.977.71 1.726 1.75 1.73 2.473.007 4.947.002 7.42.002zm-3.348 3.34c-1.353 0-2.706-.004-4.06 0-1.007.004-1.752.702-1.763 1.644-.01.96.73 1.69 1.76 1.692 2.72.01 5.438.01 8.157 0 1.032-.005 1.754-.734 1.738-1.707-.016-.947-.753-1.627-1.772-1.63-1.354-.003-2.706 0-4.06 0zm-.832-10c1.08 0 2.158.003 3.238 0 1.01-.004 1.754-.698 1.768-1.64.014-.957-.728-1.69-1.753-1.696-2.16-.01-4.318-.01-6.476 0-1.03.005-1.774.726-1.77 1.683.008.955.758 1.65 1.793 1.654 1.067.003 2.132 0 3.2 0z" fill="#ddd"/><path d="M88 38.04c-.09.282-.152.58-.278.846-.62 1.304-1.665 1.96-3.105 1.963-5.792.005-11.584.002-17.375 0-.233 0-.47-.017-.7-.058-2.29-.413-3.425-2.928-2.21-4.907 2.92-4.754 5.843-9.507 8.773-14.255 1.33-2.158 4.288-2.16 5.625.003 2.94 4.757 5.87 9.52 8.79 14.29.218.357.322.785.48 1.18v.937zm-13.75-8.034c0 .546-.004 1.092.002 1.64.012.924.667 1.642 1.546 1.7.9.063 1.717-.573 1.763-1.5.06-1.22.062-2.45-.003-3.668-.05-.937-.84-1.536-1.774-1.48-.858.052-1.516.765-1.53 1.668-.01.546-.002 1.093-.003 1.64zm1.663 7.502c.924.003 1.67-.734 1.675-1.653.004-.915-.742-1.66-1.666-1.662-.924-.002-1.668.732-1.67 1.653-.002.92.737 1.66 1.66 1.663z" fill="#ccc"/></g><defs><clipPath id="a"><path fill="#fff" d="M48 .853h40v40H48z"/></clipPath></defs></svg>