<svg width="20" height="20" viewBox="0 0 20 20" fill="none" xmlns="http://www.w3.org/2000/svg">
<g id="Group 12975">
<circle id="Ellipse 21" cx="10" cy="10" r="10" fill="#029894"/>
<path id="Vector" d="M13.674 10.6118H10.6128V13.6731C10.6128 13.8354 10.5483 13.9912 10.4335 14.106C10.3187 14.2208 10.1629 14.2853 10.0006 14.2853C9.83818 14.2853 9.68245 14.2208 9.56764 14.106C9.45282 13.9912 9.38831 13.8354 9.38831 13.6731V10.6118H6.32709C6.16471 10.6118 6.00898 10.5473 5.89417 10.4325C5.77935 10.3177 5.71484 10.162 5.71484 9.99958C5.71484 9.8372 5.77935 9.68148 5.89417 9.56666C6.00898 9.45184 6.16471 9.38734 6.32709 9.38734H9.38831V6.32611C9.38831 6.16373 9.45282 6.00801 9.56764 5.89319C9.68245 5.77837 9.83818 5.71387 10.0006 5.71387C10.1629 5.71387 10.3187 5.77837 10.4335 5.89319C10.5483 6.00801 10.6128 6.16373 10.6128 6.32611V9.38734H13.674C13.8364 9.38734 13.9921 9.45184 14.107 9.56666C14.2218 9.68148 14.2863 9.8372 14.2863 9.99958C14.2863 10.162 14.2218 10.3177 14.107 10.4325C13.9921 10.5473 13.8364 10.6118 13.674 10.6118Z" fill="white"/>
</g>
</svg>
