<svg width="20" height="18" viewBox="0 0 20 18" fill="none"
    xmlns="http://www.w3.org/2000/svg">
    <path d="M2.25215 9.92307L1.76098 10.4141C1.89164 10.5427 2.06817 10.6148 2.25215 10.6148C2.43613 10.6148 2.61266 10.5427 2.74332 10.4141L2.25215 9.92307ZM4.30613 8.8763C4.43763 8.74679 4.5119 8.57076 4.5126 8.38691C4.51329 8.20307 4.44036 8.02648 4.30985 7.89599C4.24523 7.83138 4.16841 7.78004 4.08379 7.74489C3.99917 7.70973 3.9084 7.69146 3.81666 7.69112C3.63139 7.69043 3.45343 7.7628 3.32193 7.8923L4.30613 8.8763ZM1.1805 7.8923C1.0484 7.76664 0.871831 7.6975 0.688845 7.6998C0.505859 7.7021 0.331109 7.77565 0.202258 7.9046C0.0734071 8.03355 0.000771657 8.20757 6.11293e-06 8.38916C-0.000759431 8.57075 0.0704062 8.74537 0.198165 8.87538L1.1805 7.8923ZM16.1463 4.74646C16.1931 4.82637 16.2555 4.89618 16.3299 4.95178C16.4042 5.00737 16.4891 5.04763 16.5794 5.07018C16.6697 5.09272 16.7637 5.0971 16.8557 5.08305C16.9477 5.069 17.036 5.0368 17.1153 4.98837C17.1946 4.93993 17.2634 4.87623 17.3175 4.80102C17.3716 4.72581 17.41 4.64061 17.4304 4.55045C17.4508 4.46028 17.4528 4.36698 17.4362 4.27604C17.4197 4.1851 17.385 4.09835 17.3342 4.02092L16.1463 4.74646ZM10.0653 9.4631e-06C5.37033 9.4631e-06 1.55353 3.74862 1.55353 8.3843H2.9489C2.9489 4.524 6.13034 1.38462 10.0653 1.38462V9.4631e-06ZM1.55353 8.3843V9.92307H2.9489V8.3843H1.55353ZM2.74425 10.4151L4.30613 8.8763L3.32193 7.8923L1.75912 9.43107L2.74425 10.4151ZM2.74425 9.43199L1.1805 7.8923L0.197235 8.87538L1.76005 10.4132L2.74425 9.43199ZM17.3342 4.02277C16.5705 2.79148 15.5014 1.77512 14.2289 1.07082C12.9565 0.36653 11.5223 -0.00215357 10.0653 9.4631e-06V1.38462C11.2841 1.38211 12.4842 1.68996 13.5489 2.27873C14.6136 2.86749 15.5082 3.71748 16.1472 4.74739L17.3342 4.02277ZM17.7258 8.07692L18.2161 7.58492C18.0855 7.45696 17.9094 7.3852 17.7258 7.3852C17.5423 7.3852 17.3662 7.45696 17.2356 7.58492L17.7258 8.07692ZM15.6663 9.12276C15.6011 9.18671 15.5493 9.26276 15.5137 9.34659C15.4782 9.43041 15.4596 9.52036 15.4591 9.61131C15.458 9.79498 15.5306 9.97154 15.6607 10.1021C15.7908 10.2328 15.9679 10.3067 16.153 10.3078C16.3381 10.3088 16.5161 10.2368 16.6477 10.1077L15.6663 9.12276ZM18.804 10.1077C18.8688 10.1733 18.9461 10.2255 19.0314 10.2611C19.1167 10.2968 19.2083 10.3153 19.3009 10.3154C19.3935 10.3156 19.4852 10.2975 19.5706 10.2622C19.6561 10.2269 19.7336 10.175 19.7987 10.1097C19.8637 10.0443 19.915 9.96676 19.9496 9.88153C19.9841 9.79631 20.0012 9.70512 19.9999 9.61326C19.9986 9.52141 19.9789 9.43073 19.9419 9.34652C19.9049 9.26231 19.8514 9.18625 19.7845 9.12276L18.804 10.1077ZM3.77589 13.2517C3.67868 13.0954 3.52288 12.9838 3.34276 12.9414C3.16263 12.8991 2.97294 12.9295 2.81541 13.026C2.65788 13.1224 2.54542 13.277 2.50277 13.4558C2.46011 13.6345 2.49076 13.8227 2.58797 13.9791L3.77589 13.2517ZM9.88295 18C14.5919 18 18.4226 14.2541 18.4226 9.61568H17.0272C17.0272 13.4741 13.8365 16.6154 9.88295 16.6154V18ZM18.4226 9.61568V8.07692H17.0272V9.61568H18.4226ZM17.2356 7.58492L15.6663 9.12276L16.6477 10.1077L18.2161 8.56892L17.2356 7.58492ZM17.2356 8.56892L18.804 10.1077L19.7845 9.12276L18.2161 7.58492L17.2356 8.56892ZM2.58704 13.9781C3.35581 15.2108 4.42985 16.2275 5.70683 16.9315C6.98381 17.6355 8.42119 18.0034 9.88202 18V16.6154C8.65934 16.6188 7.45615 16.3114 6.38711 15.7226C5.31806 15.1338 4.41971 14.2831 3.77589 13.2517L2.58704 13.9781Z" fill="#ccc"/>
</svg>
