<svg width="30" height="30" viewBox="0 0 30 30" fill="none" xmlns="http://www.w3.org/2000/svg">
<rect x="0.5" y="0.5" width="29" height="29" rx="14.5" fill="#FF0000"/>
<rect x="0.5" y="0.5" width="29" height="29" rx="14.5" stroke="#E4E4E4"/>
<path d="M16.1667 15L19.75 11.4167C20.0833 11.0833 20.0833 10.5833 19.75 10.25C19.4167 9.91667 18.9167 9.91667 18.5833 10.25L15 13.8333L11.4167 10.25C11.0833 9.91667 10.5833 9.91667 10.25 10.25C9.91667 10.5833 9.91667 11.0833 10.25 11.4167L13.8333 15L10.25 18.5833C10.0833 18.75 10 18.9167 10 19.1667C10 19.6667 10.3333 20 10.8333 20C11.0833 20 11.25 19.9167 11.4167 19.75L15 16.1667L18.5833 19.75C18.75 19.9167 18.9167 20 19.1667 20C19.4167 20 19.5833 19.9167 19.75 19.75C20.0833 19.4167 20.0833 18.9167 19.75 18.5833L16.1667 15Z" fill="white"/>
</svg>
