<svg width="20" height="20" viewBox="0 0 20 20" fill="none" xmlns="http://www.w3.org/2000/svg">
<rect width="20" height="20" fill="#E7E7E7"/>
<g id="Employee">
<path d="M-1251 -2876C-1251 -2877.1 -1250.1 -2878 -1249 -2878H4913C4914.1 -2878 4915 -2877.1 4915 -2876V10434C4915 10435.1 4914.1 10436 4913 10436H-1249C-1250.1 10436 -1251 10435.1 -1251 10434V-2876Z" fill="#C2D7D6"/>
<path d="M-1249 -2877H4913V-2879H-1249V-2877ZM4914 -2876V10434H4916V-2876H4914ZM4913 10435H-1249V10437H4913V10435ZM-1250 10434V-2876H-1252V10434H-1250ZM-1249 10435C-1249.55 10435 -1250 10434.6 -1250 10434H-1252C-1252 10435.7 -1250.66 10437 -1249 10437V10435ZM4914 10434C4914 10434.6 4913.55 10435 4913 10435V10437C4914.66 10437 4916 10435.7 4916 10434H4914ZM4913 -2877C4913.55 -2877 4914 -2876.55 4914 -2876H4916C4916 -2877.66 4914.66 -2879 4913 -2879V-2877ZM-1249 -2879C-1250.66 -2879 -1252 -2877.66 -1252 -2876H-1250C-1250 -2876.55 -1249.55 -2877 -1249 -2877V-2879Z" fill="black" fill-opacity="0.1"/>
<g id="Employee Dashboard " clip-path="url(#clip0_0_1)">
<rect width="1920" height="1080" transform="translate(-560 -836)" fill="white"/>
<g id="Frame 42">
<g id="Frame 12750" filter="url(#filter0_d_0_1)">
<rect x="-200" y="-350" width="530" height="430" rx="10" fill="white" shape-rendering="crispEdges"/>
<g id="Group 12865">
<g id="Group 12766">
<g id="Frame 12769">
<rect id="Rectangle 104" x="-184.5" y="-14.5" width="499" height="49" rx="4.5" stroke="#068987"/>
<g id="Group 12767">
<g id="Tea">
<g id="Group">
<path id="Vector" d="M4.0625 6.875C3.97962 6.875 3.90014 6.90793 3.84153 6.96653C3.78293 7.02514 3.75 7.10462 3.75 7.1875V14.375C3.75 15.2038 4.07924 15.9987 4.66529 16.5847C5.25134 17.1708 6.0462 17.5 6.875 17.5H12.5C13.3288 17.5 14.1237 17.1708 14.7097 16.5847C15.2958 15.9987 15.625 15.2038 15.625 14.375V7.1875C15.625 7.10462 15.5921 7.02514 15.5335 6.96653C15.4749 6.90793 15.3954 6.875 15.3125 6.875H4.0625ZM4.375 7.5H15V14.375C15 15.7656 13.8906 16.875 12.5 16.875H6.875C6.54623 16.8767 6.2204 16.8131 5.91634 16.6881C5.61228 16.563 5.33602 16.3789 5.10354 16.1465C4.87106 15.914 4.68698 15.6377 4.56193 15.3337C4.43688 15.0296 4.37334 14.7038 4.375 14.375V7.5Z" fill="#34485C"/>
<path id="Vector_2" d="M1.55753 17.0275C1.47486 17.0288 1.39608 17.0629 1.33845 17.1221C1.28081 17.1814 1.24902 17.2611 1.25002 17.3438C1.25068 17.8823 1.46491 18.3986 1.8457 18.7793C2.22649 19.1601 2.74276 19.3744 3.28127 19.375H16.0938C16.6323 19.3744 17.1486 19.1601 17.5293 18.7793C17.9101 18.3986 18.1244 17.8823 18.125 17.3438C18.125 17.2609 18.0921 17.1814 18.0335 17.1228C17.9749 17.0642 17.8954 17.0313 17.8125 17.0313C17.7296 17.0313 17.6502 17.0642 17.5916 17.1228C17.533 17.1814 17.5 17.2609 17.5 17.3438C17.5 18.1281 16.8781 18.75 16.0938 18.75H3.28127C3.09623 18.7513 2.91277 18.7159 2.74155 18.6457C2.57034 18.5755 2.41479 18.4719 2.28394 18.3411C2.15309 18.2102 2.04955 18.0547 1.97935 17.8835C1.90916 17.7123 1.87369 17.5288 1.87502 17.3438C1.87553 17.302 1.86765 17.2605 1.85186 17.2218C1.83607 17.1832 1.81268 17.148 1.78308 17.1186C1.75348 17.0891 1.71827 17.0658 1.67953 17.0502C1.64079 17.0345 1.5993 17.0268 1.55753 17.0275Z" fill="#576D7E"/>
<path id="Vector_3" d="M15.332 8.75C15.2492 8.75 15.1697 8.78293 15.1111 8.84153C15.0525 8.90014 15.0195 8.97962 15.0195 9.0625C15.0195 9.14538 15.0525 9.22486 15.1111 9.28347C15.1697 9.34207 15.2492 9.375 15.332 9.375H15.982C17.1708 9.375 18.1239 10.3425 18.1239 11.5625C18.1239 12.7831 17.1708 13.75 15.9814 13.75H15.332C15.2492 13.75 15.1697 13.7829 15.1111 13.8415C15.0525 13.9001 15.0195 13.9796 15.0195 14.0625C15.0195 14.1454 15.0525 14.2249 15.1111 14.2835C15.1697 14.3421 15.2492 14.375 15.332 14.375H15.982C17.4708 14.375 18.6595 13.1737 18.7245 11.6825C18.7407 11.6445 18.7492 11.6038 18.7495 11.5625C18.7495 10.0125 17.5127 8.75 15.9814 8.75H15.332Z" fill="#34485C"/>
<path id="Vector_4" d="M5.3125 9.375C5.22962 9.375 5.15014 9.40793 5.09153 9.46653C5.03293 9.52514 5 9.60462 5 9.6875V11.5625C5 11.6454 5.03293 11.7249 5.09153 11.7835C5.15014 11.8421 5.22962 11.875 5.3125 11.875H6.5625C6.64538 11.875 6.72486 11.8421 6.78347 11.7835C6.84207 11.7249 6.875 11.6454 6.875 11.5625V9.6875C6.875 9.60462 6.84207 9.52514 6.78347 9.46653C6.72486 9.40793 6.64538 9.375 6.5625 9.375H5.3125ZM5.625 10H6.25V11.25H5.625V10Z" fill="#F8B84E"/>
<path id="Vector_5" fill-rule="evenodd" clip-rule="evenodd" d="M5.625 6.875V10H6.25V6.875H5.625Z" fill="#F8B84E"/>
<path id="Vector_6" d="M8.44519 6.25134C8.48634 6.25085 8.52699 6.24223 8.56479 6.22599C8.6026 6.20976 8.63683 6.18622 8.66552 6.15672C8.69421 6.12722 8.71679 6.09235 8.73196 6.0541C8.74714 6.01586 8.75461 5.97497 8.75395 5.93383C8.75395 5.42195 9.18395 5.00134 9.7377 5.00134C9.82058 5.00134 9.90006 4.96841 9.95867 4.90981C10.0173 4.8512 10.0502 4.77172 10.0502 4.68884C10.0502 4.60596 10.0173 4.52646 9.95867 4.46786C9.90006 4.40925 9.82058 4.37634 9.7377 4.37634C8.85957 4.37634 8.12895 5.07008 8.12895 5.93383C8.12828 5.9756 8.13599 6.0171 8.15163 6.05584C8.16726 6.09458 8.19052 6.12979 8.22 6.15939C8.24949 6.18899 8.28461 6.21238 8.32329 6.22817C8.36197 6.24396 8.40342 6.25185 8.44519 6.25134ZM10.3202 6.25134C10.3612 6.25069 10.4017 6.24196 10.4394 6.22565C10.4771 6.20934 10.5112 6.18576 10.5397 6.15628C10.5683 6.1268 10.5907 6.09199 10.6058 6.05382C10.6209 6.01565 10.6284 5.97487 10.6277 5.93383C10.6277 5.42195 11.0577 5.00134 11.6115 5.00134C11.6943 5.00134 11.7738 4.96841 11.8324 4.90981C11.891 4.8512 11.924 4.77172 11.924 4.68884C11.924 4.60596 11.891 4.52646 11.8324 4.46786C11.7738 4.40925 11.6943 4.37634 11.6115 4.37634C10.7333 4.37634 10.0027 5.07008 10.0027 5.93383C10.002 5.97571 10.0098 6.0173 10.0255 6.05613C10.0412 6.09495 10.0646 6.13023 10.0942 6.15985C10.1238 6.18947 10.1591 6.21283 10.1979 6.22855C10.2367 6.24427 10.2783 6.25202 10.3202 6.25134Z" fill="#CAD1D8"/>
<path id="Vector_7" fill-rule="evenodd" clip-rule="evenodd" d="M9.69531 4.375C9.61243 4.375 9.53295 4.40793 9.47435 4.46653C9.41574 4.52514 9.38281 4.60462 9.38281 4.6875C9.38281 4.77038 9.41574 4.84986 9.47435 4.90847C9.53295 4.96707 9.61243 5 9.69531 5H14.0703C14.1532 5 14.2327 4.96707 14.2913 4.90847C14.3499 4.84986 14.3828 4.77038 14.3828 4.6875C14.3828 4.60462 14.3499 4.52514 14.2913 4.46653C14.2327 4.40793 14.1532 4.375 14.0703 4.375H9.69531ZM9.69531 3.125C9.61243 3.125 9.53295 3.15793 9.47435 3.21653C9.41574 3.27514 9.38281 3.35462 9.38281 3.4375C9.38281 3.52038 9.41574 3.59986 9.47435 3.65847C9.53295 3.71707 9.61243 3.75 9.69531 3.75H14.0703C14.1532 3.75 14.2327 3.71707 14.2913 3.65847C14.3499 3.59986 14.3828 3.52038 14.3828 3.4375C14.3828 3.35462 14.3499 3.27514 14.2913 3.21653C14.2327 3.15793 14.1532 3.125 14.0703 3.125H9.69531Z" fill="#CAD1D8"/>
<path id="Vector_8" d="M14.0664 3.125C13.9835 3.125 13.904 3.15793 13.8454 3.21653C13.7868 3.27514 13.7539 3.35462 13.7539 3.4375C13.7539 3.52038 13.7868 3.59986 13.8454 3.65847C13.904 3.71707 13.9835 3.75 14.0664 3.75C14.2427 3.75 14.3789 3.88625 14.3789 4.0625C14.3789 4.23875 14.2427 4.375 14.0664 4.375C13.9835 4.375 13.904 4.40793 13.8454 4.46653C13.7868 4.52514 13.7539 4.60462 13.7539 4.6875C13.7539 4.77038 13.7868 4.84986 13.8454 4.90847C13.904 4.96707 13.9835 5 14.0664 5C14.5802 5 15.0039 4.57687 15.0039 4.0625C15.0039 3.54875 14.5802 3.125 14.0664 3.125Z" fill="#CAD1D8"/>
<path id="Vector_9" fill-rule="evenodd" clip-rule="evenodd" d="M5.31641 3.125C5.23353 3.125 5.15405 3.15793 5.09544 3.21653C5.03683 3.27514 5.00391 3.35462 5.00391 3.4375C5.00391 3.52038 5.03683 3.59986 5.09544 3.65847C5.15405 3.71707 5.23353 3.75 5.31641 3.75H9.69141C9.77429 3.75 9.85378 3.71707 9.91238 3.65847C9.97099 3.59986 10.0039 3.52038 10.0039 3.4375C10.0039 3.35462 9.97099 3.27514 9.91238 3.21653C9.85378 3.15793 9.77429 3.125 9.69141 3.125H5.31641Z" fill="#CAD1D8"/>
<path id="Vector_10" d="M5.30859 1.875C5.39147 1.875 5.47096 1.90793 5.52956 1.96653C5.58817 2.02514 5.62109 2.10462 5.62109 2.1875C5.62109 2.27038 5.58817 2.34986 5.52956 2.40847C5.47096 2.46707 5.39147 2.5 5.30859 2.5C5.13234 2.5 4.99609 2.63625 4.99609 2.8125C4.99609 2.98875 5.13234 3.125 5.30859 3.125C5.39147 3.125 5.47096 3.15793 5.52956 3.21653C5.58817 3.27514 5.62109 3.35462 5.62109 3.4375C5.62109 3.52038 5.58817 3.59986 5.52956 3.65847C5.47096 3.71707 5.39147 3.75 5.30859 3.75C4.79484 3.75 4.37109 3.32687 4.37109 2.8125C4.37109 2.29875 4.79484 1.875 5.30859 1.875Z" fill="#CAD1D8"/>
<path id="Vector_11" fill-rule="evenodd" clip-rule="evenodd" d="M5.31641 1.875C5.23353 1.875 5.15405 1.90793 5.09544 1.96653C5.03683 2.02514 5.00391 2.10462 5.00391 2.1875C5.00391 2.27038 5.03683 2.34986 5.09544 2.40847C5.15405 2.46707 5.23353 2.5 5.31641 2.5H9.69141C9.77429 2.5 9.85378 2.46707 9.91238 2.40847C9.97099 2.34986 10.0039 2.27038 10.0039 2.1875C10.0039 2.10462 9.97099 2.02514 9.91238 1.96653C9.85378 1.90793 9.77429 1.875 9.69141 1.875H5.31641Z" fill="#CAD1D8"/>
<path id="Vector_12" d="M6.5625 1.87504C6.64538 1.87504 6.72486 1.90797 6.78347 1.96657C6.84207 2.02518 6.875 2.10466 6.875 2.18754C6.875 2.27042 6.84207 2.3499 6.78347 2.40851C6.72486 2.46711 6.64538 2.50004 6.5625 2.50004C6.38625 2.50004 6.25 2.63629 6.25 2.81254C6.25 2.98879 6.38625 3.12504 6.5625 3.12504C6.64538 3.12504 6.72486 3.15797 6.78347 3.21657C6.84207 3.27518 6.875 3.35466 6.875 3.43754C6.875 3.52042 6.84207 3.5999 6.78347 3.65851C6.72486 3.71711 6.64538 3.75004 6.5625 3.75004C6.04875 3.75004 5.625 3.32692 5.625 2.81254C5.625 2.29879 6.04875 1.87504 6.5625 1.87504ZM10.9863 0.625041C10.9452 0.625692 10.9047 0.634423 10.867 0.650733C10.8294 0.667042 10.7953 0.690619 10.7667 0.720103C10.7382 0.749587 10.7157 0.784398 10.7006 0.822566C10.6855 0.860734 10.6781 0.901498 10.6787 0.942538C10.6787 1.45504 10.2487 1.87504 9.695 1.87504C9.61212 1.87504 9.53263 1.90797 9.47403 1.96657C9.41542 2.02518 9.3825 2.10466 9.3825 2.18754C9.3825 2.27042 9.41542 2.3499 9.47403 2.40851C9.53263 2.46711 9.61212 2.50004 9.695 2.50004C10.5731 2.50004 11.3037 1.80629 11.3037 0.942538C11.3044 0.900657 11.2967 0.859065 11.281 0.820239C11.2652 0.781413 11.2419 0.746154 11.2123 0.716536C11.1826 0.686918 11.1474 0.66355 11.1086 0.647833C11.0697 0.632117 11.0281 0.624365 10.9863 0.625041Z" fill="#CAD1D8"/>
<path id="Vector_13" fill-rule="evenodd" clip-rule="evenodd" d="M1.25 16.875V17.5H18.125V16.875H1.25Z" fill="#576D7E"/>
</g>
</g>
</g>
</g>
</g>
</g>
</g>
</g>
</g>
</g>
<defs>
<filter id="filter0_d_0_1" x="-205" y="-355" width="540" height="440" filterUnits="userSpaceOnUse" color-interpolation-filters="sRGB">
<feFlood flood-opacity="0" result="BackgroundImageFix"/>
<feColorMatrix in="SourceAlpha" type="matrix" values="0 0 0 0 0 0 0 0 0 0 0 0 0 0 0 0 0 0 127 0" result="hardAlpha"/>
<feOffset/>
<feGaussianBlur stdDeviation="2.5"/>
<feComposite in2="hardAlpha" operator="out"/>
<feColorMatrix type="matrix" values="0 0 0 0 0 0 0 0 0 0 0 0 0 0 0 0 0 0 0.3 0"/>
<feBlend mode="normal" in2="BackgroundImageFix" result="effect1_dropShadow_0_1"/>
<feBlend mode="normal" in="SourceGraphic" in2="effect1_dropShadow_0_1" result="shape"/>
</filter>
<clipPath id="clip0_0_1">
<rect width="1920" height="1080" fill="white" transform="translate(-560 -836)"/>
</clipPath>
</defs>
</svg>
