<svg width="20" height="20" viewBox="0 0 20 20" fill="none" xmlns="http://www.w3.org/2000/svg">
<g id="ph:clock-thin">
<path id="Vector" d="M10 2C8.45484 2 6.94437 2.4582 5.65961 3.31664C4.37485 4.17509 3.3735 5.39524 2.78219 6.82279C2.19088 8.25033 2.03617 9.82117 2.33762 11.3366C2.63907 12.8521 3.38313 14.2442 4.47573 15.3368C5.56833 16.4294 6.96038 17.1734 8.47586 17.4749C9.99134 17.7763 11.5622 17.6216 12.9897 17.0303C14.4173 16.439 15.6374 15.4377 16.4959 14.1529C17.3543 12.8681 17.8125 11.3577 17.8125 9.8125C17.8102 7.74119 16.9864 5.75538 15.5218 4.29074C14.0571 2.82611 12.0713 2.00227 10 2ZM10 17C8.57845 17 7.18882 16.5785 6.00684 15.7887C4.82486 14.9989 3.90362 13.8764 3.35962 12.563C2.81561 11.2497 2.67328 9.80453 2.95061 8.41029C3.22794 7.01605 3.91248 5.73536 4.91767 4.73017C5.92286 3.72498 7.20355 3.04044 8.59779 2.76311C9.99203 2.48577 11.4372 2.62811 12.7505 3.17212C14.0639 3.71612 15.1864 4.63736 15.9762 5.81934C16.766 7.00132 17.1875 8.39095 17.1875 9.8125C17.1854 11.7181 16.4275 13.5451 15.08 14.8925C13.7326 16.24 11.9056 16.9979 10 17ZM14.6875 9.8125C14.6875 9.89538 14.6546 9.97487 14.596 10.0335C14.5374 10.0921 14.4579 10.125 14.375 10.125H10C9.91712 10.125 9.83764 10.0921 9.77903 10.0335C9.72043 9.97487 9.6875 9.89538 9.6875 9.8125V5.4375C9.6875 5.35462 9.72043 5.27513 9.77903 5.21653C9.83764 5.15792 9.91712 5.125 10 5.125C10.0829 5.125 10.1624 5.15792 10.221 5.21653C10.2796 5.27513 10.3125 5.35462 10.3125 5.4375V9.5H14.375C14.4579 9.5 14.5374 9.53292 14.596 9.59153C14.6546 9.65013 14.6875 9.72962 14.6875 9.8125Z" fill="#595959"/>
</g>
</svg>
