<svg width="30" height="30" viewBox="0 0 30 30" fill="none" xmlns="http://www.w3.org/2000/svg">
<rect x="0.5" y="0.5" width="29" height="29" rx="14.5" fill="#FAFAFA"/>
<rect x="0.5" y="0.5" width="29" height="29" rx="14.5" stroke="#E4E4E4"/>
<path d="M5.2002 15.0001C6.12139 13.1931 7.52424 11.676 9.25372 10.6164C10.9832 9.55687 12.972 8.99609 15.0002 8.99609C17.0284 8.99609 19.0172 9.55687 20.7467 10.6164C22.4762 11.676 23.879 13.1931 24.8002 15.0001C23.879 16.8071 22.4762 18.3242 20.7467 19.3838C19.0172 20.4433 17.0284 21.0041 15.0002 21.0041C12.972 21.0041 10.9832 20.4433 9.25372 19.3838C7.52424 18.3242 6.12139 16.8071 5.2002 15.0001ZM15.0002 19.0001C16.0611 19.0001 17.0785 18.5787 17.8286 17.8285C18.5788 17.0784 19.0002 16.061 19.0002 15.0001C19.0002 13.9392 18.5788 12.9218 17.8286 12.1717C17.0785 11.4215 16.0611 11.0001 15.0002 11.0001C13.9393 11.0001 12.9219 11.4215 12.1718 12.1717C11.4216 12.9218 11.0002 13.9392 11.0002 15.0001C11.0002 16.061 11.4216 17.0784 12.1718 17.8285C12.9219 18.5787 13.9393 19.0001 15.0002 19.0001ZM15.0002 17.0001C14.4698 17.0001 13.9611 16.7894 13.586 16.4143C13.2109 16.0392 13.0002 15.5305 13.0002 15.0001C13.0002 14.4697 13.2109 13.961 13.586 13.5859C13.9611 13.2108 14.4698 13.0001 15.0002 13.0001C15.5306 13.0001 16.0393 13.2108 16.4144 13.5859C16.7895 13.961 17.0002 14.4697 17.0002 15.0001C17.0002 15.5305 16.7895 16.0392 16.4144 16.4143C16.0393 16.7894 15.5306 17.0001 15.0002 17.0001Z" fill="#666666"/>
</svg>
