<svg width="20" height="20" viewBox="0 0 20 20" fill="none" xmlns="http://www.w3.org/2000/svg">
<path d="M17.707 6.21418C17.707 6.21182 17.7047 6.20945 17.7047 6.20708V4.36515C17.7047 3.75907 17.2122 3.26662 16.6061 3.26662H15.0341V2.69842C15.0341 2.31488 14.7216 2.00237 14.3381 2.00237C13.9545 2.00237 13.642 2.31488 13.642 2.69842V3.26662H7.0674V2.69842C7.0674 2.31251 6.75489 2 6.37135 2C5.98781 2 5.6753 2.31251 5.6753 2.69605V3.26426H4.1009C3.49244 3.26426 3 3.7567 3 4.36278V16.0512C3 16.6573 3.49481 17.1498 4.1009 17.1498H16.6061C17.2122 17.1498 17.7047 16.6573 17.7047 16.0512V6.22129C17.707 6.21892 17.707 6.21655 17.707 6.21418ZM14.1013 2.69605C14.1013 2.56584 14.2078 2.4593 14.3381 2.4593C14.4683 2.4593 14.5748 2.56584 14.5748 2.69605V4.17102C14.5748 4.30123 14.4683 4.40777 14.3381 4.40777C14.2078 4.40777 14.1013 4.30123 14.1013 4.17102V2.69605ZM6.37135 2.4593C6.50156 2.4593 6.6081 2.56584 6.6081 2.69605V4.17102C6.6081 4.30123 6.50156 4.40777 6.37135 4.40777C6.24113 4.40777 6.1346 4.30123 6.1346 4.17102V2.69605C6.13428 2.66487 6.14019 2.63394 6.15197 2.60508C6.16376 2.57621 6.18119 2.54998 6.20323 2.52794C6.22528 2.50589 6.25151 2.48846 6.28037 2.47668C6.30924 2.46489 6.34017 2.45898 6.37135 2.4593ZM4.1009 3.72355H5.67293V4.17102C5.67293 4.55455 5.98544 4.86707 6.36898 4.86707C6.75252 4.86707 7.06503 4.55455 7.06503 4.17102V3.72355H13.6396V4.17102C13.6396 4.55455 13.9521 4.86707 14.3357 4.86707C14.7192 4.86707 15.0317 4.55455 15.0317 4.17102V3.72355H16.6038C16.9565 3.72355 17.2454 4.01002 17.2454 4.36515V5.98454H3.4593V4.36515C3.4593 4.01239 3.74577 3.72355 4.1009 3.72355ZM16.6061 16.6928H4.1009C3.74577 16.6928 3.45693 16.4064 3.45693 16.0512V6.44383H17.2454V16.0536C17.2477 16.4064 16.9589 16.6928 16.6061 16.6928Z" fill="#595959"/>
<path d="M15.5568 7.57312H5.15864C4.8556 7.57312 4.60938 7.81934 4.60938 8.12238V15.0095C4.60938 15.3125 4.8556 15.5588 5.15864 15.5588H15.5568C15.8598 15.5588 16.106 15.3125 16.106 15.0095V8.12238C16.1037 7.81934 15.8575 7.57312 15.5568 7.57312ZM15.6444 15.0095C15.6444 15.0592 15.6041 15.0995 15.5544 15.0995H5.15864C5.13478 15.0995 5.1119 15.09 5.09502 15.0731C5.07815 15.0562 5.06867 15.0334 5.06867 15.0095V8.12238C5.06867 8.07267 5.10892 8.03242 5.15864 8.03242H15.5568C15.6065 8.03242 15.6468 8.07267 15.6468 8.12238V15.0095H15.6444Z" fill="#595959"/>
<path d="M10.0555 9.55237H7.44645C7.3186 9.55237 7.2168 9.65417 7.2168 9.78202C7.2168 9.90986 7.3186 10.0117 7.44645 10.0117H10.0555C10.1164 10.0117 10.1748 9.98747 10.2178 9.9444C10.2609 9.90133 10.2851 9.84292 10.2851 9.78202C10.2851 9.72111 10.2609 9.6627 10.2178 9.61963C10.1748 9.57656 10.1164 9.55237 10.0555 9.55237ZM10.0555 11.3351H7.44645C7.3186 11.3351 7.2168 11.4369 7.2168 11.5648C7.2168 11.6926 7.3186 11.7944 7.44645 11.7944H10.0555C10.1164 11.7944 10.1748 11.7702 10.2178 11.7271C10.2609 11.6841 10.2851 11.6257 10.2851 11.5648C10.2851 11.5039 10.2609 11.4454 10.2178 11.4024C10.1748 11.3593 10.1164 11.3351 10.0555 11.3351ZM10.0555 13.1202H7.44645C7.3186 13.1202 7.2168 13.222 7.2168 13.3499C7.2168 13.4777 7.3186 13.5795 7.44645 13.5795H10.0555C10.1833 13.5795 10.2851 13.4777 10.2851 13.3499C10.2851 13.222 10.1833 13.1202 10.0555 13.1202ZM13.1096 9.15699L12.2833 9.91696L12.0513 9.67785C12.0303 9.65616 12.0053 9.63882 11.9776 9.62684C11.95 9.61486 11.9202 9.60846 11.8901 9.60802C11.8599 9.60758 11.83 9.61311 11.802 9.62428C11.774 9.63545 11.7485 9.65204 11.7269 9.67311C11.6346 9.76071 11.6346 9.90749 11.7222 9.99746L12.1105 10.3976C12.1554 10.4449 12.2146 10.4686 12.2762 10.4686C12.333 10.4686 12.3875 10.4473 12.4324 10.407L13.4221 9.49555C13.5144 9.41032 13.5215 9.26353 13.4363 9.1712C13.3945 9.12661 13.3369 9.10017 13.2758 9.09751C13.2147 9.09486 13.1551 9.11621 13.1096 9.15699ZM13.1096 10.9397L12.2857 11.6997L12.0536 11.4606C12.0327 11.4389 12.0077 11.4216 11.98 11.4096C11.9524 11.3976 11.9226 11.3912 11.8924 11.3908C11.8623 11.3903 11.8324 11.3958 11.8044 11.407C11.7764 11.4182 11.7509 11.4348 11.7293 11.4559C11.637 11.5435 11.637 11.6902 11.7246 11.7802L12.1128 12.1803C12.1578 12.2277 12.217 12.2513 12.2786 12.2513C12.3354 12.2513 12.3898 12.23 12.4348 12.1898L13.4244 11.2783C13.5168 11.1931 13.5239 11.0463 13.4386 10.9539C13.3964 10.9093 13.3384 10.8829 13.277 10.8802C13.2156 10.8776 13.1555 10.8989 13.1096 10.9397ZM13.1096 12.7225L12.2857 13.4824L12.0536 13.2433C12.0327 13.2216 12.0077 13.2043 11.98 13.1923C11.9524 13.1803 11.9226 13.1739 11.8924 13.1735C11.8623 13.1731 11.8324 13.1786 11.8044 13.1898C11.7764 13.2009 11.7509 13.2175 11.7293 13.2386C11.637 13.3262 11.637 13.473 11.7246 13.5629L12.1128 13.9631C12.1578 14.0104 12.217 14.0341 12.2786 14.0341C12.3354 14.0341 12.3898 14.0128 12.4348 13.9725L13.4244 13.061C13.5168 12.9758 13.5239 12.829 13.4386 12.7367C13.3964 12.6921 13.3384 12.6656 13.277 12.663C13.2156 12.6603 13.1555 12.6817 13.1096 12.7225Z" fill="#595959"/>
</svg>
