<svg width="20" height="20" viewBox="0 0 20 20" fill="none" xmlns="http://www.w3.org/2000/svg">
<path d="M9.99983 8.64385C9.20102 8.64447 8.41998 8.40812 7.75554 7.96471C7.0911 7.5213 6.57312 6.89076 6.26714 6.15288C5.96116 5.41499 5.88095 4.60293 6.03663 3.81944C6.19232 3.03595 6.57692 2.31625 7.14176 1.75141C7.70661 1.18656 8.42631 0.801965 9.2098 0.646277C9.99329 0.490588 10.8054 0.570808 11.5432 0.876784C12.2811 1.18276 12.9117 1.70074 13.3551 2.36518C13.7985 3.02963 14.0348 3.81067 14.0342 4.60947C14.0334 5.6792 13.6081 6.70488 12.8517 7.46129C12.0952 8.21771 11.0696 8.64302 9.99983 8.64385ZM9.99983 1.19697C9.32477 1.19636 8.66469 1.39597 8.1031 1.77056C7.5415 2.14516 7.10363 2.6779 6.84486 3.3014C6.5861 3.9249 6.51808 4.61114 6.64939 5.2733C6.78071 5.93547 7.10548 6.54381 7.5826 7.02137C8.05972 7.49893 8.66776 7.82425 9.32981 7.95617C9.99185 8.0881 10.6782 8.0207 11.3019 7.76251C11.9256 7.50432 12.4588 7.06693 12.8339 6.50568C13.209 5.94443 13.4092 5.28453 13.4092 4.60947C13.4084 3.70522 13.049 2.83819 12.4099 2.19849C11.7708 1.55879 10.9041 1.19863 9.99983 1.19697ZM4.15296 17.8345C4.08402 17.8376 4.01599 17.8179 3.95946 17.7783C3.90293 17.7387 3.86108 17.6816 3.84046 17.6157L3.12483 15.2907C2.74358 14.097 2.87171 13.0157 3.49671 12.1657C4.51546 10.7751 6.76233 10.0376 9.99671 10.0376C10.0796 10.0376 10.1591 10.0705 10.2177 10.1291C10.2763 10.1877 10.3092 10.2672 10.3092 10.3501C10.3092 10.433 10.2763 10.5125 10.2177 10.5711C10.1591 10.6297 10.0796 10.6626 9.99671 10.6626C7.01233 10.6626 4.88421 11.3282 4.00296 12.5376C3.49358 13.2376 3.39671 14.1001 3.72171 15.1157L4.44671 17.4438C4.46505 17.5192 4.45474 17.5986 4.41777 17.6668C4.38081 17.7349 4.31984 17.7869 4.24671 17.8126C4.21677 17.8247 4.18515 17.8321 4.15296 17.8345Z" fill="#595959"/>
<path d="M15.8466 17.8345C15.8156 17.8392 15.7839 17.8392 15.7529 17.8345C15.6743 17.8093 15.6089 17.7542 15.5708 17.681C15.5328 17.6078 15.5252 17.5226 15.5498 17.4438L16.2748 15.1157C16.5873 14.1032 16.5029 13.2407 15.9935 12.5376C15.1123 11.3313 12.9841 10.6626 9.99975 10.6626C9.91687 10.6626 9.83739 10.6297 9.77878 10.5711C9.72018 10.5125 9.68725 10.433 9.68725 10.3501C9.68725 10.2672 9.72018 10.1877 9.77878 10.1291C9.83739 10.0705 9.91687 10.0376 9.99975 10.0376C13.2341 10.0376 15.481 10.7751 16.4998 12.1657C17.1248 13.0251 17.2529 14.1063 16.8716 15.2907L16.1466 17.6126C16.1271 17.6769 16.0874 17.7333 16.0334 17.7732C15.9793 17.8132 15.9138 17.8347 15.8466 17.8345ZM9.99975 19.4282C9.9569 19.4281 9.91454 19.4191 9.8753 19.4019C9.83605 19.3847 9.80076 19.3596 9.77163 19.3282L8.281 17.7376C8.24656 17.7009 8.22147 17.6565 8.20787 17.6081C8.19427 17.5597 8.19256 17.5087 8.20288 17.4595L9.28725 12.2063L8.256 10.772C8.22238 10.7407 8.19606 10.7025 8.1789 10.6599C8.16175 10.6173 8.15418 10.5715 8.15674 10.5257C8.15929 10.4798 8.17191 10.4351 8.19369 10.3947C8.21548 10.3544 8.24589 10.3192 8.28278 10.2919C8.31966 10.2646 8.36211 10.2458 8.40711 10.2367C8.4521 10.2277 8.49854 10.2286 8.54312 10.2396C8.58769 10.2505 8.62932 10.2711 8.66503 10.2999C8.70075 10.3287 8.72967 10.3651 8.74975 10.4063L9.86225 11.9688C9.88737 12.0037 9.90505 12.0433 9.91419 12.0852C9.92333 12.1271 9.92374 12.1705 9.91538 12.2126L8.84663 17.4282L10.2279 18.9032C10.2861 18.9618 10.3187 19.041 10.3187 19.1235C10.3187 19.2061 10.2861 19.2853 10.2279 19.3438C10.1974 19.3724 10.1615 19.3946 10.1224 19.4091C10.0832 19.4236 10.0415 19.4301 9.99975 19.4282Z" fill="#595959"/>
<path d="M9.99896 19.4281C9.92001 19.4279 9.84409 19.3977 9.78646 19.3438C9.72614 19.2873 9.69062 19.2093 9.6877 19.1267C9.68477 19.0441 9.71466 18.9637 9.77084 18.9031L11.1521 17.4281L10.0708 12.1875C10.0625 12.1454 10.0629 12.102 10.072 12.0601C10.0812 12.0182 10.0988 11.9786 10.124 11.9438L11.2365 10.3813C11.2597 10.3461 11.2898 10.3161 11.325 10.2929C11.3601 10.2697 11.3996 10.2538 11.441 10.2463C11.4824 10.2387 11.525 10.2396 11.5661 10.2489C11.6071 10.2582 11.6459 10.2757 11.68 10.3004C11.7142 10.325 11.743 10.3563 11.7647 10.3924C11.7865 10.4285 11.8007 10.4686 11.8065 10.5103C11.8124 10.552 11.8098 10.5944 11.7988 10.6351C11.7878 10.6758 11.7687 10.7138 11.7427 10.7469L10.7115 12.1813L11.7958 17.4344C11.8062 17.4836 11.8044 17.5346 11.7908 17.583C11.7772 17.6314 11.7522 17.6759 11.7177 17.7125L10.2271 19.3031C10.2003 19.3391 10.166 19.3689 10.1266 19.3905C10.0873 19.4121 10.0437 19.4249 9.99896 19.4281Z" fill="#595959"/>
</svg>
