<svg width="20" height="20" viewBox="0 0 20 20" fill="none" xmlns="http://www.w3.org/2000/svg">
<g id="Contract" clip-path="url(#clip0_5018_9927)">
<path id="Vector" d="M15.4063 7.625V1.59375C15.4063 0.875 14.8438 0.3125 14.125 0.3125H4.21875L0.34375 4.15625V18.4063C0.34375 19.125 0.9375 19.6875 1.625 19.6875H14.125C14.8438 19.6875 15.4063 19.125 15.4063 18.4063V14.25" stroke="#595959" stroke-miterlimit="10" stroke-linecap="round" stroke-linejoin="round"/>
<path id="Vector_2" d="M10.9687 5.90625C12.0906 5.90625 13 4.99683 13 3.875C13 2.75317 12.0906 1.84375 10.9687 1.84375C9.84692 1.84375 8.9375 2.75317 8.9375 3.875C8.9375 4.99683 9.84692 5.90625 10.9687 5.90625Z" stroke="#595959" stroke-miterlimit="10" stroke-linecap="round" stroke-linejoin="round"/>
<path id="Vector_3" d="M10.9687 4.625C11.383 4.625 11.7187 4.28921 11.7187 3.875C11.7187 3.46079 11.383 3.125 10.9687 3.125C10.5545 3.125 10.2188 3.46079 10.2188 3.875C10.2188 4.28921 10.5545 4.625 10.9687 4.625Z" stroke="#595959" stroke-miterlimit="10" stroke-linecap="round" stroke-linejoin="round"/>
<path id="Vector_4" d="M4.375 5.34375H5.71875M2.5625 8.53125H13.2187M2.5625 10.6875H11.9375M2.5625 12.8125H9.625M2.5625 14.9688H8.3125M2.5625 17.125H7.9375M19.3125 8.65625L11.9062 16.0625L10.3125 14.4687L17.7188 7.0625C18.1562 6.625 18.875 6.625 19.3125 7.0625C19.75 7.5 19.75 8.21875 19.3125 8.65625Z" stroke="#595959" stroke-miterlimit="10" stroke-linecap="round" stroke-linejoin="round"/>
<path id="Vector_5" d="M19.3125 8.65625L18.2188 9.75L16.625 8.15625L17.7188 7.0625C18.1563 6.625 18.875 6.625 19.3125 7.0625C19.75 7.5 19.75 8.21875 19.3125 8.65625ZM9.25 17.125L10.3437 14.4687L11.9062 16.0625L9.25 17.125ZM0.34375 4.15625H2.5625C3.46875 4.15625 4.1875 3.4375 4.1875 2.53125V0.3125L0.34375 4.15625Z" stroke="#595959" stroke-miterlimit="10" stroke-linecap="round" stroke-linejoin="round"/>
</g>
<defs>
<clipPath id="clip0_5018_9927">
<rect width="20" height="20" fill="white"/>
</clipPath>
</defs>
</svg>
