<svg width="20" height="20" viewBox="0 0 20 20" fill="none" xmlns="http://www.w3.org/2000/svg">
<path d="M7.08333 2.5H4.58333C4.0308 2.5 3.5009 2.71949 3.11019 3.11019C2.71949 3.5009 2.5 4.0308 2.5 4.58333C2.5 5.13587 2.71949 5.66577 3.11019 6.05647C3.5009 6.44717 4.0308 6.66667 4.58333 6.66667H7.08333C7.63587 6.66667 8.16577 6.44717 8.55647 6.05647C8.94717 5.66577 9.16667 5.13587 9.16667 4.58333C9.16667 4.0308 8.94717 3.5009 8.55647 3.11019C8.16577 2.71949 7.63587 2.5 7.08333 2.5ZM7.08333 5.83333H4.58333C4.25181 5.83333 3.93387 5.70164 3.69945 5.46722C3.46503 5.2328 3.33333 4.91485 3.33333 4.58333C3.33333 4.25181 3.46503 3.93387 3.69945 3.69945C3.93387 3.46503 4.25181 3.33333 4.58333 3.33333H7.08333C7.41485 3.33333 7.7328 3.46503 7.96722 3.69945C8.20164 3.93387 8.33333 4.25181 8.33333 4.58333C8.33333 4.91485 8.20164 5.2328 7.96722 5.46722C7.7328 5.70164 7.41485 5.83333 7.08333 5.83333ZM7.08333 8.33333H4.58333C4.0308 8.33333 3.5009 8.55283 3.11019 8.94353C2.71949 9.33423 2.5 9.86413 2.5 10.4167V15.4167C2.5 15.9692 2.71949 16.4991 3.11019 16.8898C3.5009 17.2805 4.0308 17.5 4.58333 17.5H7.08333C7.63587 17.5 8.16577 17.2805 8.55647 16.8898C8.94717 16.4991 9.16667 15.9692 9.16667 15.4167V10.4167C9.16667 9.86413 8.94717 9.33423 8.55647 8.94353C8.16577 8.55283 7.63587 8.33333 7.08333 8.33333ZM8.33333 15.4167C8.33333 15.7482 8.20164 16.0661 7.96722 16.3005C7.7328 16.535 7.41485 16.6667 7.08333 16.6667H4.58333C4.25181 16.6667 3.93387 16.535 3.69945 16.3005C3.46503 16.0661 3.33333 15.7482 3.33333 15.4167V10.4167C3.33333 10.0851 3.46503 9.7672 3.69945 9.53278C3.93387 9.29836 4.25181 9.16667 4.58333 9.16667H7.08333C7.41485 9.16667 7.7328 9.29836 7.96722 9.53278C8.20164 9.7672 8.33333 10.0851 8.33333 10.4167V15.4167ZM15.4167 13.3333H12.9167C12.3641 13.3333 11.8342 13.5528 11.4435 13.9435C11.0528 14.3342 10.8333 14.8641 10.8333 15.4167C10.8333 15.9692 11.0528 16.4991 11.4435 16.8898C11.8342 17.2805 12.3641 17.5 12.9167 17.5H15.4167C15.9692 17.5 16.4991 17.2805 16.8898 16.8898C17.2805 16.4991 17.5 15.9692 17.5 15.4167C17.5 14.8641 17.2805 14.3342 16.8898 13.9435C16.4991 13.5528 15.9692 13.3333 15.4167 13.3333ZM15.4167 16.6667H12.9167C12.5851 16.6667 12.2672 16.535 12.0328 16.3005C11.7984 16.0661 11.6667 15.7482 11.6667 15.4167C11.6667 15.0851 11.7984 14.7672 12.0328 14.5328C12.2672 14.2984 12.5851 14.1667 12.9167 14.1667H15.4167C15.7482 14.1667 16.0661 14.2984 16.3005 14.5328C16.535 14.7672 16.6667 15.0851 16.6667 15.4167C16.6667 15.7482 16.535 16.0661 16.3005 16.3005C16.0661 16.535 15.7482 16.6667 15.4167 16.6667ZM15.4167 2.5H12.9167C12.3641 2.5 11.8342 2.71949 11.4435 3.11019C11.0528 3.5009 10.8333 4.0308 10.8333 4.58333V9.58333C10.8333 10.1359 11.0528 10.6658 11.4435 11.0565C11.8342 11.4472 12.3641 11.6667 12.9167 11.6667H15.4167C15.9692 11.6667 16.4991 11.4472 16.8898 11.0565C17.2805 10.6658 17.5 10.1359 17.5 9.58333V4.58333C17.5 4.0308 17.2805 3.5009 16.8898 3.11019C16.4991 2.71949 15.9692 2.5 15.4167 2.5ZM16.6667 9.58333C16.6667 9.91485 16.535 10.2328 16.3005 10.4672C16.0661 10.7016 15.7482 10.8333 15.4167 10.8333H12.9167C12.5851 10.8333 12.2672 10.7016 12.0328 10.4672C11.7984 10.2328 11.6667 9.91485 11.6667 9.58333V4.58333C11.6667 4.25181 11.7984 3.93387 12.0328 3.69945C12.2672 3.46503 12.5851 3.33333 12.9167 3.33333H15.4167C15.7482 3.33333 16.0661 3.46503 16.3005 3.69945C16.535 3.93387 16.6667 4.25181 16.6667 4.58333V9.58333Z" fill="#595959"/>
</svg>
