<svg width="20" height="20" viewBox="0 0 20 20" fill="none" xmlns="http://www.w3.org/2000/svg">
<path d="M2.8125 19.9973C2.89538 19.9973 2.97487 19.9644 3.03347 19.9058C3.09208 19.8472 3.125 19.7677 3.125 19.6848V16.2329C3.125 15.5498 3.48937 14.906 4.07562 14.5548L6.52188 13.0867L7.86438 14.7648C7.89189 14.7991 7.92631 14.8272 7.96539 14.8473C8.00448 14.8675 8.04736 14.8792 8.09125 14.8817L8.10875 14.8823C8.19125 14.8823 8.27125 14.8498 8.33 14.791L9.06313 14.0579V19.6848C9.06313 19.7677 9.09605 19.8472 9.15465 19.9058C9.21326 19.9644 9.29275 19.9973 9.37563 19.9973C9.45851 19.9973 9.53799 19.9644 9.5966 19.9058C9.6552 19.8472 9.68813 19.7677 9.68813 19.6848V13.4373L9.6875 13.4335L10 13.1204L10.3131 13.4335L10.3125 13.4373V19.6848C10.3125 19.7677 10.3454 19.8472 10.404 19.9058C10.4626 19.9644 10.5421 19.9973 10.625 19.9973C10.7079 19.9973 10.7874 19.9644 10.846 19.9058C10.9046 19.8472 10.9375 19.7677 10.9375 19.6848V14.0579L11.6706 14.791C11.6997 14.82 11.7342 14.843 11.7722 14.8587C11.8101 14.8743 11.8508 14.8824 11.8919 14.8823L11.9094 14.8817C11.9533 14.8792 11.9961 14.8675 12.0352 14.8473C12.0743 14.8272 12.1087 14.7991 12.1362 14.7648L13.4788 13.0867L15.9256 14.5548C16.2145 14.7296 16.4535 14.9758 16.6198 15.2697C16.7861 15.5636 16.8739 15.8953 16.875 16.2329V19.6848C16.875 19.7677 16.9079 19.8472 16.9665 19.9058C17.0251 19.9644 17.1046 19.9973 17.1875 19.9973C17.2704 19.9973 17.3499 19.9644 17.4085 19.9058C17.4671 19.8472 17.5 19.7677 17.5 19.6848V16.2329C17.5 15.331 17.0194 14.4829 16.2463 14.0192L13.605 12.4348L12.615 11.3348C12.5738 11.2908 12.5205 11.2599 12.4617 11.2461C12.403 11.2323 12.3415 11.2362 12.285 11.2573V10.1492C12.7741 9.79115 13.1719 9.32296 13.4463 8.78253C13.7207 8.24211 13.8639 7.64464 13.8644 7.03855V5.56605L14.3512 2.85292C14.3968 2.60614 14.3924 2.35275 14.3384 2.10768C14.2844 1.86262 14.1819 1.63085 14.0369 1.42605C13.8931 1.22035 13.7096 1.04553 13.4971 0.911892C13.2847 0.778252 13.0477 0.688498 12.8 0.647921L9.07625 0.0272958C8.80967 -0.017158 8.53661 -0.0030044 8.27605 0.0687722C8.0155 0.140549 7.77371 0.268225 7.5675 0.442921C7.2157 0.741565 6.98812 1.16083 6.92937 1.61855C6.56063 1.6873 6.22688 1.88417 5.98625 2.18167C5.83683 2.36579 5.73063 2.58109 5.67546 2.8117C5.62029 3.04231 5.61757 3.28237 5.6675 3.51417L6.1275 5.6673C6.12812 5.67167 6.13125 5.67355 6.13188 5.67667V7.03792C6.13188 8.31355 6.75563 9.44417 7.71125 10.1485V11.256C7.65506 11.2359 7.59424 11.2326 7.53619 11.2465C7.47815 11.2604 7.4254 11.2908 7.38437 11.3342L6.395 12.4335L3.75375 14.0185C3.37228 14.249 3.05656 14.5738 2.83698 14.9616C2.6174 15.3494 2.50135 15.7872 2.5 16.2329V19.6848C2.5 19.7677 2.53292 19.8472 2.59153 19.9058C2.65013 19.9644 2.72962 19.9973 2.8125 19.9973ZM12.995 12.6904L11.8656 14.1023L10.5338 12.7704L12.3069 11.926L12.995 12.6904ZM6.47187 2.57542C6.56216 2.4633 6.6765 2.3729 6.80642 2.31091C6.93635 2.24893 7.07854 2.21693 7.2225 2.2173C7.395 2.2173 7.535 2.03542 7.535 1.86292C7.53467 1.70062 7.56639 1.53984 7.62833 1.38982C7.69027 1.2398 7.78121 1.10348 7.89595 0.988689C8.01069 0.873893 8.14696 0.782877 8.29695 0.720861C8.44694 0.658845 8.6077 0.627049 8.77 0.627296C8.83826 0.627348 8.90641 0.632992 8.97375 0.644171L12.6975 1.2648C13.035 1.32105 13.3288 1.50605 13.5256 1.78542C13.7225 2.06542 13.7975 2.4048 13.7356 2.74167L13.3463 4.91105L12.68 4.15605V3.48417C12.68 3.40129 12.6471 3.32181 12.5885 3.2632C12.5299 3.20459 12.4504 3.17167 12.3675 3.17167H7.62875C7.54587 3.17167 7.46638 3.20459 7.40778 3.2632C7.34917 3.32181 7.31625 3.40129 7.31625 3.48417V4.15417L6.61 4.93855L6.27813 3.38417C6.2175 3.09792 6.28812 2.80292 6.47187 2.57542ZM6.75688 7.03792V5.7098L7.86125 4.48292C7.91285 4.42565 7.94135 4.35126 7.94125 4.27417V3.79667H12.055V4.27417C12.055 4.35042 12.0825 4.42417 12.1331 4.48105L13.2394 5.73417V7.03792C13.2391 7.56861 13.1086 8.09114 12.8593 8.55961C12.61 9.02809 12.2494 9.42819 11.8094 9.7248L11.8081 9.72542C11.6548 9.82644 11.4932 9.91425 11.325 9.98792C11.2481 10.0223 11.1681 10.0492 11.0888 10.0773C10.8997 10.1449 10.705 10.1953 10.5069 10.2279C10.4494 10.2373 10.3906 10.2398 10.3325 10.2454C10.1097 10.2679 9.88527 10.2679 9.6625 10.2454C9.605 10.2392 9.54625 10.2373 9.48937 10.2279C9.29171 10.1952 9.09739 10.1448 8.90875 10.0773C8.82875 10.0492 8.74813 10.0217 8.67 9.9873C8.50272 9.91391 8.34194 9.82652 8.18937 9.72605L8.185 9.72355C7.74545 9.42685 7.3854 9.02685 7.13641 8.55862C6.88742 8.09039 6.7571 7.56823 6.75688 7.03792ZM8.65937 10.6604C8.69625 10.6735 8.73187 10.6885 8.76875 10.7004C9.16476 10.8346 9.57999 10.9035 9.99813 10.9042C10.4161 10.9035 10.8311 10.8347 11.2269 10.7004C11.2644 10.6879 11.3006 10.6735 11.3381 10.6598C11.4238 10.6279 11.5088 10.5942 11.5919 10.5567C11.6144 10.5467 11.6381 10.5392 11.6606 10.5285V11.541L10 12.3323L8.33625 11.5398V10.5292C8.35813 10.5398 8.38125 10.5467 8.40312 10.5567C8.48687 10.5942 8.5725 10.6285 8.65937 10.6604ZM7.69312 11.926L9.46625 12.7704L8.13438 14.1023L7.005 12.6904L7.69312 11.926Z" fill="#595959"/>
<path d="M5.93855 19.9973C6.02143 19.9973 6.10092 19.9644 6.15953 19.9058C6.21813 19.8472 6.25105 19.7677 6.25105 19.6848V18.2211C6.2517 17.5766 6.01062 16.9552 5.57543 16.4798L5.1023 15.9617C5.0746 15.9314 5.0412 15.9068 5.004 15.8894C4.9668 15.872 4.92654 15.862 4.88551 15.8602C4.84448 15.8583 4.80348 15.8646 4.76486 15.8786C4.72624 15.8925 4.69076 15.914 4.66043 15.9417C4.6301 15.9694 4.60553 16.0028 4.58811 16.04C4.57069 16.0772 4.56077 16.1175 4.55891 16.1585C4.55706 16.1995 4.5633 16.2405 4.57729 16.2791C4.59127 16.3178 4.61273 16.3532 4.64043 16.3836L5.11355 16.9017C5.4436 17.2618 5.6265 17.7326 5.62605 18.2211V19.6848C5.62605 19.7677 5.65898 19.8472 5.71758 19.9058C5.77619 19.9644 5.85567 19.9973 5.93855 19.9973ZM14.8998 15.9617L14.4267 16.4804C13.9915 16.9556 13.7504 17.5767 13.7511 18.2211V19.6848C13.7511 19.7677 13.784 19.8472 13.8426 19.9058C13.9012 19.9644 13.9807 19.9973 14.0636 19.9973C14.1464 19.9973 14.2259 19.9644 14.2845 19.9058C14.3431 19.8472 14.3761 19.7677 14.3761 19.6848V18.2211C14.3761 17.7317 14.5579 17.2629 14.8879 16.9017L15.3611 16.3836C15.3888 16.3533 15.4102 16.3178 15.4242 16.2793C15.4382 16.2407 15.4445 16.1997 15.4427 16.1587C15.4408 16.1177 15.4309 16.0775 15.4136 16.0403C15.3962 16.0031 15.3717 15.9697 15.3414 15.942C15.3111 15.9143 15.2756 15.8928 15.2371 15.8788C15.1985 15.8648 15.1575 15.8586 15.1165 15.8604C15.0755 15.8622 15.0353 15.8721 14.9981 15.8895C14.9609 15.9069 14.9275 15.9314 14.8998 15.9617Z" fill="#595959"/>
</svg>
