<svg width="20" height="20" viewBox="0 0 20 20" fill="none" xmlns="http://www.w3.org/2000/svg">
<path d="M3.33311 7.91659C3.33316 7.20268 3.51664 6.50077 3.86594 5.87816C4.21525 5.25556 4.71867 4.73314 5.32792 4.36102C5.93716 3.98891 6.6318 3.77957 7.34521 3.75308C8.05862 3.7266 8.76687 3.88386 9.40203 4.20979C10.0372 4.53571 10.578 5.01937 10.9725 5.61436C11.367 6.20936 11.602 6.89574 11.655 7.60767C11.7079 8.3196 11.5771 9.0332 11.275 9.68004C10.9729 10.3269 10.5097 10.8852 9.92978 11.3016C11.133 11.781 12.1698 12.6017 12.9128 13.6627C13.6557 14.7236 14.0724 15.9786 14.1114 17.2733C14.1157 17.3564 14.1033 17.4395 14.075 17.5177C14.0467 17.596 14.003 17.6678 13.9466 17.729C13.8902 17.7901 13.8221 17.8394 13.7464 17.8739C13.6706 17.9084 13.5888 17.9275 13.5056 17.9299C13.4224 17.9323 13.3396 17.9181 13.262 17.8881C13.1843 17.8581 13.1135 17.8129 13.0536 17.7552C12.9936 17.6974 12.9458 17.6283 12.913 17.5519C12.8802 17.4754 12.8629 17.3931 12.8623 17.3099C12.8196 15.9093 12.2332 14.5803 11.2274 13.6046C10.2215 12.6289 8.87526 12.0832 7.47394 12.0832C6.07263 12.0832 4.72639 12.6289 3.72054 13.6046C2.71468 14.5803 2.12828 15.9093 2.08561 17.3099C2.07727 17.4731 2.00534 17.6266 1.88524 17.7374C1.76514 17.8482 1.60643 17.9075 1.44309 17.9027C1.27975 17.8979 1.12479 17.8294 1.01139 17.7117C0.898003 17.594 0.835201 17.4367 0.836444 17.2733C0.87581 15.9725 1.29633 14.712 2.04581 13.6481C2.79528 12.5843 3.8407 11.764 5.05228 11.2891C4.5195 10.9029 4.0859 10.3959 3.78706 9.80961C3.48821 9.22337 3.33264 8.57461 3.33311 7.91659ZM7.49978 4.99992C7.11676 4.99992 6.73748 5.07536 6.38362 5.22194C6.02975 5.36851 5.70822 5.58335 5.43738 5.85419C5.16654 6.12503 4.9517 6.44656 4.80513 6.80043C4.65855 7.15429 4.58311 7.53356 4.58311 7.91659C4.58311 8.29961 4.65855 8.67888 4.80513 9.03275C4.9517 9.38661 5.16654 9.70814 5.43738 9.97898C5.70822 10.2498 6.02975 10.4647 6.38362 10.6112C6.73748 10.7578 7.11676 10.8333 7.49978 10.8333C8.27332 10.8333 9.01519 10.526 9.56217 9.97898C10.1092 9.432 10.4164 8.69013 10.4164 7.91659C10.4164 7.14304 10.1092 6.40117 9.56217 5.85419C9.01519 5.30721 8.27332 4.99992 7.49978 4.99992ZM16.0414 0.833252C16.2072 0.833252 16.3662 0.8991 16.4834 1.01631C16.6006 1.13352 16.6664 1.29249 16.6664 1.45825V3.33325H18.5414C18.7072 3.33325 18.8662 3.3991 18.9834 3.51631C19.1006 3.63352 19.1664 3.79249 19.1664 3.95825C19.1664 4.12401 19.1006 4.28298 18.9834 4.40019C18.8662 4.5174 18.7072 4.58325 18.5414 4.58325H16.6664V6.45825C16.6664 6.62401 16.6006 6.78298 16.4834 6.90019C16.3662 7.0174 16.2072 7.08325 16.0414 7.08325C15.8757 7.08325 15.7167 7.0174 15.5995 6.90019C15.4823 6.78298 15.4164 6.62401 15.4164 6.45825V4.58325H13.5414C13.3757 4.58325 13.2167 4.5174 13.0995 4.40019C12.9823 4.28298 12.9164 4.12401 12.9164 3.95825C12.9164 3.79249 12.9823 3.63352 13.0995 3.51631C13.2167 3.3991 13.3757 3.33325 13.5414 3.33325H15.4164V1.45825C15.4164 1.29249 15.4823 1.13352 15.5995 1.01631C15.7167 0.8991 15.8757 0.833252 16.0414 0.833252Z" fill="#595959"/>
</svg>
