<svg width="20" height="20" viewBox="0 0 20 20" fill="none" xmlns="http://www.w3.org/2000/svg">
<path d="M7.91797 9.99999H5.41797C5.18787 9.99999 5.0013 10.1866 5.0013 10.4167C5.0013 10.6468 5.18787 10.8333 5.41797 10.8333H7.91797C8.14807 10.8333 8.33464 10.6468 8.33464 10.4167C8.33464 10.1866 8.14807 9.99999 7.91797 9.99999ZM9.58464 6.66665H6.2513C6.0212 6.66665 5.83464 6.85322 5.83464 7.08332C5.83464 7.31342 6.0212 7.49999 6.2513 7.49999H9.58464C9.81474 7.49999 10.0013 7.31342 10.0013 7.08332C10.0013 6.85322 9.81474 6.66665 9.58464 6.66665ZM7.91797 13.3333H5.41797C5.18787 13.3333 5.0013 13.5199 5.0013 13.75C5.0013 13.9801 5.18787 14.1667 5.41797 14.1667H7.91797C8.14807 14.1667 8.33464 13.9801 8.33464 13.75C8.33464 13.5199 8.14807 13.3333 7.91797 13.3333ZM17.918 9.99999H14.168V2.08332C14.168 2.01038 14.1489 1.93872 14.1125 1.8755C13.9979 1.67606 13.7433 1.60735 13.5438 1.72199L10.8346 3.27473L8.12549 1.72199C7.99681 1.64875 7.83913 1.64875 7.71045 1.72199L5.0013 3.27473L2.29215 1.72199C2.22893 1.68563 2.15727 1.66655 2.08433 1.66655C1.85428 1.6667 1.66787 1.85327 1.66797 2.08332V16.25C1.66904 17.4001 2.60115 18.3323 3.7513 18.3333H15.418C15.4675 18.3333 15.5136 18.321 15.5576 18.3051C15.6498 18.3155 15.7397 18.3332 15.8346 18.3333C17.2147 18.3318 18.3331 17.2134 18.3346 15.8333V10.4167C18.3346 10.4165 18.3346 10.4169 18.3346 10.4167C18.3345 10.1867 18.148 9.99983 17.918 9.99999ZM3.7513 17.5C3.06125 17.4992 2.50207 16.94 2.5013 16.25V2.80191L4.78564 4.11131C4.92007 4.18456 5.08253 4.18456 5.21696 4.11131L7.91797 2.56346L10.619 4.11131C10.7534 4.18456 10.9159 4.18456 11.0503 4.11131L13.3346 2.80191V10.4167V15.8333C13.3353 16.4766 13.5855 17.057 13.9849 17.5H3.7513ZM17.5013 15.8333C17.5013 16.7538 16.7551 17.5 15.8346 17.5C14.9142 17.5 14.168 16.7538 14.168 15.8333V10.8333H17.5013V15.8333ZM11.2513 9.99999C11.0212 9.99999 10.8346 10.1866 10.8346 10.4167C10.8346 10.6468 11.0212 10.8333 11.2513 10.8333C11.4814 10.8333 11.668 10.6468 11.668 10.4167C11.668 10.1866 11.4814 9.99999 11.2513 9.99999ZM11.2513 13.3333C11.0212 13.3333 10.8346 13.5199 10.8346 13.75C10.8346 13.9801 11.0212 14.1667 11.2513 14.1667C11.4814 14.1667 11.668 13.9801 11.668 13.75C11.668 13.5199 11.4814 13.3333 11.2513 13.3333Z" fill="#595959"/>
</svg>
