<svg width="20" height="20" viewBox="0 0 20 20" fill="none" xmlns="http://www.w3.org/2000/svg">
<path d="M5.2085 10.0001C5.04274 10.0001 4.88376 10.0659 4.76655 10.1831C4.64934 10.3004 4.5835 10.4593 4.5835 10.6251C4.5835 10.7908 4.64934 10.9498 4.76655 11.067C4.88376 11.1842 5.04274 11.2501 5.2085 11.2501H5.62516C5.79092 11.2501 5.94989 11.1842 6.0671 11.067C6.18431 10.9498 6.25016 10.7908 6.25016 10.6251C6.25016 10.4593 6.18431 10.3004 6.0671 10.1831C5.94989 10.0659 5.79092 10.0001 5.62516 10.0001H5.2085ZM4.5835 7.70841C4.5835 7.54265 4.64934 7.38368 4.76655 7.26647C4.88376 7.14926 5.04274 7.08341 5.2085 7.08341H5.62516C5.79092 7.08341 5.94989 7.14926 6.0671 7.26647C6.18431 7.38368 6.25016 7.54265 6.25016 7.70841C6.25016 7.87418 6.18431 8.03315 6.0671 8.15036C5.94989 8.26757 5.79092 8.33342 5.62516 8.33342H5.2085C5.04274 8.33342 4.88376 8.26757 4.76655 8.15036C4.64934 8.03315 4.5835 7.87418 4.5835 7.70841ZM5.2085 4.16675C5.04274 4.16675 4.88376 4.2326 4.76655 4.34981C4.64934 4.46702 4.5835 4.62599 4.5835 4.79175C4.5835 4.95751 4.64934 5.11648 4.76655 5.23369C4.88376 5.3509 5.04274 5.41675 5.2085 5.41675H5.62516C5.79092 5.41675 5.94989 5.3509 6.0671 5.23369C6.18431 5.11648 6.25016 4.95751 6.25016 4.79175C6.25016 4.62599 6.18431 4.46702 6.0671 4.34981C5.94989 4.2326 5.79092 4.16675 5.62516 4.16675H5.2085ZM7.50016 10.6251C7.50016 10.4593 7.56601 10.3004 7.68322 10.1831C7.80043 10.0659 7.9594 10.0001 8.12516 10.0001H8.54183C8.70759 10.0001 8.86656 10.0659 8.98377 10.1831C9.10098 10.3004 9.16683 10.4593 9.16683 10.6251C9.16683 10.7908 9.10098 10.9498 8.98377 11.067C8.86656 11.1842 8.70759 11.2501 8.54183 11.2501H8.12516C7.9594 11.2501 7.80043 11.1842 7.68322 11.067C7.56601 10.9498 7.50016 10.7908 7.50016 10.6251ZM8.12516 7.08341C7.9594 7.08341 7.80043 7.14926 7.68322 7.26647C7.56601 7.38368 7.50016 7.54265 7.50016 7.70841C7.50016 7.87418 7.56601 8.03315 7.68322 8.15036C7.80043 8.26757 7.9594 8.33342 8.12516 8.33342H8.54183C8.70759 8.33342 8.86656 8.26757 8.98377 8.15036C9.10098 8.03315 9.16683 7.87418 9.16683 7.70841C9.16683 7.54265 9.10098 7.38368 8.98377 7.26647C8.86656 7.14926 8.70759 7.08341 8.54183 7.08341H8.12516ZM7.50016 4.79175C7.50016 4.62599 7.56601 4.46702 7.68322 4.34981C7.80043 4.2326 7.9594 4.16675 8.12516 4.16675H8.54183C8.70759 4.16675 8.86656 4.2326 8.98377 4.34981C9.10098 4.46702 9.16683 4.62599 9.16683 4.79175C9.16683 4.95751 9.10098 5.11648 8.98377 5.23369C8.86656 5.3509 8.70759 5.41675 8.54183 5.41675H8.12516C7.9594 5.41675 7.80043 5.3509 7.68322 5.23369C7.56601 5.11648 7.50016 4.95751 7.50016 4.79175ZM11.0418 10.0001C10.8761 10.0001 10.7171 10.0659 10.5999 10.1831C10.4827 10.3004 10.4168 10.4593 10.4168 10.6251C10.4168 10.7908 10.4827 10.9498 10.5999 11.067C10.7171 11.1842 10.8761 11.2501 11.0418 11.2501H11.4585C11.6243 11.2501 11.7832 11.1842 11.9004 11.067C12.0176 10.9498 12.0835 10.7908 12.0835 10.6251C12.0835 10.4593 12.0176 10.3004 11.9004 10.1831C11.7832 10.0659 11.6243 10.0001 11.4585 10.0001H11.0418ZM10.4168 7.70841C10.4168 7.54265 10.4827 7.38368 10.5999 7.26647C10.7171 7.14926 10.8761 7.08341 11.0418 7.08341H11.4585C11.6243 7.08341 11.7832 7.14926 11.9004 7.26647C12.0176 7.38368 12.0835 7.54265 12.0835 7.70841C12.0835 7.87418 12.0176 8.03315 11.9004 8.15036C11.7832 8.26757 11.6243 8.33342 11.4585 8.33342H11.0418C10.8761 8.33342 10.7171 8.26757 10.5999 8.15036C10.4827 8.03315 10.4168 7.87418 10.4168 7.70841ZM11.0418 4.16675C10.8761 4.16675 10.7171 4.2326 10.5999 4.34981C10.4827 4.46702 10.4168 4.62599 10.4168 4.79175C10.4168 4.95751 10.4827 5.11648 10.5999 5.23369C10.7171 5.3509 10.8761 5.41675 11.0418 5.41675H11.4585C11.6243 5.41675 11.7832 5.3509 11.9004 5.23369C12.0176 5.11648 12.0835 4.95751 12.0835 4.79175C12.0835 4.62599 12.0176 4.46702 11.9004 4.34981C11.7832 4.2326 11.6243 4.16675 11.4585 4.16675H11.0418Z" fill="#595959"/>
<path d="M1.6665 16.6666V2.49992C1.6665 2.05789 1.8421 1.63397 2.15466 1.32141C2.46722 1.00885 2.89114 0.833252 3.33317 0.833252H13.3332C13.7752 0.833252 14.1991 1.00885 14.5117 1.32141C14.8242 1.63397 14.9998 2.05789 14.9998 2.49992V16.6666C14.9998 16.8108 14.9815 16.9499 14.9473 17.0833H16.6665C16.777 17.0833 16.883 17.0394 16.9611 16.9612C17.0393 16.8831 17.0832 16.7771 17.0832 16.6666V9.99992C17.0832 9.93523 17.0681 9.87144 17.0392 9.81358C17.0103 9.75572 16.9683 9.7054 16.9165 9.66658L16.4998 9.35408C16.3672 9.25463 16.2796 9.10657 16.2561 8.94247C16.2327 8.77838 16.2754 8.61169 16.3748 8.47909C16.4743 8.34648 16.6224 8.25881 16.7864 8.23537C16.9505 8.21192 17.1172 8.25463 17.2498 8.35408L17.6665 8.66658C18.0865 8.98158 18.3332 9.47492 18.3332 9.99992V16.6666C18.3332 17.1086 18.1576 17.5325 17.845 17.8451C17.5325 18.1577 17.1085 18.3333 16.6665 18.3333H13.6982C13.6517 18.3333 13.6053 18.3283 13.5598 18.3183C13.4857 18.3283 13.4098 18.3333 13.3332 18.3333H10.2082C10.0424 18.3333 9.88344 18.2674 9.76623 18.1502C9.64902 18.033 9.58317 17.874 9.58317 17.7083V15.8333H7.08317V17.7083C7.08317 17.874 7.01732 18.033 6.90011 18.1502C6.7829 18.2674 6.62393 18.3333 6.45817 18.3333H3.33317C2.89114 18.3333 2.46722 18.1577 2.15466 17.8451C1.8421 17.5325 1.6665 17.1086 1.6665 16.6666ZM3.33317 17.0833H5.83317V15.2083C5.83317 15.0425 5.89902 14.8835 6.01623 14.7663C6.13344 14.6491 6.29241 14.5833 6.45817 14.5833H10.2082C10.3739 14.5833 10.5329 14.6491 10.6501 14.7663C10.7673 14.8835 10.8332 15.0425 10.8332 15.2083V17.0833H13.3332C13.4437 17.0833 13.5497 17.0394 13.6278 16.9612C13.7059 16.8831 13.7498 16.7771 13.7498 16.6666V2.49992C13.7498 2.38941 13.7059 2.28343 13.6278 2.20529C13.5497 2.12715 13.4437 2.08325 13.3332 2.08325H3.33317C3.22266 2.08325 3.11668 2.12715 3.03854 2.20529C2.9604 2.28343 2.9165 2.38941 2.9165 2.49992V16.6666C2.9165 16.7771 2.9604 16.8831 3.03854 16.9612C3.11668 17.0394 3.22266 17.0833 3.33317 17.0833Z" fill="#595959"/>
</svg>
