<svg width="20" height="20" viewBox="0 0 20 20" fill="none" xmlns="http://www.w3.org/2000/svg">
<path d="M17.6136 1.28906H5.13551C4.05258 1.28906 3.17156 2.16191 3.17156 3.23113L3.09109 14.2188H0.655937C0.483359 14.2188 0.351562 14.3714 0.351562 14.544V16.0561C0.351562 17.4716 1.48438 18.6293 2.85156 18.6928V18.7109H13.3594V18.6905C13.4375 18.6938 13.4848 18.7109 13.5386 18.7109H13.5459C14.2462 18.7069 14.9162 18.4249 15.4086 17.927C15.901 17.4291 16.1756 16.756 16.1719 16.0557V6.44531H19.344C19.5166 6.44531 19.6484 6.28906 19.6484 6.1166V3.34211C19.6494 2.80046 19.4359 2.28045 19.0546 1.89575C18.6733 1.51104 18.1552 1.29292 17.6136 1.28906ZM2.98828 18.0859H2.98613C1.87461 18.0859 0.976562 17.1672 0.976562 16.0557V14.8438H10.8984V16.0505C10.8972 16.3988 10.9648 16.7439 11.0973 17.066C11.2298 17.3881 11.4246 17.6808 11.6705 17.9275C11.7234 17.9805 11.7786 18.0078 11.8351 18.0859H2.98828ZM15.5469 16.0554C15.5469 17.1673 14.6575 18.0859 13.5456 18.0859H13.5391C13.0023 18.082 12.4889 17.8657 12.1112 17.4844C11.7335 17.103 11.5222 16.5876 11.5234 16.0508V14.544C11.5239 14.4598 11.4915 14.3787 11.4332 14.318C11.3748 14.2573 11.2951 14.2217 11.2109 14.2188H3.71613L3.79656 3.2334C3.79656 2.50652 4.39719 1.91406 5.13551 1.91406H16.1382C15.7821 2.30469 15.5469 2.79895 15.5469 3.35047V16.0554ZM19.0234 3.34766V5.82031H16.1719V3.34996C16.1719 2.56773 16.8226 1.91406 17.6043 1.91406H17.613C17.9896 1.91779 18.3493 2.07043 18.6136 2.33862C18.8779 2.60682 19.0252 2.96874 19.0234 3.34527V3.34766Z" fill="#595959"/>
<path d="M7.68986 8.98105L9.30099 10.0826C9.35236 10.118 9.41327 10.1369 9.47564 10.1369C9.53802 10.1369 9.59892 10.118 9.65029 10.0826L11.2566 8.98124C11.8145 8.60066 12.2267 7.80468 12.2267 7.12988V4.90109C12.2283 4.84336 12.2135 4.78635 12.184 4.7367C12.1545 4.68704 12.1115 4.64678 12.0601 4.62058L9.60693 3.41378C9.56447 3.39277 9.51773 3.38184 9.47035 3.38184C9.42297 3.38184 9.37623 3.39277 9.33377 3.41378L6.88525 4.61718C6.83377 4.64338 6.7908 4.68367 6.76135 4.73335C6.73189 4.78304 6.71716 4.84007 6.71889 4.89781V7.12988C6.71889 7.80468 7.13197 8.60066 7.68986 8.98105ZM7.34389 5.09273L9.47279 4.0423L11.6017 5.09574V7.12988C11.6017 7.60054 11.2931 8.19933 10.904 8.46468L9.4692 9.44601L8.03998 8.46484C7.6508 8.19921 7.34389 7.60054 7.34389 7.12988V5.09273Z" fill="#595959"/>
<path d="M8.94406 7.60141C8.97294 7.63087 9.00735 7.65432 9.04533 7.67041C9.08331 7.6865 9.1241 7.69491 9.16535 7.69516H9.16609C9.2491 7.69478 9.32858 7.66152 9.38711 7.60266L10.6302 6.35903C10.6889 6.30042 10.7219 6.2209 10.7219 6.13798C10.7219 6.05506 10.689 5.97552 10.6304 5.91686C10.5718 5.8582 10.4923 5.82523 10.4094 5.8252C10.3264 5.82516 10.2469 5.85807 10.1882 5.91668L9.16719 6.93774L8.75898 6.52551C8.70061 6.46662 8.62122 6.43333 8.5383 6.43297C8.45538 6.43261 8.37571 6.4652 8.31682 6.52358C8.25793 6.58196 8.22464 6.66134 8.22427 6.74426C8.22391 6.82718 8.2565 6.90685 8.31488 6.96575L8.94406 7.60141ZM13.3594 10.9764H5.85938C5.77649 10.9764 5.69701 11.0093 5.6384 11.0679C5.5798 11.1265 5.54688 11.206 5.54688 11.2889C5.54688 11.3718 5.5798 11.4513 5.6384 11.5099C5.69701 11.5685 5.77649 11.6014 5.85938 11.6014H13.3594C13.4423 11.6014 13.5217 11.5685 13.5803 11.5099C13.639 11.4513 13.6719 11.3718 13.6719 11.2889C13.6719 11.206 13.639 11.1265 13.5803 11.0679C13.5217 11.0093 13.4423 10.9764 13.3594 10.9764ZM13.3594 12.4217H5.85938C5.77649 12.4217 5.69701 12.4546 5.6384 12.5133C5.5798 12.5719 5.54688 12.6513 5.54688 12.7342C5.54688 12.8171 5.5798 12.8966 5.6384 12.9552C5.69701 13.0138 5.77649 13.0467 5.85938 13.0467H13.3594C13.4423 13.0467 13.5217 13.0138 13.5803 12.9552C13.639 12.8966 13.6719 12.8171 13.6719 12.7342C13.6719 12.6513 13.639 12.5719 13.5803 12.5133C13.5217 12.4546 13.4423 12.4217 13.3594 12.4217Z" fill="#595959"/>
</svg>
