<svg width="20" height="20" viewBox="0 0 20 20" fill="none" xmlns="http://www.w3.org/2000/svg">
<path d="M11.8847 8.2834C12.3133 8.03648 12.6938 7.70598 12.9997 7.30719C13.4096 7.6323 13.9185 7.8125 14.4534 7.8125C15.7457 7.8125 16.7971 6.76109 16.7971 5.46875C16.7971 4.17641 15.7457 3.125 14.4534 3.125C14.0873 3.125 13.7273 3.2118 13.4032 3.37402C12.7811 2.07789 11.4692 1.23633 10.0003 1.23633C7.91793 1.23633 6.22387 2.93039 6.22387 5.01273C6.22387 6.4084 6.98488 7.62953 8.11371 8.28324C5.39203 9.0968 3.40234 11.6231 3.40234 14.6059V15.8598C3.40234 17.284 4.41937 18.5026 5.82059 18.7574C5.84363 18.7616 5.86703 18.7637 5.89047 18.7637C14.6553 18.7614 14.1145 18.7693 14.18 18.7574C15.5812 18.5026 16.5982 17.284 16.5982 15.8598V14.6059C16.5982 11.6957 14.6891 9.11953 11.8847 8.2834ZM16.0159 5.46875C16.0159 6.33031 15.315 7.03125 14.4534 7.03125C13.9809 7.03125 13.5387 6.82043 13.24 6.45281C12.6998 5.78781 12.7947 4.80695 13.4651 4.25867C13.747 4.02812 14.0887 3.90625 14.4534 3.90625C15.315 3.90625 16.0159 4.60719 16.0159 5.46875ZM7.00512 5.01273C7.00512 3.36121 8.34875 2.01758 10.0003 2.01758C11.2157 2.01758 12.296 2.74363 12.7605 3.84781C12.0328 4.60555 11.8877 5.77711 12.467 6.71215C11.9108 7.51711 10.9867 8.00797 10.0003 8.00797C8.34875 8.00797 7.00512 6.6643 7.00512 5.01273ZM15.817 15.8598C15.817 16.8949 15.0857 17.7822 14.0734 17.9824H5.92715C4.91484 17.7822 4.18359 16.8949 4.18359 15.8598V14.6059C4.18359 11.3986 6.79293 8.78922 10.0003 8.78922C13.2043 8.78922 15.817 11.3872 15.817 14.6059V15.8598Z" fill="#595959"/>
<path d="M13.2812 5.46875C13.2812 5.68445 13.4562 5.85938 13.6719 5.85938H14.0625V6.25C14.0625 6.4657 14.2374 6.64062 14.4531 6.64062C14.6688 6.64062 14.8438 6.4657 14.8438 6.25V5.85938H15.2344C15.4501 5.85938 15.625 5.68445 15.625 5.46875C15.625 5.25305 15.4501 5.07812 15.2344 5.07812H14.8438V4.6875C14.8438 4.4718 14.6688 4.29688 14.4531 4.29688C14.2374 4.29688 14.0625 4.4718 14.0625 4.6875V5.07812H13.6719C13.4562 5.07812 13.2812 5.25305 13.2812 5.46875Z" fill="#595959"/>
</svg>
