<svg width="20" height="20" viewBox="0 0 20 20" fill="none" xmlns="http://www.w3.org/2000/svg">
<path d="M2.48877 9.17896V15.9157C2.48877 16.3624 2.67607 16.7908 3.00947 17.1066C3.34287 17.4225 3.79505 17.5999 4.26655 17.5999H14.9332C15.4047 17.5999 15.8569 17.4225 16.1903 17.1066C16.5237 16.7908 16.711 16.3624 16.711 15.9157V9.17896" stroke="#595959" stroke-linecap="round" stroke-linejoin="round"/>
<path d="M9.59993 4.54744C9.59993 3.76576 9.27216 3.01609 8.68871 2.46335C8.10526 1.91062 7.31394 1.6001 6.48882 1.6001C5.89945 1.6001 5.33422 1.8219 4.91748 2.21671C4.50073 2.61152 4.2666 3.147 4.2666 3.70534C4.2666 4.26369 4.50073 4.79917 4.91748 5.19398C5.33422 5.58879 5.89945 5.81059 6.48882 5.81059H9.59993M9.59993 4.54744V5.81059M9.59993 4.54744C9.59993 3.76576 9.92771 3.01609 10.5112 2.46335C11.0946 1.91062 11.8859 1.6001 12.711 1.6001C13.3004 1.6001 13.8656 1.8219 14.2824 2.21671C14.6991 2.61152 14.9333 3.147 14.9333 3.70534C14.9333 3.98181 14.8758 4.25557 14.7641 4.51099C14.6524 4.76641 14.4887 4.99849 14.2824 5.19398C14.076 5.38947 13.8311 5.54454 13.5615 5.65034C13.2918 5.75614 13.0029 5.81059 12.711 5.81059H9.59993" stroke="#595959" stroke-linejoin="round"/>
<path d="M9.6001 9.17918V17.6002M1.6001 5.81079H17.6001V9.17918H1.6001V5.81079Z" stroke="#595959" stroke-linecap="round" stroke-linejoin="round"/>
</svg>
