<svg width="20" height="20" viewBox="0 0 20 20" fill="none" xmlns="http://www.w3.org/2000/svg">
<path d="M17.1983 11.7801L17.1567 11.366L17.1442 11.3668L17.13 11.3693L17.1983 11.7801ZM17.1983 11.7801L17.24 12.1951L17.2542 12.1935L17.2675 12.191L17.1983 11.7801ZM13.8317 16.3485L14.0958 16.026L14.0917 16.0235L13.8317 16.3485ZM13.8317 16.3485L13.5675 16.671L13.5717 16.6743L13.8317 16.3485ZM6.16833 16.3485L5.90417 16.0268L5.89833 16.0318L5.89167 16.0376L6.16833 16.3485ZM6.16833 16.3485L6.4325 16.6718L6.43917 16.666L6.445 16.661L6.16833 16.3485ZM2.80083 8.22014V7.80348H2.78083L2.76 7.80514L2.80083 8.22014ZM2.80083 8.22014V8.63681H2.82167L2.8425 8.63431L2.80083 8.22014ZM12.1933 2.75931C12.1808 2.60821 12.1633 2.45758 12.1408 2.30764C12.1218 2.17498 12.0818 2.04616 12.0225 1.92598L11.2817 2.30848C11.29 2.32514 11.3042 2.35848 11.3183 2.44514C11.3342 2.53681 11.3458 2.65598 11.365 2.84181L12.1933 2.75931ZM12.3567 3.76181C12.3467 3.74931 12.3167 3.69848 12.2842 3.52014C12.2454 3.26765 12.2162 3.01388 12.195 2.75931L11.365 2.84181C11.3983 3.17598 11.4258 3.45264 11.4642 3.66764C11.5017 3.87764 11.56 4.09181 11.6942 4.26764L12.3567 3.76181ZM12.7433 3.92181C12.6705 3.93161 12.5964 3.92197 12.5285 3.89387C12.4605 3.86577 12.4013 3.82021 12.3567 3.76181L11.6933 4.26681C11.8272 4.4423 12.0051 4.57923 12.2089 4.66368C12.4128 4.74814 12.6355 4.7771 12.8542 4.74764L12.7433 3.92181ZM13.5667 3.32764C13.2958 3.55014 13.1108 3.70098 12.965 3.80181C12.8158 3.90514 12.7583 3.91931 12.7433 3.92181L12.8542 4.74764C13.0725 4.71848 13.265 4.60848 13.4408 4.48598C13.62 4.36098 13.8342 4.18598 14.095 3.97264L13.5667 3.32764ZM14.2767 2.86014C14.1433 2.90264 14.0308 2.97014 13.9242 3.04598C13.8208 3.11931 13.7033 3.21598 13.5667 3.32764L14.095 3.97264C14.2392 3.85431 14.3325 3.77848 14.4075 3.72514C14.4447 3.69514 14.4863 3.67097 14.5308 3.65348L14.2767 2.86014ZM15.1542 2.90348C14.8765 2.78333 14.5648 2.76793 14.2767 2.86014L14.5308 3.65348C14.6267 3.62312 14.7303 3.62845 14.8225 3.66848L15.1542 2.90348ZM15.8142 3.44014C15.6892 3.31514 15.5817 3.20681 15.4867 3.12348C15.3881 3.03309 15.2759 2.95885 15.1542 2.90348L14.8225 3.66848C14.84 3.67598 14.8717 3.69348 14.9383 3.75181C15.0075 3.81181 15.0925 3.89681 15.225 4.02931L15.8142 3.44014ZM16.5583 4.18431L15.8142 3.44014L15.225 4.02931L15.9692 4.77348L16.5583 4.18431ZM17.095 4.84431C17.0393 4.72255 16.9648 4.61034 16.8742 4.51181C16.7908 4.41681 16.6825 4.30931 16.5583 4.18431L15.9692 4.77348C16.1017 4.90598 16.1858 4.99098 16.2475 5.06014C16.3058 5.12681 16.3225 5.15848 16.33 5.17598L17.095 4.84431ZM17.1383 5.72181C17.2305 5.4337 17.2151 5.12193 17.095 4.84431L16.33 5.17598C16.3698 5.26831 16.3748 5.3719 16.3442 5.46764L17.1383 5.72181ZM16.6708 6.43181C16.7825 6.29514 16.8792 6.17764 16.9525 6.07431C17.0275 5.96764 17.0958 5.85514 17.1383 5.72181L16.3442 5.46764C16.3269 5.5121 16.3031 5.55369 16.2733 5.59098C16.194 5.69758 16.1114 5.80179 16.0258 5.90348L16.6708 6.43181ZM16.0767 7.25514C16.0792 7.24014 16.0933 7.18264 16.1967 7.03348C16.2975 6.88764 16.4483 6.70264 16.6708 6.43181L16.0258 5.90348C15.8125 6.16431 15.6367 6.37848 15.5125 6.55764C15.39 6.73264 15.28 6.92598 15.2508 7.14431L16.0767 7.25514ZM16.2367 7.64181C16.1783 7.5972 16.1327 7.53793 16.1046 7.47002C16.0765 7.40211 16.0669 7.32798 16.0767 7.25514L15.2508 7.14431C15.2215 7.36289 15.2506 7.58534 15.335 7.78907C15.4195 7.9928 15.5563 8.17056 15.7317 8.30431L16.2367 7.64181ZM17.2392 7.80431C16.89 7.76931 16.6533 7.74598 16.4783 7.71431C16.3 7.68181 16.2492 7.65181 16.2367 7.64181L15.7317 8.30431C15.9067 8.43764 16.1208 8.49598 16.3317 8.53431C16.5458 8.57264 16.8217 8.60098 17.1567 8.63431L17.2392 7.80431ZM18.0725 7.97598C17.9523 7.91665 17.8235 7.87671 17.6908 7.85764C17.5658 7.83681 17.4142 7.82181 17.2392 7.80431L17.1558 8.63348C17.3425 8.65264 17.4617 8.66431 17.5533 8.68014C17.6005 8.68545 17.6465 8.69781 17.69 8.71681L18.0725 7.97598ZM18.6617 8.62681C18.5504 8.34577 18.3411 8.11455 18.0725 7.97598L17.69 8.71681C17.7796 8.76288 17.8495 8.83985 17.8867 8.93348L18.6617 8.62681ZM18.7492 9.47264C18.7492 9.29681 18.7492 9.14431 18.7408 9.01764C18.7352 8.88401 18.7085 8.7521 18.6617 8.62681L17.8867 8.93348C17.8933 8.95098 17.9033 8.98598 17.9092 9.07348C17.9157 9.2067 17.9179 9.34011 17.9158 9.47348L18.7492 9.47264ZM18.7492 10.526V9.47264H17.9158V10.526H18.7492ZM18.6617 11.371C18.7133 11.241 18.7325 11.111 18.7408 10.9801C18.7492 10.8543 18.7492 10.7018 18.7492 10.526H17.9158C17.9158 10.7126 17.9158 10.8326 17.9092 10.9251C17.9088 10.9727 17.9012 11.0199 17.8867 11.0651L18.6617 11.371ZM18.0725 12.0226C18.3413 11.8839 18.5506 11.6523 18.6617 11.371L17.8867 11.0651C17.8495 11.1588 17.7796 11.2357 17.69 11.2818L18.0725 12.0226ZM17.2392 12.1943C17.4142 12.1768 17.5667 12.161 17.6908 12.1401C17.82 12.1193 17.9475 12.0868 18.0717 12.0235L17.69 11.2818C17.6466 11.3008 17.6005 11.3132 17.5533 11.3185C17.4617 11.3343 17.3425 11.346 17.1567 11.3651L17.2392 12.1943ZM16.2375 12.3568C16.25 12.3468 16.3008 12.316 16.4792 12.2843C16.6542 12.2526 16.8908 12.2285 17.2392 12.1943L17.1567 11.3651C16.8225 11.3985 16.5458 11.4251 16.3308 11.4643C16.1208 11.5018 15.9075 11.5601 15.7317 11.6935L16.2375 12.3568ZM16.0767 12.7435C16.067 12.6706 16.0767 12.5964 16.105 12.5285C16.1332 12.4606 16.1789 12.4013 16.2375 12.3568L15.7317 11.6935C15.5562 11.8273 15.4192 12.0052 15.3348 12.2091C15.2503 12.413 15.2214 12.6356 15.2508 12.8543L16.0767 12.7435ZM16.6708 13.5668C16.5059 13.3718 16.3478 13.1711 16.1967 12.9651C16.0933 12.8168 16.0792 12.7585 16.0767 12.7435L15.2517 12.8551C15.2808 13.0735 15.3908 13.2651 15.5125 13.441C15.6375 13.6193 15.8125 13.8343 16.0258 14.0943L16.6708 13.5668ZM17.1383 14.2768C17.0954 14.15 17.0326 14.0308 16.9525 13.9235C16.8624 13.8017 16.7684 13.6827 16.6708 13.5668L16.0258 14.0943C16.1442 14.2393 16.22 14.3318 16.2733 14.4076C16.303 14.4447 16.3268 14.486 16.3442 14.5301L17.1383 14.2768ZM17.095 15.1543C17.2151 14.8767 17.2305 14.5649 17.1383 14.2768L16.3442 14.5301C16.375 14.6261 16.37 14.7301 16.33 14.8226L17.095 15.1543ZM16.5592 15.8135C16.6833 15.6893 16.7908 15.5818 16.8742 15.4868C16.9608 15.3876 17.0392 15.2835 17.095 15.1543L16.33 14.8226C16.3082 14.865 16.2801 14.9037 16.2467 14.9376C16.157 15.0359 16.0645 15.1315 15.9692 15.2243L16.5592 15.8135ZM15.8142 16.5585L16.5592 15.8135L15.9692 15.2243L15.225 15.9693L15.8142 16.5585ZM15.1542 17.0943C15.2825 17.0385 15.3875 16.961 15.4867 16.8743C15.5817 16.791 15.6892 16.6826 15.8142 16.5576L15.225 15.9693C15.0925 16.1018 15.0075 16.186 14.9383 16.2468C14.9042 16.2803 14.8651 16.3084 14.8225 16.3301L15.1542 17.0943ZM14.2767 17.1385C14.5649 17.2304 14.8766 17.2147 15.1542 17.0943L14.8225 16.3301C14.7302 16.3699 14.6266 16.3749 14.5308 16.3443L14.2767 17.1385ZM13.5667 16.6701C13.7033 16.7818 13.8208 16.8785 13.9242 16.9518C14.0308 17.0276 14.1433 17.096 14.2767 17.1385L14.5308 16.3443C14.4864 16.3271 14.4448 16.3032 14.4075 16.2735C14.3009 16.1938 14.1967 16.111 14.095 16.0251L13.5667 16.6701ZM12.7433 16.0768C12.7583 16.0785 12.8167 16.0935 12.965 16.1968C13.1108 16.2976 13.2958 16.4485 13.5667 16.6701L14.095 16.0251C13.8342 15.8126 13.62 15.6368 13.4408 15.5118C13.2658 15.3901 13.0725 15.2801 12.8542 15.251L12.7433 16.0768ZM12.3567 16.2368C12.4013 16.1784 12.4605 16.1328 12.5285 16.1047C12.5964 16.0766 12.6705 16.067 12.7433 16.0768L12.8542 15.251C12.6357 15.2216 12.4133 15.2505 12.2095 15.3348C12.0058 15.4191 11.828 15.5558 11.6942 15.731L12.3567 16.2368ZM12.1942 17.2393C12.2292 16.8901 12.2525 16.6535 12.2842 16.4785C12.3167 16.3001 12.3467 16.2493 12.3567 16.2368L11.6942 15.731C11.5608 15.906 11.5025 16.121 11.4642 16.331C11.4258 16.5451 11.3975 16.821 11.3642 17.156L12.1942 17.2393ZM12.0225 18.0726C12.0867 17.9476 12.1183 17.8201 12.14 17.691C12.1617 17.566 12.1767 17.4143 12.1942 17.2393L11.3642 17.156C11.3526 17.2889 11.3379 17.4215 11.3183 17.5535C11.313 17.6006 11.3007 17.6467 11.2817 17.6901L12.0225 18.0726ZM11.3717 18.6618C11.6527 18.5506 11.8839 18.3413 12.0225 18.0726L11.2817 17.6901C11.2356 17.7797 11.1586 17.8496 11.065 17.8868L11.3717 18.6618ZM10.5258 18.7493C10.7017 18.7493 10.8542 18.7493 10.9808 18.741C11.1108 18.7326 11.2417 18.7135 11.3717 18.6618L11.065 17.8868C11.0197 17.9013 10.9725 17.9089 10.925 17.9093C10.8333 17.916 10.7125 17.916 10.525 17.916L10.5258 18.7493ZM9.4725 18.7493H10.5258L10.525 17.916H9.4725V18.7493ZM8.62667 18.6618C8.7575 18.7135 8.8875 18.7326 9.01833 18.741C9.14417 18.7493 9.29667 18.7493 9.4725 18.7493V17.916C9.28583 17.916 9.16583 17.916 9.07333 17.9093C9.0258 17.9089 8.97861 17.9013 8.93333 17.8868L8.62667 18.6618ZM7.97583 18.0726C8.11441 18.3413 8.34563 18.5506 8.62667 18.6618L8.93333 17.8868C8.83971 17.8496 8.76274 17.7797 8.71667 17.6901L7.97583 18.0726ZM7.80417 17.2393C7.82167 17.4143 7.8375 17.5668 7.8575 17.691C7.87917 17.8201 7.91167 17.9476 7.97583 18.0726L8.71667 17.6901C8.69767 17.6467 8.68531 17.6006 8.68 17.5535C8.66048 17.4218 8.64491 17.2895 8.63333 17.1568L7.80417 17.2393ZM7.64167 16.2368C7.65167 16.2493 7.68167 16.3001 7.71417 16.4785C7.74583 16.6535 7.76917 16.891 7.80417 17.2393L8.63333 17.1568C8.6 16.8226 8.5725 16.546 8.53417 16.331C8.49667 16.121 8.43833 15.9068 8.30417 15.731L7.64167 16.2368ZM7.255 16.0768C7.32784 16.067 7.40197 16.0766 7.46988 16.1047C7.53778 16.1328 7.59705 16.1784 7.64167 16.2368L8.30417 15.731C8.17042 15.5556 7.99266 15.4196 7.78893 15.3352C7.5852 15.2507 7.36275 15.2217 7.14417 15.251L7.255 16.0768ZM6.43167 16.671C6.7025 16.4485 6.8875 16.2976 7.03333 16.1968C7.1825 16.0935 7.24 16.0785 7.255 16.0768L7.14417 15.251C6.92583 15.2801 6.73333 15.3901 6.5575 15.5126C6.37833 15.6368 6.16417 15.8126 5.90333 16.026L6.43167 16.671ZM5.72167 17.1385C5.855 17.096 5.9675 17.0285 6.07417 16.9526C6.1775 16.8793 6.295 16.7826 6.43167 16.671L5.90333 16.026C5.80164 16.1116 5.69743 16.1941 5.59083 16.2735C5.55356 16.3032 5.51197 16.3271 5.4675 16.3443L5.72167 17.1385ZM4.84417 17.096C5.12179 17.2161 5.43356 17.2307 5.72167 17.1385L5.4675 16.3443C5.37175 16.3749 5.26816 16.3699 5.17583 16.3301L4.84417 17.096ZM4.18417 16.5585C4.30917 16.6835 4.41667 16.7918 4.51167 16.8751C4.61 16.961 4.71583 17.0401 4.84417 17.096L5.17583 16.3301C5.13321 16.3084 5.09415 16.2803 5.06 16.2468C4.96172 16.1572 4.86613 16.0646 4.77333 15.9693L4.18417 16.5585ZM3.44 15.8143L4.18417 16.5585L4.77333 15.9693L4.02917 15.2251L3.44 15.8143ZM2.90333 15.1543C2.95917 15.2826 3.0375 15.3876 3.12417 15.4868C3.2075 15.5818 3.31583 15.6893 3.44 15.8143L4.02917 15.2251C3.93357 15.1324 3.84075 15.0368 3.75083 14.9385C3.71735 14.9043 3.68925 14.8653 3.6675 14.8226L2.90333 15.1543ZM2.86 14.2768C2.76779 14.5649 2.78319 14.8767 2.90333 15.1543L3.6675 14.8226C3.62748 14.7304 3.62298 14.6268 3.65333 14.531L2.86 14.2768ZM3.3275 13.5668C3.21583 13.7035 3.11917 13.821 3.04583 13.9243C2.96577 14.0313 2.90306 14.1503 2.86 14.2768L3.65333 14.531C3.67083 14.4865 3.695 14.4449 3.725 14.4076C3.77833 14.3326 3.85417 14.2393 3.9725 14.0951L3.3275 13.5668ZM3.92167 12.7435C3.91917 12.7585 3.905 12.816 3.80167 12.9651C3.7 13.111 3.55 13.296 3.3275 13.5668L3.9725 14.0951C4.18583 13.8343 4.36167 13.6201 4.48583 13.441C4.60833 13.266 4.71833 13.0726 4.7475 12.8543L3.92167 12.7435ZM3.76167 12.3568C3.82007 12.4014 3.86563 12.4607 3.89373 12.5286C3.92183 12.5965 3.93147 12.6706 3.92167 12.7435L4.7475 12.8543C4.77681 12.6357 4.74776 12.4133 4.66331 12.2096C4.57887 12.0058 4.44202 11.8281 4.26667 11.6943L3.76167 12.3568ZM2.75917 12.1951C3.10833 12.2293 3.345 12.2526 3.52 12.2843C3.69833 12.3168 3.74917 12.3468 3.76167 12.3568L4.26667 11.6935C4.09167 11.5601 3.8775 11.5018 3.66667 11.4643C3.4525 11.426 3.17667 11.3976 2.84167 11.3643L2.75917 12.1951ZM1.92583 12.0226C2.05083 12.0868 2.17833 12.1185 2.3075 12.1401C2.4325 12.1618 2.58333 12.1776 2.75917 12.1951L2.8425 11.3651C2.70956 11.3536 2.577 11.338 2.445 11.3185C2.39786 11.3132 2.35179 11.3008 2.30833 11.2818L1.92583 12.0226ZM1.33667 11.371C1.44774 11.6523 1.65707 11.8839 1.92583 12.0226L2.30833 11.2818C2.21874 11.2357 2.14887 11.1588 2.11167 11.0651L1.33667 11.371ZM1.25 10.5276C1.25 10.7035 1.25 10.856 1.25833 10.9826C1.26373 11.116 1.29045 11.2477 1.3375 11.3726L2.1125 11.0668C2.09801 11.0215 2.09043 10.9743 2.09 10.9268C2.08381 10.7936 2.08158 10.6602 2.08333 10.5268L1.25 10.5276ZM1.25 9.47431V10.5276H2.08333V9.47431H1.25ZM1.3375 8.62848C1.29064 8.75404 1.26392 8.88623 1.25833 9.02014C1.25 9.14598 1.25 9.29848 1.25 9.47431H2.08333C2.08333 9.28764 2.08333 9.16764 2.09 9.07514C2.0904 9.02761 2.09799 8.98041 2.1125 8.93514L1.3375 8.62848ZM1.92667 7.97764C1.65805 8.11622 1.44874 8.34744 1.3375 8.62848L2.1125 8.93514C2.14971 8.84152 2.21957 8.76455 2.30917 8.71848L1.92667 7.97764ZM2.76 7.80514C2.585 7.82264 2.4325 7.83931 2.30833 7.85931C2.17567 7.87838 2.04685 7.91832 1.92667 7.97764L2.30917 8.71848C2.32583 8.71014 2.35917 8.69598 2.44583 8.68181C2.5375 8.66598 2.65667 8.65431 2.8425 8.63514L2.76 7.80514ZM3.7625 7.64348C3.75 7.65348 3.69917 7.68348 3.52083 7.71598C3.34583 7.74764 3.10917 7.77014 2.76 7.80514L2.8425 8.63514C3.17667 8.60181 3.45417 8.57431 3.66833 8.53598C3.87917 8.49848 4.09333 8.44014 4.26833 8.30598L3.7625 7.64348ZM3.9225 7.25681C3.9323 7.32965 3.92266 7.40378 3.89456 7.47169C3.86646 7.53959 3.8209 7.59886 3.7625 7.64348L4.26833 8.30598C4.44354 8.17213 4.58022 7.99433 4.66452 7.79061C4.74882 7.58688 4.77773 7.36365 4.74833 7.14514L3.9225 7.25681ZM3.32833 6.43264C3.55083 6.70431 3.70167 6.88931 3.80333 7.03514C3.90667 7.18431 3.92 7.24181 3.9225 7.25681L4.74833 7.14514C4.71917 6.92681 4.60917 6.73514 4.48667 6.55931C4.3625 6.38014 4.18667 6.16598 3.97333 5.90514L3.32833 6.43264ZM2.86083 5.72264C2.9025 5.85598 2.97083 5.96931 3.04667 6.07598C3.12 6.17848 3.21667 6.29681 3.32833 6.43264L3.97333 5.90514C3.88774 5.80318 3.80521 5.69869 3.72583 5.59181C3.6959 5.55483 3.67174 5.51352 3.65417 5.46931L2.86083 5.72264ZM2.90417 4.84598C2.78423 5.12335 2.76883 5.43479 2.86083 5.72264L3.65417 5.46931C3.62381 5.37346 3.62914 5.26987 3.66917 5.17764L2.90417 4.84598ZM3.44083 4.18598C3.31583 4.31014 3.2075 4.41764 3.12417 4.51348C3.0338 4.61204 2.95955 4.72426 2.90417 4.84598L3.66917 5.17764C3.69098 5.13532 3.71908 5.09572 3.7525 5.06181C3.84177 4.96318 3.93433 4.86757 4.03 4.77514L3.44083 4.18598ZM4.185 3.44098L3.44083 4.18598L4.03 4.77514L4.77417 4.03014L4.185 3.44098ZM4.845 2.90514C4.72332 2.96059 4.61111 3.03483 4.5125 3.12514C4.4175 3.20848 4.30917 3.31598 4.185 3.44098L4.77417 4.03014C4.90667 3.89848 4.99167 3.81348 5.06083 3.75264C5.1275 3.69431 5.15917 3.67764 5.17667 3.66931L4.845 2.90514ZM5.7225 2.86098C5.43429 2.76903 5.12252 2.78472 4.845 2.90514L5.17667 3.66931C5.2689 3.62929 5.37249 3.62479 5.46833 3.65514L5.7225 2.86098ZM6.4325 3.32931C6.29583 3.21764 6.17833 3.12098 6.075 3.04764C5.96806 2.96725 5.84909 2.90426 5.7225 2.86098L5.46833 3.65514C5.51279 3.67238 5.55437 3.69627 5.59167 3.72598C5.66667 3.78014 5.76 3.85598 5.905 3.97431L6.4325 3.32931ZM7.25583 3.92348C7.24083 3.92098 7.18333 3.90681 7.03417 3.80348C6.82821 3.65211 6.62753 3.49452 6.4325 3.32931L5.905 3.97431C6.165 4.18764 6.38 4.36348 6.55833 4.48764C6.73333 4.60931 6.92667 4.71931 7.145 4.74931L7.25583 3.92348ZM7.6425 3.76264C7.59798 3.8212 7.53875 3.86692 7.47084 3.89517C7.40293 3.92342 7.32874 3.93318 7.25583 3.92348L7.145 4.74931C7.36364 4.77886 7.58621 4.74919 7.79009 4.66488C7.99398 4.58058 8.17192 4.44381 8.30583 4.26848L7.6425 3.76264ZM7.805 2.76098C7.77 3.10931 7.74667 3.34681 7.715 3.52098C7.6825 3.69931 7.6525 3.75014 7.6425 3.76264L8.30583 4.26848C8.43917 4.09348 8.4975 3.87931 8.535 3.66848C8.57333 3.45431 8.60167 3.17848 8.635 2.84348L7.805 2.76098ZM7.97667 1.92764C7.9125 2.05264 7.88 2.18014 7.85833 2.30931C7.8375 2.43431 7.8225 2.58514 7.805 2.76098L8.63417 2.84431C8.64573 2.71137 8.66129 2.57881 8.68083 2.44681C8.68609 2.39967 8.69845 2.35359 8.7175 2.31014L7.97667 1.92764ZM8.62833 1.33848C8.34684 1.44976 8.11529 1.65856 7.97667 1.92764L8.7175 2.31014C8.76357 2.22055 8.84054 2.15068 8.93417 2.11348L8.62833 1.33848ZM9.47333 1.25098C9.2975 1.25098 9.145 1.25098 9.01833 1.25931C8.88494 1.2647 8.75327 1.29143 8.62833 1.33848L8.93417 2.11348C8.97943 2.09896 9.02663 2.09138 9.07417 2.09098C9.16583 2.08431 9.28667 2.08431 9.47417 2.08431L9.47333 1.25098ZM10.5267 1.25098H9.47333V2.08431H10.5267V1.25098ZM11.3725 1.33848C11.2469 1.2916 11.1147 1.26488 10.9808 1.25931C10.855 1.25098 10.7025 1.25098 10.5267 1.25098V2.08431C10.7133 2.08431 10.8333 2.08431 10.9258 2.09098C10.9733 2.09165 11.0205 2.09923 11.0658 2.11348L11.3725 1.33848ZM12.0233 1.92764C11.8846 1.65888 11.653 1.44955 11.3717 1.33848L11.0658 2.11348C11.1595 2.15068 11.2364 2.22055 11.2825 2.31014L12.0233 1.92764ZM12.9167 10.0001C12.9167 10.7737 12.6094 11.5156 12.0624 12.0625C11.5154 12.6095 10.7735 12.9168 10 12.9168V13.7501C10.9946 13.7501 11.9484 13.3551 12.6516 12.6518C13.3549 11.9485 13.75 10.9947 13.75 10.0001H12.9167ZM10 7.08348C10.7735 7.08348 11.5154 7.39077 12.0624 7.93775C12.6094 8.48473 12.9167 9.2266 12.9167 10.0001H13.75C13.75 9.00558 13.3549 8.05175 12.6516 7.34849C11.9484 6.64523 10.9946 6.25014 10 6.25014V7.08348ZM7.08333 10.0001C7.08333 9.2266 7.39062 8.48473 7.93761 7.93775C8.48459 7.39077 9.22645 7.08348 10 7.08348V6.25014C9.00544 6.25014 8.05161 6.64523 7.34835 7.34849C6.64509 8.05175 6.25 9.00558 6.25 10.0001H7.08333ZM10 12.9168C9.22645 12.9168 8.48459 12.6095 7.93761 12.0625C7.39062 11.5156 7.08333 10.7737 7.08333 10.0001H6.25C6.25 10.9947 6.64509 11.9485 7.34835 12.6518C8.05161 13.3551 9.00544 13.7501 10 13.7501V12.9168Z" fill="#595959"/>
</svg>
