<svg width="20" height="20" viewBox="0 0 20 20" fill="none" xmlns="http://www.w3.org/2000/svg">
<path d="M4.67933 16.6666C4.296 16.6666 3.976 16.5383 3.71933 16.2816C3.46211 16.0244 3.3335 15.7041 3.3335 15.3208V4.67909C3.3335 4.29575 3.46211 3.97575 3.71933 3.71909C3.976 3.46186 4.296 3.33325 4.67933 3.33325H10.016V4.16659H4.67933C4.55155 4.16659 4.43405 4.21992 4.32683 4.32659C4.22016 4.43381 4.16683 4.55131 4.16683 4.67909V15.3208C4.16683 15.4485 4.22016 15.566 4.32683 15.6733C4.43405 15.7799 4.55155 15.8333 4.67933 15.8333H10.016V16.6666H4.67933ZM13.7185 12.9483L13.1335 12.3491L15.066 10.4166H7.66016V9.58325H15.066L13.1327 7.64992L13.7185 7.05159L16.6668 9.99992L13.7185 12.9483Z" fill="#DF1515"/>
</svg>
