<svg width="25" height="25" viewBox="0 0 25 25" fill="none" xmlns="http://www.w3.org/2000/svg">
<rect width="25" height="25" rx="12.5" fill="white"/>
<path d="M14.9446 12.156C15.7081 12.156 16.3516 12.6204 16.8107 13.344H8.28435C8.74144 12.6204 9.38432 12.156 10.1446 12.156H14.9446ZM9.99258 7.104C9.99258 5.66051 11.1444 4.5 12.5486 4.5C13.9493 4.5 15.1046 5.66092 15.1046 7.104C15.1046 7.79711 14.8238 8.5524 14.3464 9.13138C13.871 9.70778 13.2383 10.068 12.5486 10.068C11.8568 10.068 11.2241 9.70759 10.7495 9.13154C10.2727 8.55279 9.99258 7.79748 9.99258 7.104Z" stroke="#595959"/>
<path d="M7.97791 21.036L7.91301 20.6526L6.98059 15.144H18.2194L17.2831 20.6523L17.2179 21.036H7.97791Z" stroke="#595959"/>
</svg>
