<svg width="20" height="20" viewBox="0 0 20 20" fill="none" xmlns="http://www.w3.org/2000/svg">
<path d="M16.0977 13.6699C15.6088 13.1806 15.0376 12.7813 14.4102 12.4902C15.295 11.7734 15.8594 10.6797 15.8594 9.45309C15.8594 7.28903 14.0547 5.51364 11.8907 5.54684C9.75981 5.58005 8.04302 7.31638 8.04302 9.45309C8.04302 10.6797 8.60942 11.7734 9.49224 12.4902C8.86471 12.7811 8.29345 13.1804 7.80474 13.6699C6.73833 14.7383 6.13286 16.1484 6.0938 17.6523C6.09328 17.6732 6.09693 17.6939 6.10455 17.7133C6.11217 17.7327 6.1236 17.7504 6.13816 17.7653C6.15272 17.7803 6.17012 17.7921 6.18934 17.8002C6.20855 17.8083 6.2292 17.8125 6.25005 17.8125H7.3438C7.42778 17.8125 7.4981 17.7461 7.50005 17.6621C7.53716 16.5293 7.99614 15.4687 8.80278 14.664C9.21556 14.2491 9.70653 13.9201 10.2473 13.6961C10.7881 13.4722 11.3679 13.3577 11.9532 13.3593C13.1426 13.3593 14.2618 13.8222 15.1036 14.664C15.9083 15.4687 16.3672 16.5293 16.4063 17.6621C16.4083 17.7461 16.4786 17.8125 16.5625 17.8125H17.6563C17.6772 17.8125 17.6978 17.8083 17.717 17.8002C17.7362 17.7921 17.7536 17.7803 17.7682 17.7653C17.7828 17.7504 17.7942 17.7327 17.8018 17.7133C17.8094 17.6939 17.8131 17.6732 17.8125 17.6523C17.7735 16.1484 17.168 14.7383 16.0977 13.6699ZM11.9532 11.9531C11.2852 11.9531 10.6563 11.6933 10.1856 11.2207C9.94937 10.9863 9.76277 10.7068 9.63694 10.3987C9.5111 10.0907 9.4486 9.76043 9.45317 9.4277C9.45903 8.78708 9.71489 8.16794 10.1622 7.70895C10.6309 7.22849 11.2579 6.96091 11.9278 6.95309C12.5899 6.94724 13.2325 7.20505 13.7051 7.66794C14.1895 8.14255 14.4551 8.77731 14.4551 9.45309C14.4551 10.1211 14.1954 10.748 13.7227 11.2207C13.4908 11.4537 13.215 11.6384 12.9113 11.7641C12.6076 11.8898 12.2819 11.9541 11.9532 11.9531ZM7.0606 9.96872C7.04302 9.7988 7.03325 9.62692 7.03325 9.45309C7.03325 9.14255 7.06255 8.83981 7.11724 8.54489C7.13091 8.47458 7.0938 8.40231 7.02935 8.37302C6.76372 8.25388 6.51958 8.08981 6.30864 7.88278C6.06009 7.64178 5.8645 7.35161 5.73436 7.0308C5.60421 6.70998 5.54237 6.36555 5.55278 6.0195C5.57036 5.39255 5.82231 4.79684 6.26177 4.34763C6.74419 3.85349 7.39263 3.58395 8.08208 3.59177C8.70513 3.59763 9.30669 3.83786 9.76177 4.26364C9.91606 4.40817 10.0489 4.56833 10.1602 4.7402C10.1993 4.80075 10.2754 4.82614 10.3418 4.8027C10.6856 4.68356 11.0489 4.59958 11.4219 4.56052C11.5313 4.5488 11.5938 4.43161 11.545 4.33395C10.9102 3.07809 9.61333 2.21091 8.11333 2.18747C5.94731 2.15427 4.14263 3.92966 4.14263 6.09177C4.14263 7.31833 4.70708 8.41208 5.59185 9.12888C4.97075 9.41599 4.39849 9.81247 3.90239 10.3086C2.83208 11.3769 2.22661 12.7871 2.18755 14.2929C2.18703 14.3138 2.19068 14.3345 2.1983 14.3539C2.20592 14.3733 2.21735 14.391 2.23191 14.406C2.24647 14.4209 2.26387 14.4327 2.28309 14.4408C2.3023 14.4489 2.32295 14.4531 2.3438 14.4531H3.4395C3.52349 14.4531 3.5938 14.3867 3.59575 14.3027C3.63286 13.1699 4.09185 12.1093 4.89849 11.3047C5.47271 10.7304 6.17583 10.332 6.94341 10.1386C7.01958 10.1191 7.07036 10.0468 7.0606 9.96872Z" fill="#595959"/>
</svg>
