<svg width="24" height="24" viewBox="0 0 24 24" fill="none" xmlns="http://www.w3.org/2000/svg">
<g id="ion:attach">
<path id="Vector" d="M8.6571 8.38379V16.4772C8.67102 17.069 9.0308 17.6334 9.65879 18.0486C10.2868 18.4638 11.1326 18.6965 12.0138 18.6965C12.895 18.6965 13.7409 18.4638 14.3689 18.0486C14.9968 17.6334 15.3566 17.069 15.3705 16.4772L15.3814 5.86885C15.3906 5.36301 15.2501 4.86098 14.9683 4.39187C14.6864 3.92276 14.2687 3.4959 13.7394 3.13602C13.2101 2.77615 12.5797 2.49043 11.8848 2.29542C11.1899 2.10041 10.4443 2 9.69113 2C8.93801 2 8.19237 2.10041 7.49745 2.29542C6.80253 2.49043 6.17215 2.77615 5.64285 3.13602C5.11355 3.4959 4.69587 3.92276 4.414 4.39187C4.13214 4.86098 3.9917 5.36301 4.00084 5.86885V16.5486C3.98549 17.2608 4.18106 17.9678 4.57617 18.6288C4.97128 19.2897 5.55805 19.8913 6.30236 20.3985C7.04668 20.9058 7.93368 21.3086 8.91181 21.5835C9.88994 21.8584 10.9397 22 12 22C13.0603 22 14.1101 21.8584 15.0882 21.5835C16.0663 21.3086 16.9533 20.9058 17.6976 20.3985C18.4419 19.8913 19.0287 19.2897 19.4238 18.6288C19.8189 17.9678 20.0145 17.2608 19.9992 16.5486V6.56876" stroke="#595959" stroke-width="2" stroke-miterlimit="10" stroke-linecap="round"/>
</g>
</svg>
