<svg width="20" height="20" viewBox="0 0 20 20" fill="none" xmlns="http://www.w3.org/2000/svg">
<g id="Cancel">
<path id="Vector" d="M11.1667 10L14.75 6.41667C15.0833 6.08333 15.0833 5.58333 14.75 5.25C14.4167 4.91667 13.9167 4.91667 13.5833 5.25L10 8.83333L6.41667 5.25C6.08333 4.91667 5.58333 4.91667 5.25 5.25C4.91667 5.58333 4.91667 6.08333 5.25 6.41667L8.83333 10L5.25 13.5833C5.08333 13.75 5 13.9167 5 14.1667C5 14.6667 5.33333 15 5.83333 15C6.08333 15 6.25 14.9167 6.41667 14.75L10 11.1667L13.5833 14.75C13.75 14.9167 13.9167 15 14.1667 15C14.4167 15 14.5833 14.9167 14.75 14.75C15.0833 14.4167 15.0833 13.9167 14.75 13.5833L11.1667 10Z" fill="#029894"/>
</g>
</svg>
