<svg width="50" height="50" viewBox="0 0 50 50" fill="none" xmlns="http://www.w3.org/2000/svg">
<circle cx="25" cy="25" r="25" fill="#7A0916"/>
<g clip-path="url(#clip0_1379_8136)">
<path d="M11.8769 31.2409C10.9497 29.291 10.4687 27.1591 10.4688 25C10.4688 17.0284 17.0284 10.4688 25 10.4688C32.9716 10.4688 39.5312 17.0284 39.5312 25C39.5312 27.1544 39.0522 29.2816 38.1287 31.2278" fill="#66ABD4"/>
<path d="M13.2812 28.3516V30.4506C13.2812 31.0722 13.5282 31.6684 13.9677 32.1079C14.4073 32.5474 15.0034 32.7944 15.625 32.7944C16.2466 32.7944 16.8427 32.5474 17.2823 32.1079C17.7218 31.6684 17.9687 31.0722 17.9687 30.4506V28.3516H13.2812Z" fill="#FFDA87"/>
<path d="M20.7756 36.642C20.7756 35.9698 20.4044 35.3763 19.8391 35.0435L19.8653 35.0304C19.7695 34.9733 19.6688 34.925 19.5644 34.886L17.0312 33.9363V32.3145L17.0256 32.3182V32.3163C16.6337 32.6126 16.1509 32.7945 15.6222 32.7945C15.1146 32.7931 14.6216 32.6251 14.2188 32.3163V32.3182L14.2131 32.3145V33.9363L11.68 34.886C11.5741 34.9254 11.4737 34.9741 11.3791 35.0304L11.4053 35.0435C10.84 35.3763 10.4688 35.9698 10.4688 36.642V39.5613H20.7756V36.642Z" fill="#FFDA87"/>
<path d="M19.8391 35.0603L19.8653 35.0472C19.7695 34.9901 19.6688 34.9418 19.5644 34.9028L18.4431 34.4819C18.1022 34.9009 17.6724 35.2389 17.1849 35.4716C16.6974 35.7042 16.1642 35.8257 15.6241 35.8272C15.0836 35.8257 14.5503 35.7042 14.0626 35.4713C13.5749 35.2385 13.145 34.9002 12.8041 34.481L11.68 34.9028C11.5741 34.9422 11.4737 34.991 11.3791 35.0472L11.4053 35.0603C10.84 35.3931 10.4688 35.9866 10.4688 36.6578V39.5313H20.7756V36.6578C20.7756 35.9866 20.4044 35.3931 19.8391 35.0603Z" fill="#068987"/>
<path d="M17.592 25.9536L14.9202 25.5083C14.7611 25.4818 14.5982 25.4902 14.4427 25.533C14.2873 25.5758 14.143 25.6519 14.0199 25.7562C13.8969 25.8604 13.798 25.9901 13.7302 26.1365C13.6624 26.2828 13.6273 26.4421 13.6274 26.6033V26.6333C13.4908 26.6334 13.3559 26.664 13.2326 26.7229C13.1094 26.7817 13.0008 26.8674 12.9149 26.9736C12.829 27.0798 12.7679 27.2039 12.7361 27.3367C12.7043 27.4696 12.7026 27.6079 12.7311 27.7414L13.1539 29.2864L13.9189 28.333H17.3183L18.0861 29.2864L18.5211 27.2736C18.5477 27.1259 18.5448 26.9743 18.5124 26.8277C18.48 26.681 18.4188 26.5423 18.3324 26.4195C18.2459 26.2967 18.136 26.1923 18.0089 26.1124C17.8818 26.0324 17.7401 25.9784 17.592 25.9536Z" fill="#5B5D70"/>
<path d="M32.0312 28.3516V30.4506C32.0312 31.0722 32.2782 31.6684 32.7177 32.1079C33.1573 32.5474 33.7534 32.7944 34.375 32.7944C34.9966 32.7944 35.5927 32.5474 36.0323 32.1079C36.4718 31.6684 36.7188 31.0722 36.7188 30.4506V28.3516H32.0312Z" fill="#FFDA87"/>
<path d="M39.5295 36.642C39.5295 35.9698 39.1583 35.3763 38.593 35.0435L38.6192 35.0304C38.5235 34.9733 38.4227 34.925 38.3183 34.886L35.7852 33.9363V32.3145L35.7795 32.3182V32.3163C35.3877 32.6126 34.9048 32.7945 34.3761 32.7945C33.8685 32.7931 33.3755 32.6251 32.9727 32.3163V32.3182L32.967 32.3145V33.9363L30.4339 34.886C30.328 34.9254 30.2277 34.9741 30.133 35.0304L30.1592 35.0435C29.5939 35.3763 29.2227 35.9698 29.2227 36.642V39.5613H39.5295V36.642Z" fill="#FFDA87"/>
<path d="M38.593 35.0603L38.6192 35.0472C38.5235 34.9901 38.4227 34.9418 38.3183 34.9028L37.197 34.4819C36.8561 34.9009 36.4263 35.2389 35.9388 35.4716C35.4513 35.7042 34.9182 35.8257 34.378 35.8272C33.8375 35.8257 33.3042 35.7042 32.8165 35.4713C32.3288 35.2385 31.8989 34.9002 31.558 34.481L30.4339 34.9028C30.328 34.9422 30.2277 34.991 30.133 35.0472L30.1592 35.0603C29.5939 35.3931 29.2227 35.9866 29.2227 36.6588V39.5313H39.5295V36.6578C39.5295 35.9866 39.1583 35.3931 38.593 35.0603Z" fill="#A4D06C"/>
<path d="M36.3421 25.9537L33.6702 25.5084C33.5112 25.4818 33.3483 25.4902 33.1928 25.533C33.0373 25.5758 32.8931 25.652 32.77 25.7562C32.647 25.8604 32.5481 25.9902 32.4803 26.1365C32.4125 26.2828 32.3774 26.4421 32.3774 26.6034V26.6334C32.2408 26.6334 32.106 26.664 31.9827 26.7229C31.8594 26.7818 31.7509 26.8674 31.665 26.9737C31.5791 27.0799 31.518 27.2039 31.4862 27.3368C31.4544 27.4696 31.4527 27.6079 31.4812 27.7415L31.904 29.2865L32.669 28.333H36.0684L36.8362 29.2865L37.2712 27.2737C37.2978 27.1259 37.2948 26.9743 37.2624 26.8277C37.23 26.6811 37.1689 26.5424 37.0824 26.4196C36.996 26.2968 36.8861 26.1924 36.759 26.1124C36.6319 26.0324 36.4902 25.9785 36.3421 25.9537ZM29.8002 32.4027C29.5695 30.9636 29.4535 29.5084 29.4534 28.0509V26.4974C29.4534 25.3248 28.9876 24.2003 28.1584 23.3711C27.3293 22.542 26.2047 22.0762 25.0321 22.0762C23.8595 22.0762 22.735 22.542 21.9058 23.3711C21.0767 24.2003 20.6109 25.3248 20.6109 26.4974V28.0509C20.6109 29.5087 20.4946 30.9637 20.264 32.4027C20.2386 32.5607 20.2478 32.7223 20.291 32.8763C20.3342 33.0303 20.4103 33.1732 20.514 33.2949C20.6178 33.4167 20.7467 33.5145 20.892 33.5816C21.0372 33.6486 21.1953 33.6833 21.3552 33.6834H28.709C29.3896 33.6834 29.909 33.074 29.8002 32.4027Z" fill="#5B5D70"/>
<path d="M31.0938 39.2501L31.1275 36.8445C31.1275 36.0814 30.7337 35.3717 30.085 34.9676L26.6894 32.8536V31.1904H23.3734V32.8536L19.9806 34.9676C19.662 35.1661 19.3992 35.4425 19.217 35.7707C19.0348 36.0989 18.9391 36.4682 18.9391 36.8436L18.9062 39.2501" fill="#FFDA87"/>
<path d="M23.4936 25.8203C23.0354 25.9919 22.6406 26.2993 22.3618 26.7014C22.083 27.1035 21.9336 27.5811 21.9336 28.0703V28.6609C21.9336 29.4705 22.2552 30.2469 22.8277 30.8194C23.4001 31.3918 24.1765 31.7134 24.9861 31.7134C25.7957 31.7134 26.5721 31.3918 27.1445 30.8194C27.717 30.2469 28.0386 29.4705 28.0386 28.6609V27.2781" fill="#FFDA87"/>
<path d="M25 34.8285C24.4878 34.8283 23.9826 34.7096 23.5239 34.4815C23.0653 34.2535 22.6656 33.9224 22.3563 33.5142H22.3459L19.9478 35.0085C19.6292 35.2071 19.3664 35.4835 19.1842 35.8117C19.0019 36.1399 18.9063 36.5091 18.9062 36.8845V39.531H31.0938V36.8854C31.0938 36.1223 30.7 35.4126 30.0513 35.0085L27.6512 33.5142H27.6437C27.3344 33.9224 26.9347 34.2535 26.4761 34.4815C26.0174 34.7096 25.5122 34.8283 25 34.8285Z" fill="#F89D6A"/>
<path d="M15.625 33.2519C14.0744 33.2519 12.8125 31.99 12.8125 30.4394V29.1362H13.75V30.4394C13.75 31.4734 14.5909 32.3144 15.625 32.3144C16.6591 32.3144 17.5 31.4734 17.5 30.4394V29.1362H18.4375V30.4394C18.4375 31.99 17.1756 33.2519 15.625 33.2519Z" fill="#4F5266"/>
<path d="M17.9669 29.7437C17.8906 29.7438 17.8154 29.7252 17.748 29.6896C17.6805 29.654 17.6227 29.6024 17.5797 29.5393L17.0679 28.7903H14.1663L13.6685 29.5346C13.6944 29.6094 13.7008 29.6895 13.6871 29.7674C13.6734 29.8453 13.6402 29.9185 13.5904 29.98C13.5407 30.0415 13.4761 30.0893 13.4028 30.1189C13.3294 30.1486 13.2498 30.1591 13.1713 30.1494C13.0928 30.1398 13.018 30.1103 12.954 30.0637C12.8901 30.0172 12.839 29.9552 12.8057 29.8834C12.7723 29.8117 12.7578 29.7327 12.7634 29.6538C12.769 29.5749 12.7947 29.4987 12.8379 29.4325L12.2866 27.8875C12.1816 27.4159 12.2829 26.9931 12.5472 26.6659C12.7207 26.4521 12.9485 26.2975 13.2035 26.2168C13.2969 25.8296 13.5336 25.4922 13.8658 25.2725C14.1981 25.0528 14.6012 24.9671 14.9941 25.0328L17.666 25.4781C18.0926 25.5493 18.4638 25.7837 18.7122 26.1371C18.9607 26.4906 19.0554 26.92 18.9785 27.3446L18.4188 29.3968C18.3919 29.4962 18.3331 29.5839 18.2515 29.6466C18.1698 29.7093 18.0699 29.7434 17.9669 29.7437ZM14.7344 25.9496C14.5646 25.9504 14.4019 26.0182 14.2818 26.1383C14.1617 26.2584 14.0939 26.4211 14.0932 26.5909C14.0932 26.8496 13.8832 27.0896 13.6244 27.0896C13.5575 27.0894 13.4914 27.1042 13.431 27.1328C13.3705 27.1615 13.3173 27.2034 13.2752 27.2554C13.2331 27.3074 13.2032 27.3682 13.1877 27.4333C13.1722 27.4984 13.1715 27.5661 13.1857 27.6315L13.4051 28.2409L13.526 28.0609C13.5687 27.9966 13.6267 27.9438 13.6947 27.9073C13.7628 27.8709 13.8388 27.8518 13.916 27.8518H17.3154C17.4701 27.8518 17.6154 27.9278 17.7026 28.0562L17.7822 28.1725L18.0654 27.1375C18.0855 26.9742 18.043 26.8093 17.9463 26.6762C17.896 26.6038 17.8316 26.5423 17.7571 26.4953C17.6825 26.4483 17.5992 26.4167 17.5122 26.4025L14.8404 25.9571C14.8047 25.9534 14.7701 25.9496 14.7344 25.9496ZM12.7891 40C12.6648 40 12.5456 39.9506 12.4577 39.8627C12.3698 39.7748 12.3204 39.6555 12.3204 39.5312V38.499C12.3204 38.2084 12.2126 37.9309 12.0166 37.7162L11.6772 37.345C11.6358 37.2995 11.6036 37.2464 11.5827 37.1885C11.5617 37.1307 11.5524 37.0693 11.5552 37.0078C11.558 36.9463 11.5728 36.886 11.5989 36.8303C11.625 36.7746 11.6618 36.7246 11.7072 36.6831C11.7527 36.6416 11.8058 36.6095 11.8637 36.5885C11.9215 36.5676 11.9829 36.5582 12.0444 36.561C12.1059 36.5638 12.1662 36.5787 12.2219 36.6047C12.2776 36.6308 12.3276 36.6677 12.3691 36.7131L12.7085 37.0843C13.0619 37.4715 13.2569 37.974 13.2569 38.499V39.5312C13.2571 39.5927 13.245 39.6537 13.2216 39.7105C13.1981 39.7674 13.1637 39.8191 13.1202 39.8626C13.0768 39.9061 13.0252 39.9407 12.9684 39.9643C12.9115 39.9878 12.8506 40 12.7891 40ZM31.0919 40C30.9676 40 30.8484 39.9506 30.7605 39.8627C30.6726 39.7748 30.6232 39.6555 30.6232 39.5312V36.8453C30.6232 36.2396 30.3157 35.6875 29.8019 35.3668L26.4072 33.2528C26.3044 33.1859 26.2319 33.0814 26.2053 32.9616C26.1787 32.8419 26.2 32.7165 26.2648 32.6123C26.3296 32.5081 26.4326 32.4335 26.5518 32.4044C26.671 32.3754 26.7968 32.3942 26.9022 32.4568L30.2969 34.5709C30.6846 34.8102 31.0043 35.145 31.2256 35.5432C31.4468 35.9414 31.5622 36.3897 31.5607 36.8453V39.5312C31.5607 39.6555 31.5113 39.7748 31.4234 39.8627C31.3355 39.9506 31.2163 40 31.0919 40ZM18.9044 40C18.7801 40 18.6609 39.9506 18.573 39.8627C18.4851 39.7748 18.4357 39.6555 18.4357 39.5312V36.8443C18.4357 35.9134 18.9072 35.064 19.6976 34.57L23.0904 32.4559C23.1956 32.3985 23.3188 32.3835 23.4347 32.414C23.5506 32.4445 23.6505 32.5181 23.7139 32.6199C23.7773 32.7216 23.7994 32.8437 23.7757 32.9612C23.7519 33.0787 23.6842 33.1827 23.5863 33.2518L20.1935 35.3659C19.9417 35.5216 19.7341 35.7393 19.5905 35.9981C19.4469 36.257 19.3721 36.5483 19.3732 36.8443V39.5312C19.3732 39.6555 19.3238 39.7748 19.2359 39.8627C19.148 39.9506 19.0288 40 18.9044 40Z" fill="#4F5266"/>
<path d="M22.8722 31.1914H23.8097V32.8545H22.8722V31.1914ZM26.189 31.1914H27.1265V32.8545H26.189V31.1914ZM21.4087 40.0002C21.2844 40.0002 21.1652 39.9508 21.0773 39.8629C20.9894 39.775 20.94 39.6557 20.94 39.5314V37.887C20.94 37.557 20.8181 37.242 20.595 36.9983C20.5535 36.9527 20.5214 36.8995 20.5005 36.8415C20.4796 36.7835 20.4703 36.722 20.4732 36.6605C20.476 36.5989 20.491 36.5385 20.5172 36.4828C20.5434 36.427 20.5804 36.377 20.6259 36.3355C20.6715 36.294 20.7247 36.2619 20.7827 36.241C20.8407 36.2201 20.9022 36.2108 20.9637 36.2137C21.0253 36.2165 21.0856 36.2315 21.1414 36.2577C21.1972 36.2839 21.2472 36.3209 21.2887 36.3664C21.6684 36.7836 21.8775 37.3236 21.8775 37.887V39.5314C21.8775 39.6557 21.8281 39.775 21.7402 39.8629C21.6523 39.9508 21.533 40.0002 21.4087 40.0002ZM28.5937 40.0002C28.4694 40.0002 28.3502 39.9508 28.2623 39.8629C28.1744 39.775 28.125 39.6557 28.125 39.5314V37.887C28.125 37.3227 28.335 36.7827 28.7147 36.3664C28.7559 36.3206 28.8058 36.2834 28.8616 36.257C28.9173 36.2307 28.9777 36.2157 29.0393 36.2129C29.1009 36.2101 29.1624 36.2196 29.2203 36.2408C29.2782 36.262 29.3313 36.2945 29.3765 36.3364C29.422 36.3778 29.4589 36.4279 29.4851 36.4836C29.5112 36.5393 29.5261 36.5996 29.5289 36.6611C29.5317 36.7226 29.5223 36.784 29.5013 36.8419C29.4803 36.8997 29.4481 36.9529 29.4065 36.9983C29.1843 37.242 29.0615 37.558 29.0615 37.887V39.5314C29.0617 39.5929 29.0496 39.6539 29.0262 39.7107C29.0027 39.7676 28.9683 39.8193 28.9248 39.8628C28.8814 39.9063 28.8298 39.9409 28.773 39.9645C28.7161 39.988 28.6552 40.0002 28.5937 40.0002Z" fill="#4F5266"/>
<path d="M24.9927 32.0657C24.0572 32.0647 23.1603 31.6926 22.4989 31.031C21.8375 30.3694 21.4656 29.4724 21.4648 28.537V27.8291C21.4648 27.7048 21.5142 27.5856 21.6021 27.4977C21.69 27.4098 21.8093 27.3604 21.9336 27.3604C22.0579 27.3604 22.1771 27.4098 22.2651 27.4977C22.353 27.5856 22.4023 27.7048 22.4023 27.8291V28.537C22.4023 29.9648 23.5648 31.1282 24.9927 31.1282C26.4205 31.1282 27.583 29.9657 27.583 28.537V27.1504C27.583 27.0261 27.6324 26.9068 27.7203 26.8189C27.8082 26.731 27.9274 26.6816 28.0517 26.6816C28.176 26.6816 28.2953 26.731 28.3832 26.8189C28.4711 26.9068 28.5205 27.0261 28.5205 27.1504V28.537C28.5197 29.4724 28.1478 30.3694 27.4864 31.031C26.825 31.6926 25.9281 32.0647 24.9927 32.0657Z" fill="#4F5266"/>
<path d="M21.9336 28.4156C21.8093 28.4156 21.69 28.3662 21.6021 28.2783C21.5142 28.1904 21.4648 28.0711 21.4648 27.9468C21.4648 26.7534 22.2158 25.6706 23.3323 25.2524C23.449 25.2088 23.5781 25.2133 23.6914 25.2649C23.8048 25.3165 23.8929 25.411 23.9366 25.5276C23.9802 25.6442 23.9757 25.7734 23.9241 25.8867C23.8725 26 23.778 26.0882 23.6614 26.1318C23.2922 26.2711 22.974 26.5194 22.7492 26.8438C22.5243 27.1681 22.4033 27.5531 22.4023 27.9477C22.4021 28.0719 22.3526 28.1909 22.2647 28.2786C22.1768 28.3663 22.0578 28.4156 21.9336 28.4156ZM25.0002 35.2565C24.4157 35.2548 23.8394 35.1186 23.3161 34.8583C22.7927 34.598 22.3364 34.2207 21.9823 33.7556C21.9452 33.7064 21.9181 33.6505 21.9027 33.5909C21.8872 33.5313 21.8835 33.4692 21.892 33.4083C21.9005 33.3473 21.9209 33.2886 21.9521 33.2355C21.9833 33.1824 22.0246 33.136 22.0737 33.0988C22.1229 33.0617 22.1788 33.0346 22.2384 33.0191C22.298 33.0036 22.3601 33 22.421 33.0085C22.482 33.017 22.5407 33.0374 22.5938 33.0686C22.6469 33.0998 22.6934 33.1411 22.7305 33.1902C22.9967 33.5401 23.3399 33.8239 23.7335 34.0197C24.1271 34.2154 24.5605 34.3179 25.0002 34.319C25.8861 34.319 26.7355 33.8971 27.2708 33.1902C27.307 33.1388 27.3532 33.0952 27.4066 33.062C27.4601 33.0287 27.5196 33.0066 27.5818 32.9969C27.6439 32.9872 27.7074 32.9901 27.7684 33.0055C27.8295 33.0208 27.8867 33.0483 27.9369 33.0862C27.9871 33.1242 28.0291 33.1719 28.0605 33.2264C28.0918 33.2809 28.1119 33.3412 28.1194 33.4037C28.127 33.4662 28.1219 33.5295 28.1045 33.5899C28.0871 33.6504 28.0576 33.7067 28.018 33.7556C27.6641 34.2208 27.2078 34.5982 26.6844 34.8586C26.161 35.1189 25.5847 35.255 25.0002 35.2565Z" fill="#4F5266"/>
<path d="M29.4541 29.6904C29.3297 29.6904 29.2105 29.641 29.1226 29.5531C29.0347 29.4652 28.9853 29.3459 28.9853 29.2216C28.9853 28.2907 28.3075 27.5332 27.4741 27.5332L27.2612 27.5266C25.8016 27.5266 24.3925 27.0307 23.2056 26.0922C23.108 26.0152 23.0451 25.9025 23.0305 25.779C23.016 25.6555 23.0512 25.5312 23.1283 25.4336C23.2054 25.3361 23.318 25.2731 23.4416 25.2586C23.5651 25.2441 23.6893 25.2792 23.7869 25.3563C24.8069 26.1626 26.0134 26.5891 27.2762 26.5891L27.4891 26.5957C28.8241 26.5957 29.9228 27.7741 29.9228 29.2216C29.9228 29.3459 29.8734 29.4652 29.7855 29.5531C29.6976 29.641 29.5784 29.6904 29.4541 29.6904Z" fill="#4F5266"/>
<path d="M21.9596 34.1521H21.3558C21.1279 34.1525 20.9026 34.1032 20.6956 34.0079C20.4886 33.9125 20.3048 33.7733 20.157 33.5998C20.0091 33.4264 19.9007 33.2229 19.8393 33.0034C19.778 32.7839 19.765 32.5537 19.8015 32.3287C20.0274 30.9168 20.1427 29.4777 20.1427 28.0509V26.4974C20.1442 25.201 20.6599 23.958 21.5766 23.0413C22.4933 22.1246 23.7363 21.6089 25.0327 21.6074C26.3292 21.6089 27.5721 22.1246 28.4888 23.0413C29.4055 23.958 29.9212 25.201 29.9227 26.4974C29.9227 26.6217 29.8733 26.741 29.7854 26.8289C29.6975 26.9168 29.5783 26.9662 29.454 26.9662C29.3296 26.9662 29.2104 26.9168 29.1225 26.8289C29.0346 26.741 28.9852 26.6217 28.9852 26.4974C28.9852 24.3187 27.2115 22.5449 25.0327 22.5449C22.854 22.5449 21.0802 24.3187 21.0802 26.4974V28.0509C21.0802 29.5265 20.9621 31.0162 20.7277 32.4768C20.7132 32.5677 20.7186 32.6607 20.7435 32.7494C20.7684 32.838 20.8122 32.9202 20.8718 32.9904C20.9315 33.0605 21.0057 33.1168 21.0893 33.1555C21.1728 33.1943 21.2638 33.2144 21.3558 33.2146H21.9596C22.0839 33.2146 22.2031 33.264 22.291 33.3519C22.3789 33.4398 22.4283 33.559 22.4283 33.6834C22.4283 33.8077 22.3789 33.9269 22.291 34.0148C22.2031 34.1027 22.0839 34.1521 21.9596 34.1521Z" fill="#4F5266"/>
<path d="M28.7106 34.1518H28.0394C27.9151 34.1518 27.7958 34.1024 27.7079 34.0145C27.62 33.9266 27.5706 33.8074 27.5706 33.6831C27.5706 33.5588 27.62 33.4395 27.7079 33.3516C27.7958 33.2637 27.9151 33.2143 28.0394 33.2143H28.7106C28.8027 33.2139 28.8936 33.1937 28.9771 33.1549C29.0606 33.1162 29.1347 33.0598 29.1945 32.9898C29.2542 32.9197 29.2981 32.8376 29.3232 32.749C29.3482 32.6604 29.3539 32.5675 29.3397 32.4765C29.1051 31.0129 28.9872 29.5329 28.9872 28.0506V26.499C28.9872 26.3747 29.0366 26.2555 29.1245 26.1676C29.2124 26.0797 29.3316 26.0303 29.4559 26.0303C29.5803 26.0303 29.6995 26.0797 29.7874 26.1676C29.8753 26.2555 29.9247 26.3747 29.9247 26.499V28.0506C29.9247 29.4793 30.04 30.9193 30.2659 32.3284C30.302 32.5534 30.2889 32.7836 30.2273 33.003C30.1657 33.2224 30.0572 33.4259 29.9093 33.5993C29.7615 33.7727 29.5777 33.9119 29.3707 34.0073C29.1637 34.1027 28.9385 34.152 28.7106 34.1518ZM10.4688 40C10.3444 40 10.2252 39.9506 10.1373 39.8627C10.0494 39.7748 10 39.6555 10 39.5312V36.6296C10 35.6584 10.6112 34.7753 11.5206 34.435L13.75 33.5987V32.304C13.7499 32.2168 13.7741 32.1313 13.82 32.0572C13.8659 31.983 13.9316 31.9232 14.0096 31.8844C14.0877 31.8456 14.1751 31.8294 14.2619 31.8376C14.3487 31.8458 14.4315 31.8781 14.5009 31.9309C14.8243 32.1756 15.2188 32.3079 15.6244 32.3076C16.0299 32.3072 16.4242 32.1743 16.7472 31.929C16.8167 31.8761 16.8996 31.8436 16.9866 31.8353C17.0736 31.827 17.1611 31.8431 17.2394 31.8819C17.3177 31.9207 17.3836 31.9806 17.4296 32.0549C17.4757 32.1291 17.5 32.2148 17.5 32.3021V33.5987L19.7294 34.4359C19.8616 34.4846 19.9872 34.5456 20.1062 34.6168C20.1591 34.6485 20.2051 34.6902 20.2418 34.7397C20.2785 34.7891 20.3051 34.8453 20.3201 34.905C20.335 34.9647 20.3381 35.0268 20.3291 35.0877C20.3201 35.1486 20.2991 35.2071 20.2675 35.26C20.2359 35.3128 20.1941 35.3588 20.1447 35.3955C20.0952 35.4322 20.0391 35.4588 19.9793 35.4738C19.9196 35.4888 19.8575 35.4918 19.7966 35.4828C19.7357 35.4738 19.6772 35.4528 19.6244 35.4212C19.5532 35.3787 19.4782 35.3429 19.4003 35.3143L16.8653 34.3628C16.7763 34.3289 16.6997 34.2689 16.6456 34.1905C16.5915 34.1122 16.5626 34.0192 16.5625 33.924V33.0868C15.9563 33.3032 15.2939 33.3035 14.6875 33.0878V33.924C14.6875 34.0194 14.6584 34.1124 14.6042 34.1908C14.5499 34.2692 14.473 34.3292 14.3837 34.3628L11.8506 35.3125C11.583 35.4138 11.3524 35.594 11.1894 35.8292C11.0263 36.0643 10.9385 36.3435 10.9375 36.6296V39.5312C10.9375 39.6555 10.8881 39.7748 10.8002 39.8627C10.7123 39.9506 10.5931 40 10.4688 40Z" fill="#4F5266"/>
<path d="M15.6248 36.2678C15.0223 36.2675 14.4286 36.1222 13.8941 35.8441C13.3595 35.5661 12.8997 35.1635 12.5536 34.6703C12.5182 34.6198 12.4932 34.5629 12.4799 34.5027C12.4665 34.4426 12.4652 34.3804 12.4759 34.3197C12.4866 34.259 12.5092 34.201 12.5423 34.1491C12.5754 34.0971 12.6184 34.0522 12.6689 34.0169C12.7194 33.9815 12.7763 33.9565 12.8365 33.9431C12.8966 33.9298 12.9588 33.9285 13.0195 33.9392C13.0802 33.9499 13.1381 33.9724 13.1901 34.0056C13.2421 34.0387 13.287 34.0817 13.3223 34.1322C13.5815 34.502 13.926 34.8039 14.3266 35.0124C14.7271 35.221 15.172 35.33 15.6236 35.3303C16.0752 35.3305 16.5202 35.2221 16.9211 35.014C17.3219 34.806 17.6667 34.5045 17.9264 34.135C18.0009 34.0414 18.1083 33.9798 18.2266 33.9627C18.345 33.9456 18.4654 33.9743 18.5633 34.043C18.6613 34.1116 18.7293 34.215 18.7536 34.3321C18.778 34.4492 18.7567 34.5712 18.6942 34.6731C18.3478 35.1654 17.8882 35.5673 17.354 35.8448C16.8198 36.1224 16.2268 36.2674 15.6248 36.2678ZM34.3739 33.2519C32.8233 33.2519 31.5614 31.99 31.5614 30.4394V29.1362H32.4989V30.4394C32.4989 31.4734 33.3398 32.3144 34.3739 32.3144C35.4079 32.3144 36.2489 31.4734 36.2489 30.4394V29.1362H37.1864V30.4394C37.1864 31.99 35.9245 33.2519 34.3739 33.2519Z" fill="#4F5266"/>
<path d="M36.7172 29.7439C36.6409 29.744 36.5657 29.7254 36.4983 29.6898C36.4308 29.6542 36.373 29.6026 36.3301 29.5395L35.8182 28.7904H32.9166L32.4188 29.5348C32.4447 29.6096 32.4511 29.6897 32.4374 29.7676C32.4237 29.8455 32.3905 29.9186 32.3407 29.9801C32.291 30.0416 32.2264 30.0895 32.1531 30.1191C32.0797 30.1488 32.0001 30.1592 31.9216 30.1496C31.8431 30.1399 31.7683 30.1104 31.7043 30.0639C31.6404 30.0174 31.5893 29.9553 31.556 29.8836C31.5226 29.8119 31.5081 29.7328 31.5137 29.6539C31.5193 29.575 31.545 29.4989 31.5882 29.4326L31.0369 27.8886C30.9319 27.417 31.0332 26.9942 31.2976 26.667C31.471 26.4533 31.6988 26.2986 31.9538 26.2179C32.047 25.8306 32.2836 25.493 32.616 25.2733C32.9483 25.0536 33.3515 24.968 33.7444 25.0339L36.4163 25.4792C36.8429 25.5504 37.2141 25.7848 37.4626 26.1383C37.711 26.4917 37.8057 26.9211 37.7288 27.3458L37.1691 29.3979C37.142 29.4971 37.0832 29.5846 37.0015 29.6471C36.9199 29.7096 36.82 29.7436 36.7172 29.7439ZM33.4847 25.9498C33.3149 25.9506 33.1522 26.0184 33.0321 26.1385C32.912 26.2585 32.8442 26.4212 32.8435 26.5911C32.8435 26.8498 32.6335 27.0898 32.3747 27.0898C32.3078 27.0896 32.2417 27.1043 32.1813 27.133C32.1208 27.1617 32.0676 27.2036 32.0255 27.2556C31.9834 27.3076 31.9535 27.3684 31.938 27.4335C31.9225 27.4986 31.9218 27.5663 31.936 27.6317L32.1554 28.2411L32.2763 28.0611C32.319 27.9967 32.377 27.944 32.445 27.9075C32.5131 27.871 32.5891 27.852 32.6663 27.852H36.0657C36.2204 27.852 36.3657 27.9279 36.4529 28.0564L36.5326 28.1726L36.8157 27.1376C36.8358 26.9744 36.7933 26.8095 36.6966 26.6764C36.6463 26.604 36.5819 26.5425 36.5074 26.4955C36.4328 26.4484 36.3495 26.4169 36.2626 26.4026L33.5907 25.9573C33.5551 25.9536 33.5204 25.9498 33.4847 25.9498ZM37.2076 40.0001C37.0832 40.0001 36.964 39.9507 36.8761 39.8628C36.7882 39.7749 36.7388 39.6557 36.7388 39.5314V38.4992C36.7388 37.9742 36.9338 37.4726 37.2863 37.0845L37.6266 36.7133C37.6681 36.6678 37.7181 36.6309 37.7739 36.6047C37.8296 36.5786 37.89 36.5637 37.9515 36.5608C38.013 36.558 38.0744 36.5673 38.1323 36.5883C38.1902 36.6092 38.2435 36.6413 38.289 36.6828C38.3344 36.7243 38.3713 36.7743 38.3975 36.8301C38.4236 36.8858 38.4385 36.9461 38.4414 37.0076C38.4442 37.0692 38.4349 37.1306 38.414 37.1885C38.393 37.2464 38.3609 37.2996 38.3194 37.3451L37.9801 37.7164C37.7851 37.9305 37.6771 38.2096 37.6772 38.4992V39.5314C37.677 39.6558 37.6274 39.775 37.5393 39.8629C37.4513 39.9508 37.332 40.0001 37.2076 40.0001Z" fill="#4F5266"/>
<path d="M39.5331 39.9998C39.4087 39.9998 39.2895 39.9505 39.2016 39.8625C39.1137 39.7746 39.0643 39.6554 39.0643 39.5311V36.6295C39.0643 36.0464 38.6977 35.5167 38.1512 35.3123L35.6181 34.3617C35.5289 34.3283 35.452 34.2685 35.3978 34.1903C35.3435 34.112 35.3144 34.0191 35.3143 33.9239V33.0877C34.7152 33.3033 34.0374 33.3033 33.4393 33.0867V33.9239C33.4393 34.0192 33.4102 34.1123 33.356 34.1907C33.3017 34.2691 33.2248 34.3291 33.1356 34.3626L30.6024 35.3123C30.5226 35.3427 30.4455 35.3797 30.3718 35.423C30.3189 35.4544 30.2603 35.475 30.1993 35.4838C30.1384 35.4925 30.0764 35.4892 30.0167 35.4739C29.9571 35.4587 29.9011 35.4319 29.8518 35.395C29.8025 35.3581 29.761 35.3118 29.7296 35.2589C29.6982 35.206 29.6776 35.1474 29.6688 35.0864C29.6601 35.0255 29.6634 34.9635 29.6786 34.9038C29.6939 34.8442 29.7207 34.7881 29.7576 34.7389C29.7945 34.6896 29.8407 34.6481 29.8937 34.6167C30.0118 34.5464 30.1393 34.4836 30.2724 34.4348L32.5018 33.5986V32.302C32.5017 32.2148 32.5259 32.1293 32.5718 32.0552C32.6177 31.981 32.6834 31.9212 32.7615 31.8824C32.8395 31.8436 32.9269 31.8274 33.0137 31.8356C33.1005 31.8438 33.1833 31.8761 33.2527 31.9289C33.5759 32.1737 33.9701 32.3064 34.3756 32.3067C34.781 32.3071 35.1754 32.1751 35.499 31.9308C35.5684 31.878 35.6512 31.8457 35.7381 31.8376C35.8249 31.8295 35.9122 31.8459 35.9902 31.8848C36.0687 31.9231 36.1349 31.9828 36.1811 32.0569C36.2274 32.1309 36.2519 32.2166 36.2518 32.3039V33.5986L38.4812 34.4358C38.927 34.6044 39.3111 34.9044 39.5826 35.2962C39.8542 35.6879 40.0003 36.1529 40.0018 36.6295V39.5311C40.0018 39.6554 39.9524 39.7746 39.8645 39.8625C39.7766 39.9505 39.6574 39.9998 39.5331 39.9998Z" fill="#4F5266"/>
<path d="M34.375 36.2678C33.7725 36.2675 33.1788 36.1222 32.6443 35.8441C32.1097 35.5661 31.6499 35.1635 31.3038 34.6703C31.2324 34.5684 31.2044 34.4423 31.2261 34.3197C31.2477 34.1972 31.3171 34.0882 31.4191 34.0169C31.521 33.9455 31.6471 33.9176 31.7697 33.9392C31.8922 33.9608 32.0011 34.0302 32.0725 34.1322C32.3317 34.5022 32.6762 34.8043 33.0769 35.0129C33.4775 35.2216 33.9225 35.3307 34.3743 35.331C34.826 35.3312 35.2712 35.2227 35.6721 35.0145C36.073 34.8063 36.4179 34.5047 36.6775 34.135C36.752 34.0415 36.8594 33.9799 36.9777 33.9628C37.0961 33.9457 37.2165 33.9744 37.3145 34.043C37.4124 34.1116 37.4805 34.215 37.5048 34.3321C37.5291 34.4492 37.5078 34.5712 37.4453 34.6731C37.0986 35.1654 36.6388 35.5671 36.1045 35.8447C35.5702 36.1222 34.9771 36.2673 34.375 36.2678ZM11.8778 31.7087C11.7891 31.7089 11.7023 31.6838 11.6273 31.6365C11.5522 31.5892 11.4922 31.5216 11.4541 31.4416C10.4996 29.4281 10.003 27.2282 10 25C10 16.7294 16.7294 10 25 10C33.2706 10 40 16.7294 40 25C40 27.2097 39.4994 29.4334 38.5525 31.4284C38.5277 31.4864 38.4914 31.5387 38.4459 31.5823C38.4003 31.6259 38.3465 31.6598 38.2875 31.6821C38.2285 31.7044 38.1657 31.7146 38.1027 31.7121C38.0397 31.7095 37.9779 31.6943 37.9209 31.6673C37.864 31.6403 37.813 31.6021 37.7712 31.5549C37.7293 31.5078 37.6974 31.4527 37.6773 31.3929C37.6573 31.3332 37.6495 31.27 37.6544 31.2071C37.6593 31.1443 37.6768 31.0831 37.7059 31.0272C38.5967 29.1426 39.0599 27.0845 39.0625 25C39.0625 17.2459 32.7541 10.9375 25 10.9375C17.2459 10.9375 10.9375 17.2459 10.9375 25C10.9375 27.0766 11.4091 29.1644 12.3006 31.0384C12.3349 31.1098 12.3505 31.1888 12.346 31.2678C12.3414 31.3469 12.3168 31.4235 12.2746 31.4905C12.2323 31.5575 12.1738 31.6127 12.1044 31.6508C12.035 31.689 11.957 31.7089 11.8778 31.7087Z" fill="#4F5266"/>
<path d="M39.5312 25.4688C39.4069 25.4688 39.2877 25.4194 39.1998 25.3315C39.1119 25.2435 39.0625 25.1243 39.0625 25C39.0625 19.8306 32.7541 15.625 25 15.625C17.2459 15.625 10.9375 19.8306 10.9375 25C10.9375 25.1243 10.8881 25.2435 10.8002 25.3315C10.7123 25.4194 10.5931 25.4688 10.4688 25.4688C10.3444 25.4688 10.2252 25.4194 10.1373 25.3315C10.0494 25.2435 10 25.1243 10 25C10 19.3141 16.7294 14.6875 25 14.6875C33.2706 14.6875 40 19.3141 40 25C40 25.1243 39.9506 25.2435 39.8627 25.3315C39.7748 25.4194 39.6556 25.4688 39.5312 25.4688Z" fill="#4F5266"/>
<path d="M39.5312 25.4688C39.4069 25.4688 39.2877 25.4194 39.1998 25.3315C39.1119 25.2435 39.0625 25.1243 39.0625 25C39.0625 23.0041 33.2875 20.7812 25 20.7812C16.7125 20.7812 10.9375 23.0041 10.9375 25C10.9375 25.1243 10.8881 25.2435 10.8002 25.3315C10.7123 25.4194 10.5931 25.4688 10.4688 25.4688C10.3444 25.4688 10.2252 25.4194 10.1373 25.3315C10.0494 25.2435 10 25.1243 10 25C10 21.7731 17.6266 19.8438 25 19.8438C32.3734 19.8438 40 21.7731 40 25C40 25.1243 39.9506 25.2435 39.8627 25.3315C39.7748 25.4194 39.6556 25.4688 39.5312 25.4688Z" fill="#4F5266"/>
<path d="M34.7932 24.0625C34.6742 24.0625 34.5596 24.0173 34.4728 23.936C34.3859 23.8547 34.3332 23.7434 34.3253 23.6247C33.8528 16.51 29.756 10.9375 24.9982 10.9375C20.2394 10.9375 16.1435 16.51 15.671 23.6247C15.6677 23.6864 15.652 23.7468 15.625 23.8024C15.598 23.8579 15.5601 23.9075 15.5137 23.9482C15.4672 23.9889 15.413 24.0199 15.3544 24.0394C15.2958 24.0589 15.2338 24.0664 15.1722 24.0616C15.0482 24.0531 14.9326 23.9959 14.8508 23.9024C14.7689 23.809 14.7274 23.6868 14.7353 23.5628C15.2397 15.9569 19.7482 10 24.9982 10C30.2482 10 34.7566 15.9569 35.261 23.5628C35.265 23.6242 35.257 23.6859 35.2372 23.7442C35.2175 23.8025 35.1864 23.8564 35.1459 23.9027C35.1053 23.949 35.056 23.9869 35.0008 24.0141C34.9456 24.0414 34.8855 24.0575 34.8241 24.0616L34.7932 24.0625Z" fill="#4F5266"/>
<path d="M20.8601 22.6712L20.8329 22.6703C20.7089 22.6633 20.5927 22.6073 20.5099 22.5147C20.4271 22.422 20.3844 22.3003 20.3914 22.1762C20.7345 16.1144 22.2926 10 24.9982 10C27.6898 10 29.2498 16.0722 29.6014 22.0891C29.6085 22.2131 29.5661 22.335 29.4835 22.4278C29.4009 22.5206 29.2848 22.5768 29.1607 22.5841C29.099 22.5889 29.037 22.5812 28.9783 22.5615C28.9196 22.5418 28.8656 22.5104 28.8193 22.4692C28.7731 22.4281 28.7357 22.378 28.7093 22.322C28.6829 22.266 28.6681 22.2053 28.6657 22.1434C28.2551 15.1291 26.4795 10.9375 24.9982 10.9375C23.5085 10.9375 21.7282 15.1609 21.327 22.2287C21.3205 22.3482 21.2685 22.4607 21.1817 22.543C21.0948 22.6253 20.9797 22.6712 20.8601 22.6712Z" fill="#4F5266"/>
</g>
<defs>
<clipPath id="clip0_1379_8136">
<rect width="30" height="30" fill="white" transform="translate(10 10)"/>
</clipPath>
</defs>
</svg>
