<svg width="35" height="35" viewBox="0 0 35 35" fill="none" xmlns="http://www.w3.org/2000/svg">
<g id="Group 12974">
<circle id="Ellipse 21" cx="17.5" cy="17.5" r="17.5" fill="#068987"/>
<path id="Vector" d="M9 23.4624V26.5024C9 26.7824 9.22 27.0024 9.5 27.0024H12.54C12.67 27.0024 12.8 26.9524 12.89 26.8524L23.81 15.9424L20.06 12.1924L9.15 23.1024C9.05 23.2024 9 23.3224 9 23.4624ZM26.71 11.6324L24.37 9.29244C24.2775 9.19974 24.1676 9.12619 24.0466 9.07601C23.9257 9.02583 23.796 9 23.665 9C23.534 9 23.4043 9.02583 23.2834 9.07601C23.1624 9.12619 23.0525 9.19974 22.96 9.29244L21.13 11.1224L24.88 14.8724L26.71 13.0424C26.8027 12.9499 26.8762 12.84 26.9264 12.7191C26.9766 12.5981 27.0024 12.4684 27.0024 12.3374C27.0024 12.2065 26.9766 12.0768 26.9264 11.9558C26.8762 11.8348 26.8027 11.725 26.71 11.6324Z" fill="white"/>
</g>
</svg>
