<svg width="50" height="50" viewBox="0 0 50 50" fill="none" xmlns="http://www.w3.org/2000/svg">
<circle cx="25" cy="25" r="25" fill="#068987"/>
<g clip-path="url(#clip0_1379_8198)">
<path d="M25.0005 39.1176C32.7974 39.1176 39.1181 32.7969 39.1181 25C39.1181 17.203 32.7974 10.8823 25.0005 10.8823C17.2035 10.8823 10.8828 17.203 10.8828 25C10.8828 32.7969 17.2035 39.1176 25.0005 39.1176Z" fill="#068987"/>
<path d="M22.2188 23.2573H27.7996V27.8235H22.2188V23.2573Z" fill="#F1B97C"/>
<path d="M37.154 32.1911C36.2716 33.6911 35.1025 35.0146 33.7569 36.0734C33.5804 36.2278 33.3819 36.3602 33.2054 36.4925C31.2201 37.9043 28.8378 38.8308 26.279 39.0514C25.8598 39.0955 25.4407 39.1175 25.0216 39.1175C24.5804 39.1175 24.1613 39.0955 23.7201 39.0514C21.1613 38.8087 18.801 37.9043 16.8157 36.4925C16.6172 36.3602 16.4407 36.2058 16.2642 36.0734C14.8966 34.9925 13.7495 33.6911 12.8672 32.1911L13.3304 30.4043C13.4848 29.7867 14.0142 29.5219 14.0142 29.5219L20.9628 27.0293L22.2201 27.6249L22.5951 27.8014L24.2054 28.5514L25.0216 28.9264L25.8157 28.5514L27.426 27.8014L27.801 27.6249L29.0584 27.0293L36.0069 29.5219C36.0069 29.5219 36.5584 29.7867 36.6907 30.4043L37.154 32.1911Z" fill="#E7E7E8"/>
<path d="M27.781 25.4189C28.134 26.1469 28.5531 26.6984 29.0384 27.0513L26.9869 30.2278L25.2443 27.8013L27.781 25.4189ZM22.2222 25.4189C21.9575 26.1028 21.5384 26.6542 20.9648 27.0513L23.0163 30.2278L24.759 27.8013L22.2222 25.4189Z" fill="#FCFCFC"/>
<path d="M23.7188 39.0513L24.3364 29.7866L23.807 29.1027L24.204 28.5513L24.7555 27.8013H25.2629L25.8143 28.5513L26.1893 29.0807L25.6379 29.7866L26.2555 39.0513C25.8364 39.0954 25.4173 39.1174 24.9982 39.1174C24.557 39.1174 24.1379 39.0954 23.7188 39.0513Z" fill="#E34D30"/>
<path d="M29.8305 17.7205H29.7643C29.4113 13.794 26.8305 12.9778 25.7496 12.8234V12.7793H24.2716V12.8234C23.1687 12.9778 20.5878 13.794 20.2569 17.6984H20.1907C19.7496 17.7867 19.529 18.5808 19.7055 19.4631C19.8819 20.3014 20.3231 20.919 20.7422 20.919C21.029 21.7572 21.3599 22.6175 21.5143 22.7499C21.5143 22.7499 23.0363 25.2646 25.0216 25.2867C26.9849 25.2646 28.529 22.7499 28.529 22.7499C28.6834 22.6175 29.0143 21.7352 29.301 20.919C29.7202 20.919 30.1834 20.3014 30.3378 19.4631C30.4922 18.5808 30.2716 17.8087 29.8305 17.7205Z" fill="#F8CFA3"/>
<path d="M29.0825 13.7278C29.0825 13.7278 28.531 11.1028 24.9134 11.6543C24.9134 11.6543 22.0678 11.9631 20.3251 13.7719C20.3251 13.7719 20.7222 13.6837 20.6119 14.0807C20.3251 15.0734 20.2148 16.1101 20.2148 17.1469V17.6763C20.2148 17.6763 20.7222 17.6101 21.1193 19.2866C21.1193 19.2866 20.9207 16.9704 21.4501 16.1543C21.8913 15.0734 23.0825 14.5219 24.1854 14.8528L24.2516 14.8749C24.6045 14.9851 24.9796 15.0072 25.3325 14.941L25.9722 14.8087C27.031 14.6101 28.0898 15.1837 28.4869 16.1763C28.4869 16.1763 28.4869 16.1984 28.509 16.1984C28.7075 16.6616 28.8178 17.169 28.8398 17.6984L28.9281 19.066C28.9281 19.066 29.3693 17.7646 29.7443 17.6763C29.7663 17.6984 30.4943 14.4557 29.0825 13.7278Z" fill="#343843"/>
<path d="M27.7367 14.1914C28.1117 14.0811 28.3984 14.2797 28.3984 14.2797C27.6705 13.0885 26.2146 13.5738 26.2146 13.5738C26.8102 13.5297 26.9205 13.7944 26.9205 13.7944C26.1926 13.6841 25.7734 14.0811 25.7734 14.0811C27.9573 14.1473 28.3984 15.162 28.3984 15.162C28.4646 14.6105 27.7367 14.1914 27.7367 14.1914ZM28.4646 13.9047C28.0676 12.6473 26.7881 13.0444 26.7881 13.0444C27.8911 13.1326 28.4646 13.9047 28.4646 13.9047Z" fill="#41454F"/>
<path d="M31.8366 36.2059L29.6749 36.978L27.5352 36.2059V32.2354H31.8366V36.2059Z" fill="#FCFCFC"/>
<path d="M27.5352 32.2354H31.8366V33.0515H27.5352V32.2354Z" fill="#D1D1D3"/>
<path d="M16.8171 34.5957V36.4928C16.6186 36.3604 16.4421 36.206 16.2656 36.0736L16.8171 34.5957ZM33.7362 36.0736C33.5597 36.2281 33.3612 36.3604 33.1847 36.4928V34.5957L33.7362 36.0736Z" fill="#D1D1D3"/>
</g>
<defs>
<clipPath id="clip0_1379_8198">
<rect width="30" height="30" fill="white" transform="translate(10 10)"/>
</clipPath>
</defs>
</svg>
