<svg width="50" height="50" viewBox="0 0 50 50" fill="none" xmlns="http://www.w3.org/2000/svg">
<circle cx="25" cy="25" r="25" fill="#F4B844"/>
<g clip-path="url(#clip0_1379_8105)">
<path d="M21.1598 22.3624C21.1198 21.3969 21.043 19.9701 20.9166 19.3201C20.7166 18.2892 19.778 17.9969 19.778 17.9969L17.0994 16.9814H14.5144L11.8357 17.9969C11.8357 17.9969 10.8971 18.2892 10.6971 19.3201C10.5707 19.9701 10.4939 21.3969 10.4539 22.3624C10.4488 22.4883 10.4691 22.6139 10.5138 22.7318C10.5584 22.8496 10.6264 22.9573 10.7137 23.0482C10.801 23.1391 10.9058 23.2114 11.0217 23.2608C11.1377 23.3101 11.2624 23.3356 11.3885 23.3355H20.2248C20.3509 23.3357 20.4757 23.3104 20.5917 23.261C20.7078 23.2117 20.8126 23.1394 20.9 23.0485C20.9873 22.9575 21.0554 22.8499 21.1 22.732C21.1447 22.6141 21.165 22.4883 21.1598 22.3624Z" fill="#88C057"/>
<path d="M14.5156 15.043H17.1006V18.0589H14.5156V15.043Z" fill="#E7B95D"/>
<path d="M17.9527 18.7628C17.924 18.2251 17.8185 17.6943 17.6395 17.1864L17.3 17.0578L17.0986 16.9814L15.8063 17.4714L14.5136 16.9814L13.8572 17.2301C13.8577 17.4828 13.8563 17.7351 13.8131 17.9851C13.7686 18.2428 13.6427 18.481 13.63 18.7451C13.6159 19.0251 13.7454 19.2446 13.8268 19.5024C14.0159 20.1005 13.7545 20.2442 14.4213 20.9442C14.5986 21.1305 14.7045 21.3064 14.7686 21.556C14.8313 21.801 15.3563 22.7455 15.5009 23.0292C15.6854 23.231 15.8 23.3305 15.8059 23.336H15.8068C15.8131 23.3305 15.9295 23.2292 16.1172 23.0233C16.1253 23.0062 16.1354 22.9902 16.1472 22.9755L16.1891 22.9233C16.1935 22.8846 16.209 22.848 16.2336 22.8178C16.3222 22.706 16.4281 22.5933 16.4845 22.4601C16.4971 22.429 16.5171 22.4014 16.5427 22.3798C16.5684 22.3581 16.599 22.3431 16.6318 22.336C17.2195 21.5024 17.2995 21.1151 17.5386 20.6101C17.7118 20.2446 17.7559 20.3874 17.6795 19.9919C17.5595 19.3728 17.9959 19.6055 17.9527 18.7628Z" fill="#CCCCCC"/>
<path d="M16.3907 22.7085C16.0484 23.1276 15.8179 23.3276 15.8093 23.3353H15.8084C15.7997 23.3276 15.5688 23.1271 15.2266 22.708L15.5925 18.2198L15.377 17.8453L15.5925 17.4712H16.0247L16.2407 17.8453L16.0247 18.2198L16.3907 22.7085Z" fill="#9A7BAA"/>
<path d="M17.1023 16.3975L15.81 17.4716L14.5177 16.3975L14.25 17.0829L15.0668 18.3106C15.0819 18.3333 15.1025 18.3517 15.1266 18.3641C15.1508 18.3765 15.1778 18.3826 15.2049 18.3816C15.2321 18.3807 15.2586 18.3728 15.2818 18.3587C15.3051 18.3446 15.3243 18.3247 15.3377 18.3011L15.81 17.4716L16.2827 18.3011C16.2961 18.3247 16.3154 18.3446 16.3386 18.3587C16.3619 18.3728 16.3883 18.3807 16.4155 18.3816C16.4427 18.3826 16.4696 18.3765 16.4938 18.3641C16.518 18.3517 16.5386 18.3333 16.5536 18.3106L17.3705 17.0829L17.1023 16.3975Z" fill="#E6E6E6"/>
<path d="M17.9226 20.0258C18.0403 20.3863 16.7594 22.254 16.3885 22.7086C16.0463 23.1277 15.8158 23.3277 15.8072 23.3354H15.8063C15.7976 23.3277 15.5667 23.1272 15.2244 22.7081C14.8535 22.2536 13.5713 20.3854 13.6913 20.0258C13.7558 19.8308 13.8581 19.6504 13.719 19.5108C13.5753 19.3672 13.3613 19.2136 13.394 19.0354L13.7144 17.2849L14.319 16.9004C14.2385 18.5049 14.5813 21.364 15.8072 23.3358C16.9099 21.5627 17.3403 19.0504 17.3008 17.0581C17.299 16.9558 17.2963 16.9004 17.2963 16.9004L17.8908 17.2818L18.2208 19.0358C18.2279 19.0751 18.2255 19.1155 18.2136 19.1536C18.2017 19.1916 18.1808 19.2263 18.1526 19.2545C17.7603 19.6454 17.7744 19.5808 17.9226 20.0258Z" fill="#638B3F"/>
<path d="M18.0153 13.656C17.9285 13.3669 17.5717 13.7542 17.5717 13.7542L17.5585 13.8396L17.4694 13.7028C17.4694 13.7028 17.6081 12.8537 17.634 12.8201C17.6599 12.7869 17.3394 12.0542 17.3222 12.0292C17.3049 12.0042 16.8022 11.8628 16.8022 11.8628C15.6076 11.9728 16.0335 11.9751 14.8113 11.8628C14.8113 11.8628 14.3085 12.0042 14.2913 12.0292C14.274 12.0542 13.9535 12.7869 13.9794 12.8201C14.0049 12.8532 14.1435 13.7028 14.1435 13.7028L14.0544 13.8396L14.0413 13.7537C14.0413 13.7537 13.6844 13.3664 13.5976 13.6555C13.5108 13.9451 13.6435 14.4887 13.8194 14.6996C13.8551 14.7456 13.9002 14.7835 13.9516 14.8108C14.0029 14.8382 14.0595 14.8543 14.1176 14.8582C14.2508 15.7255 14.1449 15.4873 14.9749 16.5146C15.3908 17.0292 16.2258 17.0246 16.6381 16.5146L17.2176 15.7973C17.3258 15.6632 17.3963 15.5046 17.4222 15.3369L17.4953 14.8582C17.9349 14.8337 18.1253 14.0219 18.0153 13.656Z" fill="#FFCC66"/>
<path d="M14.3333 11.3013C14.3333 11.3013 14.1683 11.5304 14.2414 11.9518C14.2414 11.9518 13.7578 12.2341 13.7578 12.8113C13.7578 13.3886 13.8387 13.6377 13.9119 14.0313L13.9769 14.3282C13.98 14.3433 13.9884 14.3568 14.0006 14.3662C14.0128 14.3757 14.0279 14.3806 14.0433 14.3799C14.0587 14.3793 14.0734 14.3731 14.0847 14.3627C14.096 14.3522 14.1032 14.338 14.1051 14.3227C14.3264 12.5582 14.4833 12.2109 15.0205 12.3182C15.341 12.3823 16.5142 12.1168 16.9078 12.7486C17.1878 13.1977 17.3328 13.7482 17.3737 14.2659C17.3846 14.4045 17.5764 14.4227 17.6151 14.2936C17.6342 14.23 17.6551 14.1636 17.6774 14.0954C18.6933 11.0486 15.2346 10.0891 14.3333 11.3013Z" fill="#515151"/>
<path d="M38.9365 22.3317C38.8974 21.3794 38.821 19.9722 38.6969 19.3313C38.4997 18.3149 37.5742 18.0263 37.5742 18.0263L34.9328 17.0249H32.3838L29.7424 18.0263C29.7424 18.0263 28.8169 18.3144 28.6197 19.3313C28.4951 19.9722 28.4192 21.3794 28.3797 22.3317C28.3746 22.4559 28.3948 22.5798 28.4388 22.696C28.4828 22.8122 28.5499 22.9183 28.6359 23.0079C28.722 23.0976 28.8252 23.1689 28.9395 23.2177C29.0538 23.2665 29.1768 23.2916 29.301 23.2917H38.0156C38.5392 23.2917 38.9583 22.8554 38.9365 22.3317Z" fill="#ED7161"/>
<path d="M32.3828 15.1133H34.9319V18.0874H32.3828V15.1133Z" fill="#E7B95D"/>
<path d="M35.7758 18.7818C35.7627 18.5222 35.6495 17.6058 35.4945 17.3527C35.4703 17.3156 35.4606 17.271 35.4672 17.2272L35.1322 17.1004L34.9336 17.0254L33.659 17.5086L32.3845 17.0254L32.1872 17.1004L31.7377 17.2708C31.7413 18.9163 31.2658 18.1145 31.7077 19.5118C31.7877 19.7645 31.7804 20.0345 31.8536 20.2881C32.0104 20.8322 32.4722 20.8963 32.6363 21.5368C32.6981 21.7781 33.2163 22.7099 33.3586 22.9895C33.5408 23.1886 33.6536 23.2863 33.6595 23.2918H33.6604C33.6663 23.2863 33.7813 23.1863 33.9667 22.9836C33.9827 22.9504 34.0108 22.9181 34.0372 22.8845C34.0458 22.8095 34.2777 22.5481 34.3286 22.4277C34.3411 22.397 34.3609 22.3698 34.3862 22.3484C34.4115 22.327 34.4417 22.3121 34.474 22.3049C35.0536 21.4827 35.1327 21.1013 35.3681 20.6031C35.539 20.2427 35.5827 20.3836 35.5072 19.9936C35.4631 19.7654 35.4986 19.594 35.6458 19.4145C35.7963 19.2299 35.7877 19.0127 35.7758 18.7818Z" fill="#CCCCCC"/>
<path d="M34.2337 22.6738C33.8964 23.087 33.6687 23.2847 33.6605 23.292H33.6596C33.6509 23.2847 33.4237 23.0865 33.0859 22.6733L33.4468 18.247L33.2341 17.8779L33.4468 17.5088H33.8732L34.0864 17.8779L33.8732 18.247L34.2337 22.6738Z" fill="#54BBFF"/>
<path d="M34.9343 16.4492L33.6597 17.5083L32.3852 16.4492L32.1211 17.1251L32.9265 18.336C32.9414 18.3583 32.9617 18.3764 32.9856 18.3887C33.0094 18.4009 33.0359 18.4068 33.0627 18.4059C33.0895 18.405 33.1156 18.3973 33.1385 18.3835C33.1615 18.3696 33.1805 18.3502 33.1938 18.3269L33.6597 17.5083L34.1256 18.3269C34.139 18.3502 34.158 18.3696 34.1809 18.3835C34.2039 18.3973 34.23 18.405 34.2567 18.4059C34.2835 18.4068 34.3101 18.4009 34.3339 18.3887C34.3577 18.3764 34.378 18.3583 34.3929 18.336L35.1984 17.1251L34.9343 16.4492Z" fill="white"/>
<path d="M35.7197 19.5198C35.6878 19.5518 35.6655 19.5919 35.6551 19.6358C35.6447 19.6797 35.6468 19.7257 35.6611 19.7685C35.7083 19.9107 35.7942 20.0835 35.7379 20.2057C35.0197 21.7698 34.1356 22.8826 33.6611 23.2921H33.6602C32.6192 22.3935 31.5129 20.2121 31.5742 20.028C31.6379 19.8357 31.7388 19.6576 31.6015 19.5198C31.147 19.0653 31.2152 19.4107 31.597 17.3244L31.5974 17.3239L32.1929 16.9448C32.1929 16.9448 32.1902 16.9994 32.1883 17.0998C32.1488 19.0721 32.5733 21.5426 33.6606 23.2912C34.7483 21.5426 35.1729 19.0648 35.1333 17.1003C35.1315 16.9994 35.1288 16.9448 35.1288 16.9448L35.7152 17.3207C36.1102 19.4207 36.1742 19.0653 35.7197 19.5198Z" fill="#D56455"/>
<path d="M35.8363 13.7457C35.7509 13.4607 35.3986 13.8425 35.3986 13.8425L35.3859 13.9271L35.2982 13.7921C35.2982 13.7921 35.435 12.9544 35.4604 12.9216C35.4859 12.8889 35.17 12.1662 35.1527 12.1416C35.1354 12.1171 34.64 11.9775 34.64 11.9775C33.4618 12.0862 33.8822 12.0884 32.6763 11.9775C32.6763 11.9775 32.1804 12.1171 32.1636 12.1416C32.1463 12.1662 31.8304 12.8889 31.8559 12.9216C31.8813 12.9544 32.0182 13.7921 32.0182 13.7921L31.9304 13.9266L31.9177 13.8421C31.9177 13.8421 31.5654 13.4603 31.48 13.7453C31.3945 14.0303 31.5254 14.5666 31.6986 14.7744C31.7338 14.8197 31.7782 14.8571 31.8289 14.8841C31.8796 14.911 31.9354 14.9269 31.9927 14.9307C32.1241 15.7862 32.02 15.5512 32.8382 16.5639C33.2472 17.0703 34.0713 17.0675 34.4782 16.5639C35.2754 15.5771 35.1877 15.8171 35.3236 14.9307C35.7572 14.9071 35.9445 14.1066 35.8363 13.7457Z" fill="#FFCC66"/>
<path d="M35.6733 12.2826C35.6733 12.2826 35.6601 11.6003 35.0478 11.4849C35.0279 11.4813 35.0099 11.4704 34.9974 11.4544C34.9101 11.3385 34.5174 10.8613 33.9219 10.7944C33.2465 10.7185 31.5928 10.9681 31.5938 12.8408C31.5938 13.5176 31.756 14.2444 31.8515 14.5626C31.8565 14.5793 31.8668 14.5939 31.8808 14.6042C31.8948 14.6145 31.9118 14.62 31.9292 14.6199H31.9351C31.946 14.62 31.9567 14.6178 31.9668 14.6137C31.9768 14.6095 31.9858 14.6033 31.9934 14.5956C32.001 14.5878 32.007 14.5786 32.0109 14.5685C32.0149 14.5584 32.0168 14.5476 32.0165 14.5367C32.0115 14.3013 32.0238 13.8617 32.1524 13.4126C32.1551 13.4031 32.156 13.3935 32.1551 13.3835C32.146 13.2808 32.0997 12.6485 32.3219 12.1926C32.3299 12.1765 32.3431 12.1635 32.3593 12.1558C32.3756 12.1482 32.394 12.1462 32.4115 12.1503C32.9215 12.259 33.6501 12.8185 34.8015 12.1699C34.8103 12.1646 34.8201 12.1612 34.8303 12.1597C34.8405 12.1583 34.8509 12.1589 34.8608 12.1615C34.8708 12.1641 34.8801 12.1687 34.8882 12.175C34.8964 12.1813 34.9032 12.1891 34.9083 12.1981C34.9988 12.3476 35.1915 12.7394 35.1424 13.2949C35.1416 13.3034 35.1422 13.312 35.1442 13.3203C35.1688 13.4158 35.3247 14.0522 35.2901 14.5303C35.2824 14.6363 35.4342 14.6522 35.4515 14.5522C35.5043 14.2475 35.5993 13.9516 35.7338 13.6731L35.7419 13.6335L35.6733 12.2826Z" fill="#515151"/>
<path d="M30.4336 31.7181L31.7459 30.4062L34.2595 32.9199L32.9468 34.2317L30.4336 31.7181Z" fill="#333333"/>
<path d="M17.5505 17.5172C13.6945 21.3731 13.69 27.6208 17.5459 31.4767C21.4018 35.3326 27.6541 35.3326 31.51 31.4767C35.3614 27.6254 35.3614 21.3731 31.5055 17.5172C27.6495 13.6613 21.4018 13.6658 17.5505 17.5172ZM30.2623 30.229C27.0955 33.3958 21.9605 33.3954 18.7936 30.229C15.6268 27.0626 15.6314 21.9317 18.7982 18.7649C21.9605 15.6026 27.0909 15.5981 30.2577 18.7649C33.4245 21.9313 33.4245 27.0667 30.2623 30.229Z" fill="#515151"/>
<path d="M33.6264 31.0407L31.0709 33.5961C31.0298 33.6371 30.9973 33.6859 30.9751 33.7395C30.9528 33.7931 30.9414 33.8506 30.9414 33.9086C30.9414 33.9667 30.9528 34.0241 30.9751 34.0778C30.9973 34.1314 31.0298 34.1801 31.0709 34.2211L35.6173 38.7675C36.4782 39.6284 37.895 39.7557 38.8 38.9407C39.0274 38.7365 39.2108 38.4882 39.339 38.2109C39.4672 37.9335 39.5376 37.6329 39.5458 37.3275C39.554 37.022 39.4999 36.7181 39.3867 36.4343C39.2736 36.1504 39.1038 35.8926 38.8877 35.6766L34.2514 31.0402C34.1684 30.9575 34.0559 30.911 33.9388 30.9111C33.8216 30.9112 33.7092 30.9578 33.6264 31.0407Z" fill="#BF8E5F"/>
<path d="M31.6076 26.095C31.5553 24.83 31.4544 22.9609 31.289 22.1095C31.0272 20.759 29.7976 20.3759 29.7976 20.3759L26.2885 19.0454H22.9022L19.3931 20.3759C19.3931 20.3759 18.1635 20.759 17.9017 22.1095C17.7367 22.9609 17.6353 24.83 17.5831 26.095C17.5763 26.2599 17.6029 26.4246 17.6614 26.579C17.7198 26.7334 17.8089 26.8744 17.9232 26.9935C18.0376 27.1126 18.1748 27.2073 18.3267 27.272C18.4786 27.3367 18.6421 27.37 18.8072 27.37H30.3831C30.5482 27.3701 30.7117 27.3368 30.8636 27.2722C31.0156 27.2075 31.1529 27.1128 31.2673 26.9936C31.3817 26.8745 31.4708 26.7335 31.5293 26.5791C31.5878 26.4246 31.6144 26.26 31.6076 26.095Z" fill="#666666"/>
<path d="M22.9023 16.5063H26.2887V20.4568H22.9023V16.5063Z" fill="#E7B95D"/>
<path d="M27.4063 21.3795C27.3885 21.0345 27.2381 19.8177 27.0326 19.4814C27.0004 19.4321 26.9875 19.3727 26.9963 19.3145L26.5513 19.1459L26.2872 19.0459L24.5944 19.6877L22.9013 19.0459L22.639 19.1454L22.0417 19.3718C22.0426 19.7032 22.0408 20.0336 21.984 20.3609C21.9258 20.6986 21.7608 21.0104 21.7435 21.3564C21.7254 21.7232 21.8949 22.0104 22.0017 22.3482C22.2494 23.1318 21.9067 23.3204 22.7804 24.2373C23.0126 24.4814 23.1513 24.7118 23.2354 25.0386C23.3299 25.4064 23.5458 25.7341 23.724 26.0673C23.8835 26.3664 24.0408 26.6664 24.1949 26.9686C24.4367 27.2332 24.5867 27.3632 24.5944 27.3704C24.6031 27.3632 24.7563 27.2304 25.0022 26.9609C25.0235 26.9168 25.0604 26.8741 25.0958 26.8295C25.102 26.779 25.1221 26.7311 25.154 26.6914C25.2699 26.545 25.409 26.3968 25.4822 26.2223C25.4988 26.1815 25.525 26.1454 25.5587 26.1171C25.5923 26.0887 25.6324 26.069 25.6754 26.0595C26.4454 24.9673 26.5499 24.4604 26.8635 23.7991C27.0904 23.32 27.1485 23.5077 27.0481 22.9895C26.8913 22.1786 27.4631 22.4841 27.4063 21.3795Z" fill="#CCCCCC"/>
<path d="M25.357 26.5489C24.9088 27.098 24.6066 27.3603 24.5952 27.3703H24.5943C24.5829 27.3603 24.2807 27.0975 23.832 26.5484L23.8775 25.988L24.3111 20.6684L24.0284 20.178L24.3111 19.688H24.877L25.1602 20.178L24.877 20.6684L25.357 26.5489Z" fill="#ED7161"/>
<path d="M26.2881 18.2808L24.5949 19.6876L22.9017 18.2808L22.5508 19.1789L23.6208 20.7871C23.7067 20.9167 23.899 20.9099 23.9758 20.7749L24.5949 19.6876L25.214 20.7749C25.2316 20.8058 25.2568 20.8317 25.2873 20.8501C25.3178 20.8685 25.3525 20.8789 25.388 20.8801C25.4236 20.8813 25.4589 20.8734 25.4906 20.8572C25.5223 20.8409 25.5492 20.8168 25.569 20.7871L26.639 19.1789L26.2881 18.2808Z" fill="white"/>
<path d="M27.3317 22.3594C27.0312 22.6603 27.5048 22.9462 27.3553 23.2703C26.4017 25.3481 25.2271 26.8258 24.5967 27.3699H24.5957C24.5844 27.3599 24.2821 27.0971 23.8335 26.5481C23.3512 25.9571 21.673 23.489 21.8248 23.034L21.9394 22.6894C22.0257 22.4285 21.7344 22.2326 21.5244 22.0226C21.338 21.8362 21.4339 21.7458 21.8553 19.4431L21.8557 19.4426L22.6471 18.939C22.6471 18.939 22.6435 19.0112 22.6407 19.1449C22.6244 19.9712 22.6512 23.1394 23.8794 25.9876C24.0837 26.4654 24.3235 26.9278 24.5967 27.3699C26.0412 25.0467 26.6053 21.7553 26.553 19.1458C26.5503 19.0117 26.5466 18.9394 26.5466 18.9394L27.3253 19.439C27.8526 22.2381 27.9262 21.7653 27.3317 22.3594Z" fill="#515151"/>
<path d="M27.4875 14.6894C27.3739 14.3108 26.9062 14.8176 26.9062 14.8176L26.8889 14.9298L26.7721 14.7508C26.7721 14.7508 26.9539 13.638 26.9875 13.5944C27.0212 13.5508 26.6016 12.5908 26.5789 12.558C26.5562 12.5253 25.8975 12.3398 25.8975 12.3398L24.5934 12.4598L23.2898 12.3398C23.2898 12.3398 22.6312 12.5253 22.6084 12.558C22.5857 12.5908 22.1662 13.5508 22.1998 13.5944C22.2334 13.638 22.4153 14.7508 22.4153 14.7508L22.2984 14.9298L22.2812 14.8176C22.2812 14.8176 21.8134 14.3103 21.6998 14.6894C21.5862 15.068 21.7598 15.7808 21.9903 16.0567C22.1257 16.2189 22.278 16.2589 22.3807 16.2644C22.5548 17.4008 22.4162 17.088 23.5039 18.4339C24.0484 19.108 25.143 19.1017 25.6825 18.4339L26.4416 17.4944C26.5834 17.3189 26.6757 17.1108 26.7094 16.8912L26.8057 16.2644C26.9084 16.2585 27.0607 16.2185 27.1962 16.0567C27.4275 15.7808 27.6012 15.068 27.4875 14.6894Z" fill="#FFCC66"/>
<path d="M26.6481 11.912C26.6481 11.912 26.6776 10.8034 25.5494 10.5957C22.024 9.94613 21.6103 13.2552 22.2235 14.7139C22.2235 14.7139 22.3349 15.3998 22.3585 15.7107C22.3612 15.7461 22.3903 15.7734 22.4258 15.7734C22.4352 15.7735 22.4445 15.7715 22.453 15.7678C22.4616 15.764 22.4693 15.7584 22.4756 15.7515C22.4819 15.7445 22.4867 15.7364 22.4896 15.7274C22.4925 15.7185 22.4936 15.7091 22.4926 15.6998C22.4703 15.473 22.4226 14.7707 22.6194 14.2784C22.6194 14.2784 22.154 13.0511 22.9658 12.962C23.7776 12.873 24.6981 13.6452 26.1435 12.7739C26.1435 12.7739 26.6581 13.0311 26.609 13.952C26.609 13.952 26.8649 15.123 26.8585 15.7057C26.8585 15.7146 26.8602 15.7233 26.8635 15.7316C26.8669 15.7398 26.8718 15.7472 26.8781 15.7535C26.8843 15.7598 26.8917 15.7648 26.8999 15.7682C26.9081 15.7717 26.9169 15.7734 26.9258 15.7734C26.9353 15.7734 26.9447 15.7714 26.9534 15.7675C26.9621 15.7636 26.9699 15.7579 26.9762 15.7507C26.9825 15.7436 26.9872 15.7352 26.9901 15.7261C26.9929 15.717 26.9938 15.7074 26.9926 15.698C26.9708 15.5289 26.9458 15.0911 27.1535 14.5457C27.4199 13.8425 27.7467 12.417 26.6481 11.912Z" fill="#515151"/>
</g>
<defs>
<clipPath id="clip0_1379_8105">
<rect width="30" height="30" fill="white" transform="translate(10 10)"/>
</clipPath>
</defs>
</svg>
