<svg width="50" height="50" viewBox="0 0 50 50" fill="none" xmlns="http://www.w3.org/2000/svg">
<circle cx="25" cy="25" r="25" fill="#006C9C"/>
<g clip-path="url(#clip0_1379_8082)">
<path d="M25 40C33.2843 40 40 33.2843 40 25C40 16.7157 33.2843 10 25 10C16.7157 10 10 16.7157 10 25C10 33.2843 16.7157 40 25 40Z" fill="#006C9C"/>
<path d="M11.3125 30.6719H35.7344V35.1953H11.3125V30.6719Z" fill="#F5EA07"/>
<path d="M26.6875 30.7422V27.0391C26.3828 26.2891 26.1016 26.1484 26.1016 26.1484C25.75 25.6328 22 24.2734 22 24.2734L21.6484 24.4375L21.5781 24.6719L20.8984 27.0156H17.1016L16.4219 24.6719L16.3516 24.4375L16 24.2734C16 24.2734 12.2734 25.6328 11.8984 26.1484C11.8984 26.1484 11.6172 26.2891 11.3125 27.0391V30.7656H26.6875V30.7422Z" fill="#353944"/>
<path d="M21.2266 25.2344H16.75C17.125 24.0859 17.125 22.8438 16.75 21.6953H21.2266C20.8516 22.8438 20.8516 24.0859 21.2266 25.2344Z" fill="#F0B97C"/>
<path d="M18.3203 30.7422H19.7266L20.0547 29.7578L20.5703 28.1641L21.7188 24.6719H16.4219L17.9688 29.6406L18.3203 30.7422Z" fill="#FDFEFF"/>
<path d="M20.2187 30.7422L20.0781 29.8984L20.0547 29.7578L19.8437 28.4922L19.4453 26.0312H18.5313L18.1562 28.4922L17.9687 29.6406L17.9219 29.8984L17.7812 30.7422H20.2187Z" fill="#F1592F"/>
<path d="M19 24.6719L20.9687 23.6172L20.4531 25.8438C20.4531 25.8438 19.9375 25.2344 19 24.6719Z" fill="#E8E7E8"/>
<path d="M20.0078 25.4219L19.4453 26.0547H18.5313L17.9688 25.4219C18.2031 25.2109 18.5547 24.9531 18.9766 24.6953C19.4219 24.9297 19.7734 25.2109 20.0078 25.4219Z" fill="#E34E30"/>
<path d="M20.4297 30.7422L22.1875 27.2031L21.4141 26.875L22.3281 26.2422L22.0234 24.2734L20.9688 23.6172L20.9453 23.6641L20.7109 24.6719L20.5938 25.2344L20.4531 25.8438L19.8438 28.4922L19.3281 30.7422H20.4297Z" fill="#656D7A"/>
<path d="M19 24.6719L17.0312 23.6172L17.5469 25.8438C17.5469 25.8438 18.0625 25.2344 19 24.6719Z" fill="#E8E7E8"/>
<path d="M15.8125 27.2031L17.5703 30.7422H18.6719L18.1562 28.4922L17.5469 25.8438L17.4062 25.2344L17.2891 24.6719L17.0547 23.6641L17.0312 23.6172L15.9766 24.2734L15.6484 26.2422L16.5859 26.875L15.8125 27.2031Z" fill="#656D7A"/>
<path d="M22.1059 20.2701C22.3991 20.3216 22.7259 19.857 22.8357 19.2323C22.9455 18.6076 22.7968 18.0594 22.5036 18.0079C22.2104 17.9563 21.8836 18.421 21.7738 19.0456C21.664 19.6703 21.8127 20.2185 22.1059 20.2701Z" fill="#F0B97C"/>
<path d="M15.0637 19.2344C15.1809 19.8438 15.509 20.3126 15.7903 20.2657C16.0715 20.2188 16.2356 19.6797 16.1184 19.0469C15.8606 17.5704 14.8059 17.7579 15.0637 19.2344Z" fill="#F0B97C"/>
<path d="M22.3984 18.4377C22.3984 21.3673 20.1719 23.6408 18.9531 23.6408C17.7344 23.6408 15.5078 21.3908 15.5078 18.4377C15.5078 16.4455 17.0547 13.9142 18.9531 13.9142C20.8516 13.8908 22.3984 16.4455 22.3984 18.4377Z" fill="#F7CFA3"/>
<path d="M22.1641 17.7578C22.1641 18.1328 22.0937 18.5078 21.9766 18.8594L22.4688 18.7891C22.7266 18.2734 22.8672 17.6875 22.8672 17.0547C22.8672 16.5859 22.7969 16.1406 22.6328 15.7422C22.4219 15.8828 22.1406 16.0703 21.7891 16.2344C22.0234 16.6797 22.1641 17.1953 22.1641 17.7578Z" fill="#353944"/>
<path d="M22.9611 15.4373C22.9611 15.4841 22.8439 15.6013 22.633 15.7654C22.4221 15.906 22.1408 16.0935 21.7893 16.2576C19.7033 17.242 17.1721 16.8435 16.1408 16.1873C15.6486 17.031 15.6018 18.0154 15.9064 18.8826L15.4143 18.8123C13.3518 14.5466 19.3283 10.4685 22.9611 15.4373Z" fill="#4D535F"/>
<path d="M31.8906 27.625H30.1562C29.9453 27.6953 29.7109 27.7422 29.4766 27.7422C29.2422 27.7422 29.0312 27.6953 28.7969 27.625H27.0625C27.2031 26.9687 27.0625 26.3125 26.7109 25.75C25.9609 24.5312 25.4688 22.9609 25.4688 21.8125C25.4688 19.5859 27.2734 17.8047 29.4766 17.8047C31.6797 17.8047 33.4844 19.6094 33.4844 21.8125C33.4844 22.9609 32.9922 24.5312 32.2188 25.75C31.8906 26.3125 31.75 26.9922 31.8906 27.625Z" fill="#F0B97C"/>
<path d="M38.6875 35.1953L38.1016 32.5C37.9141 31.6094 37.3047 30.8828 36.4844 30.5078L32.1016 28.4922V27.9297C32.1016 27.7656 31.9609 27.625 31.7969 27.625H27.1797C27.0156 27.625 26.875 27.7656 26.875 27.9297V28.4922L22.4922 30.5078C21.6719 30.8828 21.0625 31.6328 20.875 32.5L20.2656 35.1953H38.6875Z" fill="#E7E7E8"/>
<path d="M33.2512 18.8359C33.3684 18.0625 33.298 17.3594 33.298 17.3594C33.298 17.6641 33.1809 18.0156 33.0402 18.3672C33.0871 17.4766 32.8762 16.9141 32.8762 16.9141C32.8762 17.3594 32.8059 17.7344 32.7121 18.0391C32.3371 17.5937 31.8918 17.2188 31.3293 16.9609C31.3059 16.9609 31.2824 16.9375 31.259 16.9375C30.1105 16.3984 28.798 16.3984 27.6496 16.9375C27.6262 16.9375 27.6027 16.9609 27.5793 16.9609C26.8762 17.2891 26.3137 17.8281 25.9152 18.4375C26.2668 18.25 26.5012 18.2031 26.5012 18.2031C26.0324 18.5547 25.7277 18.8828 25.5168 19.1875C25.2824 19.7969 25.1418 20.4531 25.1887 21.1094C25.3762 25.1406 27.2746 26.4062 27.2746 26.4062C28.423 26.5 28.8684 27.4141 29.4543 27.4141C30.0637 27.4141 30.509 26.5 31.634 26.4062C31.634 26.4062 33.5324 25.1641 33.7199 21.1094C33.7902 20.2891 33.6027 19.5156 33.2512 18.8359Z" fill="#353944"/>
</g>
<defs>
<clipPath id="clip0_1379_8082">
<rect width="30" height="30" fill="white" transform="translate(10 10)"/>
</clipPath>
</defs>
</svg>
