<svg width="40" height="38" viewBox="0 0 40 38" fill="none" xmlns="http://www.w3.org/2000/svg">
<path d="M40 3C40 1.34315 38.6569 0 37 0H0V38H37C38.6569 38 40 36.6569 40 35V3Z" fill="#E4E4E4"/>
<path d="M16.9669 12.1602H25.0511C25.7955 12.1602 26.3984 12.7167 26.3984 13.4038V22.1092H25.0511V13.4038H16.9669V12.1602ZM14.9458 14.6474H22.3563C23.1008 14.6474 23.7037 15.204 23.7037 15.8911V24.5965C23.7037 25.2836 23.1008 25.8402 22.3563 25.8402H14.9458C14.2014 25.8402 13.5984 25.2836 13.5984 24.5965V15.8911C13.5984 15.204 14.2014 14.6474 14.9458 14.6474ZM14.9458 24.5965H22.3563V15.8911H14.9458V24.5965Z" fill="white"/>
</svg>
