<svg width="90" height="90" viewBox="0 0 90 90" fill="none" xmlns="http://www.w3.org/2000/svg">
<g id="Frame 531" filter="url(#filter0_d_1260_4801)">
<path id="Vector" d="M72.256 35.8219C72.256 52.8516 58.3022 66.6438 41.1225 66.6438C38.3715 66.6438 35.7199 66.2829 33.1899 65.6266C33.0574 65.5938 32.9358 65.5501 32.8033 65.5282H32.7922C30.6549 64.941 28.588 64.1269 26.6274 63.1001C26.5279 63.0454 26.4175 62.9798 26.318 62.9251C16.5847 57.7079 10 47.5251 10 35.8219C10 34.1157 10.1326 32.4751 10.4088 30.8563C10.4419 30.7032 10.453 30.561 10.4861 30.4079V30.3969C11.8561 22.6751 16.1317 15.9813 22.1529 11.3985C22.2413 11.322 22.3518 11.2454 22.4401 11.1907C27.8201 7.1596 34.3864 4.98509 41.1335 5.00008C47.0111 5.00008 52.513 6.61883 57.1974 9.42976C57.4073 9.55008 57.6062 9.67039 57.8161 9.80164H57.8272C57.8272 9.80164 57.8382 9.80164 57.8603 9.81258C57.9156 9.85633 57.9818 9.88914 58.026 9.91101C61.4841 12.1313 64.456 14.997 66.7982 18.3438C67.1297 18.836 67.4611 19.3391 67.7705 19.8423C68.0246 20.2579 68.2787 20.6845 68.5217 21.1329L68.5328 21.1438C68.7427 21.5266 68.9416 21.9313 69.1515 22.3251C69.2398 22.4891 69.3172 22.6641 69.3945 22.8391C69.5271 23.1344 69.6597 23.4298 69.7812 23.7251H69.7923L69.9469 24.0969V24.1079C71.4767 27.8274 72.2609 31.806 72.256 35.8219Z" fill="#3582A8"/>
<path id="Vector_2" d="M72.256 35.8222C72.256 52.8519 58.3022 66.644 41.1225 66.644C38.3715 66.644 35.7199 66.2831 33.1899 65.6269C33.0574 65.594 32.9358 65.5503 32.8033 65.5284H32.7922C30.6549 64.9412 28.588 64.1271 26.6274 63.1003C26.5279 63.0456 26.4175 62.98 26.318 62.9253C16.5847 57.7081 10 47.5253 10 35.8222C10 35.1222 10.011 34.455 10.0773 33.7769C10.8507 44.5284 17.2034 53.7597 26.318 58.6378C26.4175 58.7144 26.5279 58.7581 26.6274 58.8128C28.5718 59.83 30.6378 60.6503 32.7922 61.2409H32.8033C32.9358 61.2737 33.0574 61.3175 33.1899 61.3394C35.7199 62.0065 38.3715 62.3565 41.1225 62.3565C57.5841 62.3565 71.0849 49.6909 72.1676 33.6675C72.2339 34.4003 72.256 35.1112 72.256 35.8222Z" fill="#136E91"/>
<path id="Vector_3" d="M71.4045 31.305L71.283 31.7097L70.9405 31.4581C70.4654 31.119 69.9683 30.955 69.4269 30.955C68.9298 30.955 68.3995 31.1081 67.8139 31.3815C66.4218 31.7206 66.3003 32.0378 66.3003 32.0925C66.2672 32.2456 66.4329 32.5081 67.2836 33.0659C67.372 33.0659 67.5377 33.0769 67.7476 33.0769C68.8303 33.0769 69.681 32.9456 70.0788 32.7159L70.1561 32.6722L70.3108 32.6394C70.3881 32.6394 70.7195 32.6722 70.7195 33.1753C70.7195 34.1925 68.6646 40.1206 67.2615 40.1206C67.2615 40.1315 65.5711 41.0722 65.8584 44.6378L65.8252 49.1878L65.5822 49.2425C65.5269 49.2425 64.0134 49.5815 63.8034 50.8831C63.8145 50.8831 63.936 51.6269 63.936 52.4144C63.936 52.8409 63.9029 53.2894 63.7813 53.6284L63.6709 54.0003L63.3615 53.8034C63.259 53.7363 63.1414 53.695 63.019 53.6831C62.9748 53.6831 62.8644 53.6831 62.7318 53.9347C62.6986 54.0987 61.4171 59.2722 57.3293 59.2722C56.9647 59.2722 56.6111 59.2394 56.2466 59.1737L55.9593 59.119L56.0035 58.8347C56.5228 55.7722 55.9483 54.0003 54.1916 53.4315C54.0369 53.519 53.7718 53.7597 53.8049 54.1425C53.816 54.3065 53.7939 54.4378 53.7055 54.5253L53.6171 54.6128L53.4182 54.6456C53.0537 54.6456 52.6559 54.1097 52.5233 53.6394C52.4018 53.2128 52.4902 52.8081 52.7333 52.5128C52.2803 52.305 51.7058 51.9659 51.5953 51.4628C51.5511 51.2222 51.5953 50.8722 52.0483 50.5003L52.214 50.369L52.3908 50.4675C52.678 50.6315 53.0205 50.8065 53.2636 50.894C53.1641 50.5878 52.899 50.03 52.6449 49.5487C52.5233 49.6034 52.4239 49.669 52.4239 49.7237V50.019L52.0925 50.0956C51.9157 50.0956 51.7831 49.9425 51.7058 49.6472C51.5732 49.1112 51.6947 48.3456 52.4792 47.93C52.5675 47.8862 52.6338 47.8425 52.678 47.8097H52.6228C52.5675 47.8097 52.4681 47.7987 52.3797 47.7987L52.3245 47.919L52.1477 47.8862C52.1367 47.8862 51.6395 48.0175 51.1313 48.3456L51.054 48.3894L50.8551 48.4222C50.6894 48.4222 50.5457 48.3347 50.4463 48.1815C50.2806 47.8862 50.3248 47.4378 50.5457 47.055C50.7557 46.6831 51.3191 46.0487 52.7333 46.0487C52.9874 46.0487 53.2525 46.0815 53.5398 46.1253C53.5508 44.6269 53.2967 41.5644 51.9047 40.9519C51.4517 40.6565 51.2749 40.23 51.3522 39.6612C49.9933 40.9956 47.6401 43.0956 46.2591 43.205C46.1707 43.205 45.4526 43.1175 45.0659 42.494C44.7344 41.9362 44.7676 41.1487 45.1543 40.1644L45.9939 37.6925L44.2262 37.78L44.1378 37.6925C44.0605 37.6159 42.0719 35.7237 41.652 34.1706C41.6189 34.1597 40.2489 31.9831 41.0665 30.2987C40.9008 29.719 40.3815 27.3894 42.2044 26.1206C42.2376 25.9894 45.1432 20.6956 47.5186 20.1815C47.5959 20.1487 47.7395 20.0612 47.7837 20.0065C47.7285 20.0065 47.4744 19.8753 46.6568 19.7659C45.5631 19.2737 45.0548 18.7706 45.0217 18.1909C44.9886 17.6331 45.4415 17.0972 46.4027 16.5612L46.5574 16.4737L46.7121 16.5612C47.2092 16.8565 47.6843 17.0097 48.1152 17.0097C48.5681 17.0097 48.988 16.8565 49.4188 16.5831C49.7613 16.3862 49.8387 16.255 49.8387 16.2222C49.8387 16.1894 49.7503 16.0581 49.3636 15.8612C49.1868 15.7737 48.9769 15.73 48.7449 15.73C48.5018 15.73 48.2367 15.7847 47.9384 15.8831L47.4744 16.0362L47.5517 15.5659C47.6069 15.1612 47.6401 14.494 47.5186 14.2644C47.3418 14.2753 47.0545 14.3409 46.4911 14.6253L45.9276 14.8878L46.0271 14.2972C46.0271 14.2862 46.5353 12.3394 48.0489 12.3394C48.8443 12.3394 49.7282 12.8862 50.6783 14.0019C50.7557 14.1659 50.7667 14.2644 51.0208 14.2644C51.4959 14.2644 52.0041 13.9034 52.0262 13.7722C52.0593 13.5534 52.1256 12.8644 52.1256 12.8644L52.1588 12.5581L52.4681 12.6019C52.5896 12.6128 52.6891 12.6347 52.7996 12.6347C52.9542 12.6347 53.0537 12.6237 53.131 12.58C53.142 12.58 53.142 12.569 53.1641 12.569C52.8769 12.5581 52.5233 12.5144 52.1919 12.5144C51.8605 12.5144 51.5622 12.5581 51.3081 12.6128C51.1755 12.6456 51.054 12.6565 50.9435 12.6565C50.38 12.6565 50.0928 12.3175 50.0596 11.9784C50.0265 11.53 50.4021 11.0159 51.2086 10.8847C51.5843 10.8519 52.4239 10.7315 53.0537 10.5456C52.7554 10.4581 52.4571 10.4144 52.1588 10.4144C51.7389 10.4144 51.3081 10.5019 50.8661 10.6659C50.6231 10.7425 50.4132 10.7644 50.2364 10.7644C49.7834 10.7644 49.5735 10.5456 49.5514 10.3159C49.4962 9.90029 49.927 9.48467 50.7004 9.24404C51.3743 9.03623 51.9709 8.94873 52.5454 8.94873C53.1089 8.94873 53.6503 9.04717 54.1474 9.25498C54.3573 9.38623 54.4789 9.51748 54.5341 9.65967C55.197 9.50654 55.8488 9.41904 56.5117 9.41904C56.7327 9.41904 56.9426 9.42998 57.1746 9.45186C57.3845 9.57217 57.5834 9.69248 57.7933 9.82373H57.8043C57.8043 9.82373 57.8154 9.82373 57.8375 9.83467C57.8927 9.87842 57.959 9.91123 58.0032 9.93311C61.4613 12.1534 64.4332 15.019 66.7754 18.3659C67.1068 18.8581 67.4383 19.3612 67.7476 19.8644C68.0017 20.28 68.2558 20.7065 68.4989 21.155L68.5099 21.1659C68.7198 21.5487 68.9187 21.9534 69.1286 22.3472C69.217 22.5112 69.2943 22.6862 69.3717 22.8612C69.5043 23.1565 69.6368 23.4519 69.7584 23.7472H69.7694L69.9241 24.119L69.6589 24.0315C69.2722 23.8784 68.9077 23.8128 68.6425 23.8128C68.4215 23.8128 68.3442 23.8565 68.3332 23.8675C68.3332 23.8784 68.3332 23.955 68.4105 24.0862C68.521 24.1847 72.3878 28.0128 71.4045 31.305Z" fill="#136E91"/>
<path id="Vector_4" d="M67.1956 33.3609C67.1956 33.3609 69.339 33.4812 70.2339 32.9781C71.1509 32.464 68.3336 40.1093 67.1956 39.8359C67.1956 39.8359 65.2512 40.8312 65.5495 44.6812L65.5163 48.9687C65.5163 48.9687 63.7486 49.3406 63.4945 50.8609C63.4945 50.8609 63.8039 52.6218 63.4945 53.5624C63.0747 53.3109 62.6991 53.3109 62.445 53.814C62.445 53.814 60.9977 59.8734 56.2912 58.8781C56.8546 55.5312 56.0813 53.6609 54.1478 53.1031C54.1478 53.1031 53.4297 53.4312 53.485 54.1749C53.5623 54.9187 51.9272 53.1796 53.2861 52.414C53.2861 52.414 50.977 51.714 52.2034 50.7296C52.2034 50.7296 53.1314 51.2874 53.5071 51.2656C53.8716 51.2218 52.7558 49.2093 52.7558 49.2093C52.7558 49.2093 52.0819 49.3406 52.0819 49.7453C52.0819 50.1499 51.4632 48.7937 52.579 48.214C53.6728 47.6343 52.1702 47.3499 52.0377 47.6234C52.0377 47.6234 51.4963 47.7546 50.9328 48.1156C50.3694 48.4765 50.2147 45.8078 53.8054 46.4859C53.8054 46.4859 54.0484 41.5968 52.0045 40.7109C51.419 40.3281 51.4963 39.5515 52.1039 38.4687C52.1039 38.4687 48.0493 42.7999 46.2043 42.9312C46.2043 42.9312 44.4034 42.7562 45.4088 40.2953L46.381 37.3859L44.315 37.5062C44.315 37.5062 42.3043 35.614 41.9066 34.1156C41.9066 34.1156 40.4814 31.9062 41.3652 30.3531C41.3652 30.3531 40.4482 27.7062 42.3374 26.3828C42.3374 26.3828 45.2762 20.9906 47.5411 20.4984C47.5411 20.4984 49.1762 19.8312 46.6683 19.4921C45 18.6718 44.8233 17.7968 46.5799 16.8124C47.6074 17.4359 48.6128 17.4906 49.6071 16.8124C50.3252 16.4296 50.3804 16.0249 49.5187 15.5984C49.0215 15.3796 48.4691 15.4015 47.8725 15.5984C47.8725 15.5984 48.0383 14.5484 47.8173 14.1218C47.6184 13.7062 46.4363 14.3187 46.3368 14.3624C46.4142 14.0671 47.4748 10.7203 50.4799 14.1874C50.6456 14.9531 52.3028 14.3515 52.347 13.8046C52.3802 13.5968 52.4464 12.8968 52.4464 12.8968C52.7558 12.9406 53.0762 12.9515 53.2971 12.8203C53.717 12.7437 53.728 12.5796 53.3524 12.3171C52.5901 12.1859 51.8719 12.1531 51.2422 12.3171C50.1153 12.5687 50.049 11.3546 51.2753 11.1578C51.2753 11.1578 53.1646 10.9609 53.8164 10.5234C52.8552 10.0093 51.8388 9.96557 50.7782 10.3593C49.6071 10.7312 49.4966 9.93276 50.8113 9.51713C51.9493 9.17807 53.043 9.10151 54.0484 9.51713C54.3357 9.71401 54.3909 9.89994 54.1257 10.0749C55.3148 9.70529 56.5745 9.61541 57.8048 9.81244H57.8158C57.8158 9.81244 57.8269 9.81244 57.849 9.82338C57.9042 9.86713 57.9705 9.89994 58.0147 9.92182C61.4727 12.1421 64.4447 15.0078 66.7869 18.3546C67.1183 18.8468 67.4497 19.3499 67.7591 19.8531C68.0132 20.2687 68.2673 20.6953 68.5104 21.1437L68.5214 21.1546C68.7313 21.5374 68.9302 21.9421 69.1401 22.3359C69.2285 22.4999 69.3058 22.6749 69.3832 22.8499C69.5157 23.1453 69.6483 23.4406 69.7698 23.7359C68.5987 23.3093 67.7038 23.4515 68.1568 24.2281C68.1568 24.2281 72.0789 28.0562 71.1398 31.2062C70.0792 30.4515 68.9302 30.5062 67.6928 31.1078C65.1296 31.7312 65.892 32.5296 67.1956 33.3609Z" fill="#EEEEEF"/>
<path id="Vector_5" d="M61.0084 56.1985C61.373 55.8376 61.7155 55.4548 62.0248 55.061C61.3398 56.6907 59.76 59.3157 56.7549 58.9438C58.3016 58.3532 59.7489 57.4454 61.0084 56.1985ZM63.1296 53.3985C63.3285 53.0485 63.4942 52.6876 63.6489 52.3267C63.6489 52.7532 63.6157 53.2126 63.5053 53.5517C63.3924 53.4749 63.2644 53.4228 63.1296 53.3985Z" fill="#EEEEEF"/>
<path id="Vector_6" d="M39.5097 56.3296L39.0015 56.6358C38.7806 56.3296 38.5486 56.1655 38.3166 56.1655C38.0735 56.1655 37.7752 56.3405 37.4327 56.6577L36.9134 57.1608L36.9576 55.3124L36.3942 55.389C36.3058 56.253 35.897 59.0968 34.3282 59.6108L35.3336 59.7093L35.1568 60.0812C35.0795 60.2452 34.4497 61.5577 33.5106 61.8421L33.9636 62.7499L32.45 62.9468V62.9905H33.2455L33.2123 65.6265C33.0798 65.5937 32.9582 65.5499 32.8257 65.528H32.8146C30.6773 64.9408 28.6104 64.1267 26.6498 63.0999C26.5503 63.0452 26.4399 62.9796 26.3404 62.9249L26.2852 62.5421C25.9869 60.1687 25.3571 55.2687 24.0093 52.5999C23.8767 52.3921 21.9875 50.3468 20.8164 49.1218C19.8883 48.1702 19.5569 46.9452 19.8 45.3593C20.0099 44.703 20.3192 44.2218 20.7611 43.8499C20.7722 43.5108 20.6396 43.0624 19.7558 42.7999L19.3359 42.6687L20.3413 41.4218C20.5844 41.1155 21.424 40.0983 22.0648 40.0983C22.2305 40.0983 22.3742 40.153 22.4957 40.2733C22.6946 40.4812 22.7608 40.8202 22.7387 41.3671C22.7387 41.3562 22.7498 41.3562 22.7498 41.3343C22.9045 40.8749 22.9155 40.4374 22.7608 39.9999L22.6283 39.5952L23.0591 39.6062C23.4458 39.6171 26.8707 39.803 27.7325 41.2249C28.6605 41.3562 31.6656 41.8812 31.9639 43.1827L32.0854 45.3265C32.1628 45.6108 32.218 45.7968 32.2622 45.9171C32.3064 45.7968 32.3506 45.6218 32.4279 45.3593C32.4721 45.1952 32.4721 45.0312 32.4279 44.8124C32.3837 44.5499 32.4611 44.3421 32.6047 44.1562C32.8257 43.9046 33.2344 43.7515 33.6985 43.7515C34.4166 43.7515 34.9358 44.1124 35.0021 44.6265C35.0021 44.6265 35.0132 44.703 35.0353 44.7905C35.2783 44.6374 35.5103 44.5499 35.7534 44.5499C36.1732 44.5499 36.5489 44.8015 36.8913 45.2608C37.0571 45.4358 37.0902 45.6437 37.0129 45.8405C37.1455 46.0593 37.3001 46.1796 37.3996 46.1796C37.499 46.1796 37.731 46.0921 38.1066 45.5233L38.6149 44.7796L38.659 45.6655C38.6701 45.9718 38.7585 48.6296 37.6316 49.1437L37.6205 49.9749C37.8636 50.1937 38.3055 50.7296 38.0845 51.528C38.1398 52.6655 38.0735 53.4968 37.8636 53.9562C37.9188 53.9671 37.963 53.9671 38.0293 53.9671C38.416 53.9671 38.88 53.803 39.2446 53.6608L39.576 54.1312C39.0789 54.7218 39.0678 55.4218 39.5097 56.3296Z" fill="#136E91"/>
<path id="Vector_7" d="M39.2438 56.4612C38.6251 55.5972 37.9402 55.7612 37.222 56.4503L37.2662 54.9628L36.0951 55.1159C36.0951 55.1159 35.841 59.13 33.9849 59.3706L33.6977 59.83L34.8688 59.9612C34.8688 59.9612 34.0733 61.6894 33.0459 61.6019L33.4988 62.5097L32.1178 62.6847L32.151 63.2753H32.9243L32.8912 65.4956C32.8912 65.4956 32.858 65.4956 32.8028 65.5065H32.7917C30.6545 64.9193 28.5875 64.1052 26.6269 63.0784C26.3728 61.1862 25.7431 55.4222 24.2516 52.4362C24.1632 52.2394 21.0145 48.8815 21.0145 48.8815C20.1306 47.9956 19.8434 46.8253 20.0754 45.3706C20.2743 44.78 20.5836 44.2987 21.0145 43.9597C21.1029 43.2597 20.7272 42.7565 19.8213 42.4831L20.5505 41.5644C20.5505 41.5644 22.5612 38.9722 22.4065 41.3894C22.5281 42.0237 22.7159 41.98 22.9921 41.444C23.202 40.93 23.2351 40.4269 23.0473 39.9019C23.0473 39.9019 26.8921 40.055 27.5329 41.4878C27.5329 41.4878 31.3776 41.9909 31.6648 43.2378L31.7864 45.3378C32.0847 46.6284 32.4051 46.7925 32.7144 45.4144C32.7917 45.2175 32.7696 44.9878 32.7144 44.7362C32.615 43.8722 34.6147 43.8175 34.7031 44.6597C34.7141 44.7144 34.8246 45.3706 34.8246 45.3706C35.4654 44.6925 36.0841 44.6597 36.6475 45.4472C36.7691 45.5784 36.7801 45.7097 36.6475 45.8519C37.2331 46.869 37.7855 46.53 38.3489 45.6987C38.3489 45.6987 38.5036 48.7503 37.3215 48.9472L37.3104 50.1284C37.3104 50.1284 38.0285 50.6315 37.7855 51.4628C37.7855 51.4628 37.8849 54.0112 37.3546 54.1315C37.896 54.4378 38.5809 54.2628 39.3322 53.9675C38.7909 54.5909 38.7135 55.4112 39.2438 56.4612Z" fill="#EEEEEF"/>
<path id="Vector_8" d="M42.4695 11.1356C42.2596 10.8294 41.8398 10.6763 41.199 10.6763C40.0721 10.6763 38.4259 11.1356 37.5642 11.3872C37.3432 11.4419 37.1554 11.5075 37.1002 11.5185L34.9016 11.1138C34.7248 11.0591 34.526 11.0372 34.316 11.0372C32.8688 11.0372 30.8249 12.2622 30.7365 12.306L30.4492 12.481L30.6702 12.7435C31.1342 13.3013 31.775 13.9466 32.5263 13.9466C33.0013 13.9466 33.4433 13.706 33.8852 13.2356L33.9846 13.2794C34.3602 13.4106 34.8353 13.5747 35.2883 13.5747C35.5534 13.5747 35.8075 13.52 36.0064 13.3778C36.2274 13.4216 36.2605 13.4763 36.2605 13.4763C36.2716 13.4872 36.2605 13.6294 36.0837 13.8919C35.918 14.1106 35.4209 14.1872 35.0342 14.231L34.3602 14.3075L34.8574 14.756C35.0673 14.931 35.3325 15.1825 35.7744 15.1825H35.8517C36.5257 15.8935 37.2438 15.9919 37.6305 15.9919C37.8735 15.9919 38.0393 15.9591 38.0503 15.9481L38.1276 15.9372L38.1829 15.8825C38.448 15.5981 38.68 15.2591 38.6359 14.7997C38.7353 14.5372 38.9231 14.3841 39.1993 14.3294C39.6081 14.2419 39.9727 14.1763 40.3483 14.1763C40.7129 14.1763 41.0554 14.22 41.3758 14.3294L41.4973 14.3622L41.5967 14.3075C42.4916 13.8153 42.9777 13.2356 43.044 12.6013C43.044 12.5466 43.0551 12.5028 43.0551 12.4372C43.0882 11.6825 42.4916 11.1356 42.4695 11.1356ZM34.1282 12.2294C34.2498 12.131 34.4155 12.0763 34.6033 12.0763C34.7248 12.0763 34.8574 12.0872 35.0121 12.12C34.8353 12.295 34.5591 12.481 34.2166 12.6341L34.1835 12.5794C34.0619 12.3935 34.073 12.2841 34.1282 12.2294Z" fill="#136E91"/>
<path id="Vector_9" d="M37.0672 11.8141C37.0672 11.9125 41.5417 10.3047 42.2266 11.3C42.2266 11.3 43.8838 12.7438 41.4754 14.0563C40.7241 13.8485 39.9507 13.8594 39.1442 14.0563C38.7465 14.1438 38.5034 14.3735 38.3709 14.7016C38.3929 15.1938 38.2051 15.4563 37.9842 15.6969C37.9842 15.6969 36.9125 15.9813 35.9734 14.8985C35.5646 14.986 35.3216 14.7782 35.0785 14.5594C35.6199 14.5047 36.106 14.4063 36.338 14.0891C36.802 13.4328 36.559 13.1594 35.9513 13.0938C35.4983 13.4438 34.8244 13.2797 34.1063 13.0172C34.5924 12.8094 34.9901 12.5797 35.2553 12.2953C35.3989 12.186 35.421 12.0547 35.3326 11.9125C34.6808 11.7047 34.2168 11.7485 33.9185 12.011C33.7196 12.2735 33.7748 12.5141 33.9185 12.7547C32.7584 14.286 31.8083 13.6625 30.9023 12.5907C30.9023 12.5907 33.4876 11.0047 34.8134 11.4203L37.0672 11.8141Z" fill="#EEEEEF"/>
<path id="Vector_10" d="M31.7866 18.1909C31.3999 18.3987 31.0795 18.4534 30.737 18.4534C30.4055 18.4534 30.052 18.3987 29.6764 18.2784C28.9251 17.994 28.3396 17.5675 27.9308 16.9878C27.8313 17.3925 27.6767 17.7315 27.4999 18.0378C27.5993 18.0269 27.7098 18.005 27.8092 18.005C28.3948 18.005 28.9362 18.2019 29.4444 18.5956H29.599L29.7537 18.8581C29.809 19.1644 29.6211 19.2628 28.2843 19.7659C27.975 19.8862 27.6214 20.0175 27.3452 20.1378C27.7098 20.1925 28.1517 20.2362 28.5605 20.2362C28.9251 20.2362 29.0245 20.1925 29.0245 20.1925L29.5659 19.7331L29.5107 20.444C29.4223 21.9862 28.2512 22.9487 26.0416 23.2987L25.2019 23.1456C25.7101 24.0753 26.5498 24.7753 27.7761 25.2675C28.4942 25.7706 28.8367 26.2737 28.8588 26.8097C28.8699 27.4003 28.5274 27.98 27.7651 28.6034L27.6325 28.7237L27.4668 28.669C26.1189 28.1331 24.7931 27.1159 23.4121 25.53C23.158 25.4534 22.9039 25.4097 22.6498 25.4097C21.6444 25.4097 20.7164 26.0659 19.8325 27.4003C19.5895 27.8925 19.026 28.1987 18.3852 28.4394C18.8603 28.6362 19.2359 28.9753 19.3022 29.5112C19.3133 29.6097 19.3354 29.8503 19.8878 29.8503C20.3407 29.8503 20.849 29.6753 20.849 29.6753L21.0699 29.5987L21.1914 29.7737C21.324 29.9706 21.9869 30.9331 21.7438 31.5784C21.6886 31.7534 21.5339 31.9831 21.1804 32.0706C21.0478 32.1144 20.8821 32.1253 20.7053 32.1253C19.6116 32.1253 18.0096 31.4253 17.9544 31.4034C17.7886 31.3706 17.5677 31.3597 17.3688 31.3597C16.8606 31.3597 16.4297 31.4909 16.032 31.7862C16.032 31.7862 15.3691 32.3987 15.3691 33.1206C15.3691 33.2737 15.4022 33.4269 15.4685 33.5909C15.8884 34.4769 15.1702 35.3956 14.6399 35.9206C15.2365 36.1175 15.6895 36.5112 15.9546 37.1237C16.032 37.8237 15.9546 38.2175 15.7447 38.4581C15.6122 38.5894 15.4133 38.6769 15.2034 38.6769C14.9824 38.6769 14.7062 38.5894 14.3969 38.3925C14.2643 38.3159 14.1428 38.2394 14.0323 38.1409L13.8224 38.7644L13.5683 38.7206C13.5241 38.7097 12.4635 38.4362 12.6955 36.4675C12.5297 36.0409 11.889 34.2034 12.2867 33.2409C12.0215 32.9128 11.4802 32.1472 11.436 31.3487H11.3255C11.0603 31.3487 10.7068 31.2612 10.3975 30.8565C10.4306 30.7034 10.4417 30.5612 10.4748 30.4081V30.3972C11.8558 22.6753 16.1314 15.9815 22.1526 11.3987C22.241 11.3222 22.3515 11.2456 22.4399 11.1909C23.0033 11.3659 23.9535 11.7815 24.2407 12.5253C24.3954 12.93 24.3181 13.3565 24.0198 13.805L23.9645 13.8815L23.1691 14.2425C23.5999 14.4065 23.9756 14.6253 24.2628 14.9206C24.4175 15.0737 24.5611 15.2597 24.6937 15.544C25.2129 15.205 25.5665 14.7237 25.677 14.1112C25.677 13.5972 25.8316 13.1159 26.0968 12.8206L26.152 12.744L26.2515 12.7112C26.7265 12.6128 27.1795 12.5581 27.5662 12.5581C28.66 12.5581 29.5217 12.93 30.1956 13.6847C30.4166 13.9909 30.505 14.4065 30.4939 14.8987C30.6155 14.9972 30.7149 15.019 30.7812 15.019C30.9138 15.019 31.0684 14.9753 31.2342 14.855L31.3999 14.7565L31.5656 14.855C32.1622 15.2378 32.5047 15.719 32.582 16.2331C32.6704 16.8237 32.4163 17.48 31.7866 18.1909Z" fill="#136E91"/>
<path id="Vector_11" d="M31.5654 17.9938C31.0462 18.2344 30.4275 18.2016 29.7646 17.9938C28.7813 17.6219 28.1516 16.9875 27.787 16.1453C27.6544 17.1625 27.3229 18.0266 26.5717 18.6062C27.7428 18.0922 28.6045 18.3109 29.3226 18.9016C30.0297 18.8906 27.334 19.7328 26.5496 20.1594C26.2071 20.3562 28.8255 20.7391 29.168 20.4438C29.0906 21.7781 28.0742 22.6859 25.953 23.025L24.6714 22.7844C25.1686 24.1078 26.185 24.9937 27.6212 25.5734C28.9802 26.5359 28.6708 27.4656 27.5329 28.4062C26.1518 27.8703 24.8371 26.7875 23.5555 25.3C21.9978 24.7859 20.683 25.5516 19.5451 27.2578C19.2136 27.925 18.1641 28.2313 17.1035 28.5375C17.3244 28.5375 18.838 28.5813 18.9595 29.5547C19.0811 30.6047 20.904 29.9703 20.904 29.9703C20.904 29.9703 22.0309 31.5453 21.0587 31.8078C20.0864 32.0594 18.0205 31.1516 18.0205 31.1516C17.1808 30.9766 16.4295 31.0969 15.8108 31.5672C15.8108 31.5672 14.6397 32.6063 15.17 33.7328C15.6893 34.8484 13.9769 36.1063 13.9769 36.1063C14.8497 36.1938 15.3689 36.6094 15.6672 37.2656C15.7556 38.3156 15.4242 38.6875 14.5293 38.1734C14.2199 38.0094 14.01 37.7687 13.9769 37.4078L13.6123 38.4578C13.6123 38.4578 12.7395 38.2609 12.9936 36.4672C12.9936 36.4672 12.0545 34.05 12.629 33.2187C12.629 33.2187 11.5021 32.0156 11.7451 30.9656C11.7451 30.9656 10.9828 31.425 10.4746 30.4297V30.4187C11.8556 22.675 16.1312 15.9813 22.1524 11.3984C22.8153 11.5953 24.6714 12.2844 23.7544 13.6406L22.2298 14.3188C22.9589 14.4172 23.5887 14.6578 24.0306 15.1172C24.2074 15.2812 24.3731 15.5328 24.5388 15.9484C25.268 15.5875 25.7983 15.0187 25.9751 14.1547C25.9751 13.6516 26.0966 13.2469 26.3176 12.9953C27.7207 12.7 29.0133 12.7875 29.9855 13.8703C30.1844 14.1547 30.2396 14.5484 30.2065 15.0078C30.5158 15.3797 30.9246 15.4125 31.3997 15.0953C32.5266 15.8281 32.615 16.7797 31.5654 17.9938Z" fill="#EEEEEF"/>
<path id="Vector_12" d="M59.3281 57.8018L62.6249 54.5381L68.2417 60.0987L64.945 63.3625L59.3281 57.8018Z" fill="#BDBDBE"/>
<path id="Vector_13" d="M65.1078 56.9858L65.9474 57.8171C65.4944 58.4296 64.9752 59.0202 64.4228 59.5671C63.8593 60.1249 63.2738 60.628 62.6551 61.0765L61.8154 60.2452C62.4341 59.7968 63.0307 59.2827 63.5831 58.7358C64.1355 58.178 64.6437 57.5983 65.1078 56.9858Z" fill="#9B9BAA"/>
<path id="Vector_14" d="M63.572 36.4341C69.7921 42.5919 69.7921 52.5778 63.572 58.7356C57.3519 64.8935 47.265 64.8935 41.0449 58.7356C34.8249 52.5778 34.8249 42.5919 41.0449 36.4341C47.265 30.2763 57.3519 30.2872 63.572 36.4341Z" fill="#F8C22B"/>
<path id="Vector_15" d="M52.3141 59.7644C59.1053 59.7644 64.6106 54.3141 64.6106 47.5909C64.6106 40.8677 59.1053 35.4175 52.3141 35.4175C45.5229 35.4175 40.0176 40.8677 40.0176 47.5909C40.0176 54.3141 45.5229 59.7644 52.3141 59.7644Z" fill="#1D7699"/>
<path id="Vector_16" d="M64.4668 49.4285C64.0359 49.7128 63.6161 50.1831 63.5056 50.8613C63.5056 50.8613 63.6382 51.5722 63.6492 52.3269C63.4945 52.6878 63.3288 53.0488 63.1299 53.3988C62.8758 53.355 62.6328 53.4644 62.456 53.8144C62.456 53.8144 62.3345 54.3503 62.0251 55.0722C61.7158 55.4769 61.3733 55.8488 61.0087 56.2097C59.8011 57.4101 58.3519 58.3454 56.7552 58.955C56.6027 58.9393 56.4514 58.9137 56.3022 58.8785C56.8767 55.5316 56.0923 53.6722 54.1699 53.1035C54.1699 53.1035 53.4518 53.4206 53.5181 54.1753C53.5954 54.9191 51.9603 53.18 53.3192 52.4035C53.3192 52.4035 51.0102 51.7035 52.2365 50.7191C52.2365 50.7191 53.1756 51.2769 53.5402 51.2441C53.8937 51.2003 52.7889 49.1878 52.7889 49.1878C52.7889 49.1878 52.115 49.3191 52.115 49.7238C52.115 50.1285 51.5074 48.7831 52.6011 48.1925C53.7059 47.6128 52.1923 47.3394 52.0598 47.6019C52.0598 47.6019 51.5184 47.7331 50.9549 48.0831C50.3804 48.4441 50.2258 45.7753 53.8275 46.4644C53.8275 46.4644 54.0705 41.5753 52.0266 40.6785C51.4411 40.2956 51.5184 39.53 52.126 38.4472C51.883 38.6988 48.0162 42.7566 46.2374 42.8988C46.2374 42.8988 44.4476 42.7238 45.453 40.2738L46.4252 37.3644L45.5635 37.4191C47.9269 35.8792 50.7551 35.195 53.5696 35.4819C56.384 35.7689 59.0119 37.0096 61.0087 38.9941C63.8812 41.8269 65.0413 45.7316 64.4668 49.4285Z" fill="#C6C1C1"/>
<path id="Vector_17" d="M63.1302 53.3985C62.8209 53.9782 62.4452 54.5251 62.0254 55.061C62.3237 54.3392 62.4563 53.8032 62.4563 53.8032C62.633 53.4532 62.865 53.3548 63.1302 53.3985ZM64.467 49.4282C64.3234 50.4126 64.0472 51.386 63.6495 52.3267C63.6384 51.561 63.5058 50.861 63.5058 50.861C63.6163 50.1829 64.0251 49.7126 64.467 49.4282Z" fill="#41ACD8"/>
<path id="Vector_18" d="M61.0088 38.9828C61.2187 39.1906 61.4286 39.4094 61.6164 39.6281C56.7774 35.4828 49.4635 35.6797 44.8786 40.2297C42.6799 42.4039 41.3948 45.322 41.282 48.3965C41.1693 51.471 42.2373 54.4737 44.2709 56.8C44.0389 56.6141 43.829 56.4063 43.6191 56.1984C38.8132 51.4406 38.8132 43.7297 43.6191 38.9719C48.414 34.225 56.2029 34.225 61.0088 38.9828Z" fill="#136E91"/>
<path id="Vector_19" d="M61.616 39.6284C57.0752 35.7237 50.3248 35.6691 45.7178 39.4644L46.4249 37.3534L45.541 37.4081C50.3138 34.2909 56.799 34.8159 60.9973 38.9831C61.2293 39.1909 61.4282 39.3987 61.616 39.6284Z" fill="#136E91"/>
<path id="Vector_20" d="M79.8344 70.5375L75.4925 74.8359C75.2715 75.0547 74.8959 75.0547 74.6749 74.8359L63.3728 63.6469C63.1518 63.4281 63.1518 63.0563 63.3728 62.8375L67.7147 58.5391C67.9356 58.3203 68.3112 58.3203 68.5322 58.5391L79.8344 69.7281C80.0554 69.9469 80.0554 70.3187 79.8344 70.5375Z" fill="#D1395D"/>
<path id="Vector_21" d="M77.3711 67.3003L79.8237 69.7284C80.0558 69.9581 80.0558 70.319 79.8237 70.5378L75.4929 74.8253C75.2609 75.055 74.8963 75.055 74.6753 74.8253L72.2227 72.3972C72.4436 72.6159 72.8193 72.6269 73.0402 72.3972L77.3711 68.1097C77.6031 67.88 77.6031 67.519 77.3711 67.3003Z" fill="#A72A45"/>
</g>
<defs>
<filter id="filter0_d_1260_4801" x="0" y="0" width="90" height="90" filterUnits="userSpaceOnUse" color-interpolation-filters="sRGB">
<feFlood flood-opacity="0" result="BackgroundImageFix"/>
<feColorMatrix in="SourceAlpha" type="matrix" values="0 0 0 0 0 0 0 0 0 0 0 0 0 0 0 0 0 0 127 0" result="hardAlpha"/>
<feOffset dy="5"/>
<feGaussianBlur stdDeviation="5"/>
<feComposite in2="hardAlpha" operator="out"/>
<feColorMatrix type="matrix" values="0 0 0 0 0 0 0 0 0 0 0 0 0 0 0 0 0 0 0.25 0"/>
<feBlend mode="normal" in2="BackgroundImageFix" result="effect1_dropShadow_1260_4801"/>
<feBlend mode="normal" in="SourceGraphic" in2="effect1_dropShadow_1260_4801" result="shape"/>
</filter>
</defs>
</svg>
