<svg width="90" height="88" viewBox="0 0 90 88" fill="none" xmlns="http://www.w3.org/2000/svg">
<g id="Frame 532" filter="url(#filter0_d_1260_6282)">
<path id="Vector" d="M80 11.1318H10V73.9998H80V11.1318Z" fill="#5B7FA0"/>
<path id="Vector_2" d="M80 11.1318H10V22.679H80V11.1318Z" fill="#FF435B"/>
<path id="Vector_3" fill-rule="evenodd" clip-rule="evenodd" d="M15.185 6C14.8412 6 14.5115 6.13518 14.2683 6.37579C14.0252 6.6164 13.8887 6.94274 13.8887 7.28302V14.9811C13.8887 15.3214 14.0252 15.6477 14.2683 15.8884C14.5115 16.129 14.8412 16.2642 15.185 16.2642C15.5288 16.2642 15.8585 16.129 16.1016 15.8884C16.3447 15.6477 16.4813 15.3214 16.4813 14.9811V7.28302C16.4813 6.94274 16.3447 6.6164 16.1016 6.37579C15.8585 6.13518 15.5288 6 15.185 6ZM26.8516 6C26.5078 6 26.1781 6.13518 25.935 6.37579C25.6919 6.6164 25.5553 6.94274 25.5553 7.28302V14.9811C25.5553 15.3214 25.6919 15.6477 25.935 15.8884C26.1781 16.129 26.5078 16.2642 26.8516 16.2642C27.1954 16.2642 27.5252 16.129 27.7683 15.8884C28.0114 15.6477 28.1479 15.3214 28.1479 14.9811V7.28302C28.1479 6.94274 28.0114 6.6164 27.7683 6.37579C27.5252 6.13518 27.1954 6 26.8516 6ZM39.8146 6C39.4708 6 39.1411 6.13518 38.898 6.37579C38.6549 6.6164 38.5183 6.94274 38.5183 7.28302V14.9811C38.5183 15.3214 38.6549 15.6477 38.898 15.8884C39.1411 16.129 39.4708 16.2642 39.8146 16.2642C40.1584 16.2642 40.4881 16.129 40.7312 15.8884C40.9743 15.6477 41.1109 15.3214 41.1109 14.9811V7.28302C41.1109 6.94274 40.9743 6.6164 40.7312 6.37579C40.4881 6.13518 40.1584 6 39.8146 6ZM51.4813 6C51.1375 6 50.8077 6.13518 50.5646 6.37579C50.3215 6.6164 50.185 6.94274 50.185 7.28302V14.9811C50.185 15.3214 50.3215 15.6477 50.5646 15.8884C50.8077 16.129 51.1375 16.2642 51.4813 16.2642C51.8251 16.2642 52.1548 16.129 52.3979 15.8884C52.641 15.6477 52.7776 15.3214 52.7776 14.9811V7.28302C52.7776 6.94274 52.641 6.6164 52.3979 6.37579C52.1548 6.13518 51.8251 6 51.4813 6ZM63.1479 6C62.8041 6 62.4744 6.13518 62.2313 6.37579C61.9882 6.6164 61.8516 6.94274 61.8516 7.28302V14.9811C61.8516 15.3214 61.9882 15.6477 62.2313 15.8884C62.4744 16.129 62.8041 16.2642 63.1479 16.2642C63.4917 16.2642 63.8214 16.129 64.0645 15.8884C64.3077 15.6477 64.4442 15.3214 64.4442 14.9811V7.28302C64.4442 6.94274 64.3077 6.6164 64.0645 6.37579C63.8214 6.13518 63.4917 6 63.1479 6ZM74.8146 6C74.4708 6 74.1411 6.13518 73.898 6.37579C73.6549 6.6164 73.5183 6.94274 73.5183 7.28302V14.9811C73.5183 15.3214 73.6549 15.6477 73.898 15.8884C74.1411 16.129 74.4708 16.2642 74.8146 16.2642C75.1584 16.2642 75.4881 16.129 75.7312 15.8884C75.9743 15.6477 76.1109 15.3214 76.1109 14.9811V7.28302C76.1109 6.94274 75.9743 6.6164 75.7312 6.37579C75.4881 6.13518 75.1584 6 74.8146 6Z" fill="#5B7FA0"/>
<path id="Vector_4" fill-rule="evenodd" clip-rule="evenodd" d="M50.1848 48.9373C50.1848 50.2984 49.6385 51.6037 48.6661 52.5662C47.6937 53.5286 46.3748 54.0693 44.9996 54.0693C43.6244 54.0693 42.3056 53.5286 41.3332 52.5662C40.3607 51.6037 39.8145 50.2984 39.8145 48.9373C39.8145 47.5761 40.3607 46.2708 41.3332 45.3083C42.3056 44.3459 43.6244 43.8052 44.9996 43.8052C46.3748 43.8052 47.6937 44.3459 48.6661 45.3083C49.6385 46.2708 50.1848 47.5761 50.1848 48.9373Z" fill="#ABD6FD"/>
<path id="Vector_5" fill-rule="evenodd" clip-rule="evenodd" d="M44.9991 42.5205C41.4348 42.5205 38.5176 45.4078 38.5176 48.9356C38.5176 52.4634 41.4348 55.3507 44.9991 55.3507C48.5633 55.3507 51.4805 52.4634 51.4805 48.9356C51.4805 45.4078 48.5633 42.5205 44.9991 42.5205ZM44.9991 45.0865C47.1622 45.0865 48.8879 46.7946 48.8879 48.9356C48.8879 51.0766 47.1622 52.7847 44.9991 52.7847C42.8359 52.7847 41.1102 51.0766 41.1102 48.9356C41.1102 46.7946 42.8359 45.0865 44.9991 45.0865Z" fill="#D8ECFE"/>
<path id="Vector_6" fill-rule="evenodd" clip-rule="evenodd" d="M44.9994 27.125C44.6556 27.125 44.3259 27.2602 44.0828 27.5008C43.8397 27.7414 43.7031 28.0677 43.7031 28.408V43.8042C43.7031 44.1445 43.8397 44.4709 44.0828 44.7115C44.3259 44.9521 44.6556 45.0873 44.9994 45.0873C45.3432 45.0873 45.6729 44.9521 45.916 44.7115C46.1591 44.4709 46.2957 44.1445 46.2957 43.8042V28.408C46.2957 28.0677 46.1591 27.7414 45.916 27.5008C45.6729 27.2602 45.3432 27.125 44.9994 27.125Z" fill="#D8ECFE"/>
<path id="Vector_7" fill-rule="evenodd" clip-rule="evenodd" d="M41.1259 29.0069C40.9555 29.005 40.7864 29.0363 40.6283 29.0991C40.4701 29.1618 40.3261 29.2548 40.2043 29.3728C39.9585 29.6107 39.8183 29.9355 39.8145 30.2758C39.8107 30.616 39.9436 30.9438 40.184 31.1871L44.0729 35.1238C44.1936 35.2459 44.3378 35.343 44.4969 35.4092C44.656 35.4755 44.8269 35.5096 44.9995 35.5096C45.1722 35.5096 45.3431 35.4755 45.5022 35.4092C45.6613 35.343 45.8055 35.2459 45.9262 35.1238L49.8151 31.1871C50.0555 30.9438 50.1884 30.616 50.1846 30.2758C50.1808 29.9355 50.0406 29.6107 49.7948 29.3728C49.5491 29.1349 49.2179 29.0033 48.8741 29.0071C48.5304 29.0108 48.2022 29.1496 47.9618 29.3928L44.9996 32.3924L42.0373 29.3928C41.7972 29.1497 41.4693 29.011 41.1259 29.0069Z" fill="#D8ECFE"/>
<path id="Vector_8" fill-rule="evenodd" clip-rule="evenodd" d="M41.1259 35.422C40.9555 35.42 40.7864 35.4513 40.6283 35.5141C40.4701 35.5769 40.3261 35.6699 40.2043 35.7878C39.9585 36.0258 39.8183 36.3506 39.8145 36.6908C39.8107 37.031 39.9436 37.3588 40.184 37.6021L44.0729 41.5389C44.1936 41.661 44.3378 41.758 44.4969 41.8243C44.656 41.8905 44.8269 41.9246 44.9995 41.9246C45.1722 41.9246 45.3431 41.8905 45.5022 41.8243C45.6613 41.758 45.8055 41.661 45.9262 41.5389L49.8151 37.6021C50.0555 37.3588 50.1884 37.031 50.1846 36.6908C50.1808 36.3506 50.0406 36.0258 49.7948 35.7878C49.5491 35.5499 49.2179 35.4184 48.8741 35.4221C48.5304 35.4259 48.2022 35.5646 47.9618 35.8079L44.9996 38.8074L42.0373 35.8079C41.7972 35.5648 41.4693 35.426 41.1259 35.422ZM50.1847 47.6532C49.8409 47.6532 49.5112 47.7884 49.2681 48.029C49.025 48.2696 48.8884 48.596 48.8884 48.9363C48.8884 49.2765 49.025 49.6029 49.2681 49.8435C49.5112 50.0841 49.8409 50.2193 50.1847 50.2193H65.7403C66.0841 50.2193 66.4138 50.0841 66.6569 49.8435C66.9 49.6029 67.0366 49.2765 67.0366 48.9363C67.0366 48.596 66.9 48.2696 66.6569 48.029C66.4138 47.7884 66.0841 47.6532 65.7403 47.6532H50.1847Z" fill="#D8ECFE"/>
<path id="Vector_9" fill-rule="evenodd" clip-rule="evenodd" d="M63.854 43.8043C63.5108 43.801 63.1803 43.9326 62.935 44.1701L58.9575 48.0192C58.8337 48.1387 58.7353 48.2815 58.6682 48.4393C58.601 48.597 58.5664 48.7664 58.5664 48.9376C58.5664 49.1087 58.601 49.2782 58.6682 49.4359C58.7353 49.5936 58.8337 49.7365 58.9575 49.856L62.935 53.7051C63.1811 53.9426 63.5124 54.0737 63.8562 54.0695C64.2 54.0653 64.528 53.9261 64.768 53.6825C65.0081 53.4389 65.1405 53.1109 65.1362 52.7707C65.132 52.4305 64.9913 52.1058 64.7452 51.8682L61.7172 48.9363L64.7452 46.0069C64.9913 45.7693 65.132 45.4447 65.1362 45.1045C65.1405 44.7642 65.0081 44.4363 64.768 44.1927C64.649 44.0716 64.507 43.9749 64.3502 43.9082C64.1933 43.8416 64.0247 43.8063 63.854 43.8043Z" fill="#D8ECFE"/>
<path id="Vector_10" fill-rule="evenodd" clip-rule="evenodd" d="M57.3725 43.8043C57.0293 43.801 56.6988 43.9326 56.4534 44.1701L52.4759 48.0192C52.3521 48.1387 52.2538 48.2815 52.1866 48.4393C52.1195 48.597 52.0849 48.7664 52.0849 48.9376C52.0849 49.1087 52.1195 49.2782 52.1866 49.4359C52.2538 49.5936 52.3521 49.7365 52.4759 49.856L56.4534 53.7051C56.6995 53.9426 57.0309 54.0737 57.3747 54.0695C57.7184 54.0653 58.0464 53.9261 58.2865 53.6825C58.5265 53.4389 58.659 53.1109 58.6547 52.7707C58.6504 52.4305 58.5098 52.1058 58.2637 51.8682L55.2356 48.9363L58.2637 46.0069C58.5098 45.7693 58.6504 45.4447 58.6547 45.1045C58.659 44.7642 58.5265 44.4363 58.2865 44.1927C58.1675 44.0716 58.0255 43.9749 57.8686 43.9082C57.7118 43.8416 57.5432 43.8063 57.3725 43.8043ZM44.9994 52.7854C44.6556 52.7854 44.3259 52.9206 44.0828 53.1612C43.8397 53.4018 43.7031 53.7281 43.7031 54.0684V69.4646C43.7031 69.8049 43.8397 70.1313 44.0828 70.3719C44.3259 70.6125 44.6556 70.7477 44.9994 70.7477C45.3432 70.7477 45.6729 70.6125 45.916 70.3719C46.1591 70.1313 46.2957 69.8049 46.2957 69.4646V54.0684C46.2957 53.7281 46.1591 53.4018 45.916 53.1612C45.6729 52.9206 45.3432 52.7854 44.9994 52.7854Z" fill="#D8ECFE"/>
<path id="Vector_11" fill-rule="evenodd" clip-rule="evenodd" d="M44.9996 62.3652C44.8269 62.3653 44.656 62.3994 44.4969 62.4657C44.3378 62.5319 44.1936 62.629 44.0729 62.7511L40.184 66.6879C39.9436 66.9312 39.8107 67.259 39.8145 67.5992C39.8183 67.9394 39.9585 68.2642 40.2043 68.5022C40.45 68.7401 40.7812 68.8716 41.125 68.8679C41.4688 68.8641 41.7969 68.7254 42.0373 68.4821L44.9996 65.4826L47.9618 68.4821C48.2022 68.7254 48.5304 68.8641 48.8741 68.8679C49.2179 68.8716 49.5491 68.7401 49.7948 68.5022C50.0406 68.2642 50.1808 67.9394 50.1846 67.5992C50.1884 67.259 50.0555 66.9312 49.8151 66.6879L45.9262 62.7511C45.8055 62.629 45.6613 62.5319 45.5022 62.4657C45.3431 62.3994 45.1722 62.3653 44.9996 62.3652Z" fill="#D8ECFE"/>
<path id="Vector_12" fill-rule="evenodd" clip-rule="evenodd" d="M44.9996 55.9499C44.827 55.9499 44.6561 55.984 44.497 56.0503C44.3379 56.1166 44.1937 56.2136 44.073 56.3358L40.1841 60.2725C39.9437 60.5158 39.8108 60.8436 39.8146 61.1838C39.8184 61.5241 39.9586 61.8489 40.2044 62.0868C40.4501 62.3247 40.7813 62.4563 41.1251 62.4525C41.4688 62.4487 41.797 62.31 42.0374 62.0667L44.9996 59.0672L47.9619 62.0667C48.2023 62.31 48.5304 62.4487 48.8742 62.4525C49.218 62.4563 49.5492 62.3247 49.7949 62.0868C50.0407 61.8489 50.1809 61.5241 50.1847 61.1838C50.1885 60.8436 50.0556 60.5158 49.8152 60.2725L45.9263 56.3358C45.8056 56.2136 45.6614 56.1166 45.5023 56.0503C45.3432 55.984 45.1723 55.9499 44.9996 55.9499ZM24.3627 47.6528C24.0189 47.6528 23.6892 47.788 23.4461 48.0286C23.203 48.2692 23.0664 48.5956 23.0664 48.9359C23.0664 49.2761 23.203 49.6025 23.4461 49.8431C23.6892 50.0837 24.0189 50.2189 24.3627 50.2189H39.8145C40.1583 50.2189 40.488 50.0837 40.7311 49.8431C40.9742 49.6025 41.1108 49.2761 41.1108 48.9359C41.1108 48.5956 40.9742 48.2692 40.7311 48.0286C40.488 47.788 40.1583 47.6528 39.8145 47.6528H24.3627Z" fill="#D8ECFE"/>
<path id="Vector_13" fill-rule="evenodd" clip-rule="evenodd" d="M26.1456 43.8038C25.9749 43.8058 25.8063 43.8411 25.6495 43.9078C25.4926 43.9744 25.3506 44.0711 25.2316 44.1922C24.9916 44.4358 24.8591 44.7637 24.8634 45.104C24.8677 45.4442 25.0083 45.7689 25.2544 46.0065L28.2825 48.9358L25.2544 51.8677C25.0083 52.1053 24.8677 52.43 24.8634 52.7702C24.8591 53.1104 24.9916 53.4384 25.2316 53.682C25.4717 53.9256 25.7996 54.0648 26.1434 54.069C26.4872 54.0733 26.8185 53.9422 27.0647 53.7046L31.0422 49.8555C31.1659 49.736 31.2643 49.5931 31.3315 49.4354C31.3986 49.2777 31.4332 49.1083 31.4332 48.9371C31.4332 48.7659 31.3986 48.5965 31.3315 48.4388C31.2643 48.2811 31.1659 48.1382 31.0422 48.0187L27.0647 44.1696C26.8193 43.9321 26.4888 43.8005 26.1456 43.8038Z" fill="#D8ECFE"/>
<path id="Vector_14" fill-rule="evenodd" clip-rule="evenodd" d="M33.5464 44.1696C33.3003 43.932 32.9689 43.8009 32.6251 43.8052C32.2814 43.8094 31.9534 43.9486 31.7133 44.1922C31.4733 44.4358 31.3408 44.7637 31.3451 45.104C31.3494 45.4442 31.49 45.7688 31.7361 46.0064L34.7642 48.9358L31.7361 51.8677C31.49 52.1053 31.3494 52.43 31.3451 52.7702C31.3408 53.1104 31.4733 53.4384 31.7133 53.682C31.9534 53.9256 32.2814 54.0648 32.6251 54.069C32.9689 54.0732 33.3003 53.9421 33.5464 53.7046L37.5239 49.8555C37.6476 49.736 37.746 49.5931 37.8132 49.4354C37.8803 49.2777 37.9149 49.1083 37.9149 48.9371C37.9149 48.7659 37.8803 48.5965 37.8132 48.4388C37.746 48.281 37.6476 48.1382 37.5239 48.0187L33.5464 44.1696ZM55.3707 33.5396C55.0269 33.5396 54.6972 33.6748 54.4541 33.9154C54.211 34.156 54.0744 34.4824 54.0744 34.8226V38.6717C54.0745 39.012 54.2111 39.3383 54.4542 39.5789C54.6972 39.8195 55.0269 39.9547 55.3707 39.9547H59.2596C59.6034 39.9547 59.9331 39.8195 60.1762 39.5789C60.4193 39.3383 60.5559 39.012 60.5559 38.6717C60.5559 38.3314 60.4193 38.0051 60.1762 37.7645C59.9331 37.5238 59.6034 37.3887 59.2596 37.3887H56.667V34.8226C56.667 34.4824 56.5305 34.156 56.2874 33.9154C56.0443 33.6748 55.7145 33.5396 55.3707 33.5396ZM34.63 33.5396C34.2862 33.5396 33.9565 33.6748 33.7134 33.9154C33.4703 34.156 33.3337 34.4824 33.3337 34.8226V37.3887H30.7411C30.3973 37.3887 30.0676 37.5238 29.8245 37.7645C29.5814 38.0051 29.4448 38.3314 29.4448 38.6717C29.4448 39.012 29.5814 39.3383 29.8245 39.5789C30.0676 39.8195 30.3973 39.9547 30.7411 39.9547H34.63C34.9738 39.9547 35.3035 39.8195 35.5466 39.5789C35.7897 39.3383 35.9263 39.012 35.9263 38.6717V34.8226C35.9263 34.4824 35.7897 34.156 35.5466 33.9154C35.3035 33.6748 34.9738 33.5396 34.63 33.5396ZM55.3707 57.917C55.0269 57.917 54.6972 58.0522 54.4542 58.2928C54.2111 58.5334 54.0745 58.8597 54.0744 59.2V63.049C54.0744 63.3893 54.211 63.7157 54.4541 63.9563C54.6972 64.1969 55.0269 64.3321 55.3707 64.3321C55.7145 64.3321 56.0443 64.1969 56.2874 63.9563C56.5305 63.7157 56.667 63.3893 56.667 63.049V60.483H59.2596C59.6034 60.483 59.9331 60.3478 60.1762 60.1072C60.4193 59.8666 60.5559 59.5403 60.5559 59.2C60.5559 58.8597 60.4193 58.5334 60.1762 58.2928C59.9331 58.0521 59.6034 57.917 59.2596 57.917H55.3707ZM30.7411 57.917C30.3973 57.917 30.0676 58.0521 29.8245 58.2928C29.5814 58.5334 29.4448 58.8597 29.4448 59.2C29.4448 59.5403 29.5814 59.8666 29.8245 60.1072C30.0676 60.3478 30.3973 60.483 30.7411 60.483H33.3337V63.049C33.3337 63.3893 33.4703 63.7157 33.7134 63.9563C33.9565 64.1969 34.2862 64.3321 34.63 64.3321C34.9738 64.3321 35.3035 64.1969 35.5466 63.9563C35.7897 63.7157 35.9263 63.3893 35.9263 63.049V59.2C35.9263 58.8597 35.7897 58.5334 35.5466 58.2928C35.3035 58.0522 34.9738 57.917 34.63 57.917H30.7411ZM70.7831 32.9432C70.4393 32.9432 70.1095 33.0783 69.8664 33.3189C69.6233 33.5596 69.4868 33.8859 69.4868 34.2262C69.4868 34.5665 69.6233 34.8928 69.8664 35.1334C70.1095 35.374 70.4393 35.5092 70.7831 35.5092C71.1269 35.5092 71.4566 35.374 71.6997 35.1334C71.9428 34.8928 72.0793 34.5665 72.0793 34.2262C72.0793 33.8859 71.9428 33.5596 71.6997 33.3189C71.4566 33.0783 71.1269 32.9432 70.7831 32.9432ZM20.5563 30.9746C20.2125 30.9746 19.8828 31.1098 19.6397 31.3504C19.3965 31.591 19.26 31.9174 19.26 32.2576C19.26 32.5979 19.3965 32.9242 19.6397 33.1649C19.8828 33.4055 20.2125 33.5406 20.5563 33.5406C20.9001 33.5406 21.2298 33.4055 21.4729 33.1649C21.716 32.9242 21.8526 32.5979 21.8526 32.2576C21.8526 31.9174 21.716 31.591 21.4729 31.3504C21.2298 31.1098 20.9001 30.9746 20.5563 30.9746ZM16.4818 58.5595C16.138 58.5595 15.8083 58.6947 15.5652 58.9353C15.3221 59.1759 15.1855 59.5023 15.1855 59.8426C15.1855 60.1828 15.3221 60.5092 15.5652 60.7498C15.8083 60.9904 16.138 61.1256 16.4818 61.1256C16.8256 61.1256 17.1554 60.9904 17.3985 60.7498C17.6416 60.5092 17.7781 60.1828 17.7781 59.8426C17.7781 59.5023 17.6416 59.1759 17.3985 58.9353C17.1554 58.6947 16.8256 58.5595 16.4818 58.5595ZM63.8412 65.9431C63.4974 65.9431 63.1676 66.0783 62.9245 66.3189C62.6814 66.5595 62.5449 66.8859 62.5449 67.2261C62.5449 67.5664 62.6814 67.8928 62.9245 68.1334C63.1676 68.374 63.4974 68.5092 63.8412 68.5092C64.185 68.5092 64.5147 68.374 64.7578 68.1334C65.0009 67.8928 65.1375 67.5664 65.1375 67.2261C65.1375 66.8859 65.0009 66.5595 64.7578 66.3189C64.5147 66.0783 64.185 65.9431 63.8412 65.9431Z" fill="#D8ECFE"/>
</g>
<defs>
<filter id="filter0_d_1260_6282" x="0" y="0" width="90" height="88" filterUnits="userSpaceOnUse" color-interpolation-filters="sRGB">
<feFlood flood-opacity="0" result="BackgroundImageFix"/>
<feColorMatrix in="SourceAlpha" type="matrix" values="0 0 0 0 0 0 0 0 0 0 0 0 0 0 0 0 0 0 127 0" result="hardAlpha"/>
<feOffset dy="4"/>
<feGaussianBlur stdDeviation="5"/>
<feComposite in2="hardAlpha" operator="out"/>
<feColorMatrix type="matrix" values="0 0 0 0 0 0 0 0 0 0 0 0 0 0 0 0 0 0 0.25 0"/>
<feBlend mode="normal" in2="BackgroundImageFix" result="effect1_dropShadow_1260_6282"/>
<feBlend mode="normal" in="SourceGraphic" in2="effect1_dropShadow_1260_6282" result="shape"/>
</filter>
</defs>
</svg>
