<svg width="50" height="50" viewBox="0 0 50 50" fill="none" xmlns="http://www.w3.org/2000/svg">
<g id="Employee progress" clip-path="url(#clip0_493_3923)">
<path id="Vector" d="M46.0938 0.78125H3.90625C2.18036 0.78125 0.78125 2.18036 0.78125 3.90625V24.2188C0.78125 25.9446 2.18036 27.3438 3.90625 27.3438H46.0938C47.8196 27.3438 49.2188 25.9446 49.2188 24.2188V3.90625C49.2188 2.18036 47.8196 0.78125 46.0938 0.78125Z" fill="#D9D8DA"/>
<path id="Vector_2" d="M7.03125 16.4062H10.1562C10.5707 16.4062 10.9681 16.5709 11.2611 16.8639C11.5541 17.1569 11.7188 17.5543 11.7188 17.9688V27.3438H5.46875V17.9688C5.46875 17.5543 5.63337 17.1569 5.9264 16.8639C6.21942 16.5709 6.61685 16.4062 7.03125 16.4062ZM17.9688 13.2812H21.0938C21.5082 13.2812 21.9056 13.4459 22.1986 13.7389C22.4916 14.0319 22.6562 14.4293 22.6562 14.8438V27.3438H16.4062V14.8438C16.4062 14.4293 16.5709 14.0319 16.8639 13.7389C17.1569 13.4459 17.5543 13.2812 17.9688 13.2812ZM28.9062 8.59375H32.0312C32.4457 8.59375 32.8431 8.75837 33.1361 9.0514C33.4291 9.34442 33.5938 9.74185 33.5938 10.1562V27.3438H27.3438V10.1562C27.3438 9.74185 27.5084 9.34442 27.8014 9.0514C28.0944 8.75837 28.4918 8.59375 28.9062 8.59375ZM39.8438 5.46875H42.9688C43.3832 5.46875 43.7806 5.63337 44.0736 5.9264C44.3666 6.21942 44.5312 6.61685 44.5312 7.03125V27.3438H38.2812V7.03125C38.2812 6.61685 38.4459 6.21942 38.7389 5.9264C39.0319 5.63337 39.4293 5.46875 39.8438 5.46875Z" fill="#F59831"/>
<path id="Vector_3" d="M10.1562 44.5312H11.7188C12.5476 44.5312 13.3424 44.8605 13.9285 45.4465C14.5145 46.0326 14.8438 46.8274 14.8438 47.6562V49.2188H0.78125V47.6562C0.78125 46.8274 1.11049 46.0326 1.69654 45.4465C2.28259 44.8605 3.07745 44.5312 3.90625 44.5312H10.1562Z" fill="#82C8EC"/>
<path id="Vector_4" d="M10.1562 43.9062V44.5312C10.1562 44.9457 9.99163 45.3431 9.6986 45.6361C9.40558 45.9291 9.00815 46.0937 8.59375 46.0937H7.03125C6.61685 46.0937 6.21942 45.9291 5.9264 45.6361C5.63337 45.3431 5.46875 44.9457 5.46875 44.5312V43.9062H10.1562Z" fill="#FCC37A"/>
<path id="Vector_5" d="M12.5 39.8438C12.5 40.0156 12.4844 40.1719 12.4688 40.3437C12.3362 41.4857 11.7887 42.5392 10.9302 43.3038C10.0717 44.0684 8.96213 44.4909 7.8125 44.4909C6.66287 44.4909 5.55332 44.0684 4.69483 43.3038C3.83634 42.5392 3.28878 41.4857 3.15625 40.3437C3.14062 40.1719 3.125 40.0156 3.125 39.8438C3.125 38.6005 3.61886 37.4083 4.49794 36.5292C5.37701 35.6501 6.5693 35.1562 7.8125 35.1562C9.0557 35.1562 10.248 35.6501 11.1271 36.5292C12.0061 37.4083 12.5 38.6005 12.5 39.8438Z" fill="#FFD9AA"/>
<path id="Vector_6" d="M12.5 39.8438C12.5 40.0156 12.4844 40.1719 12.4688 40.3437C10.9897 40.9403 9.40716 41.2377 7.8125 41.2187C6.21784 41.2377 4.63525 40.9403 3.15625 40.3437C3.14062 40.1719 3.125 40.0156 3.125 39.8438C3.125 38.6005 3.61886 37.4083 4.49794 36.5292C5.37701 35.6501 6.5693 35.1563 7.8125 35.1562C9.0557 35.1563 10.248 35.6501 11.1271 36.5292C12.0061 37.4083 12.5 38.6005 12.5 39.8438Z" fill="#57565D"/>
<path id="Vector_7" d="M27.3438 44.5312H28.9062C29.7351 44.5312 30.5299 44.8605 31.116 45.4465C31.702 46.0326 32.0312 46.8274 32.0312 47.6562V49.2188H17.9688V47.6562C17.9688 46.8274 18.298 46.0326 18.884 45.4465C19.4701 44.8605 20.2649 44.5312 21.0938 44.5312H27.3438Z" fill="#FBDE53"/>
<path id="Vector_8" d="M27.3438 43.9062V44.5312C27.3438 44.9457 27.1791 45.3431 26.8861 45.6361C26.5931 45.9291 26.1957 46.0937 25.7812 46.0937H24.2188C23.8043 46.0937 23.4069 45.9291 23.1139 45.6361C22.8209 45.3431 22.6562 44.9457 22.6562 44.5312V43.9062H27.3438Z" fill="#FCC37A"/>
<path id="Vector_9" d="M29.6875 39.8438C29.6875 40.0156 29.6719 40.1719 29.6562 40.3437C29.5237 41.4857 28.9762 42.5392 28.1177 43.3038C27.2592 44.0684 26.1496 44.4909 25 44.4909C23.8504 44.4909 22.7408 44.0684 21.8823 43.3038C21.0238 42.5392 20.4763 41.4857 20.3438 40.3437C20.3281 40.1719 20.3125 40.0156 20.3125 39.8438C20.3125 38.6005 20.8064 37.4083 21.6854 36.5292C22.5645 35.6501 23.7568 35.1563 25 35.1562C26.2432 35.1563 27.4355 35.6501 28.3146 36.5292C29.1936 37.4083 29.6875 38.6005 29.6875 39.8438Z" fill="#FFD9AA"/>
<path id="Vector_10" d="M29.6875 39.8438C29.6875 40.0156 29.6719 40.1719 29.6562 40.3437C28.1772 40.9403 26.5947 41.2377 25 41.2187C23.4053 41.2377 21.8228 40.9403 20.3438 40.3437C20.3281 40.1719 20.3125 40.0156 20.3125 39.8438C20.3125 38.6005 20.8064 37.4083 21.6854 36.5292C22.5645 35.6501 23.7568 35.1563 25 35.1562C26.2432 35.1563 27.4355 35.6501 28.3146 36.5292C29.1936 37.4083 29.6875 38.6005 29.6875 39.8438Z" fill="#57565D"/>
<path id="Vector_11" d="M44.5312 44.5312H46.0938C46.9226 44.5312 47.7174 44.8605 48.3035 45.4465C48.8895 46.0326 49.2188 46.8274 49.2188 47.6562V49.2188H35.1562V47.6562C35.1562 46.8274 35.4855 46.0326 36.0715 45.4465C36.6576 44.8605 37.4524 44.5312 38.2812 44.5312H44.5312Z" fill="#55BB8C"/>
<path id="Vector_12" d="M44.5312 43.9062V44.5312C44.5312 44.9457 44.3666 45.3431 44.0736 45.6361C43.7806 45.9291 43.3832 46.0937 42.9688 46.0937H41.4062C40.9918 46.0937 40.5944 45.9291 40.3014 45.6361C40.0084 45.3431 39.8438 44.9457 39.8438 44.5312V43.9062H44.5312Z" fill="#FCC37A"/>
<path id="Vector_13" d="M46.875 39.8438C46.875 40.0156 46.8594 40.1719 46.8437 40.3437C46.7112 41.4857 46.1637 42.5392 45.3052 43.3038C44.4467 44.0684 43.3371 44.4909 42.1875 44.4909C41.0379 44.4909 39.9283 44.0684 39.0698 43.3038C38.2113 42.5392 37.6638 41.4857 37.5313 40.3437C37.5156 40.1719 37.5 40.0156 37.5 39.8438C37.5 38.6005 37.9939 37.4083 38.8729 36.5292C39.752 35.6501 40.9443 35.1563 42.1875 35.1562C43.4307 35.1563 44.623 35.6501 45.5021 36.5292C46.3811 37.4083 46.875 38.6005 46.875 39.8438Z" fill="#FFD9AA"/>
<path id="Vector_14" d="M46.875 39.8437C46.875 40.0156 46.8594 40.1719 46.8437 40.3437C43.8492 41.5104 40.5258 41.5104 37.5313 40.3437C37.5156 40.1719 37.5 40.0156 37.5 39.8437C37.5 38.6005 37.9939 37.4083 38.8729 36.5292C39.752 35.6501 40.9443 35.1563 42.1875 35.1562C43.4307 35.1563 44.623 35.6501 45.5021 36.5292C46.3811 37.4083 46.875 38.6005 46.875 39.8437Z" fill="#57565D"/>
</g>
<defs>
<clipPath id="clip0_493_3923">
<rect width="50" height="50" fill="white"/>
</clipPath>
</defs>
</svg>
