<svg width="50" height="50" viewBox="0 0 50 50" fill="none" xmlns="http://www.w3.org/2000/svg">
<g id="Invoice">
<path id="Vector" d="M29.3301 43.085V48.1621H2.24609V1.83789H28.4023V10.2559H36.4922V23.3242H29.3301V43.085Z" fill="#00EFD1"/>
<path id="Vector_2" d="M28.4023 1.83789L36.4922 10.2559H28.4023V1.83789Z" fill="#00ACEA"/>
<path id="Vector_3" d="M15.8535 7.43359C17.8191 7.43369 19.7404 8.01664 21.3747 9.10872C23.0089 10.2008 24.2826 11.753 25.0347 13.5689C25.7868 15.3849 25.9835 17.3831 25.6 19.3109C25.2164 21.2386 24.2698 23.0094 22.8799 24.3991C21.49 25.7889 19.7192 26.7353 17.7914 27.1187C15.8636 27.5021 13.8654 27.3052 12.0495 26.5529C10.2336 25.8006 8.68154 24.5268 7.58962 22.8924C6.4977 21.2581 5.91494 19.3366 5.91504 17.3711C5.91508 16.066 6.17218 14.7737 6.67166 13.568C7.17114 12.3623 7.90322 11.2667 8.8261 10.344C9.74897 9.42117 10.8446 8.6892 12.0503 8.18984C13.2561 7.69048 14.5484 7.4335 15.8535 7.43359ZM23.0547 17.3711C23.0545 15.9469 22.632 14.5547 21.8406 13.3706C21.0492 12.1865 19.9245 11.2637 18.6086 10.7188C17.2928 10.1739 15.8449 10.0314 14.448 10.3094C13.0512 10.5874 11.7682 11.2733 10.7612 12.2804C9.75417 13.2876 9.06842 14.5707 8.79064 15.9676C8.51286 17.3644 8.65553 18.8123 9.20059 20.1281C9.74566 21.4439 10.6687 22.5685 11.8529 23.3597C13.0371 24.1509 14.4293 24.5732 15.8535 24.5732C16.7993 24.5732 17.7358 24.3869 18.6095 24.025C19.4832 23.663 20.2771 23.1325 20.9458 22.4637C21.6145 21.7949 22.1449 21.0009 22.5068 20.1271C22.8686 19.2534 23.0548 18.3168 23.0547 17.3711Z" fill="#F4B844"/>
<path id="Vector_4" d="M15.8535 10.1699C17.2779 10.1698 18.6703 10.5921 19.8547 11.3834C21.0391 12.1747 21.9622 13.2994 22.5074 14.6154C23.0525 15.9314 23.1952 17.3794 22.9173 18.7764C22.6394 20.1735 21.9535 21.4567 20.9463 22.4639C19.9391 23.4711 18.6559 24.157 17.2589 24.4349C15.8618 24.7128 14.4138 24.5701 13.0978 24.025C11.7819 23.4798 10.6571 22.5567 9.86584 21.3723C9.07455 20.1879 8.65225 18.7955 8.65234 17.3711C8.65237 15.4612 9.41107 13.6296 10.7615 12.2791C12.112 10.9286 13.9437 10.1699 15.8535 10.1699ZM29.3379 43.8662H7.89648C7.68928 43.8662 7.49057 43.7839 7.34406 43.6374C7.19754 43.4909 7.11523 43.2922 7.11523 43.085C7.11523 42.8778 7.19754 42.6791 7.34406 42.5325C7.49057 42.386 7.68928 42.3037 7.89648 42.3037H29.3301C29.5373 42.3027 29.7364 42.384 29.8836 42.5298C30.0309 42.6756 30.1142 42.8739 30.1152 43.0811C30.1163 43.2883 30.035 43.4874 29.8892 43.6346C29.7434 43.7819 29.5451 43.8652 29.3379 43.8662ZM20.8262 39.8516H7.89648C7.68928 39.8516 7.49057 39.7693 7.34406 39.6227C7.19754 39.4762 7.11523 39.2775 7.11523 39.0703C7.11523 38.8631 7.19754 38.6644 7.34406 38.5179C7.49057 38.3714 7.68928 38.2891 7.89648 38.2891H20.8262C21.0334 38.2891 21.2321 38.3714 21.3786 38.5179C21.5251 38.6644 21.6074 38.8631 21.6074 39.0703C21.6074 39.2775 21.5251 39.4762 21.3786 39.6227C21.2321 39.7693 21.0334 39.8516 20.8262 39.8516Z" fill="#FEDB41"/>
<path id="Vector_5" d="M15.8535 16.5459C15.6326 16.546 15.4166 16.4806 15.2329 16.3579C15.0492 16.2352 14.906 16.0608 14.8214 15.8568C14.7368 15.6527 14.7147 15.4281 14.7578 15.2115C14.8008 14.9948 14.9072 14.7958 15.0634 14.6396C15.2196 14.4834 15.4186 14.377 15.6353 14.3339C15.852 14.2909 16.0765 14.313 16.2806 14.3976C16.4847 14.4822 16.6591 14.6254 16.7817 14.8091C16.9044 14.9928 16.9698 15.2088 16.9697 15.4297C16.9697 15.6369 17.052 15.8356 17.1985 15.9821C17.3451 16.1286 17.5438 16.2109 17.751 16.2109C17.9582 16.2109 18.1569 16.1286 18.3034 15.9821C18.4499 15.8356 18.5322 15.6369 18.5322 15.4297C18.5315 14.8153 18.32 14.2198 17.9331 13.7426C17.5461 13.2654 17.0072 12.9354 16.4062 12.8077V12.3047C16.4062 12.0975 16.3239 11.8988 16.1774 11.7523C16.0309 11.6057 15.8322 11.5234 15.625 11.5234C15.4178 11.5234 15.2191 11.6057 15.0726 11.7523C14.9261 11.8988 14.8438 12.0975 14.8438 12.3047V12.9483C14.2685 13.1826 13.7924 13.6094 13.4971 14.1559C13.2018 14.7023 13.1056 15.3344 13.2249 15.944C13.3442 16.5535 13.6716 17.1027 14.1511 17.4976C14.6306 17.8924 15.2324 18.1083 15.8535 18.1084C16.1439 18.1084 16.4229 18.2217 16.6312 18.4241C16.8394 18.6266 16.9604 18.9023 16.9686 19.1926C16.9768 19.4829 16.8714 19.765 16.6748 19.9788C16.4783 20.1926 16.2061 20.3214 15.9161 20.3377C15.8529 20.3212 15.7879 20.3127 15.7227 20.3125C15.6933 20.3126 15.6639 20.3144 15.6348 20.3178C15.3822 20.2668 15.155 20.1301 14.9915 19.931C14.828 19.7318 14.7383 19.4823 14.7376 19.2246C14.7376 19.0174 14.6553 18.8187 14.5088 18.6722C14.3623 18.5257 14.1635 18.4434 13.9563 18.4434C13.7491 18.4434 13.5504 18.5257 13.4039 18.6722C13.2574 18.8187 13.1751 19.0174 13.1751 19.2246C13.1766 19.7746 13.3468 20.3108 13.6626 20.761C13.9785 21.2112 14.4248 21.5537 14.9414 21.7423V22.168C14.9414 22.3752 15.0237 22.5739 15.1702 22.7204C15.3167 22.8669 15.5155 22.9492 15.7227 22.9492C15.9299 22.9492 16.1286 22.8669 16.2751 22.7204C16.4216 22.5739 16.5039 22.3752 16.5039 22.168V21.823C17.1381 21.6644 17.6924 21.2793 18.0623 20.7403C18.4322 20.2013 18.5923 19.5457 18.5123 18.8969C18.4324 18.248 18.1179 17.6509 17.6282 17.2178C17.1384 16.7848 16.5072 16.5458 15.8535 16.5459ZM15.4297 35.7422C15.2225 35.7422 15.0238 35.6599 14.8773 35.5134C14.7307 35.3669 14.6484 35.1681 14.6484 34.9609V29.3945C14.6484 29.1873 14.7307 28.9886 14.8773 28.8421C15.0238 28.6956 15.2225 28.6133 15.4297 28.6133C15.6369 28.6133 15.8356 28.6956 15.9821 28.8421C16.1286 28.9886 16.2109 29.1873 16.2109 29.3945V34.9609C16.2109 35.1681 16.1286 35.3669 15.9821 35.5134C15.8356 35.6599 15.6369 35.7422 15.4297 35.7422ZM18.75 33.3008C18.5428 33.3008 18.3441 33.2185 18.1976 33.072C18.0511 32.9254 17.9688 32.7267 17.9688 32.5195V29.3945C17.9688 29.1873 18.0511 28.9886 18.1976 28.8421C18.3441 28.6956 18.5428 28.6133 18.75 28.6133C18.9572 28.6133 19.1559 28.6956 19.3024 28.8421C19.4489 28.9886 19.5312 29.1873 19.5312 29.3945V32.5195C19.5312 32.7267 19.4489 32.9254 19.3024 33.072C19.1559 33.2185 18.9572 33.3008 18.75 33.3008ZM12.207 33.3008C11.9998 33.3008 11.8011 33.2185 11.6546 33.072C11.5081 32.9254 11.4258 32.7267 11.4258 32.5195V29.3945C11.4258 29.1873 11.5081 28.9886 11.6546 28.8421C11.8011 28.6956 11.9998 28.6133 12.207 28.6133C12.4142 28.6133 12.6129 28.6956 12.7595 28.8421C12.906 28.9886 12.9883 29.1873 12.9883 29.3945V32.5195C12.9883 32.7267 12.906 32.9254 12.7595 33.072C12.6129 33.2185 12.4142 33.3008 12.207 33.3008ZM29.3301 43.085V23.3242H47.7539V48.1621H29.3301V43.085Z" fill="#00ACEA"/>
<path id="Vector_6" d="M45.1738 25.8594H31.9102V28.7539H45.1738V25.8594Z" fill="#FEDB41"/>
<path id="Vector_7" d="M45.1494 37.3057H42.3643V45.627H45.1494V37.3057Z" fill="#00EFD1"/>
<path id="Vector_8" d="M45.1494 31.7979H42.3643V34.6465H45.1494V31.7979Z" fill="#00EFD1"/>
<path id="Vector_9" d="M39.9102 42.7783H37.125V45.627H39.9102V42.7783Z" fill="#00EFD1"/>
<path id="Vector_10" d="M39.9102 37.3057H37.125V40.1543H39.9102V37.3057Z" fill="#00EFD1"/>
<path id="Vector_11" d="M39.9102 31.7979H37.125V34.6465H39.9102V31.7979Z" fill="#00EFD1"/>
<path id="Vector_12" d="M34.6953 42.7783H31.9102V45.627H34.6953V42.7783Z" fill="#00EFD1"/>
<path id="Vector_13" d="M34.6953 37.3057H31.9102V40.1543H34.6953V37.3057Z" fill="#00EFD1"/>
<path id="Vector_14" d="M34.6953 31.7979H31.9102V34.6465H34.6953V31.7979Z" fill="#00EFD1"/>
</g>
</svg>
