<svg width="50" height="50" viewBox="0 0 50 50" fill="none" xmlns="http://www.w3.org/2000/svg">
<g id="Time" clip-path="url(#clip0_493_3990)">
<path id="Vector" opacity="0.3" d="M42.1292 41.2499C42.1292 41.2499 14.9378 41.8733 14.9378 10.0929C14.9378 10.0929 15.0628 2.69531 8.34082 2.69531V44.6874L12.2464 48.1874C12.2464 48.1874 16.3128 48.4374 17.1878 45.1874C18.0628 41.9374 18.1866 42.8124 18.1866 42.8124L42.1292 41.2499Z" fill="#485EFF"/>
<path id="Vector_2" d="M25.7037 37.0606C25.1858 37.0606 24.7662 36.641 24.7662 36.1231V34.6549C24.7662 34.137 25.1858 33.7174 25.7037 33.7174C26.2216 33.7174 26.6412 34.137 26.6412 34.6549V36.1231C26.6412 36.641 26.2216 37.0606 25.7037 37.0606ZM25.7037 13.3439C25.1858 13.3439 24.7662 12.9241 24.7662 12.4064V11.0303C24.7662 10.5125 25.1858 10.0928 25.7037 10.0928C26.2216 10.0928 26.6412 10.5125 26.6412 11.0303V12.4064C26.6412 12.9241 26.2216 13.3439 25.7037 13.3439ZM14.7833 24.4815C14.7833 24.4815 14.783 24.4815 14.7827 24.4815L13.183 24.4805C12.6652 24.4803 12.2457 24.0601 12.2461 23.5424C12.2463 23.0249 12.6661 22.6055 13.1836 22.6055C13.1836 22.6055 13.184 22.6055 13.1842 22.6055L14.784 22.6065C15.3017 22.6068 15.7212 23.0269 15.7208 23.5446C15.7205 24.0623 15.3007 24.4815 14.7833 24.4815ZM38.2765 24.4953C38.2762 24.4953 38.276 24.4953 38.2757 24.4953L36.8981 24.4943C36.3803 24.4939 35.961 24.0739 35.9613 23.556C35.9617 23.0385 36.3813 22.6193 36.8988 22.6193C36.8991 22.6193 36.8993 22.6193 36.8996 22.6193L38.2772 22.6203C38.795 22.6206 39.2143 23.0406 39.214 23.5585C39.2136 24.076 38.794 24.4953 38.2765 24.4953Z" fill="#5C77FF"/>
<path id="Vector_3" d="M37.3173 30.465C38.5211 28.4476 39.214 26.0919 39.214 23.5768C39.214 21.1396 38.564 18.8515 37.4285 16.8765C37.417 16.8515 37.4048 16.8266 37.3908 16.8023C37.3723 16.7699 37.3517 16.7394 37.3301 16.71C36.1857 14.7839 34.5757 13.1658 32.656 12.0118C32.6287 11.9913 32.6005 11.9719 32.5705 11.9541C32.5402 11.9361 32.5092 11.9205 32.4778 11.9063C30.492 10.7536 28.1868 10.0928 25.7301 10.0928C23.3515 10.0928 21.1152 10.7126 19.173 11.7983C19.1413 11.8119 19.11 11.8271 19.0792 11.8448C19.0506 11.8611 19.0232 11.8788 18.997 11.8976C16.9931 13.0574 15.3142 14.7181 14.1317 16.7073C14.1127 16.7329 14.0948 16.7596 14.0782 16.7878C14.0611 16.8165 14.0458 16.846 14.0322 16.8759C12.8963 18.8511 12.2461 21.1395 12.2461 23.577C12.2461 25.9344 12.8548 28.1519 13.9223 30.082C13.9361 30.114 13.9513 30.1456 13.9691 30.1766C13.981 30.1975 13.9951 30.2161 14.0083 30.2358C15.1428 32.2251 16.7687 33.8994 18.7201 35.0916C18.7472 35.1121 18.7756 35.1315 18.8056 35.1493C18.8287 35.1629 18.8528 35.1735 18.8766 35.185C20.8862 36.376 23.2295 37.0611 25.7301 37.0611C28.1482 37.0611 30.4193 36.4209 32.3837 35.3016C32.4072 35.2906 32.431 35.2805 32.454 35.2675C32.4855 35.2495 32.515 35.2296 32.5436 35.2088C34.4461 34.0901 36.0513 32.5184 37.21 30.6426C37.2317 30.614 37.2527 30.5848 37.2715 30.5531C37.2886 30.5239 37.3037 30.4946 37.3173 30.465ZM32.3143 33.1324L31.9957 32.5745C31.7388 32.1249 31.1662 31.9688 30.7167 32.2254C30.2671 32.4823 30.1107 33.0549 30.3676 33.5044L30.6911 34.0706C29.186 34.7851 27.5041 35.1856 25.7301 35.1856C23.8843 35.1856 22.1383 34.7519 20.5873 33.9823L21.0701 33.1683C21.3342 32.7229 21.1873 32.1478 20.742 31.8836C20.2967 31.6198 19.7213 31.7664 19.4575 32.2118L18.9803 33.0163C17.8502 32.2059 16.8708 31.198 16.0935 30.0433L16.7956 29.6425C17.2452 29.3859 17.4017 28.8133 17.1451 28.3636C16.8883 27.9138 16.3158 27.7571 15.8662 28.0141L15.1756 28.4083C14.4991 26.9364 14.1211 25.3 14.1211 23.5768C14.1211 21.7874 14.5283 20.0913 15.2546 18.5761L15.8523 18.9309C16.0025 19.0199 16.1672 19.0623 16.33 19.0623C16.6501 19.0623 16.9618 18.8983 17.1371 18.6031C17.4013 18.1579 17.2546 17.5826 16.8093 17.3184L16.1993 16.9564C17.0137 15.7876 18.0368 14.7749 19.2148 13.9731L19.5321 14.5288C19.7051 14.8318 20.0215 15.0016 20.3471 15.0016C20.5047 15.0016 20.6645 14.9619 20.811 14.8781C21.2607 14.6214 21.4171 14.0489 21.1603 13.5993L20.8451 13.0471C22.3308 12.3551 23.9858 11.9678 25.73 11.9678C27.5405 11.9678 29.2555 12.3846 30.7843 13.1271L30.581 13.4699C30.3168 13.9153 30.4636 14.4904 30.9088 14.7545C31.0588 14.8435 31.2237 14.8859 31.3863 14.8859C31.7065 14.8859 32.0183 14.7219 32.1935 14.4266L32.3992 14.08C33.5083 14.8613 34.4748 15.8318 35.252 16.944L34.8672 17.1638C34.4175 17.4205 34.2611 17.9931 34.518 18.4428C34.691 18.7458 35.0073 18.9155 35.333 18.9155C35.4906 18.9155 35.6503 18.8756 35.797 18.7919L36.1991 18.5623C36.9295 20.0809 37.339 21.7818 37.339 23.5766C37.339 25.4433 36.8955 27.208 36.1093 28.7723L35.684 28.5196C35.239 28.2555 34.6636 28.4021 34.3992 28.8471C34.135 29.2925 34.2816 29.8676 34.7267 30.1319L35.1347 30.3741C34.3581 31.4455 33.4036 32.3794 32.3143 33.1324Z" fill="#354B87"/>
<path id="Vector_4" d="M28.78 19.6493L25.9155 22.5137C25.8826 22.5466 25.8537 22.5817 25.8269 22.618C25.7835 22.4416 25.6889 22.2758 25.5436 22.1452C24.0202 20.7745 19.9842 17.1428 19.7732 16.9466C19.406 16.594 18.8226 16.5986 18.4609 16.9605C18.0949 17.3267 18.0951 17.9203 18.4615 18.2862C18.5116 18.3363 18.9726 18.755 24.2894 23.539C24.4686 23.7002 24.6927 23.7796 24.9161 23.7796C25.1726 23.7796 25.4282 23.675 25.6134 23.4692C25.6332 23.4472 25.6515 23.4242 25.6689 23.401C25.7082 23.5616 25.7897 23.7141 25.9152 23.8396C26.0984 24.0227 26.3382 24.1142 26.5782 24.1142C26.8181 24.1142 27.0581 24.0227 27.2411 23.8397L30.1056 20.9753C30.4719 20.6092 30.4719 20.0156 30.1057 19.6495C29.7396 19.2833 29.146 19.2833 28.78 19.6493Z" fill="#354B87"/>
<path id="Vector_5" d="M48.3398 41.2501H44.0038V6.15244C44.0038 3.40344 42.5272 2.08806 41.2883 1.46869C40.0281 0.838562 38.8068 0.820312 38.6717 0.820312H4.39444C4.36381 0.820312 4.33319 0.821938 4.30269 0.824938C4.28744 0.826438 4.27269 0.829188 4.25769 0.831438C4.24419 0.833438 4.23069 0.834688 4.21731 0.837188C4.21531 0.837563 4.21306 0.838063 4.21106 0.838563C4.20694 0.839313 4.20294 0.840313 4.19894 0.841188C3.01931 1.07544 0.820312 2.21781 0.820312 4.90206C0.820312 5.41981 1.24006 5.83956 1.75781 5.83956H7.71181C7.84419 6.47781 7.85131 6.97481 7.85156 7.03131V43.9454C7.85156 44.0806 7.86981 45.3018 8.49994 46.5621C9.11931 47.8008 10.4347 49.2776 13.1837 49.2776H43.9454C48.1631 49.2776 49.2774 44.6399 49.2774 42.1877C49.2773 41.6697 48.8577 41.2501 48.3398 41.2501ZM2.88394 3.96456C3.28181 3.07719 4.19444 2.77444 4.49206 2.69731C4.49994 2.69756 4.50806 2.69756 4.51594 2.69781C4.57769 2.69969 4.63794 2.70306 4.69694 2.70781C4.74119 2.71094 4.78381 2.71644 4.82694 2.72106C5.89844 2.84381 6.51994 3.41419 6.87331 3.96456H2.88394ZM9.72656 43.9454V7.03131C9.72656 5.85631 9.38256 4.05581 8.34044 2.69531H38.6674C39.0217 2.69869 42.1288 2.82456 42.1288 6.15231V41.2501H17.5781C17.0603 41.2501 16.6406 41.6697 16.6406 42.1876C16.6406 42.3368 16.6374 42.4813 16.6321 42.6222C16.6308 42.6554 16.6284 42.6873 16.6268 42.7202C16.6216 42.8306 16.6154 42.9394 16.6069 43.0447C16.6048 43.0709 16.6021 43.0964 16.5998 43.1224C16.5897 43.2357 16.5784 43.3471 16.5648 43.4543C16.5632 43.4671 16.5614 43.4793 16.5598 43.4921C16.4426 44.3842 16.2062 45.0733 15.9094 45.6048C15.9079 45.6074 15.9064 45.6101 15.9049 45.6127C15.8667 45.6809 15.8273 45.7458 15.7872 45.8089C15.7642 45.8446 15.7406 45.8793 15.7167 45.9139C15.6967 45.9432 15.6769 45.9731 15.6567 46.0012C15.4431 46.2931 15.1952 46.5442 14.9126 46.7529C14.1043 47.3501 13.2648 47.3989 13.1832 47.4022C13.1811 47.4022 13.1779 47.4023 13.1759 47.4024C9.85569 47.3977 9.72994 44.2951 9.72656 43.9454ZM46.8941 44.9863C46.3024 46.6122 45.3379 47.4024 43.9453 47.4024H16.9431C17.4543 46.7962 17.9002 45.9924 18.1854 44.9309C18.1878 44.9224 18.1902 44.9141 18.1924 44.9057C18.2088 44.8437 18.2246 44.7807 18.2399 44.7169C18.2466 44.6893 18.2531 44.6614 18.2596 44.6333C18.2731 44.5744 18.2864 44.5156 18.2991 44.4551C18.3069 44.4174 18.3141 44.3788 18.3216 44.3407C18.3387 44.2524 18.3549 44.1627 18.3699 44.0713C18.3789 44.0166 18.3881 43.9617 18.3963 43.9058C18.4032 43.8588 18.4096 43.8109 18.4159 43.7631C18.4239 43.7028 18.4314 43.6417 18.4386 43.5801C18.4437 43.5357 18.4489 43.4913 18.4534 43.4463C18.4626 43.3568 18.4708 43.2659 18.4779 43.1736C18.4792 43.1571 18.4811 43.1416 18.4823 43.1251H43.0664H47.3291C47.2624 43.6464 47.1356 44.3221 46.8941 44.9863Z" fill="#354B87"/>
<path id="Vector_6" d="M27.4492 23.5785C27.4482 24.5278 26.678 25.2964 25.7287 25.2954C24.7795 25.2944 24.0107 24.5242 24.0117 23.575C24.0127 22.6257 24.783 21.857 25.7321 21.8579C26.1875 21.8584 26.6237 22.0395 26.9457 22.3613C27.2686 22.6843 27.4495 23.1222 27.4492 23.5785Z" fill="#5C77FF"/>
</g>
<defs>
<clipPath id="clip0_493_3990">
<rect width="50" height="50" fill="white"/>
</clipPath>
</defs>
</svg>
