<svg width="50" height="50" viewBox="0 0 50 50" fill="none" xmlns="http://www.w3.org/2000/svg">
<g id="Time">
<path id="Vector" d="M17.793 26.5347V33.2306L25.0004 35.7968L26.8213 30.2185L25.0004 26.5347H17.793Z" fill="#F94850"/>
<path id="Vector_2" d="M32.2074 26.5347H25V35.7975L32.2074 33.2306V26.5347Z" fill="#D32C4D"/>
<path id="Vector_3" d="M25.0001 41.8775L10.5859 39.9248V33.2295H25.0001L28.1109 36.5768L25.0001 41.8775Z" fill="#0CE87E"/>
<path id="Vector_4" d="M39.4142 39.9257L25 41.8778V33.2305H39.4142V39.9257Z" fill="#EFEF03"/>
<path id="Vector_5" d="M17.7921 46.6217H3.37793V39.9258H17.7921L20.9029 43.2738L17.7921 46.6217Z" fill="#F7BD06"/>
<path id="Vector_6" d="M17.793 39.9258V46.6217H25.0004L26.5673 43.4224L25.0004 39.9258H17.793Z" fill="#0C6655"/>
<path id="Vector_7" d="M34.975 43.2738L32.2074 39.9258H25V46.6217H32.2074L34.975 43.2738Z" fill="#10F910"/>
<path id="Vector_8" d="M46.6212 39.9258H32.207V46.6217H46.6212V39.9258Z" fill="#D32C4D"/>
<path id="Vector_9" d="M15.3945 13.5795C15.3945 18.8761 19.7033 23.1849 24.9999 23.1849L27.2493 13.9829L24.9999 3.97412C19.7033 3.97412 15.3945 8.28291 15.3945 13.5795Z" fill="#1CF4DF"/>
<path id="Vector_10" d="M25 3.97412V23.1849C30.2966 23.1849 34.6054 18.8761 34.6054 13.5795C34.6054 8.28291 30.2966 3.97412 25 3.97412Z" fill="#06F7B8"/>
<path id="Vector_11" d="M17.3326 13.5798C17.3326 9.35207 20.7725 5.9122 25.0002 5.9122L26.6083 4.63382L25.0002 3.37842C19.3752 3.37842 14.7988 7.95409 14.7988 13.5798C14.7988 19.2054 19.3752 23.7804 25.0002 23.7804L26.5671 22.2859L25.0002 21.2467C20.7725 21.2467 17.3326 17.8068 17.3326 13.5798Z" fill="#062059"/>
<path id="Vector_12" d="M25 3.37842V5.9122C29.2277 5.9122 32.6676 9.35207 32.6676 13.5798C32.6676 17.8075 29.2277 21.2467 25 21.2467V23.7804C30.625 23.7804 35.2014 19.2048 35.2014 13.5791C35.2014 7.95342 30.625 3.37842 25 3.37842Z" fill="#072863"/>
<path id="Vector_13" d="M23.7334 8.3252V14.8549L25.0003 15.6063L25.682 11.9657L25.0003 8.3252H23.7334Z" fill="#7673F9"/>
<path id="Vector_14" d="M28.2162 14.5669L26.2669 13.4115V8.32568H25V15.6061L26.9243 16.7466L28.2162 14.5669Z" fill="#5D42B7"/>
</g>
</svg>
